<svg xmlns="http://www.w3.org/2000/svg" id="Layer_1" viewBox="0 0 1199.2 338.9"><defs><style>      .st0 {        fill: #f0504a;      }    </style></defs><path class="st0" d="M1199.2,228.3v18.9h-31.9c0-.1-13.3-52.1-13.3-52.1l-2.2-1.7-55.3,26.2-7.2,27.7h-34v-16.5l43.6-166.1c14.9,1.5,33.3-1.9,47.8.1s11.7,6.9,13.5,13.4l39,150ZM1106.3,184.5h44l-21.5-86.8-22.5,86.8Z"></path><path class="st0" d="M362.9,0l-187.8,271.2h85.9l-132.6,67.6c-1.6.1-2.4-1.4-3.3-2.4-6.9-7.1-28.6-35.6-32.8-44-6.8-13.5-6.5-30.1,1.4-43.1L265.6,3.1l1.3-3.1h95.9Z"></path><path class="st0" d="M191,0l-114.9,162.5h73.9l-113.4,57.8-3-1.9c-19-27.7-47.5-48.5-25.9-84.7L103.6,0h87.4Z"></path><path class="st0" d="M1042.3,116.7h-37c.7-7.9-2.2-15.3-10.7-16.7s-31.2-1.2-37.7-.2-11,6.5-10.6,12.4c2.2,28.5-2.7,60.8,0,88.8.5,5.4,3.1,9.8,8.5,11.5s33.6,1.7,39.8.7,10.7-5.6,10.7-10.2v-26.4h-32v-35.9h45c.1,0,.1,1.6,1,2.5,21,21.5,30.7,33.1,20.7,65.5-18.4,59.7-125.7,53.2-131.6-10.7-2.4-26.6,1.7-56.7,0-83.6,8.8-41.2,40.4-52.4,79.4-49.5,28.2,2.1,51.7,23.7,54.4,51.9Z"></path><path class="st0" d="M694.6,247.3h-32l-14-54.8-56.7,27.2-7.2,27.7h-34v-16.5l42.8-165.4,1.6-.6c14.4,1.7,33.1-2,46.9.1,4.2.7,9.5,4.8,11.4,8.6l41.1,155.4v18.4ZM601.7,184.5h44l-21.5-86.8-22.5,86.8Z"></path><path class="st0" d="M752.6,64.8v145.6h68.9v36.9h-85.4c-4.2-6.9-21.5-20.7-21.5-28.4V64.8h38Z"></path><path class="st0" d="M462.8,64.8v145.6h67.9v36.9h-84.4c-3.8-4.8-21.5-21.4-21.5-26.4V64.8h38Z"></path><rect class="st0" x="842.5" y="64.8" width="38" height="182.5"></rect></svg>