<svg xmlns="http://www.w3.org/2000/svg" id="Layer_1" viewBox="0 0 287.8 64.8"><defs><style>      .st0 {        fill: #f26f2e;      }      .st1 {        fill: #f9a51a;      }      .st2 {        fill: #fff;      }      .st3 {        fill: #ef4b23;      }    </style></defs><g><g><rect class="st2" x="83" y="41.2" width="6.8" height="12"></rect><path class="st2" d="M112.8,62.7h-7v-5.4h5.6c3.3,0,3.9-1.6,3.9-4.3v-6.5h-20.8v-12h6.7v6.6h20.6v14c0,6.2-3.3,7.6-8.9,7.6"></path><path class="st2" d="M148.7,62.7v-11.9c0-2.6-.7-4.2-4.1-4.2h-18.6v-5.4h20c5.9,0,9.4,1.5,9.4,7.7v13.9h-6.7ZM126,51.3h6.8v11.4h-6.8s0-11.4,0-11.4Z"></path><path class="st2" d="M43.9,62.7v-11.9c0-2.6-.7-4.2-4.1-4.2h-18.6v-5.4h20c5.9,0,9.4,1.5,9.4,7.7v13.9h-6.7ZM21.2,51.3h6.8v11.4h-6.8s0-11.4,0-11.4Z"></path><path class="st2" d="M73.4,62.7l-1.1-5.9h-5.5c-3.5,0-4.4,1.6-4.9,4.2l-.3,1.7h-6.7l.7-3.7c1.1-6.2,4.9-7.6,10.8-7.6h5v-.6c-.6-2.6-1.5-4.2-5-4.2h-9.3v-5.4h9.7c5.9,0,9.7,1.5,10.8,7.7l2.5,13.9h-6.8,0Z"></path></g><g><path class="st2" d="M27.8,30.2v-11.9c0-2.6-.6-4.2-4.1-4.2h-12.2v8.6c0,6.2-3.6,7.6-9.5,7.6H0v-5.4c3.6.3,4.7-.7,4.7-4.2v-6.4H0v-5.5h25.2c5.9,0,9.5,1.5,9.5,7.7v13.9h-6.8v-.2h-.1Z"></path><path class="st2" d="M57.8,30.2h-7.4v-5.4h5.9c3.5,0,4.1-1.6,4.1-4.3v-6.5h-22.7V2h6.8v6.6h22.7v14c0,6.2-3.5,7.6-9.4,7.6"></path><path class="st2" d="M94.3,30.2v-11.9c0-2.6-.7-4.2-4.1-4.2h-18.6v-5.4h20c5.9,0,9.4,1.5,9.4,7.7v13.9h-6.7ZM71.6,18.7h6.8v11.4h-6.8v-11.4Z"></path><path class="st2" d="M105.2,30.2v-5.4h9.5v-6.5c0-2.6-.6-4.2-4.1-4.2h-2.2v-5.4h3.6c5.9,0,9.5,1.5,9.5,7.7v13.9h-16.3Z"></path><path class="st2" d="M145.8,30.2h-6.7v-5.4h5.7c3.1,0,3.8-1.2,3.8-4.3v-2.3c0-2.6-.7-4.2-4.1-4.2h-8.8l-3,16.2h-6.9l3-16.2h-3v-5.4h20c5.9,0,9.5,1.5,9.5,7.7v6.3c0,6.2-3.6,7.6-9.5,7.6"></path></g></g><g><path class="st1" d="M216.3,60.6c2.9.4,1,0,.3,0-.9-.3-1.8-.7-2.7-1-1.7-.7-3.2-1.6-4.7-2.6-2.5-1.6-4.9-3.5-7.1-5.5-1.6-1.4-3-2.9-4.7-4.2-1.4-1.1-2.9-2-4.4-2.9-1.9-1.1-1.5-4.3-1.5-6.3-3.8-.4-7.7-.8-11.5-1.2,9.6,3.6,19.7,5.4,29.8,6.8,12.8,1.7,25.5,2.1,38.2,0,13.7-2.4,27.8-7.3,39.8-14.4-.1,0-4.1-1.1-4.4-1.2-1.6-.2-3.2-.4-4.7-.5-.7,0-2.1-.3-2.9,0-10.7,4.4-22,7.7-33.2,10-8.2,1.7-17.6,3.2-25.7,2.4-8.9-.9-17.6-3.1-26-6,.3,0,.5.3.8.4.2-1.9.5-3.8,1-5.7-3.5-.3-7-.6-10.5-.9,5.2,1.2,10.8,2.1,16.2,1.6,4.1-.4,7.8-2.1,11.5-3.8,6.3-3.1,13.2-6.7,20-6.1,2.2.2-1.4-.2.7.1-.7-.1,1.5.3,1.3.3,1.6.4,3.2.8,4.8,1.3,3,.9,6,2,8.9,3.2,3,1.2,6,2.6,8.9,4.1,2.1,1.1,5.2,1.2,7.5,1.4.4,0,4.9.2,4.4-.2-12.5-9.7-29.4-13.2-44.8-14.4-4.2-.3-8.7-.7-12.8.4-3.3.8-6.6,2-9.8,3.2-3.6,1.3-7.2,2.7-10.7,4-1.3.5-2.6,1-4,1.4-.4.1-.8.3-1.2.4-.3,0-1.3.2-.3.1,1.8.1,3.6.2,5.3.4h0c1.8.3,3.5.7,5.3,1-.2,0-.4-.1-.6-.2.3.1.5.3.8.4,3.2-9.1,10.5-17.6,18.9-22,.7-.3-3.8-1.2-4.2-1.3-2-.3-5.6-1.3-7.6-.5-9.6,3.5-18,11.7-21.8,21.1,4,.5,8.1.9,12.1,1.4-3-2.3-3.8-6.3-2.9-9.9.2-.6-5.7-1.4-6.1-1.4-.8,0-5.7-1.1-6.2-.2-1.1,1.9-1.8,4.1-1.9,6.3,0,1.9.7,3.6,2,4.9.6.7,2.1,1.1,1.8,2.3-.4,1.5-.7,3.1-.9,4.7,3.8.4,7.7.8,11.5,1.2-2.5-.9-5-1.9-7.3-3.1-1.2-.6-12.1-2-12.1-1.4.2,1.9,0,2.8,1.5,3.8,1.3.8,2.6,1.5,4,2.2,1.3.7,2.1.9,2.2,2.6,0,1.3.3,2.7.5,4,3.8.4,7.7.8,11.5,1.2-4.7-1.4-10.2-2.4-15.1-1.8-.7,0-1.4.4-1.9.9-.2.2.5,1.5.6,1.8.4.9,3.7,1.1,4.4,1.2,1.6.2,3.2.4,4.7.5.6,0,2.2.3,2.9,0,.1,0,.6,0,0,0-8.2-1.7-10.7-1.9-7.5-.6,1,.4,1.5,1.1,1.9,2.1.9,2.2,2.2,4.2,3.6,6.1,1.4,1.9,3.2,3.7,5.2,5,1.8,1.2,5.4,1.2,7.5,1.4.4,0,4.9.3,4.4-.2-3-2.6-4.9-6.7-6.2-10.3-4-.5-8.1-.9-12.1-1.4,5.8,4.2,10.1,10.1,16.6,13.3,7.2,3.5,15.9,4.5,23.8,4.8,8,.3,16.5-.8,24.1-3.7.6-.2-3.8-1.2-4.2-1.3-2.1-.3-5.5-1.3-7.6-.5-5.9,2-12.9,1.9-19,1.2-1.2,0-2.5-.2-3.7-.2,0,0-1.4,0-.7.4,2.1,1.1,5.2,1.1,7.5,1.4,6.7.7,13.6,1.1,20.3.4,2.5-.3,5.1-.6,7.4-1.4-3.9-.6-7.9-1.2-11.8-1.8-5.6,2.2-11.8,3.3-17.8,3.6h-2.4c-1.9,0,2.2.5.3,0-2.5-.6-4.9-1.8-7.1-3.1-5.1-3.1-9-8.2-13.9-11.8-1.4-1-4.3-1-5.9-1.2-.3,0-6.3-.4-6.2-.2,1.4,3.9,3.4,7.9,6.6,10.7,4,.4,7.9.8,11.9,1.2-3.8-2.5-6.6-6.6-8.4-10.7-.2-.4-.4-1.5-.8-1.7-.9-.5-1.8-1-2.8-1.3-1.8-.7-3.8-1.1-5.7-1.4-2.5-.4-5.1-.7-7.7-.7s-1.2,0-1.6.2c4,.6,8,1.1,12,1.7-.1-.2-.8-1.5-.7-1.7s.3-.3.5-.4c.2,0,.4-.2.6-.2,2.8-.6.5-.8-7-.9,1,.3,11.6,1.7,11.5,1.2-.4-1.9-.5-3.8-.6-5.7,0,0-.1,0-.2-.2-2.4-1-4.7-2.2-6.9-3.7-.7-.5-.5-1.8-.6-3.1-4-.5-8.1-.9-12.1-1.4,2.8,1.4,5.6,2.4,8.5,3.5,1,.4,11.3,2.2,11.5,1.2.2-1.9.6-3.8,1.2-5.6,0,0-.1-.1-.2-.2-4.8-2.6-4.5-8.3-2-12.5-4.1-.5-8.2-1-12.3-1.6-1.1,3.8,0,7.8,3.3,10.2,1.3,1,4.3,1,5.9,1.2.6,0,5.9,1,6.2.2,3.7-9.2,11.9-17.4,21.3-20.9-3.9-.6-7.9-1.2-11.8-1.8-8.8,4.7-16.1,13-19.4,22.3.2.2.5.4.8.4,3.5,1.1,7.6,1.7,11.3,1.6.7,0,1.4-.2,2-.4,2.7-.9,5.3-1.9,8-2.9,6.1-2.3,12.2-5,18.6-6.3,2.5-.5,6.2-.1,9,.5,4.3,1,8.5,2.5,12.5,4.3,3.9,1.8,7.8,3.8,11.2,6.5,4,.4,7.9.8,11.9,1.2-9.3-5.1-19.8-8.6-30.2-10.5-8.4-1.5-17.7-2.8-26.1-.7-4.2,1-8.1,3.3-11.9,5.2-1.9.9-3.8,1.8-5.7,2.5-.9.4-1.9.6-2.9.9-.5.1-1,.2-1.4.3-2.4.5-3.5-.8,3,.7-1-.2-10.3-2.1-10.5-.9-.5,1.9-.8,3.7-1,5.7.2.2.5.4.8.4,21.5,7.3,45.2,11,67.8,7.4,13.5-2.1,27-6,39.6-11.2-4-.6-8-1.1-12-1.7-10.1,6-21.8,10.1-33.2,12.9-17.3,4.2-35,3.5-51.7-2.8-1-.4-11.5-2-11.5-1.2,0,1.7-.4,5.4,1.3,6.3,1.8,1,3.6,2.2,5.2,3.5,2.1,1.7,4,3.7,6.1,5.5,7.2,6.1,15,9,24.3,10.2.4,0,6.1.9,6.2.2,0-.7-5.6-1.3-6.1-1.4"></path><path class="st2" d="M216.3,61.2c-12.6-1.5-21.4-12.2-25-14.8-2.1-1.5-3.9-2.6-5.4-3.4-.3-1.8-.5-3.7-.5-5.8,6.8,2.6,17.3,5.4,32.7,6.7,32.7,2.8,63.7-15.6,63.7-15.6,0,0-35.9,14.8-62.3,12.4-14.2-1.3-26-4.5-33.9-7.2.1-1.2.3-2.5.5-3.8.1-.6.3-1.2.4-1.8.9.2,1.9.4,3,.5,9.2,1,18.2-7.2,27-9.2,18.2-4.2,43.8,9.8,43.8,9.8,0,0-18.2-14.1-43.3-13-5,.2-28.1,10-29.2,9.7-.2,0-.4-.1-.6-.2,5-14.7,19.2-22.2,19.2-22.2,0,0-15.5,5.7-21.6,21-5-3.4-3.1-10.1-3.1-10.1,0,0-5.4,8.9,2.2,12.7-.4,1.4-.8,2.9-1,4.5,0,.4-.1.8-.1,1.1-5.1-1.9-7.9-3.3-7.9-3.3l.3,2.9s2.2,1.8,7.4,4c0,2.1.2,4,.6,5.7-4.4-1.5-5.7.4-5.7.4l.7,1.7s1.5-.9,6,1.6c3,8.3,9.2,12.4,9.2,12.4,0,0-4-3.5-6.4-10.5,2.4,1.7,5.5,4.3,9.2,8.1,15.6,15.6,43.5,4.8,43.5,4.8,0,0-8.2,2.9-23.4,1.1"></path><path class="st0" d="M183.2,32.7c4.2,1.4,10,3,18.1,4.2,30.6,4.8,50.8-4.5,50.8-4.5,0,0-29.5,5.6-50.4,2-7.6-1.3-13.7-3.1-18.2-4.9.2-1.6.6-3.2,1-4.8.2,0,.3,0,.5.1,9.5,2.2,21.8-7.5,31.2-9.1,22.2-3.8,45.3,8.4,45.3,8.4,0,0-13.3-13.9-43.3-11.8-12.7.9-26.2,11.4-32.3,10.1-.2,0-.4-.1-.7-.2,0-.3.2-.5.3-.8C192.7,3.4,202.5.7,202.5.7c0,0-14.9,3.5-20.4,20-4.3-3.3-2.1-9.8-2.1-9.8,0,0-5.6,8.5,1.3,12.4-.3,1.2-.6,2.4-.8,3.8,0,.3,0,.7-.1,1-4.4-1.9-6.6-3.3-6.6-3.3l-.3,2.9s1.7,1.6,6.6,3.6c-.1,2.1-.1,4.1,0,5.9-2.8,0-4.8.6-4.8.6l.4,1.6s1.6-.7,4.6,0c1.7,12.4,8.8,18.4,8.8,18.4,0,0-4.3-7.2-5.7-17,.4.2.9.5,1.4.8,5.8,3.8,13.4,13.2,24.6,15.6,22.7,4.9,39.5-6.5,39.5-6.5,0,0-20.2,9.7-38.2,3.6-12.7-4.3-18.3-11.7-22.9-14.8-1.6-1.1-3.2-1.7-4.8-2.1-.1-1.7-.1-3.4,0-5.2"></path><path class="st3" d="M183.2,33.7c14.9,5.1,31.4,6.7,47.1,5,7.3-.8,15.1-2.2,21.8-5.2.2,0,0-2,.1-2.1-22.6,4.3-46.7,5.3-68.6-2.8,0,.7,0,1.4-.1,2.1.2-1.1.4-2.1.6-3.2.3-1.4.1-1.6,1.5-1.4,1.6.3,3.4.2,5,0,4-.5,7.8-2.2,11.4-3.8,3.7-1.6,7.3-3.4,11.2-4.6,4.1-1.3,8.7-1.5,13-1.5,12,.1,24.7,3.5,35.4,9.1-.3-.1.4-1.8.1-2.1-6.2-6.4-16.3-9.5-24.7-11-9.6-1.7-19.7-1.6-28.9,1.6-4.4,1.5-8.5,3.6-12.8,5.5-3,1.3-6.5,2.9-9.9,2.1,0,.7,0,1.4-.1,2.1,2.4-6.6,6.1-13,11.3-17.7,1.7-1.5,3.8-3.1,6-3.8.2,0,0-2,.1-2.1-4.5,1.1-8.7,3.9-12.1,7-3.5,3.2-6,7.3-7.8,11.6-.2.5-.3.9-.5,1.4,0,0-1.2-1.3-1.3-1.4-.7-.9-1-2.1-1.2-3.2-.2-1.2,0-1.9.3-3.1.2-.6-.2-1.6.1-2.1-2.8,4.3-3.7,11.4,1.2,14.4,0-.7,0-1.4.1-2.1-.3,1.2-.5,2.5-.8,3.8-.2,1.5-2.3,0-3.2-.4-1.2-.6-2.4-1.2-3.6-1.9h0c-.2,1.6-.3,3.1-.4,4.7,0,1.3,5.8,3.4,6.6,3.7v-.5c-.1,2.1-.1,4.3,0,6.4,0-.7,0-1.4.1-2.1-1.6,0-3.2,0-4.8.6,0,0-.2,1.9-.1,2.1,0,.2.4,1.7.5,1.6,1.2-.5,2.5-.3,3.7,0,1.2.2.9.8,1.1,1.9.2,1,.4,2.1.7,3.1.5,1.8,1.1,3.5,1.9,5.2,1.4,3,3.4,6.3,6,8.4-.3-.3.3-1.7.1-2.1-3-5.1-4.8-11.2-5.7-17,0,.7,0,1.4-.1,2.1,5.6,3.2,9.9,8.2,15.3,11.8,6.9,4.6,14.9,6,23.1,5.9,9.1,0,19.4-2.6,27.1-7.8.3-.2-.2-1.9.1-2.1-9.8,4.7-21.8,6.7-32.6,5-7.7-1.2-14.8-5-20.8-9.8-2-1.6-3.9-3.3-5.8-5-1.1-.9-2.2-1.7-3.5-2.4-1-.5-2.1-.9-3.2-1.1-.4,0,0-4.8,0-5s0,1.4-.1,1.8v4.5c0,1.3,1.3,1.2,2.4,1.6,1,.4,1.9.9,2.7,1.5,2,1.4,3.8,3.2,5.7,4.8,5.9,5,12.6,8.9,20.1,10.7,11.3,2.8,24.6.4,35-4.5,0-.7,0-1.4.1-2.1-7.5,5.1-17.4,7.4-26.3,7.8-8.2.3-16.2-1.2-23.2-5.5-5.7-3.5-10.1-8.8-15.9-12.2.2,0-.2,1.8-.1,2.1.9,5.9,2.7,11.9,5.7,17,0-.7,0-1.4.1-2.1-2.6-2.2-4.5-5.4-6-8.4-.7-1.4-1.2-2.9-1.7-4.5-.3-1-.5-2-.8-3-.3-1.2,0-2.3-1.3-2.7-1.1-.3-2.4-.3-3.6,0-.4,0-.5-1.2-.6-1.6,0,.7,0,1.4-.1,2.1,1.5-.5,3.2-.6,4.8-.6s.1-1.9.1-2.1c-.1-1.8-.1-3.6,0-5.4v-.5c-2.2-.9-4.8-1.9-6.6-3.6,0,.7,0,1.3-.1,2,0-.5,0-3,.6-2.7,2,1.2,4.2,2.2,6.4,3.2h0c.2-1.6.5-3.2.9-4.7,0-.2.3-2,.1-2.1-4.3-2.6-3.9-6.5-1.4-10.3,0-.7,0-1.4.1-2.1-.7,2.1-.8,4.6-.6,6.7,0,1.1.4,2.2,1,3.2s.7,1,1.1,1.4c.9.9,1-.9,1.3-1.7,1.1-2.7,2.6-5.2,4.3-7.5,3.6-4.8,9.3-9,15.2-10.4,0-.7,0-1.4.1-2.1-2.2.7-4.3,2.3-6,3.8-5.3,4.6-8.9,11.2-11.3,17.7,0,.2-.2,2-.1,2.1,3.2.8,6.4-.7,9.3-1.9,4.2-1.8,8.3-3.8,12.6-5.4,9.4-3.6,19.8-3.5,29.6-1.9,8.4,1.4,18.6,4.6,24.7,11,0-.7,0-1.4.1-2.1-10.5-5.5-22.8-8.6-34.6-9.1-4.4-.2-9,.1-13.2,1.3-3.9,1-7.5,2.9-11.1,4.5-3.7,1.7-7.4,3.2-11.4,4-1.7.3-3.4.4-5,.2-1.1-.1-1.6-.8-1.9.5-.4,1.3-.6,2.6-.8,4,0,.2-.2,2-.1,2.1,21.8,8.1,46,7.1,68.6,2.8,0-.7,0-1.4.1-2.1-6.5,3-14.1,4.3-21.1,5.2-15.8,1.9-32.6.2-47.7-4.9.2,0-.3,2-.1,2.1"></path></g></svg>