<svg xmlns="http://www.w3.org/2000/svg" id="Layer_1" viewBox="0 0 351.8 123.9"><defs><style>      .st0 {        fill: #fff;      }      .st1 {        fill: #e30613;      }    </style></defs><path id="path1" class="st0" d="M241.3,47.2c-.1,1.3.2,1.9,1.6,1.9h4.5c3,0,3.9-.4,5.1-.9l-1.8,4.5h-14.2c-4.2,0-5.1-2.2-4.4-5.7.6-2.8.8-3.9,1.7-6.9,1-3.6,3.1-5.7,7.3-5.7h14.3l-.3,4.6c-.5-.7-1.9-1-4.1-1h-5.3c-1.5,0-2,.5-2.6,1.9-.7,1.7-1.6,5.3-1.8,7.4M188.2,49c-.9,0-1.2-.4-.9-1.4l2.1-8.3c.3-1,.7-1.4,1.6-1.4h1.4s1.5,0,1.5,0c1.5,0,1.8.6,1.6,1.9-.2,2.1-1.1,5.7-1.8,7.4-.6,1.4-1.1,1.9-2.6,1.9h-2.9ZM180.6,34.3c.2.7.4,1.6,0,3.4l-5.4,21.8h10c-.2-.7-.4-1.6,0-3.4l1.3-5.3h0c0,.7.3,1.8,1.9,1.8h7.2c4.2,0,6.4-2.3,7.2-5.7l1.7-6.9c.8-3.4-.1-5.7-4.4-5.7h-7.8c-1.3,0-1.9.6-2.9,1.9v-1.9h-9ZM222.9,39.4c.3-1.1,0-1.5-1-1.5h-3.1c-1.5,0-2,.5-2.6,1.9-.2.5-.5,1.3-.7,2.1h6.7s.6-2.5.6-2.5M228,34.3c4,0,4.7,1.8,3.8,5.5l-1.4,5.6h-15.7c-.1.6-.2,1.2-.3,1.7-.1,1,0,1.6,1,1.8.2,0,.5,0,.8,0h8.8c1.8,0,2.7-.1,4.4-.8l-1.8,4.4h-18.3,0c-3.9-.1-4.8-2.3-4.1-5.7.6-2.8.8-3.9,1.7-6.9,1-3.4,3-5.6,7-5.7h0s14.1,0,14.1,0h0M261.1,27.7l-1.2,4.8h9.1l1.2-4.8h-9.1ZM255.9,48.4c-.6,2.5-1.3,3.3-2.1,4.2h11.2c-.3-.9-.6-1.7,0-4.2l3.5-14.1h-10.2c.3.9.6,1.7,0,4.2l-2.5,9.9h0ZM284.7,43.8c.2,0,.3-.1.3-.1v.4c0,0-.7,2.3-.7,2.3-.6,2.3-1.2,2.6-2.6,2.6h-2.1c-1.4,0-1.7-.4-1.6-1.7.1-1.2.5-2,.5-2,.5-1.5,1-1.5,2.4-1.5h3.8M273.6,34.3l-1.7,4.4c1.2-.5,2.1-.8,3.9-.8h9.2c.8,0,1.5.2,1.3,1.2-.2.9-.6,1.2-1.9,1.2h-8.4c-4.1,0-5.7,2-6.8,5.8l-.3,1.1c-.8,3.9,0,5.5,4,5.5h6.5c2.5,0,3.4-.4,4.3-2v-.2s0,2.3,0,2.3h9.2c-.4-.7-.5-1.6,0-3.4l2-8c1.3-5.2-.5-6.9-4.4-6.9h-16.8,0ZM297.1,48.4c-.6,2.5-1.3,3.3-2.1,4.2h11.2c-.3-.9-.6-1.7,0-4.2l5.2-20.8h-10.2c.3.9.6,1.7,0,4.2l-4.1,16.5h0ZM150,52.8h17.4c3.4,0,6.8-1.6,8.1-5.9.8-2.6,1.1-4.1,1.2-5.6.1-1.5.1-5.4-5.8-5.4h-6.8c-1.5,0-2-.3-2-1.2,0-.5.1-.9.4-1.7.4-.9,1.1-1.3,2.6-1.3h10c1.9,0,2.6.6,3.2,1.2l.3-5.1h-17.1c-4.6,0-7.1,2-8.4,6.2-.8,2.5-1.1,3.9-1.3,5-.6,3.9,1.3,5.5,6.2,5.5,4.9,0,6.4,0,6.4,0,1.5,0,1.9.7,1.8,1.7-.1.6-.1.7-.3,1.3-.3.9-1.2,1.2-3.1,1.4-1.9.2-6.3.2-8.8,0-2.5-.2-3.2-.3-3.6-.9l-.4,5h0Z"></path><path id="path13" class="st1" d="M6.4,45.6c-.7-.3-1.2-.8-1.6-1.4-1-1.6-1-4.2,0-6.7,1.5-3.5,4.6-5.5,6.9-4.5,2.3,1,3,4.6,1.5,8.1-1.5,3.5-4.6,5.5-6.9,4.5M33.6,8.5c2.3,0,4.3-1.9,4.3-4.3s-1.9-4.3-4.3-4.3-4.3,1.9-4.3,4.3,1.9,4.3,4.3,4.3M34.1,18.5c-.7,5.5-1,16.7-.1,24.5,0,0,3.5-1,3.5-1.1-.6-8.6-.5-17.5.3-24.8,6.6,2.4,11.1,4.4,14.6,6.1.8-.9,1.6-1.9,2.4-2.9-3.8-2.3-14.4-6.6-14.5-6.6,2.5-.7,10.8-2.2,19.1-2.4,0,0,0-2.9,0-2.9-7.7-.2-18.4,2.1-19.5,2.4,5.2-3.9,10.4-6.2,15-8.4-.4-.2-1.9-1.5-1.9-1.5-9.7,4-17.1,10-17.1,10.1-1.3,1.2-1.1,1.9-1.8,7.4M11,28.3c7.6-6.9,15.5-10.1,15.4-10-6.1,5.7-9.7,10.4-12.1,13.9.4.6.8,1.3,1.2,1.9,7.1-9,7.4-9.4,12.3-14,0,.1-1.7,9.8-.2,25,0,0,3.2-1.2,3.2-1.1-.4-8.2-1.3-17.7.8-28.2.5-3-.5-3.4-10.8-5-.7.8-1.1,1.1-2.7,2.6l8.9,1.8c-10.5,4.3-16.9,11.3-16.9,11.3,0,0,.8,1.9.9,1.8M89.4,8.5c2.4,0,4.3-1.9,4.3-4.3s-1.9-4.3-4.3-4.3-4.3,1.9-4.3,4.3,1.9,4.3,4.3,4.3M63.7,11.3c8.3.2,16.7,1.7,19.1,2.4-.1,0-10.7,4.3-14.5,6.6.8.9,1.5,2,2.4,2.9,3.5-1.7,8-3.8,14.6-6.1.7,7.4.8,16.3.3,24.9,0,0,3.5,1.1,3.5,1.1.9-7.7.6-19,0-24.5-.7-5.6-.5-6.2-1.8-7.4,0,0-7.4-6.1-17.1-10.1,0,0-1.5,1.3-1.9,1.5,4.6,2.1,9.8,4.4,15,8.4-1.1-.3-11.8-2.7-19.5-2.4,0,0,0,2.9,0,2.9M91.5,15.8c2.1,10.5,1.2,20,.8,28.1,0-.1,3.2,1.1,3.2,1.1,1.5-15.2-.1-24.9-.2-25,4.9,4.6,5.2,5,12.3,14,.4-.6.8-1.3,1.2-1.9-2.5-3.5-6.1-8.2-12.1-13.9-.1-.1,7.8,3.1,15.4,10,0,0,.9-1.8.9-1.8,0,0-6.4-7.1-16.9-11.3l8.9-1.8c-1.5-1.5-2-1.8-2.7-2.6-10.3,1.6-11.4,2-10.8,5M2.9,47.9c-1.3-5.2.8-12.3.7-12.1-2.7,9.2-5.5,17.5-1.8,38.3-.8-4.9-.4-15.5.2-19,.4-2.4,1.6-4.6.9-7.1M21.5,49.5c-4.7,1.1-10.9,2.5-15.8,2.7-1.4,0-1.7,1.7-1.8,2.2-4.1,15,.7,35.5,12.5,48,0,0,.2-.3.1-.3-8-10.8-10.3-19.5-11.6-35.7,0,.1,2.7,10.9,9.4,20.3,0-.1,1.4-2.7,1.6-3-4.2-6.8-7.6-14.5-9.5-20.8,1.4,4.8,11,11.8,14.6,13.5l.6-5.6c-.4-.2-10-5.3-14.9-13.6,0,0,12.4-1.7,15.3-2.9-.2-1.4-.4-4.8-.5-4.8M118.3,52.2c-4.9-.3-11.5-1.6-16.2-2.7-.1,0-.3,3.4-.5,4.8,2.9,1.3,15.2,2.9,15.3,2.9-4.9,8.3-14.5,13.4-14.9,13.6l.6,5.6c3.5-1.7,13.2-8.8,14.6-13.5-1.9,6.3-5.3,14.1-9.5,20.8.2.3,1.7,2.9,1.6,3,6.7-9.4,9.4-20.2,9.4-20.3-1.2,16.3-3.6,24.9-11.6,35.7,0,0,.2.3.2.3,11.8-12.5,16.6-33,12.5-48-.2-.6-.5-2.2-1.4-2.2M110.1,40.3c1.2,3.6,4,5.9,6.5,5.2.7-.2,1.2-.7,1.7-1.3,1.1-1.5,1.3-4,.6-6.7-1.2-4.4-4-6.4-6.5-5.6-2.4.8-3.4,4.8-2.3,8.4M119.8,35.8c0-.1,2,6.9.7,12.1-.6,2.5.5,4.7.9,7.1,1.2,7.7.9,14.2.2,19.1,3.7-20.8.9-29.1-1.8-38.3M70.7,58.9c0-5.1-4.2-9.3-9.3-9.3s-9.3,4.2-9.3,9.3,4.2,9.3,9.3,9.3,9.3-4.2,9.3-9.3M99.4,72c-11.5,5.5-20,6.7-25.8,7.7,9.9-7.8,14.4-13.4,18.5-18.9-.8-.6-1.1-.9-3.6-3.6-2.1,2.9-7.8,10.7-20.1,19.7-2.4,1.7-3.1,2.3-3.7,3.9-.3.7-.3,2.1-.3,3.1,0,4.6-.7,39.9-.7,40.1,1.2,0,4.9-.2,4.9-.3,1.5-15.7,1.8-21.9,1.8-28.9,0-2.6.1-4.6.1-4.8,8.2,4.2,13.7,6.4,20.5,8.8.4-.5,3-4.6,3.1-4.5-6.4-3-13-5.4-19.4-8.6,9.6-1.8,16.6-3.5,25.1-7.9.1,0-.7-5.5-.6-5.6M59.1,83.8c0-1,0-2.4-.3-3.1-.7-1.6-1.4-2.2-3.7-3.9-12.3-9-18-16.7-20.1-19.7-2.5,2.7-2.8,3-3.6,3.6,4.1,5.5,8.6,11.1,18.5,18.9-5.8-1-14.3-2.2-25.8-7.7.2,0-.7,5.5-.6,5.6,8.5,4.5,15.6,6.1,25.1,7.9-6.3,3.1-12.9,5.6-19.4,8.6.1,0,2.7,4.1,3.1,4.5,6.8-2.4,12.3-4.6,20.5-8.7,0,.2.1,2.3.1,4.8,0,7.1.3,13.2,1.8,28.9,0,.1,3.8.3,4.9.3,0-.2-.8-35.4-.7-40.1M46,119.1c.7,0,1.7.1,1.7-.9s-.6-.8-1.2-.8h-1.4v1.7h.9M48.4,118.2c0,.9-.7,1.3-1.5,1.3l1.5,2.2h-.7l-1.4-2.2h-1.1v2.2h-.6v-4.8h2.1c1.3,0,1.7.5,1.7,1.3M46.2,123.1c2.1,0,3.6-1.6,3.6-3.8s-1.5-3.8-3.6-3.8-3.7,1.6-3.7,3.8,1.5,3.8,3.7,3.8M46.2,115c2.4,0,4.3,1.9,4.3,4.3s-1.9,4.3-4.3,4.3-4.4-1.9-4.4-4.3,1.9-4.3,4.4-4.3"></path><path id="path1-2" class="st0" d="M279.8,88.7c4.2,0,6.3-2.2,7.3-5.7.9-3,1.1-4.1,1.7-6.9.7-3.5-.2-5.7-4.4-5.7M312.2,83.3c.2-2.1,1.1-5.7,1.9-7.4.6-1.4,1.1-1.9,2.6-1.9h5.3c2.2,0,3.5.3,4.1,1l.3-4.6h-14.3c-4.2,0-6.3,2.2-7.3,5.7-.9,3-1.1,4.1-1.7,6.9-.7,3.5.2,5.7,4.4,5.7h14.2l1.8-4.5c-1.2.5-2.1.9-5.1.9h-4.5c-1.5,0-1.8-.6-1.6-1.9M272.2,85.1c-.9,0-1.2-.4-.9-1.4l2.1-8.3c.3-1,.7-1.4,1.6-1.4h1.4s1.5,0,1.5,0c1.5,0,1.8.6,1.6,1.9-.2,2.1-1.1,5.7-1.8,7.4-.6,1.4-1.1,1.9-2.6,1.9h-2.9s0,0,0,0ZM264.7,70.4c.2.7.4,1.6,0,3.4l-5.4,21.8h10c-.2-.7-.4-1.6,0-3.4l1.3-5.3h0c0,.7.3,1.8,1.9,1.8h7.2c4.2,0,6.4-2.3,7.2-5.7l1.7-6.9c.8-3.4-.1-5.7-4.3-5.7h-7.8c-1.3,0-1.9.6-2.9,1.9v-1.9h-9,0ZM181.9,84.5c-.6,2.5-1.3,3.3-2.1,4.2h11.2c-.3-.9-.6-1.7,0-4.2l5.2-20.8h-10.2c.3.9.6,1.7,0,4.2l-4.1,16.5h0ZM206.1,88.8c1.8,0,2.6-.4,3.4-1.6h0l-.7,3.2c-.2.9-.8,1.7-2.6,1.7h-8.5c-2.2,0-3-.5-3.8-.9l-.4,4.5h18.1c3.4,0,5.5-1.8,6.4-5.2l5-20.1h-9.9c.3.8.5,1.2-.1,3.5l-2.4,9.7c-.3,1-.7,1.6-1.5,1.6h-3.4c-1,0-1.3-.8-1.1-1.6l3.3-13.1h-10.2c.3.9.6,1.8,0,4.3l-1.9,7.4c-.8,4.3.1,6.7,4.5,6.7h6,0ZM225.6,70.4c.3.9.6,1.7,0,4.2l-2.5,9.9c-.6,2.5-1.3,3.3-2.1,4.2h10.5c-.3-.9-.6-1.7,0-4.2l2.3-9.2c.2-.9.8-1.3,1.5-1.3h3c.7,0,1,.9.8,1.3l-2.3,9.2c-.6,2.5-1.3,3.3-2.1,4.2h10.5c-.3-.9-.6-1.7,0-4.2l2.3-9.2c.2-.9.8-1.3,1.5-1.3h3c.5,0,1,.3.8,1.3l-2.3,9.2c-.6,2.5-1.3,3.3-2.1,4.2h10.5c-.3-.9-.6-1.7,0-4.2l1.7-6.9c1.6-6.3-.7-7.2-3.8-7.2h-6.3c-1.6,0-2.2,1.2-2.6,2h0c-.1-1.1-.5-2-2.8-2h-8.2c-1.7,0-2.5,1.4-3,2.2h0l.3-2.2h-8.7ZM295.5,63.8l-1.2,4.8h9l1.2-4.8h-9ZM290.2,84.5c-.6,2.5-1.3,3.3-2.1,4.2h11.2c-.3-.9-.6-1.7,0-4.2l3.5-14.1h-10.2c.3.9.6,1.7,0,4.2l-2.5,9.9ZM338.4,76.2c-.9,0-1.1-.6-1-1l.2-.8c.1-.4.5-.7,1.4-.7h7.2c2.2,0,4.7.3,5.2,1.2l.4-4.6h-16c-3.6,0-6.4,1.9-7.1,4.7l-.9,3c-.4,2.3.5,4.7,4.8,4.7h7.3c.9,0,1.2.6,1,1.3v.4c-.3.8-.6,1-1.6,1h-7.9c-3.3,0-4-.3-5.5-1.1l-.4,4.5h17.3c4.1,0,6.2-2.5,6.8-4.9l.8-2.9c.4-2.2-.6-4.9-4.9-4.9h-7.1,0ZM171.8,69.8c-.2,1.1-2.5,10.9-3.2,13.1-.3,1-1.4,1.7-2.3,1.8-1.6,0-2.8,0-4.1,0-1.1,0-1.6-1-1.4-1.9.5-2.7,2.6-11.5,3.3-13.1.5-1.3,1.5-1.6,2.3-1.7,1.4,0,2.8,0,4.1,0,1,0,1.6.9,1.4,1.9M153.1,71.1c-1.1,3.5-1.3,4.6-2.6,10.3-1.1,5.1.5,7.3,4.5,7.4,4.9.1,11.7.1,16.1,0,4.7-.1,6.5-1.9,8.1-7.4,1.5-5,1.6-5.4,2.6-10.3,1-5-.7-7.2-4.5-7.4-4.3-.2-11.4-.2-16.1,0-4.7.2-6.3,1.5-8.1,7.4"></path></svg>