<?xml version="1.0" encoding="UTF-8"?>
<svg id="Calque_1" xmlns="http://www.w3.org/2000/svg" xmlns:xlink="http://www.w3.org/1999/xlink" version="1.1" viewBox="0 0 249 283">
  <!-- Generator: Adobe Illustrator 30.0.0, SVG Export Plug-In . SVG Version: 2.1.1 Build 123)  -->
  <defs>
    <style>
      .st0 {
        fill: #39aadc;
      }

      .st1 {
        fill: url(#linear-gradient1);
      }

      .st2 {
        fill: url(#radial-gradient);
      }

      .st3 {
        fill: url(#linear-gradient);
      }

      .st4 {
        fill: #1378b9;
      }

      .st5 {
        fill: #024060;
      }

      .st6 {
        fill: url(#radial-gradient1);
      }

      .st7 {
        fill: url(#radial-gradient2);
      }
    </style>
    <linearGradient id="linear-gradient" x1="-2841.3" y1="-3377.5" x2="-2835.4" y2="-3377.5" gradientTransform="translate(56315.4 -66684) scale(19.8 -19.8)" gradientUnits="userSpaceOnUse">
      <stop offset="0" stop-color="#55c3ec"/>
      <stop offset="0" stop-color="#65c7ed"/>
      <stop offset="0" stop-color="#90d4f2"/>
      <stop offset=".2" stop-color="#abddf5"/>
      <stop offset=".3" stop-color="#bde4f7"/>
      <stop offset=".4" stop-color="#c7e8f8"/>
      <stop offset=".6" stop-color="#cae9f8"/>
      <stop offset=".6" stop-color="#c6e5f5"/>
      <stop offset=".7" stop-color="#bad8ea"/>
      <stop offset=".8" stop-color="#a7c4d7"/>
      <stop offset=".8" stop-color="#8ca8bf"/>
      <stop offset=".9" stop-color="#6b87a1"/>
      <stop offset=".9" stop-color="#446482"/>
      <stop offset="1" stop-color="#104463"/>
      <stop offset="1" stop-color="#054160"/>
    </linearGradient>
    <linearGradient id="linear-gradient1" x1="-2844.5" y1="-3375.8" x2="-2838.7" y2="-3375.8" gradientTransform="translate(57531.5 -68039.3) scale(20.2 -20.2)" gradientUnits="userSpaceOnUse">
      <stop offset="0" stop-color="#55c3ec"/>
      <stop offset="0" stop-color="#65c7ed"/>
      <stop offset="0" stop-color="#90d4f2"/>
      <stop offset=".2" stop-color="#abddf5"/>
      <stop offset=".2" stop-color="#bde4f7"/>
      <stop offset=".3" stop-color="#c7e8f8"/>
      <stop offset=".4" stop-color="#cae9f8"/>
      <stop offset=".5" stop-color="#c6e5f5"/>
      <stop offset=".6" stop-color="#bad8ea"/>
      <stop offset=".7" stop-color="#a7c4d7"/>
      <stop offset=".8" stop-color="#8ca8bf"/>
      <stop offset=".8" stop-color="#6b87a1"/>
      <stop offset=".9" stop-color="#446482"/>
      <stop offset="1" stop-color="#104463"/>
      <stop offset="1" stop-color="#054160"/>
    </linearGradient>
    <radialGradient id="radial-gradient" cx="-2758.6" cy="-3543.8" fx="-2758.6" fy="-3543.8" r="5.9" gradientTransform="translate(34845.7 -44408.5) scale(12.6 -12.6)" gradientUnits="userSpaceOnUse">
      <stop offset="0" stop-color="#39aadc"/>
      <stop offset=".2" stop-color="#208cc7"/>
      <stop offset=".4" stop-color="#1378b9"/>
      <stop offset=".5" stop-color="#1069a1"/>
      <stop offset=".9" stop-color="#08486c"/>
      <stop offset="1" stop-color="#054160"/>
    </radialGradient>
    <radialGradient id="radial-gradient1" cx="109.5" cy="180.3" fx="109.5" fy="180.3" r="2.1" gradientTransform="translate(0 283.3) scale(1 -1)" gradientUnits="userSpaceOnUse">
      <stop offset="0" stop-color="#39aadc"/>
      <stop offset=".2" stop-color="#208cc7"/>
      <stop offset=".4" stop-color="#1378b9"/>
      <stop offset=".5" stop-color="#1069a1"/>
      <stop offset=".9" stop-color="#08486c"/>
      <stop offset="1" stop-color="#054160"/>
    </radialGradient>
    <radialGradient id="radial-gradient2" cx="-993.2" cy="-4698.7" fx="-993.2" fy="-4698.7" r="5.8" gradientTransform="translate(0 283.3) scale(1 -1)" gradientUnits="userSpaceOnUse">
      <stop offset="0" stop-color="#39aadc"/>
      <stop offset=".2" stop-color="#208cc7"/>
      <stop offset=".4" stop-color="#1378b9"/>
      <stop offset=".5" stop-color="#1069a1"/>
      <stop offset=".9" stop-color="#08486c"/>
      <stop offset="1" stop-color="#054160"/>
    </radialGradient>
  </defs>
  <path class="st4" d="M224.4,112.3h0c-.3,11.5-1.7,22.9-4.3,34.2,7.4-1.9,15.1-4,23-5.9l1-3.8c2.3-9.8,3.5-19.8,3.9-29.7-7.8,1.7-15.8,3.4-23.5,5.3"/>
  <path class="st4" d="M55.5,206c-3.1-4.3-6-8.7-8.8-13.2l-3.1-5.4c-4.2,3-8.3,6.1-12,9l2.7,4.2c2.9,4.2,5.9,8.3,9,12.4,2.9,3.7,5.9,7.3,9.1,10.8,3.4-2.7,7-5.4,10.6-8.1-2.7-3.2-5.2-6.4-7.6-9.7"/>
  <path class="st0" d="M28.7,151.6c-10-34.4-8.4-70.8,1-105,1.1-4,2.3-7.9,3.5-11.8.3-1.2,2.6-7.2,2.6-7.2,0,0,7.6-3.1,11.5-4.5,17.9-6.4,36.6-10.6,55.4-12.6,20-2.1,40.2-1.8,60.1,1,12,1.6,23.9,4.2,35.7,7.4,3,.9,10.2,3,10.2,3,0,0,1.5,4.2,2.3,6.7,1.6,5.4,3.2,10.7,4.7,16.2,5.3,18.9,8.4,38,8.8,57.1v.8c7.8-2,15.8-4.1,23.4-6v-3.2c-1.3-23-6.4-45.4-14-67.2-.6-2-1.2-3-1.2-3,0,0-2.8-1.4-3.4-1.7-3.2-1.5-6.4-3-9.8-4.3-8.4-3.4-17-6.2-25.8-8.7C148.5-4,101.4-1.9,56.3,9.7c-5.9,1.5-16.6,4.7-22.4,6.6l-2.5,6.7-14.4,4.4s-2.8,7.7-3.9,11.3C6.4,59.5,2.8,81,2.6,103c-.8.1.8,15.4,1,17,.6,6.6,1.7,13,3.2,19.3,2.7,11.6,6.7,23,11.7,33.7,2.5,5.3,5.2,10.4,8.1,15.4.1.2.3.5.4.8,3.9-2.9,8.2-6.1,12.5-9.2-4.5-9.1-8.2-18.8-11-28.6"/>
  <path class="st5" d="M216.7,159.3c-2.3,7.2-5,14.4-8.4,21.5-14.7,31.1-37.4,58.9-64.3,80.3-3.3,2.7-6.8,5.3-10.3,7.6-.2,0-.3.2-.4.3l-1.8,1.3-1.3-.6c-.3-.1-.8-.3-1.3-.6-2.1-1.1-4.2-2.3-6.2-3.4-7.4-4.2-14.5-8.8-21.3-13.9-6.7-4.9-13.1-10.2-19.2-15.9-3-2.8-9.8-9.7-9.8-9.7l-3.2-3.5c-3.4,2.6-7,5.4-10.3,8.1l3.9,4c16.6,16.5,35.5,30.7,56.2,41.9,2.6,1.4,5,2.7,7.6,4l11.4-6.9s9.6-5.7,14.1-8.9c34.9-24.4,65.1-58.5,82.3-97.6,2.5-5.6,4.6-11.4,6.4-17.2-7.8,2.1-15.7,4.3-23.1,6.6l-.8,2.9h-.1Z"/>
  <path class="st5" d="M60.8,61.4c0,1.4-.4,2.6-1.2,3.2-.8.8-1.7,1.1-2.9,1.1s-2.1-.3-2.9-1.1-1.2-1.8-1.2-3.2v-27.9c0-1.5.4-2.6,1.2-3.2.8-.8,1.7-1.1,2.9-1.1s2.1.3,2.9,1.1c.8.8,1.2,1.8,1.2,3.2v27.9Z"/>
  <path class="st5" d="M65.1,60.3c0-1.1.3-2.1,1-3s1.6-1.3,2.9-1.3,1.1,0,1.6.3c.6.2,1.3.4,1.9.6.8.2,1.5.5,2.4.8.9.2,1.8.3,2.9.3,1.6,0,2.8-.3,3.3-1.1.6-.6,1-1.5,1-2.4s-.2-1.3-.5-1.7c-.3-.4-.9-.9-1.6-1.2-.6-.3-1.5-.6-2.5-1-1-.3-2-.6-3.1-1-1.1-.3-2.1-.8-3.1-1.2-1.1-.4-1.9-1-2.8-1.7-.9-.8-1.5-1.6-2-2.7s-.8-2.5-.8-4.1.3-3.7,1.1-5.2c.8-1.5,1.7-2.7,2.9-3.7s2.6-1.6,4.2-2.1c1.5-.4,3.2-.8,4.9-.8,3.3,0,5.8.5,7.6,1.5,1.7,1,2.6,2.4,2.6,3.9s-.3,2-1,2.8c-.6.8-1.5,1.1-2.6,1.1s-1.3,0-1.7-.2c-.4-.1-1-.3-1.4-.5-.5-.2-1.1-.3-1.6-.4-.5-.1-1.3-.2-2.3-.2s-2,.2-2.7.9c-.6.5-1.1,1.3-1.1,2.1s.1,1,.4,1.3.8.6,1.3.9c.6.3,1.4.5,2.4.9,1,.3,2.1.6,3.5,1.2,1.1.4,2.1.9,3.2,1.3,1.1.5,1.9,1.2,2.8,1.9.9.9,1.5,1.8,1.9,3,.5,1.2.8,2.6.8,4.3s-.3,3.9-1.1,5.4-1.7,2.8-2.9,3.8-2.7,1.7-4.4,2.1-3.4.8-5.4.8-2.5,0-4-.3c-1.4-.2-2.7-.6-3.9-1.1-1.2-.5-2.3-1.1-3-1.8-.9-.8-1.2-1.6-1.2-2.7"/>
  <path class="st5" d="M95,33.4c0-1.3.4-2.4,1.3-3,.9-.8,1.8-1.1,2.9-1.1h9.9c1.8,0,3.4.2,4.9.9,1.5.5,2.8,1.3,3.8,2.3,1.1,1,1.8,2.1,2.4,3.5s.9,2.9.9,4.6c0,2.7-.8,4.9-2.3,6.7-1.5,1.8-3.5,2.9-6.1,3.4l7.2,7.7c.5.6,1,1.2,1.3,1.7.3.5.4,1.2.4,1.8s0,.6-.2,1.1c-.1.4-.4.9-.8,1.3-.3.4-.8.8-1.3,1.1s-1.2.4-1.9.4-1.8-.2-2.4-.5-1-.9-1.5-1.5l-10.1-12.7h-.1v10.4c0,1.4-.4,2.6-1.2,3.2-.8.8-1.7,1.1-2.9,1.1s-2.1-.3-2.9-1.1-1.2-1.8-1.2-3.2v-27.9h0v-.2ZM103.2,44.9h5.5c1.4,0,2.4-.4,3.1-1.2.8-.8,1.1-1.7,1.1-2.9s-.4-2.1-1.2-2.9c-.9-.8-1.8-1.1-3-1.1h-5.5v7.9h0Z"/>
  <path class="st5" d="M133.2,36c.3-1,.8-1.9,1.1-2.9.3-.9.9-1.7,1.3-2.4.5-.6,1.1-1.2,1.8-1.6s1.6-.6,2.6-.6,1.9.2,2.7.6c.8.4,1.3,1,1.8,1.6s1,1.5,1.3,2.4.8,1.8,1.1,2.9l7.9,21.3c.2.8.5,1.3.6,1.8s.3,1,.3,1.3.1.8.2,1v.9c0,1-.3,1.8-1.1,2.5-.8.6-1.7.9-2.9.9s-1.3,0-1.7-.3c-.4-.2-.9-.4-1.2-.9-.3-.3-.6-.8-.9-1.3s-.4-1-.6-1.6l-1-3.2h-13.4l-1,3.2c-.2.5-.4,1.1-.6,1.6-.2.5-.5.9-.9,1.3-.3.3-.8.6-1.2.9s-1.1.3-1.7.3c-1.2,0-2.1-.3-2.9-.9-.8-.6-1.1-1.4-1.1-2.5s0-.6,0-.9c0-.3,0-.6.2-1,0-.4.2-.9.3-1.3.1-.5.3-1.1.6-1.8l7.8-21.3h.3ZM140.2,37.7h-.1l-4.4,13.2h8.6l-4.1-13.2h0Z"/>
  <path class="st5" d="M158.9,33.6c0-1.3.4-2.4,1.2-3,.9-.8,1.7-1.1,2.9-1.1h12.6c1.3,0,2.3.3,3,1.1.8.6,1.1,1.6,1.1,2.8s-.3,2.1-1.1,2.8-1.7,1-3,1h-8.5v6.6h7.7c1.3,0,2.3.3,3,1,.8.6,1.1,1.6,1.1,2.8s-.3,2.1-1.1,2.8-1.7,1-3,1h-7.7v6.8h8.8c1.3,0,2.3.3,3,1,.8.6,1.1,1.6,1.1,2.8s-.3,2-1.1,2.8c-.8.6-1.7,1.1-3,1.1h-12.9c-1.1,0-2-.3-2.9-1.1s-1.2-1.7-1.2-3v-27.8h0Z"/>
  <path class="st5" d="M183.4,33.4c0-1.5.4-2.6,1.2-3.2.8-.8,1.7-1.1,2.9-1.1s2.1.3,2.9,1.1,1.2,1.8,1.2,3.2v24.4h8.8c1.3,0,2.3.3,3,1,.8.6,1.1,1.6,1.1,2.8s-.3,2-1.1,2.8c-.8.6-1.7,1.1-3,1.1h-12.9c-1.1,0-2-.3-2.9-1.1-.9-.6-1.3-1.7-1.3-3v-27.9h.1Z"/>
  <path class="st5" d="M53.6,79.4c0,.4-.2.5-.5.5s-.4-.2-.4-.5v-8.1c0-.1,0-.2.1-.3,0,0,.2-.1.3-.1h3.3c.1,0,.3,0,.3.1,0,0,.1.2.1.3s0,.2-.1.3c0,0-.2.1-.3.1h-2.9v3.2h2.6c.1,0,.3,0,.3.1,0,0,.1.2.1.3s0,.2-.1.3c0,0-.2.1-.3.1h-2.6v3.5h.1Z"/>
  <path class="st5" d="M65.9,76.5c0,.5,0,1-.2,1.4-.1.4-.3.8-.5,1.1s-.5.5-1,.8-.9.2-1.3.2-1,0-1.3-.2c-.3-.2-.6-.4-1-.8-.2-.3-.4-.6-.5-1.1s-.2-.9-.2-1.4,0-.9.2-1.3c.1-.4.3-.8.5-1.1s.5-.5,1-.8c.3-.2.9-.3,1.4-.3s1,0,1.4.3c.4.2.8.4,1,.8.2.3.4.6.5,1.1s.2.9.2,1.3M60.9,76.5v1c0,.3.2.6.3.9.2.2.3.4.6.6.2.2.5.2,1,.2s.6,0,1-.2c.2-.1.4-.3.6-.6.1-.2.2-.5.3-.9v-1.9c0-.3-.2-.6-.3-.9-.1-.2-.3-.4-.6-.6-.2-.1-.5-.2-1-.2s-.6,0-1,.2c-.2.2-.4.3-.6.6-.1.3-.2.5-.3.9v1"/>
  <path class="st5" d="M75.3,76.5c0,.5,0,1-.2,1.4-.1.4-.3.8-.5,1.1s-.5.5-1,.8-.9.2-1.3.2-1,0-1.3-.2c-.3-.2-.8-.4-1-.8-.2-.3-.4-.6-.5-1.1s-.2-.9-.2-1.4,0-.9.2-1.3c.1-.4.3-.8.5-1.1s.5-.5,1-.8.9-.3,1.3-.3,1,0,1.4.3c.3.2.6.4,1,.8.2.3.4.6.5,1.1s.2.9.2,1.3M70.3,76.5v1c0,.3.2.6.3.9.1.2.3.4.6.6.2.2.5.2,1,.2s.6,0,1-.2c.2-.1.4-.3.6-.6.1-.2.3-.5.3-.9v-1.9c0-.3-.2-.6-.3-.9-.1-.2-.3-.4-.6-.6-.2-.1-.5-.2-1-.2s-.6,0-1,.2c-.2.2-.4.3-.6.6-.1.3-.3.5-.3.9v1"/>
  <path class="st5" d="M80.1,79.4c0,.4-.1.5-.4.5s-.4-.2-.4-.5v-5.5h-.6c-.2,0-.3,0-.3-.1v-.4s.2-.1.3-.1h.6v-1.5c0-.4.1-.6.4-.6s.4.2.4.6v1.5h.6c.1,0,.3,0,.3.1v.4s-.2.1-.3.1h-.6v5.5Z"/>
  <path class="st5" d="M84.4,70.6c0-.4.1-.5.4-.5s.4.2.4.5v3.4h0c.2-.3.5-.5.9-.8.3-.1.6-.2,1.1-.2s1,0,1.3.3c.3.2.6.4,1,.8.2.3.4.6.5,1.1s.2.9.2,1.3,0,1-.2,1.4c-.1.4-.3.8-.5,1.1s-.5.5-1,.8-.9.2-1.3.2-.8,0-1.1-.2-.6-.4-.9-.8h0v.4c0,.4-.1.5-.4.5s-.4-.2-.4-.5v-8.7h0ZM85.4,76.5c0,.3,0,.6.1,1,0,.3.2.6.3.9.1.2.3.4.6.6.2.2.5.2,1,.2s.6,0,1-.2c.2-.1.4-.3.6-.6.1-.2.2-.5.3-.9,0-.3.1-.6.1-1s0-.6-.1-1c0-.3-.2-.6-.3-.9-.1-.2-.3-.4-.6-.6-.2-.1-.5-.2-1-.2s-.6,0-1,.2c-.2.2-.4.3-.6.6-.1.3-.2.5-.3.9,0,.3-.1.6-.1,1"/>
  <path class="st5" d="M98.7,73.6c0-.4.1-.5.4-.5s.4.2.4.5v5.7c0,.4-.2.5-.4.5s-.4-.2-.4-.5v-.4h0c-.2.3-.4.5-.9.8-.3.2-.8.2-1.1.2s-1,0-1.3-.2c-.3-.2-.6-.4-1-.8-.2-.3-.4-.6-.5-1.1s-.2-.9-.2-1.4,0-.9.2-1.3c.1-.4.3-.8.5-1.1s.5-.5,1-.8c.3-.2.9-.3,1.3-.3s.8,0,1.1.2.6.4.9.8h0v-.4h0ZM94.7,76.5c0,.3,0,.6.1,1,0,.3.2.6.3.9.1.2.3.4.6.6.2.2.5.2,1,.2s.6,0,1-.2c.2-.1.4-.3.6-.6.1-.2.2-.5.3-.9v-1.9c0-.3-.2-.6-.3-.9-.2-.2-.3-.4-.6-.6-.2-.1-.5-.2-1-.2s-.6,0-1,.2c-.2.2-.4.3-.6.6-.1.3-.3.5-.3.9s-.1.6-.1,1"/>
  <path class="st5" d="M104.6,79.4c0,.4-.1.5-.4.5s-.4-.2-.4-.5v-8.7c0-.4.1-.5.4-.5s.4.2.4.5v8.7Z"/>
  <path class="st5" d="M109.6,79.4c0,.4-.1.5-.4.5s-.4-.2-.4-.5v-8.7c0-.4.1-.5.4-.5s.4.2.4.5v8.7Z"/>
  <path class="st5" d="M119.4,79.5c0,.1-.1.2-.2.3,0,0-.2.1-.3.1s-.2,0-.3-.1v-.6l3.1-7.7v-.2l.2-.2h.2c0-.2.2-.2.3-.2h.5c0,.1.1.3.1.3v.2c.1,0,3.1,7.7,3.1,7.7v.6c-.2,0-.3.1-.4.1s-.3,0-.3-.1c0,0-.1-.2-.2-.3l-.6-1.6h-4.6l-.6,1.6h.1ZM122.3,71.9h0l-1.9,5.2h4l-1.9-5.2h-.1Z"/>
  <path class="st5" d="M131.4,73.1h1c.3,0,.5.1.8.2.2,0,.4.2.5.3.1.1.2.2.2.3v.3c-.1,0-.3.1-.5.1s-.2,0-.3-.1c-.1,0-.2-.1-.4-.2-.1,0-.3-.2-.4-.2-.2,0-.4-.1-.6-.1h-.5c-.1,0-.3,0-.4.2-.1,0-.2.2-.3.3,0,.1-.1.2-.1.4s0,.3.1.4c0,.1.2.2.5.3l1.4.5c.2,0,.4.2.6.3s.4.2.5.4c.1.1.3.3.4.5,0,.2.1.4.1.6s0,.5-.2.8c-.1.2-.3.4-.5.6s-.5.3-.9.4c-.3,0-.6.1-1.1.1s-.8,0-1.1-.1c-.3,0-.5-.2-.8-.3-.2-.1-.4-.3-.5-.4s-.2-.3-.2-.4h0v-.3h.1c0-.1.1-.2.1-.2.1,0,.2,0,.3.1.1,0,.2.2.4.3.1.1.3.2.5.3.2,0,.5.1.8.1.4,0,.9-.1,1.1-.3.2-.2.4-.5.4-.9v-.4c0-.1-.1-.2-.2-.3,0,0-.2-.1-.3-.2-.1,0-.2-.1-.3-.2l-1.6-.6c-.3-.1-.6-.3-.9-.5s-.3-.5-.3-1,0-.5.2-.8c.1-.2.3-.4.5-.5.2-.2.4-.3.8-.3s.5-.1.8-.1"/>
  <path class="st5" d="M139.6,73.1h1c.3,0,.5.1.8.2.2,0,.4.2.5.3.1.1.2.2.2.3v.3c-.1,0-.3.1-.4.1s-.2,0-.3-.1c-.1,0-.2-.1-.4-.2-.1,0-.3-.2-.4-.2-.2,0-.4-.1-.6-.1h-.5c-.1,0-.3,0-.4.2-.1,0-.2.2-.3.3,0,.1-.1.2-.1.4s0,.3.1.4c0,.1.2.2.5.3l1.4.5c.2,0,.4.2.6.3s.4.2.5.4c.1.1.3.3.4.5,0,.2.1.4.1.6s0,.5-.2.8c-.1.2-.3.4-.5.6s-.5.3-.9.4c-.3,0-.6.1-1.1.1s-.8,0-1.1-.1c-.3,0-.5-.2-.8-.3-.2-.1-.4-.3-.5-.4s-.2-.3-.2-.4h0v-.3h.1c0-.1.2-.2.2-.2.1,0,.2,0,.3.1.1,0,.2.2.4.3.2.1.3.2.5.3.2,0,.4.1.8.1s.9-.1,1.1-.3c.3-.2.4-.5.4-.9v-.4c0-.1-.1-.2-.2-.3,0,0-.2-.1-.3-.2-.1,0-.2-.1-.3-.2l-1.6-.6c-.3-.1-.6-.3-.9-.5s-.3-.5-.3-1,0-.5.2-.8c.1-.2.3-.4.5-.5.2-.2.4-.3.8-.3s.5-.1.8-.1"/>
  <path class="st5" d="M151.5,76.5c0,.5,0,1-.2,1.4-.1.4-.3.8-.5,1.1s-.5.5-1,.8c-.3.2-.9.2-1.3.2s-1,0-1.3-.2c-.4-.2-.8-.4-1-.8-.2-.3-.4-.6-.5-1.1s-.2-.9-.2-1.4,0-.9.2-1.3c.1-.4.3-.8.5-1.1s.5-.5,1-.8c.3-.2.9-.3,1.4-.3s1,0,1.3.3c.4.2.8.4,1,.8.2.3.4.6.5,1.1s.2.9.2,1.3M146.5,76.5v1c0,.3.2.6.3.9.1.2.3.4.6.6.2.2.5.2,1,.2s.6,0,1-.2c.2-.1.4-.3.6-.6.1-.2.2-.5.3-.9v-1.9c0-.3-.2-.6-.3-.9-.1-.2-.3-.4-.6-.6-.2-.1-.5-.2-1-.2s-.6,0-1,.2c-.2.2-.4.3-.6.6-.1.3-.2.5-.3.9v1"/>
  <path class="st5" d="M157.9,79.1h.5c.1,0,.3,0,.4-.1,0,0,.2,0,.3-.1h.5s.1.1.1.2,0,.2-.1.3c0,0-.2.2-.4.2s-.3.1-.5.2h-.6c-.5,0-1,0-1.3-.3-.4-.2-.6-.4-1-.8-.2-.3-.4-.8-.5-1.1-.1-.4-.2-.9-.2-1.3s0-.9.2-1.3c.1-.4.3-.8.6-1.1.2-.3.5-.5,1-.8s.9-.3,1.3-.3h.6c.2,0,.4,0,.5.1.1,0,.3.1.4.2v.3c.1.1.1.2,0,.3,0,0-.2.1-.4.1h-.2l-.2-.2s-.2,0-.3-.1h-.5c-.3,0-.6,0-.9.2s-.4.3-.6.6c-.2.2-.3.5-.3.9s-.1.5-.1.9,0,.6.1,1c0,.3.2.6.4.9.2.2.4.4.6.6.2.1.5.2.9.2"/>
  <path class="st5" d="M163.1,71.4c0-.2,0-.3.2-.4.1-.1.3-.2.4-.2s.3,0,.4.2c.1.1.2.3.2.4s0,.3-.2.4c-.1.1-.3.2-.4.2s-.3,0-.4-.2c-.1-.1-.2-.3-.2-.4M164.3,79.4c0,.4-.1.5-.4.5s-.4-.2-.4-.5v-5.7c0-.4.1-.5.4-.5s.4.2.4.5v5.7Z"/>
  <path class="st5" d="M172.9,73.6c0-.4.1-.5.5-.5s.4.2.4.5v5.7c0,.4-.1.5-.4.5s-.5-.2-.5-.5v-.4h0c-.2.3-.5.5-.9.8s-.8.2-1.2.2-1,0-1.3-.2c-.4-.2-.6-.4-1-.8-.2-.3-.4-.6-.5-1.1s-.2-.9-.2-1.4,0-.9.2-1.3c.1-.4.3-.8.5-1.1s.5-.5,1-.8c.3-.2.9-.3,1.3-.3s.8,0,1.1.2.6.4.9.8h0v-.4h.1ZM168.9,76.5v1c0,.3.2.6.3.9.1.2.3.4.6.6.2.2.5.2,1,.2s.6,0,1-.2c.2-.1.4-.3.6-.6.2-.2.2-.5.3-.9v-1.9c0-.3-.2-.6-.3-.9-.1-.2-.3-.4-.6-.6-.2-.1-.5-.2-1-.2s-.6,0-.9.2-.4.3-.6.6c-.2.3-.3.5-.3.9s-.1.6-.1,1"/>
  <path class="st5" d="M179.1,79.4c0,.4-.1.5-.4.5s-.4-.2-.4-.5v-5.5h-.6c-.1,0-.2,0-.3-.1v-.4s.2-.1.3-.1h.6v-1.5c0-.4.2-.6.4-.6s.4.2.4.6v1.5h.6c.2,0,.3,0,.3.1v.4s-.2.1-.3.1h-.6v5.5Z"/>
  <path class="st5" d="M183.2,71.4c0-.2,0-.3.2-.4.1-.1.3-.2.4-.2s.3,0,.4.2c.1.1.2.3.2.4s0,.3-.2.4c-.1.1-.3.2-.4.2s-.3,0-.4-.2c-.1-.1-.2-.3-.2-.4M184.4,79.4c0,.4-.1.5-.4.5s-.4-.2-.4-.5v-5.7c0-.4.2-.5.4-.5s.4.2.4.5v5.7Z"/>
  <path class="st5" d="M194,76.5c0,.5,0,1-.2,1.4-.1.4-.3.8-.5,1.1s-.5.5-1,.8c-.3.2-.9.2-1.3.2s-1,0-1.3-.2c-.4-.2-.6-.4-1-.8-.2-.3-.4-.6-.5-1.1s-.2-.9-.2-1.4,0-.9.2-1.3c.1-.4.3-.8.5-1.1s.5-.5,1-.8c.3-.2.9-.3,1.3-.3s1,0,1.4.3c.4.2.8.4,1,.8.2.3.4.6.5,1.1s.2.9.2,1.3M189,76.5c0,.3,0,.6.1,1,0,.3.2.6.3.9.1.2.3.4.6.6.2.2.5.2,1,.2s.6,0,1-.2c.2-.1.4-.3.6-.6.1-.2.2-.5.3-.9,0-.3.1-.6.1-1s0-.6-.1-1c0-.3-.2-.6-.3-.9-.1-.2-.3-.4-.6-.6-.2-.1-.5-.2-1-.2s-.6,0-1,.2c-.2.2-.4.3-.6.6-.1.3-.3.5-.3.9s-.1.6-.1,1"/>
  <path class="st5" d="M198.7,79.4c0,.4-.2.5-.4.5s-.5-.2-.5-.5v-5.7c0-.4.2-.5.5-.5s.4.2.4.5v.3h0c.2-.2.4-.4.8-.6s.6-.3,1.1-.3.6,0,1,.1c.3,0,.5.2.9.4.2.2.4.4.5.8.1.3.2.6.2,1.1v3.9c0,.4-.1.5-.4.5s-.4-.2-.4-.5v-4c0-.4-.1-.9-.4-1.2-.3-.3-.8-.4-1.3-.4s-.4,0-.6.1c-.2,0-.4.2-.5.3-.1.1-.3.3-.4.5,0,.2-.1.4-.1.8v3.8h0v.2Z"/>
  <path class="st5" d="M56.6,89.2c0,1.1-.3,1.9-1.1,2.5-.6.5-1.5.9-2.6.9v-.5c.9,0,1.5-.3,2-.9s.8-1.2.8-1.9v-.3c0-.5-.1-1-.4-1.3-.3-.3-.8-.5-1.2-.5h-1.6c-.2,0-.3-.2-.3-.5v-1.4h.8v1.2c0,.1,0,.2.1.2h1.5c.6,0,1.1.2,1.5.5.4.4.5,1,.5,1.6v.3h0v.2Z"/>
  <path class="st5" d="M64.6,92.4h-.8l-2.3-2.9c-.1-.2-.3-.2-.5-.2s-.4.2-.5.5-.2.9-.2,1.5v1.1h-.8v-1c0-.6.1-1.2.3-1.6.2-.5.6-1,1.2-1.1l-1.6-2h0v-.2h.8l2.3,2.9c.1.2.3.2.5.2s.4-.2.5-.5.2-.9.2-1.5v-1.1h.8v1c0,.6,0,1.2-.3,1.6-.2.5-.6.9-1.2,1.1l1.6,2h0v.2Z"/>
  <path class="st5" d="M71.3,92.5h-.8v-3.4c0-1.3-.6-1.8-1.8-1.8h-1.6v-.4h1.9c.8,0,1.3.2,1.7.5.4.4.6,1,.6,1.8v3.4h-.1Z"/>
  <path class="st5" d="M80.2,90.3c0,.6-.2,1.3-.6,1.7s-1,.5-1.6.5h-1.4c-.6,0-1.2-.2-1.6-.5-.4-.4-.6-1-.6-1.7v-3.5h.8v3.3c0,.1,0,.3.2.4.1.1.2.2.3.2.3,0,.5-.1.9-.4.2-.3.4-.6.4-1.1v-2.5h.8v2.1c0,.6-.2,1.1-.5,1.5s-.9.6-1.4.6-.3,0-.5-.2c0,.3.2.6.5.9.3.2.6.3,1,.3h1.1c1.1,0,1.6-.6,1.6-1.8v-3.5h.8v3.5h.1Z"/>
  <path class="st5" d="M84,89.7c-.1,0-.2.1-.4.2-.1,0-.2,0-.4.1v-3.3h.9v3Z"/>
  <path class="st5" d="M91.5,92.5h-4.7v-.4h1.9c.5,0,1.1-.2,1.4-.8.3-.4.4-1.1.4-1.7s-.1-1.3-.4-1.7-.8-.6-1.4-.6h-1.8v-.5h2c.8,0,1.4.2,1.8.8.4.5.6,1.2.6,2s-.1,1.1-.3,1.5c-.2.4-.5.8-.9,1h1.4v.4"/>
  <path class="st5" d="M102.5,89.2c0,1.1-.3,1.9-1.1,2.5-.6.5-1.5.9-2.6.9v-.5c.9,0,1.5-.3,2-.9s.8-1.2.8-1.9v-.3c0-.5-.1-1-.4-1.3-.3-.3-.8-.5-1.2-.5h-1.6c-.2,0-.3-.2-.3-.5v-1.4h.8v1.2c0,.1,0,.2.1.2h1.5c.6,0,1.1.2,1.5.5.4.4.5,1,.5,1.6v.5Z"/>
  <path class="st5" d="M108.3,92.5h-.8l-.2-1.3q0-.1-.1,0c-.4.9-1,1.3-1.7,1.3s-.3,0-.5,0c0-.1,0-.3.2-.5h.4c.4,0,.9-.2,1.2-.8.3-.4.5-1,.5-1.6v-1.4c0-.8-.4-1.2-1.2-1.2h-.8v-.5h1c.5,0,1,.2,1.2.5.3.3.4.8.4,1.3v1.6c0,.6,0,1.5.2,2.4"/>
  <path class="st5" d="M115,92.5h-.8v-3.4c0-1.3-.6-1.8-1.8-1.8h-1.6v-.4h1.9c.8,0,1.3.2,1.7.5.4.4.6,1,.6,1.8v3.4h-.1Z"/>
  <rect class="st5" x="117.9" y="86.7" width=".9" height="5.8"/>
  <path class="st5" d="M126.2,86.7v.5h-.9v5.4h-.8v-5.4h-3.1v-.5h4.8-.1Z"/>
  <path class="st5" d="M133.4,89.6c0,.9-.2,1.5-.6,2-.4.5-1.1.9-1.8.9h-1.8v-.4h1.7c.5,0,1-.2,1.4-.8.3-.4.4-1,.4-1.7s-.1-1.3-.4-1.7c-.3-.4-.8-.6-1.4-.6h-1.7v-.5h1.8c.9,0,1.5.3,1.9.9.4.5.6,1.2.6,2"/>
  <path class="st5" d="M140.5,89.2c0,1.1-.3,1.9-1.1,2.5-.6.5-1.5.9-2.6.9v-.5c.9,0,1.5-.3,2-.9s.8-1.2.8-1.9v-.3c0-.5-.1-1-.4-1.3-.3-.3-.8-.5-1.2-.5h-1.6c-.2,0-.3-.2-.3-.5v-1.4h.8v1.2c0,.1,0,.2.1.2h1.5c.6,0,1.1.2,1.5.5.4.4.5,1,.5,1.6v.3h0v.2Z"/>
  <path class="st5" d="M152.6,92.5h-.8v-3.9c0-.4-.1-.8-.4-1.1-.3-.3-.6-.4-1.1-.4h-1.8v3.9c0,.4-.1.9-.3,1.1-.2.3-.5.4-1,.4s-.4,0-.6-.1v-.4h.3c.1,0,.3,0,.4-.2.1-.2.2-.4.2-.6v-4.1c0-.3.2-.5.6-.5h2.4c.5,0,1,.2,1.3.5s.5.9.5,1.3v4h0l.2.2Z"/>
  <rect class="st5" x="155.5" y="86.7" width=".8" height="5.8"/>
  <path class="st5" d="M163.8,86.7v.5h-.9v5.4h-.8v-5.4h-3.1v-.5h4.8-.1Z"/>
  <path class="st5" d="M171.5,92.5h-.8v-3.9c0-.4-.1-.8-.4-1.1-.3-.3-.6-.4-1.1-.4h-1.8v5.4h-.8v-5.3c0-.3.2-.5.6-.5h2.4c.5,0,1,.2,1.3.5s.5.9.5,1.3v4h0Z"/>
  <path class="st5" d="M179.7,92.4h-.8l-2.4-2.9c-.1-.2-.3-.2-.5-.2s-.4.2-.5.5-.2.9-.2,1.5v1.1h-.8v-1c0-.6.1-1.2.3-1.6.3-.5.6-1,1.2-1.1l-1.6-2h0v-.2h.8l2.3,2.9c.1.2.3.2.5.2s.4-.2.5-.5.2-.9.2-1.5v-1.1h.8v1c0,.6-.1,1.2-.3,1.6-.2.5-.6.9-1.2,1.1l1.6,2h0v.2Z"/>
  <path class="st5" d="M187.7,92.5h-.8v-3.9c0-.4-.1-.8-.4-1.1-.3-.3-.6-.4-1.1-.4h-1.8v3.9c0,.4-.1.9-.3,1.1-.2.3-.5.4-1,.4s-.4,0-.6-.1c0-.1,0-.2.1-.4h.3c.1,0,.3,0,.4-.2.1-.2.2-.4.2-.6v-4.1c0-.3.2-.5.6-.5h2.4c.5,0,1,.2,1.3.5s.5.9.5,1.3v4h0v.2Z"/>
  <path class="st5" d="M195.4,92.5h-.8v-3.4c0-1.3-.6-1.8-1.8-1.8h-2.1v-.4h2.5c.8,0,1.3.2,1.6.5.4.4.6,1,.6,1.8v3.4h0ZM191.5,92.5h-.8v-3c.2-.1.5-.2.8-.2v3.2Z"/>
  <path class="st5" d="M203.2,92.5h-.8v-3.4c0-1.3-.6-1.8-1.8-1.8h-2.1v-.4h2.5c.8,0,1.3.2,1.7.5.4.4.6,1,.6,1.8v3.4h-.1ZM199.2,92.5h-.8v-3c.2-.1.5-.2.8-.2v3.2Z"/>
  <path class="st3" d="M149.5,195.6c36.1-20.7,42.5-28.8,42.5-29,0-.5-.5-2-.8-3.1-5,1.3-10,2.7-15,4.2l7.2-1.5c-66,42.5-96.5,41.2-103.7,38.4-2.1-.9-2.8-1.6-2.9-1.4,1.7,3.4,2.6,6.6,4.3,10.2,1.9,4.4,31.9,3.7,68.3-17.8h.1Z"/>
  <path class="st1" d="M114.7,156.3c-21.9,10.4-33.5,10.2-39.3,10-2.3,0-3.8-.1-4.5.4-4,2.7-6.7,5.3-7.7,7.8-1.8,4.6,12.9,4.9,27.2,1.6,14.2-2.8,29-10.3,29-10.1,72.1-38.9,60.7-41,60.7-41,0,0-1.2-.3-2.1-1,0,0-1-.5-2.7-.5s-5.8.8-10.6,4.6c-8.7,7-49.7,28.6-49.8,28h0Z"/>
  <path class="st2" d="M88.7,111.6c2-1.4,4.5-2.8,7.3-4.1-1.8.8-4.6,2.1-7.3,4.1Z"/>
  <path class="st6" d="M110.2,102.6c-1,.2-2.3.6-3.5,1,1.6-.4,3.5-.9,5.7-1.2-.8,0-1.6,0-2.1.2Z"/>
  <path class="st7" d="M184.3,155.8c-3.7-7.8-10.1-15-10.2-15,.4-6.3-2-15.6-2-15.6,7.2-1.3,8.4.6,8.4.6-.3-1.1-6.7-8.1-6.8-8.1-1.7-1.4-5.5-.8-5.5-.8-10.4-13.6-25.2-15.9-38-16.1h0c-6.6,0-12.8.8-17.7,1.6h2.4c7,.2,6,8.6,6,8.7-.1,0-19.8-5.4-20-5.5,0,0,3-1.2,5.9-2-3.4.9-5.5,1.6-5.5,1.6-1.8.8-3.5,1.5-5,2.3,1.2-.5,1.9-.8,1.9-.8-3.9,2.6,21.4,11.3,21.6,11.4.2,1.1-3.3,14.5-3.3,14.6-1,.2-19.9,8.7-19.8,8.8-20.5-14.5-14.9-24.5-7.7-30-24.7,16.5-3.4,35.4-3.2,35.7-24.6,14.7-23.1,17.7-23.1,17.7l.5,10.6c0-4.7,29.1-21.4,30.3-21.6.8,1,15.5,11.3,15.6,11.4-.8,2.1-2.3,20.7-2.3,20.7-36.3,16.9-32.1,19.8-32.1,19.8,0,0,7.1,8.1,7.1,7.9-3.4-3.1,24.5-15.8,25-16,4.2,34.3,28.1,31.8,39.7,29.2,3.7-.9,6.1-1.6,6.2-1.3,48.2-19.4,33.9-61,35.1-60.1,4.4-.5,4.3,1,4.4,1.1.1-2.4-.5-10.3-.5-10.3-.3-2.3-7.1-.5-7.2-.4l-.2-.2ZM111.3,151.8c-.3,0-5.6-3.9-5.6-3.9,2.5-1.1,4.9-2.3,7.4-3.3-.6,2.4-1.2,4.7-1.8,7.2h0ZM173.5,152.5s3.5,4.5,3.8,4.9c-1.6.5-3.2,1.1-4.9,1.7,0,0,1.1-5.9,1.2-6.7h0ZM140.9,171.1s-17.9-11.7-18-12c0,0,3.9-19.2,4.1-20.1,0,0,19.4-7.4,21.3-7.6,0,0,10.8,6.2,17,12.2,0,0-2.4,17.4-3.3,19.3-6.7,2.7-13.7,5.4-20.9,8.2ZM158.3,175.6s-2,6.3-2.3,7c0,0-4.2-3.7-4.9-4.1,0,0,6.4-2.6,7.2-2.9h0ZM129.3,127.6c.3-1.8.6-3.7.9-5.4.3,0,6.4,2.8,6.4,2.9-.3,0-7.3,2.5-7.3,2.5ZM164.4,126.6c0,.3.5,5.6.5,5.6-1.9-1.4-3.9-2.8-5.8-4.2h0c.3,0,1.6-.3,2.8-.6s2.4-.6,2.4-.6h.1ZM124.1,101.6c8.4-.6,30.3-1.3,37.9,16.4,0,0-12.4,3-13.9,3.5,0,0-14.1-6.4-17.4-7.2,0-.2.4-11.3-9.7-12.5.5,0,1.6-.1,3-.2h0ZM120.3,172.9c2.1,1.3,4.3,2.6,6.4,4,0,0-6.8,3.3-7.5,3.3h0c.3-2.4.8-4.8,1.1-7.2h0ZM140,227.2h-1.7c-23.9,0-20.7-33.4-20.4-34.5,1-.6,19.8-8.6,19.9-8.7,1.9,1,14.4,10.2,14.3,10.1-13.3,36.3-.4,30.4-.4,31.5-4.4,1.1-8.3,1.5-11.5,1.5h-.1ZM152.3,225.5c-1.1-.5-5.4.3,6.2-25,.1,0,14.9,16-6,25h-.2ZM152.9,225.4c.2,0,.5-.2.8-.3-.4.2-.8.3-.8.3ZM156,224c7.1-3.7,22.3-14.9,7-34.3,0,0,5.2-14.5,6.3-18.4.1,0,11.5-4.3,12.9-4.5-.3.8,16.9,36.8-26.1,57h-.1Z"/>
</svg>