<?xml version="1.0" encoding="UTF-8"?>
<svg id="Layer_1" xmlns="http://www.w3.org/2000/svg" version="1.1" viewBox="0 0 699.7 699.7">
  <!-- Generator: Adobe Illustrator 30.0.0, SVG Export Plug-In . SVG Version: 2.1.1 Build 123)  -->
  <defs>
    <style>
      .st0 {
        fill: #fff;
      }
    </style>
  </defs>
  <path class="st0" d="M350.1,1.1h-.2C156.8,1.1.2,157.8.3,350.9c0,193.1,156.7,349.6,349.8,349.6,193.1,0,349.7-156.7,349.6-349.8C699.6,157.6,543.2,1.1,350.1,1.1ZM350.1,686.7c-185.5,0-336-150.3-336-335.8C14,165.4,164.3,15,349.9,14.9h.3c185.4.1,335.7,150.4,335.8,335.8,0,185.5-150.3,336-335.8,336Z"/>
  <path class="st0" d="M118.4,236.9l-43-29.1,17-25c6.7-10,17-12.5,27.1-5.7l26.9,18.3-27.9,41.5ZM110.4,190.1c-2.5-2-6.1-1.7-8.1.8-.3.3-.5.7-.7,1.1l-6.7,10,21.7,14.7,10.5-15.3-16.6-11.3Z"/>
  <polygon class="st0" points="136.1 173.6 124.4 162.7 118.8 169 109.3 160.4 125.6 142.5 146.7 161.8 136.1 173.6"/>
  <polygon class="st0" points="186.3 157.3 174.3 167.5 160.2 128.3 140.4 144.8 123.7 125.2 135.7 115.2 144 125.1 167.7 105.2 186.3 157.3"/>
  <path class="st0" d="M238,65.8c9.1,23.8,20.6,47.9-8.2,62.7l-24.9,13.1-29.5-43,13.8-7.1,11.9,17.4v-.2c3.9-1.3,5.9-5.5,4.6-9.3,0-.1,0-.3-.1-.4-1.6-4.5-3.5-9-5.4-13.4l13.7-7.1c1.5,4,3.3,7.8,4.7,11.6,4.8,11.8,2.5,19.1-8.7,25l-3.6,1.9,4.9,7.1,11.9-6.4c11.3-5.9,11.5-18.9,7.2-29.2l-6.3-15.1,13.9-7.6Z"/>
  <polygon class="st0" points="272.4 111.1 261.6 73.6 253.5 75.7 250 63.5 273.2 56.8 287.7 106.6 272.4 111.1"/>
  <path class="st0" d="M315.3,101.7l-4.6-32.7c-.2-3.1-2.9-5.5-6-5.3-.4,0-.9.1-1.3.2l-18.9,2.6-1.9-12.6,21.5-3.2c11.8-1.6,20.5,4.2,22.2,16.4l4.7,32.2-15.7,2.4Z"/>
  <polygon class="st0" points="343.6 76.4 343.4 60.5 335 60.6 334.9 47.8 359.1 47.4 359.4 76.2 343.6 76.4"/>
  <polygon class="st0" points="421.8 110.1 406.5 105.9 430.7 72 405.9 65.1 412.7 40.6 427.6 44.5 424.3 56.8 454 65.2 421.8 110.1"/>
  <path class="st0" d="M499.3,111.3c-8.7,15.3-20.5,23.1-37.5,14.4l-21.8-10.9,5.9-11.3,8,4,9-39.1,14.7,7.3-10.5,38.9.8.5c7.1,3.5,12.5-2.8,15.7-8.5l11.9-21.9,14.4,7.3-10.6,19.3Z"/>
  <polygon class="st0" points="494.5 145.1 517.4 113.5 510.6 108.5 518.1 98.1 537.8 112.3 507.4 154.2 494.5 145.1"/>
  <path class="st0" d="M515.3,159.7l9.1-9,22.7,22.6,14.6-14.6c3.1-3,2.7-5.2-.2-8l-7.3-7.3-10.8,10.6-11.2-11.1,20-19.8,21.3,21.3c8.2,8.5,8.7,16.2.2,24.6l-24.8,24.4-33.6-33.8Z"/>
  <path class="st0" d="M553.4,199.1l23.3-15.6,8.7,13.2-23.3,15.6-8.7-13.2ZM571.2,225.9l32.5-21.5-17.8-27,10.9-7.2,26.4,40.2-43.4,28.7-8.6-13.2Z"/>
  <path class="st0" d="M70.4,470.4l-3.7-9.3,15.2-5.9-7.1-18.6-15.1,5.7-3.7-9.2,37.6-14.4,3.6,9.4-15.1,5.7,7.1,18.9,15.1-5.7,3.6,9.2-37.5,14.3Z"/>
  <path class="st0" d="M96.6,517.9l-5.5-9.4,5.3-6.8-9-15.7-8.4,1.3-5.3-9,42.8-6.1,5.9,10.1-25.9,35.6ZM111.5,482.1l-16.5,2.7,6.1,10.6,10.4-13.3Z"/>
  <path class="st0" d="M142.8,511.7c5.6,7.3,3.1,14.4-1.4,17.7-5.3,4.1-12.9,3.2-17.1-2.1-.2-.3-.4-.6-.6-.9l-4.7-6.2-12.9,9.7-6-7.8,31.9-24.5,10.8,14.1ZM124.7,515.6l2.8,3.7c3,3.5,5.2,4,7.6,2.1,2.8-2.1,2.6-4.4-.7-8.7l-2.2-2.8-7.4,5.8Z"/>
  <path class="st0" d="M141.3,570.4c-10.5-10.1-9.5-23.3-2.5-30.8,6.9-7.2,19.9-9.5,31,.8,10.8,10.5,9.1,23.8,2.4,30.9-7.2,7.3-20.4,9-31-.9ZM163.9,546.6c-5.1-4.5-12.8-4-17.3,1.1-4.5,5.1-4,12.8,1.1,17.3,4.9,4.4,12.5,4,17-.8,4.7-4.5,4.8-11.9.3-16.5-.4-.4-.7-.7-1.2-1Z"/>
  <path class="st0" d="M191.6,609.1l-24.2-17,22.7-32.8,24.1,16.5-4.3,6.2-15.8-11.1-4.8,7,15.1,10.5-4.3,6-15-10.4-5.4,7.9,16,11.1-4.2,6.1Z"/>
  <path class="st0" d="M228.1,628.7l-27.4-14.1,18.7-35.6,8.9,4.6-15.1,29.1,18.3,9.4-3.3,6.6Z"/>
  <path class="st0" d="M260.2,636c-1,4.3-3.7,8-7.5,10.2-3.4,1.6-7.3,1.6-13.6-.9l2.5-7.5c4.4,2.3,7.4.2,9.1-4.6l11.8-34.8,9.4,3.3-11.7,34.4Z"/>
  <path class="st0" d="M299.3,650.4l-28.9-6.5,9-39.2,28.4,6.5-1.6,7.1-18.8-4.1-1.9,8.1,17.9,4.1-1.6,7.2-17.8-4-2.3,9.2,19.3,4.5-1.8,7Z"/>
  <path class="st0" d="M330.8,612.9c8.4.8,12.7,6.8,12.3,12.7-.4,4.4-3.4,8-7.7,9.2,3.9,2.3,4.7,7.6,9.4,19.6l-11.1-.7c-3.4-9-4.4-16.8-10-17.3h-2.7c0-.1-1.4,16.1-1.4,16.1l-10-.9,3.3-40.1,17.9,1.4ZM321.7,628.8l5.2.5c2.8.1,5.4-.8,5.8-4.1.4-3.1-1.4-4.7-5.2-5.2l-5.2-.2-.6,9.1Z"/>
  <path class="st0" d="M388.7,612.2l1.4,22.8c1.1,13.3-7.8,18.5-18.8,19.2-11.7,1-20.5-4-21.2-16.4l-1.7-22.8,10.1-.8,1.5,23.2c.3,5,4.6,8.9,9.6,8.6.3,0,.6,0,.9,0,5.2.1,9.5-4,9.6-9.2,0-.5,0-.9,0-1.4l-1.5-22.4,10.1-.7Z"/>
  <path class="st0" d="M423.1,615c-4.3-1.1-8.7-1.4-13.1-.7-3.8.8-5.7,2.6-5.2,4.6,1.4,5.8,21-.3,24,13.3,1.5,7.5-3.8,13.2-12.4,15.3-5,1.2-10.2,1-15.1-.7l-1.9-8.3c6.5,2.4,10.2,3,14.5,1.9,3.8-.8,5.4-2.6,4.9-4.9-1.4-6.4-20.7.5-24.1-13.7-1.4-6.7,3.4-12.5,12.5-14.6,4.6-1,9.4-.9,13.9.3l1.8,7.5Z"/>
  <path class="st0" d="M479.6,625.9l-10,3.8-6-6.1-16.7,6.4v8.7c.1,0-9.9,3.8-9.9,3.8l.8-43.4,10.7-4.3,31.1,31.1ZM446.7,605.7v16.6c.1,0,11.7-4.4,11.7-4.4l-11.7-12.3Z"/>
  <path class="st0" d="M512.8,606.2l-26.5,15.2-19.9-34.9,8.7-5.2,16.2,28.7,18-10.1,3.5,6.2Z"/>
  <path class="st0" d="M544,583.7l-23.7,17.9-24.2-32,23.3-17.7,4.5,5.9-15.3,11.6,5.1,6.7,14.6-11,4.4,5.8-14.6,11.2,5.8,7.5,15.7-11.8,4.5,5.9Z"/>
  <path class="st0" d="M547.7,523.6l6.1-6.3,28.8,27.9-6.9,7.2-18.1-17.5,1.5,16.8-1.1.9-16.5-.9,17.9,17.4-6.9,7.2-28.9-27.9,6.1-6.4,19.7,1.2-1.8-19.7Z"/>
  <path class="st0" d="M574,488.1c5.1-8,11.9-8.2,15.7-5.7,2.9,2,4.4,5.5,3.8,9,3.3-3.9,9-4.7,13.2-1.8,3.9,2.5,8.6,8.5,2.4,18.3l-10.4,16.5-33.9-21.7,9.3-14.6ZM583.6,502.9l2.8-4.4c1.6-2,1.3-4.8-.7-6.4,0,0-.2-.1-.3-.2-2.1-1.3-4.9-.7-6.2,1.4-.1.2-.2.4-.3.5l-2.7,4.5,7.3,4.6ZM597.7,512l3-4.7c3-4.7,2.7-7.1-.1-9-2.4-1.6-5.2-.2-7.1,2.7l-3.8,5.8,8,5.2Z"/>
  <path class="st0" d="M620.2,479.2c2.5,1.3,3.4,4.3,2.2,6.8-1.2,2.5-4.3,3.5-6.7,2.2,0,0-.1,0-.2-.1-2.5-1.3-3.4-4.4-2.1-6.8,1.3-2.5,4.4-3.4,6.8-2.1,0,0,0,0,0,0Z"/>
  <path class="st0" d="M637.3,441c.7,5.5,0,11.1-2.2,16.1-5.8,14.5-18.3,17.8-27.8,13.8-9.9-4-15.8-16-10-30.2,1.8-4.8,4.8-8.9,8.8-12l8.1,3.4c-3.9,2.9-7,6.7-9,11.2-3.2,7.8-.8,15.3,5.6,18.1,6.6,2.8,13.8-.8,17-8.5,1.7-4.9,2.1-10.1,1.4-15.2l8,3.3Z"/>
  <path class="st0" d="M641.4,424.6c2.7.9,4.3,3.8,3.4,6.5-.9,2.7-3.7,4.2-6.4,3.3,0,0,0,0,0,0-2.6-.7-4.1-3.4-3.4-6,0-.1,0-.2,0-.3.8-2.7,3.7-4.2,6.4-3.4Z"/>
  <path class="st0" d="M667.7,316.1v-7.7l1.2-1.8c2.8-3.9,3.3-12.1.6-13.6-1.2-.6-2.7-.5-3.8.4-3,3-4.1,7.4-2.9,11.4.8,2.1.8,1.6.2,8.7-.5,4.2-.4,8.4.2,12.5,1,8.7.8,14.2,0,15.9-1.4,1.7-3.4,2.8-5.6,2.9q-2,.2-3.3-1.4c-1-1.1-2.2-2-3.4-2.8-5.5-3.3-7.8-7.8-7.8-15.2,0-4.3,1-8.5,3-12.3.9-2.3,1.6-4.7,2.2-7.1.7-4.2.8-8.5.1-12.7-1.1-4.2-3.1-8.1-5.9-11.4-1.5-2.1-2-3.1-2-4,0-2.5-3.5-3.5-6.2-1.6-2.1.8-4.3,1.4-6.5,1.9-5.2,1.2-5.8,1.2-6.2,2.4-.5,1.2-2,1.9-4.6,2.1-.9,0-1.8.2-2.5.7-.4,1.5,0,3.1,1,4.2.5.7.9,1.5,1.1,2.4.4,1.5.7,1.6,2.2.9,3.1-1.3,5.3-.4,5.2,2,0,1.3-.2,1.5-1.7,1.9-.9.3-1.8.4-2.7.1-1.5-.6-2-.5-2,1.2s.4,2.1,1.7,2.1,1.8.7.2,2.6c-1.1,1.1-1.4,2.8-.9,4.3.1.7.5.7.9.7.9-.1.9.5.3,1.4-.6.8-1.2.3-1.7-1.7-.4-1.4-1.1-1.9-1.4-.9-.1.2-.4,1.9-.7,3.3-.4,2.3-.4,3.1,0,3.4.4.4.5.4,1.1-.1q.7-.5.5.1c-.3.7-.5,1.5-.6,2.2-.4,1.6-.6,1.9-1.6.5-.4-.7-.4-1.4-.3-4.2l.3-3.3-2.9-1.4c-3.2-1.6-6.1-3.6-8.7-5.9-5.3-4-5.5-4.5-5.5-5.8.1-1.6-1-3.1-2.6-3.4h-.1c-1.8-.4-4.9-1.3-6.8,0-1.4.9-2.3,2.4-2.5,4-.1,1.2.1,1.2.1,1.2,0,0,.4.2,1.1-.7.6-.5,1.5-.7,2.2-.5.4.3.7.6,1,.9v.2c-.6,0-1.3,0-1.9.1-1.4.6-2.3,1.8-2.5,3.3-.1,1.1.1,1.3.1,1.3,0,0,.4.2,1.1-.7.6-.6,1.5-.8,2.2-.5.3.3.6.5,1,.7-.7,0-1.3.3-1.9.6-1.2.7-2,2-2,3.4,0,1.3.2,1.3.2,1.3,0,0,.5.4.9-.6.5-.7,1.4-1.1,2.2-.9.7.5,1.3,1,1.9,1.6v.2h.1c.6,1,1.7,1.5,2.8,1.4,1.7,0,2,0,6.4,3.9,6.3,5.3,9.4,7.7,10.5,7.7.6,0,1.3-.3,1.7-.7,1.2-1,1.8-.4.5.6-4.3,3.4-8.7,6.5-13.3,9.3-2,.9-2.2.9-3.2,0-.4-.5-1-.9-1.5-1.2-.9-.3-1.9-.5-2.8-.5h0c-1.7-.1-3.4.3-4.8,1.2-1.3,1-2,2.6-2,4.2.1,1.2.4,1.2.4,1.2,0,0,.5.2.9-.7.6-.6,1.4-.9,2.2-.8.6.3,1.2.6,1.8,1.1-1-.2-2,0-3,.3-1.3.8-2,2.2-2,3.7,0,1.2.2,1.2.2,1.2,0,0,.5.3.9-.7.6-.6,1.4-.9,2.2-.7.5,0,1.3.8,1.7,1.2-1.2-.1-2.4.2-3.4.9-1.3.8-1.9,2.3-1.6,3.8.1,1.1.5,1.1.5,1.1,0,0,.5.1.8-.8.3-.7,2.1-1,2.8-.7,1.5.9,3.5.6,4.7-.7.5-.3,1.1-.4,1.7-.5,1.5.1,3-.6,3.8-1.9.5-.7,1.8-1.4,4.8-2.8,4.8-2.1,9.4-4.6,13.9-7.3q.9-.5.9,0c0,.5-.6,1.2-1.4,1.6-.9.7-1.5,1.2-1.5,1.3.9,2.4,2.1,4.7,3.7,6.7,3,3.1,6.4,5.8,10.1,7.9,1,.5,2,1.2,2.8,1.9-.1,0-1.9,1.3-4.2,2.7-6.2,4.1-11.7,9-16.5,14.6-.9,2.4-.5,5.9,1.4,11.4.8,2.5,1.5,4.8,1.6,5.3.5,1-1.1,2.1-3.1,2.1-4.4,0-8,3.5-8,7.8,0,.1,0,.3,0,.4,0,1.3.3,1.4,2,.2.4-.3.9-.5,1.4-.5.5,0,.8-.5,1.1-1,.5-.9,1.3-1.8,1.1-.8-.8,2.9-.6,3.6,1.1,2.5.6-.5,1.4-.8,2.1-.9.9-.1,1.7-.5,2.2-1.2,1.3-1.2,1.7-1.2.8.3-.7,1.3-.7,2.1.2,1.6.2,0,1.6-.4,2.8-.5,1.1-.2,2.1-.4,3.2-.7,1.6-.9,2.7-2.5,3.2-4.2,0-.7.2-1.5.5-2.1.3-1.2.3-1.6-.5-3.8-1.4-4.5-1.1-6.4,1.9-9.2,1.7-1.6,3.7-2.7,6-3.3,2.7-.9,2.8-1.2,2-3.3-.8-1.6-1.2-3.8-.5-3.8.3.3.5.7.5,1.2,1.7,4.4,4.9,8,9,10.4,1.2.8,2.3,1.6,3.3,2.6.5,1.1.8,2.3.9,3.5.2,4-.2,4.5-3.5,5.2-3.6.5-4,.9-4.8,2-1,2.1-1.6,4.3-1.7,6.6,1.9-.4,3.7-1.2,5.3-2.2l.7-1-.2,1.9-.2,1.9.8-.6c.7-.4,1.5-.6,2.3-.6,1.7-.2,2-.4,2.7-1.6.7-1.5.9-1.1.2.5-.1.8-.3,1.6-.1,1.6.1.1.7,0,1.5-.5.9-.3,1.9-.4,2.8-.5,1.7,0,3-1,4.1-3.3.5-1.2.5-2.5.1-3.8-.3-2.2-.4-4.4-.2-6.6.5-2.4.1-4.8-1.1-6.9-1.4-2.8-2.2-5.8-2.5-8.8.1-1.4.4-2.7.8-4,.4-1.4.6-2.8.6-4.2v-1.9l1.9-.3c3.6-.3,6.9-2.3,8.9-5.3,1.7-3.3,1.7-10.1.1-19.1-.6-3.6-.8-7.3-.7-11M643.9,303.9c0-.4.5-.4.9,0,.6.1.9.6.8.8-.5.4-1.2.2-1.5-.3-.1-.2-.2-.4-.2-.5M647.2,297.6c.3.3.4.7.5,1,0,.6-.5.6-.8-.1-.5-.9-.2-1.4.4-.9M645.9,309.5c-.2.3-.5.1-.7-.1-.3-.9.2-1.4.7-.8.4.4.4.6,0,1M645.1,289.1c.3.2.8.5.8.7,0,.8-.7.7-1.2-.1-.3-.6-.3-.8.4-.6M642.5,291c.3.4.4.9.4,1.4,0,1.4.6,2.6,1.5,2.6s.3.2.3.7c-.3,1.1-.8.7-1.8-.7-.9-1.5-1.3-4.5-.5-4M641.1,285.1c.3,0,.6.2.6.4,0,.3-.1.5-.4.5s-.4-.1-.6-.5c-.1-.1.1-.4.4-.4M640.6,296c.1-.2,0,.4,0,1.2-.6,1.1-.4,2.5.3,3.5.2.3.5.3.9,0,.7-.6.7,0,0,1.4-.9,1.9-1.3,1.8-2.1-1.1-.3-1-.3-2.1,0-3.2.2-.7.5-1.3.8-1.9M640.6,291.7q0,1.2-1,.2c-1.2-1-1.8-2.5-1.4-4,.4-.6.4-.5.5.7,0,1.1.1,1.4.9,1.9.5.2.9.6,1,1.2M636.4,281.7c1.5-.8,1.8-1.1,1.9-2.4.1-2,.8-1.8.8.1v1.9l-2.2.9c-3.4,1.7-3.8,1.2-.5-.6M636.1,288.8c-.2.5-.5.6-.7.1-.1-.5.6-1.2.9-1,0,.3,0,.6-.2.8M633.8,311.1c.3.3.7.5,1.1.5.5-.1.2,0-.2,1-.1.5-.4.9-.9,1.2-.7-1.2-1.1-2.6-1.2-4,.2-.8.5-1.6.8-2.3.5-1,.6-1.2.5-.6-.6,2.9-.6,3.9-.1,4.4M634.6,302c-.1.5-.4,1-.9,1.3-.7,0-1.2-2.8-.9-4.2l.5-1.2.2,1.4c.2,1.2.3,1.4.9,1.3q.9-.4.1,1.4M631.8,292.4c.3,0,.5.2.6.5.2.5.5.6,1,.5.6-.2.7-.2.5.2-.3.4-.5.9-.6,1.4q-.2.4-.7-.1c-.5-.8-1.1-2.5-.8-2.5M632.1,306.1l-.8,1.2c-.7,1.6-.9,1.6-1.3.7-.5-1.2-.6-2.5-.2-3.8.4-.5.4-.4.5.7.1.9.5,1.3,1,1.3h.8ZM630.9,299.5l-.6.9-.7-1.3c-.8-1.5-1.1-2.8-.3-3.2,0-.2.2.2.2.9,0,1.3,1.1,2.1,1.6,1.2.1-.5.3-.5.3,0-.1.5-.3,1-.6,1.4M628.8,293.1c.7-1,1.2-2.1,1.5-3.3.4-.7.5-1.4.7-1.4,1.1,0-.2,3.3-1.7,5.1-1.9,2-2.4,1.9-.5-.4M625.8,300.6c.2-.6.2-.5.5.8.2,2.1.6,2.3,1.5,1.5.7-.3.7-.1.1.9-.1.6-.8,1.3-1.1,1.3-1.1.2-1.8-2.8-1.1-4.6M623.8,284.2c-.9.8-1.1.9-1.2.5-.5-1.4-.2-1.9,1-1.9s1.1.2,1.1.4c-.1.4-.4.8-.8,1.1M621.3,301.6c.6,0,1.2-.3,1.8-.7,1.5-1.2,1.5-.9.2.7-1,1.3-1.5,1.7-2.2,1.2-.5-.5-.2-1.4.2-1.2M621,316c-.2.8-.4,1.6-.6,2.3,0,2.5-1.6.7-2.3-2.2-.3-1.3-.2-2.5.1-3.8.6-1.8,1.4-3.4,1.4-2.8s-.2,1-.3,2.2c-.5,2.1-.3,4.5.3,4.5s.6-.2,1.2-.9l.8-.7-.7,1.4ZM622.1,306.6c.3-1.2.7-2.1.7-2.1.2,0,0,1.2,0,2.4-.2,2.1-.2,2.4.6,2.1.7-.2.8,0,.2,1.2-.6,1.9-1.2,1.9-1.7.2-.5-1.2-.4-2.6.1-3.8M625.1,321c-.2.7-.5,1.4-.5,1.4-.4,0-1.1-1.2-1.7-2.5-.7-1.7-.6-3.7.2-5.3l.7-1.6v2.4c-.5,2.7.2,4.3,1.3,3.8.8-.1.9,0,0,1.9M625.5,309.6c.5-1.6,1-1.5,1,.7s.8,2.6,1.9,1.7c.5-.5.4-.1-.2,1.2-.2.6-.6,1.2-1.2,1.6-.6.3-1.6-3.8-1.4-5.2M629.8,324.5c-.2.5-.4,1.1-.5,1.7-.5,2.4-2.4-1.2-2.4-4.5s.5-2.8.6-.7c0,1.4.9,2.8,2,2.8s.5.2.2.7M629.3,317c-.5-1-.5-2.1,0-3.1.5-2.1.9-2,.5.2-.3.9-.2,2,.4,2.8.5.5.9,1,1.2.7.6-.2.7,0,.2,1.6-.8,2-1.4,1.4-2.2-2.4M634.4,325.9c-.2.5-.5,1.5-.8,2.5l-.5,1.8-.8-1.4c-1.1-1.7-1.4-3.8-.7-5.7.6-2.6,1.1-2.8.8-.2-.1,1.9-.1,2.6.3,3.1q.6.7,1.2,0t.5,0M636.1,320.7c-.5,2-.7,1.9-1.7-.2-.6-1-.8-2.2-.5-3.3l.5-1.1v1.1c0,1.8.8,3.1,1.4,2.7.5-.1.5,0,.2.8M636,295.7v-1.3l.6,1.3c.5,1.1.6,1.2,1.3.7.8-.5.8-.2.2.7-1.3,1.6-2.1,1.1-2.1-1.4M636.8,308c-.6-2.2-.5-4.5.3-6.6q.6-1.4.6-.7c0,.8,0,1.5-.2,2.2-.7,2-.4,2.9.7,2.2,1.1-.5,1.1.5.1,1.5-.4.4-.6,1-.8,1.5-.3.5-.4.5-.7-.2M637.6,315.3c-.5-1.4-.4-3,.3-4.2.5-.7.7-1.2.5-.7,0,.2-.1,1.4-.2,2.1q-.4,1.6.5,1.4.8-.5.2.9-.9,1.6-1.3.5M640.2,323.7c-.1.5-.4.9-.7,1.3-.7-1.1-1.1-2.4-1.2-3.8,0-1.3,1.4-5,1.5-4,0,.6-.2,1.3-.3,1.9-.6,1.8-.1,3.1.7,2.7.9-.1.9.1,0,1.9M641.3,310.5c-.9,0-.9-3.2-.1-4.2q.5-.6.3.8c-.2,1.4-.2,1.7.4,1.7s.7.2,0,1.2c-.2.2-.4.4-.6.6M642.6,317.1c-.4-1.4-.3-3,.2-4.4.3-.7.3-.5.2.9,0,1.2.1,1.6.5,1.5q.3,0,.3.1c-.1.5-.3,1-.5,1.4-.4.5-.6.7-.9.3"/>
  <path class="st0" d="M29.8,327.1c-1.6,9-1.6,15.8.1,19.1,2,3,5.2,5,8.8,5.3l2,.3v1.9c-.2,1.4,0,2.9.5,4.2.4,1.3.7,2.6.8,4-.3,3.1-1.1,6.1-2.5,8.8-1.2,2.1-1.6,4.6-1.1,6.9.2,2.2,0,4.4-.2,6.6-.4,1.2-.4,2.6.1,3.8,1.2,2.4,2.3,3.3,4.1,3.3,1,0,1.9.2,2.8.5.7.5,1.5.6,1.5.5.2,0,0-.8-.1-1.6-.7-1.5-.3-2,.2-.5.8,1.3,1,1.4,2.7,1.6.8,0,1.6.2,2.3.6l.7.6-.2-1.9-.2-1.9.7,1c1.6,1.1,3.4,1.8,5.3,2.2-.1-2.3-.7-4.5-1.7-6.6-.8-1.1-1.3-1.5-5-2-3.1-.7-3.6-1.2-3.3-5.2,0-1.2.3-2.4.7-3.5.2-.2,1.7-1.4,3.4-2.6,4.1-2.3,7.2-6,8.8-10.4.1-.7.3-1.2.6-1.2.6,0,.4,2.1-.3,3.8-.9,2.1-.8,2.4,1.9,3.3,2.3.6,4.3,1.7,6,3.3,3,2.8,3.3,4.7,1.9,9.2-.9,2.1-.9,2.6-.4,3.8.2.6.3,1.2.4,1.9,0,1.4,2.1,4.4,3.2,4.5,1,.3,2.1.6,3.2.7,1.2.1,2.5.5,2.8.5.8.5,1-.4.3-1.6-.9-1.4-.4-1.4.8-.3.6.7,1.4,1.1,2.3,1.2.8.2,1.6.5,2.2.9,1.5,1.2,1.9.5.9-2.5-.2-1,.6-.1,1.1.8.2.5.6,1,1,1,.5,0,1,.2,1.4.5,1.6,1.2,2.1,1.1,2.1-.2,0-4.5-3.5-8.2-7.9-8.3,0,0,0,0-.1,0-2.1,0-3.7-1.2-3.2-2.1.5-1.8,1.1-3.6,1.7-5.3,1.9-5.6,2.4-9.1,1.3-11.4-4.8-5.7-10.4-10.6-16.6-14.6-2.1-1.4-4-2.7-4.1-2.7.9-.8,1.9-1.4,3-1.9,3.7-2.1,7-4.8,9.9-7.9,1.6-2.1,2.8-4.3,3.8-6.7,0-.1-.6-.6-1.5-1.3-.9-.5-1.6-1.2-1.6-1.6s.2-.5,1.2,0c4.4,2.7,9,5.2,13.8,7.3,3.2,1.4,4.4,2.1,4.9,2.8.8,1.3,2.3,2,3.8,1.9.6,0,1.1.2,1.7.5,1.2,1.3,3.2,1.6,4.7.7.7-.2,2.5,0,2.8.7.5.9.9.8.9.8,0,0,.1,0,.3-1.1.3-1.5-.3-3-1.6-3.8-1-.7-2.2-1.1-3.4-.9.5-.4,1.2-1.2,1.7-1.2.8-.2,1.6.1,2.1.7.6,1,1,.7,1,.7,0,0,.2,0,.3-1.2,0-1.5-.8-2.9-2.1-3.7-.9-.4-1.9-.5-2.8-.3.5-.4,1.1-.8,1.7-1.1.9,0,1.7.2,2.4.8.4.9.9.7.9.7,0,0,.1,0,.1-1.2.2-1.7-.6-3.3-2-4.2-1.4-.9-3.1-1.3-4.7-1.2h0c-1,0-1.9.1-2.8.5-.6.3-1.1.7-1.5,1.2-.9.9-1.2.9-3.2,0-4.6-2.8-9.1-5.9-13.3-9.3-1.3-.9-.8-1.6.5-.6.5.4,1.1.7,1.8.7.8,0,4.3-2.4,10.4-7.7,4.5-3.9,4.8-3.9,6.5-3.9s1.8-.4,2.8-1.4h0v-.2c.6-.6,1.3-1.2,2-1.6.8-.2,1.7.2,2.1.9.6.9,1,.6,1,.6,0,0,.3,0,.3-1.3,0-1.4-.8-2.8-2.1-3.4-.6-.3-1.2-.5-1.9-.6.3-.2.7-.4,1-.7.8-.3,1.7-.2,2.3.5.7.9,1,.7,1,.7,0,0,.2-.2.2-1.3-.3-1.5-1.2-2.7-2.6-3.3-.7-.1-1.3-.2-2-.1,0,0,0-.2,0-.2.3-.3.6-.7,1-.9.8-.2,1.6,0,2.3.5.6.9,1,.7,1,.7,0,0,.2,0,.2-1.2-.3-1.6-1.3-3.1-2.6-4-2-1.3-5-.4-6.8,0h-.1c-1.6.3-2.7,1.8-2.6,3.4,0,1.3-.2,1.8-5.7,5.8-2.6,2.3-5.5,4.3-8.6,5.9l-2.9,1.4.3,3.3c.1,2.8.1,3.5-.3,4.2-.8,1.4-1.3,1.2-1.5-.5,0-.8-.3-1.5-.6-2.2q-.1-.6.5-.1c.5.5.8.5,1.1.1.2-.3.2-1.1,0-3.4-.2-1.1-.4-2.2-.7-3.3-.4-.9-1-.5-1.4.9-.5,2-1,2.5-1.6,1.7-.7-1-.6-1.5.2-1.4.5,0,.7,0,.9-.7.4-1.5,0-3.1-.9-4.3-1.4-1.9-1.4-2.6.2-2.6s1.6-.5,1.6-2.1-.5-1.8-1.9-1.2c-.9.3-1.9.2-2.9-.1-1.4-.4-1.4-.6-1.6-1.9-.1-2.4,2.1-3.3,5.2-2,1.7.7,1.8.6,2.1-.9.2-.9.6-1.6,1.2-2.4,1.2-1.2,1.7-3.5,1.1-4.2-.7-.5-1.6-.8-2.5-.7-2.6-.2-4-.9-4.6-2.1-.5-1.2-1.1-1.2-6.3-2.4-2.2-.5-4.4-1.1-6.6-1.9-2.6-1.9-5.9-.8-5.9,1.6s-.6,1.9-2.2,4c-2.7,3.4-4.7,7.3-5.9,11.4-.7,4.2-.6,8.5.2,12.7.3,1.5,1.4,4.8,2.2,7.1,2,3.8,3,8,3,12.3,0,7.4-2.2,11.9-7.6,15.2-1.3.8-2.5,1.8-3.5,2.8q-1.3,1.7-3.3,1.4c-2.1-.2-4.1-1.2-5.4-2.9-1-1.8-1-7.2-.1-15.9.5-4.1.6-8.3.2-12.5-.6-7.1-.6-6.6.2-8.7,1.1-4.1,0-8.4-3-11.4-1.1-.8-2.5-.9-3.8-.4-2.7,1.4-2.4,9.7.5,13.6l1.3,1.8v7.7c.1,3.7-.1,7.3-.7,11M52.5,304.7c-.1-.2.2-.7.7-.8.7-.4,1.1-.4,1.1,0,0,.6-.6,1.1-1.2,1-.2,0-.4,0-.5-.2M51.4,298.6c-.2.7-.8.7-.8.1,0-.4.1-.7.3-1,.7-.5.7,0,.5.9M52.2,308.6c.6-.6.9-.1.7.8-.1.2-.4.5-.7.1-.2-.3-.2-.7,0-1M53.5,289.7c-.5.8-1.2.9-1.2.1s.5-.5.7-.7c.7-.2.8,0,.5.6M55.3,295c-1,1.4-1.5,1.8-1.9.7,0-.5.1-.7.5-.7.7,0,1.4-1.2,1.4-2.6s.1-1.3.5-1.4c.7-.5.2,2.5-.5,4M57.3,285.5c0,.3-.2.5-.5.5,0,0,0,0,0,0-.1,0-.2-.1-.2-.5,0-.2.3-.4.6-.4.2,0,.5.2.2.4M58.4,297.9c.3,1,.3,2.1,0,3.2-.7,2.8-1.2,3-2.1,1.1-.8-1.4-.7-2,0-1.4.5.5.6.3,1,0,.8-1,.9-2.4.5-3.5,0-.8-.4-1.4,0-1.2.4.6.7,1.2.8,1.9M58.7,290.5c.7-.4,1-1.1.9-1.9,0-1.2,0-1.3.4-.7.3,1.5-.2,3-1.3,4q-1,.9-1-.2c0-.6.4-1,1-1.2M61.4,282.3l-2.3-.9v-1.9c0-1.9.7-2.1.8-.1.1,1.3.3,1.5,1.9,2.4,3.3,1.8,3,2.2-.4.6M61.8,287.9c.4-.2,1.1.5.8,1,0,.5-.2.3-.6-.1-.1-.3-.2-.8-.2-.8M64.3,306.7c-.2-.6,0-.4.5.6.4.7.6,1.5.8,2.3,0,1.2-.8,4-1.2,4-.4-.3-.7-.7-.8-1.2-.6-1-.7-1.1-.2-1,.4,0,.8-.2,1-.5.5-.5.4-1.4,0-4.4M63.7,300.6c.6.1.7-.1.9-1.3l.2-1.4.3,1.2c.4,1.4,0,4.2-.8,4.2-.4-.3-.7-.8-.8-1.3q-.7-1.8.1-1.4M65.6,294.9c-.5.5-.6.5-.7.1-.1-.5-.3-1-.6-1.4q-.2-.5.5-.2c.6.1.9,0,1.1-.5.1-.3.3-.5.5-.5.4,0-.1,1.6-.7,2.5M66.9,306.2c.6,0,.9-.4.9-1.3.2-1.1.2-1.2.3-.7.5,1.2.5,2.6,0,3.8-.3.9-.6.9-1.4-.7l-.6-1.2h.7ZM66.7,298.1c0-.5,0-.5.4,0,.5.9,1.4.1,1.4-1.2s.4-1.2.5-.9c.6.4.5,1.7-.5,3.2l-.7,1.3-.7-.9c0-.5-.4-1.2-.4-1.4M68.9,293.5c-1.5-1.8-2.7-5.1-1.8-5.1s.4.7.7,1.4c.2,1.3.8,2.4,1.7,3.3,1.8,2.2,1.4,2.4-.6.4M71.4,305.2c-.4,0-1-.7-1.2-1.3-.5-1.1-.5-1.3.2-.9,1,.8,1.3.6,1.4-1.5.4-1.3.4-1.4.6-.8.8,1.8,0,4.8-1.1,4.6M73.5,283.1c0-.1.7-.4,1.2-.4,1,0,1.4.5.9,1.9-.2.5-.3.4-1.1-.5-.4-.3-.7-.6-.9-1.1M77.2,302.8c-.6.5-1.4.1-2.2-1.2-1.3-1.6-1.2-1.9.2-.7.5.4,1.1.7,1.8.7.4-.2.7.7.3,1.2M76.6,314.6l.7.7c.3.4.7.8,1.2.9.7,0,.8-2.3.4-4.5-.1-1.2-.4-2.1-.4-2.2,0-.6.8,1,1.4,2.8.4,1.2.5,2.5.1,3.8-.7,2.9-2.2,4.7-2.2,2.2,0-.8-.3-1.6-.6-2.3l-.6-1.4ZM76.2,310.3c-.6,1.7-1.1,1.7-1.8-.2-.5-1.2-.4-1.4.2-1.2.8.2.8,0,.7-2.1-.1-1.2-.2-2.4,0-2.4.2.7.4,1.4.7,2.1.6,1.2.6,2.6.1,3.8M73.3,319.1c1,.5,1.6-1.1,1.4-3.8l-.4-2.4.7,1.6c1,1.6,1.1,3.6.2,5.3-.6,1.3-1.3,2.5-1.5,2.5-.2-.5-.5-1-.8-1.4-.6-1.9-.6-2,.3-1.9M71.3,314.8c-.3,0-.9-.7-1.2-1.6-.6-1.3-.6-1.7-.1-1.2.9.9,1.6.4,1.6-1.7s.6-2.3,1-.7c.3,1.4-.8,5.5-1.4,5.2M68.7,323.8c.9,0,2-1.4,2-2.8,0-2.1.6-1.7.6.7s-1.8,6.9-2.4,4.5c0-.6-.3-1.1-.5-1.7-.2-.5-.2-.7.2-.7M66.7,319.3c-.5-1.6-.5-1.9.2-1.6.2.2.7-.2,1.2-.7.5-.8.7-1.9.3-2.8-.5-2.2-.2-2.4.6-.2.4,1,.4,2.1,0,3.1-.9,3.8-1.5,4.4-2.3,2.4M64.3,325.9q.6.7,1.1,0c.5-.5.6-1.2.5-3.1-.3-2.6.1-2.4.8.2.7,1.9.4,4-.7,5.7l-.8,1.4-.5-1.8c-.2-.8-.5-1.7-.8-2.5q-.2-.7.5,0M62.4,319.9c.5.4,1.3-.9,1.3-2.7v-1.1l.5,1.1c.3,1.1,0,2.3-.6,3.3-1,2.1-1.1,2.2-1.6.2-.2-.8-.1-.9.4-.8M60.1,297.2c-.5-1-.5-1.2.2-.7.7.5.8.4,1.3-.7l.5-1.3v1.3c.1,2.5-.8,3.1-2,1.4M60.6,308.2c-.2-.5-.5-1.1-.8-1.5-.9-1.1-.9-2,.1-1.5,1,.7,1.4-.2.7-2.2-.1-.8-.4-1.8-.4-2.2,0-.7.1-.7.7.7.9,2.1,1,4.4.4,6.6-.4.7-.5.7-.7.2M59.3,314.8q-.6-1.4.2-.9c.7.2.9.2.5-1.4,0-.7-.2-1.5-.5-2.1,0-.5.3,0,.7.7.8,1.3.9,2.9.3,4.2-.4,1.2-.3,1.2-1.2-.5M58.1,321.8c.8.4,1.3-.9.7-2.7-.2-.6-.4-1.2-.3-1.9.2-1,1.5,2.7,1.5,4,0,1.3-.5,2.6-1.2,3.8-.1,0-.5-.5-.9-1.3-.7-1.8-.7-2,.2-1.9M56.2,309.9c-.6-.9-.6-1.2.1-1.2s.6-.2.3-1.7q0-1.4.2-.8c1,1.1,1,4.2,0,4.2s-.3-.1-.7-.6M54.6,316.7c-.2-.5-.3-.9-.3-1.4,0-.1,0-.1.3-.1.3.1.5-.3.5-1.5-.1-1.4-.1-1.6.2-.9.5,1.4.6,2.9.2,4.4-.2.4-.5.1-.9-.3"/>
  <g>
    <path class="st0" d="M351.5,381.1c.4,0,.8.2,1.2.2l-4.5-11.2-6.7,10.9h10Z"/>
    <path class="st0" d="M400.2,391.5c7.6-6.1,14.1-14.3,19-24.2-.2-2.3-.7-4.6-.8-6.9h4.1c2.5-6.6,4.1-14.2,5-22.2h-8.7c1-13.1,3.5-25.9,6.8-38.5-.1-.7-.2-1.4-.3-2.2-.5-2.1-1.1-4.1-1.7-6l-19.4,1.7c-4.9,18-8,37.6-8,58.9,0,13.4,1.7,26.5,4.1,39.5Z"/>
    <path class="st0" d="M508.1,191.5c-88-88.1-230.8-88.1-318.8,0-88.1,88-88.1,230.8,0,318.8,88,88.1,230.8,88.1,318.8,0,42.3-42.3,66-99.6,66-159.4,0-59.8-23.7-117.2-66-159.4ZM484.8,503.8c-1.9-1.8-4.4-4.1-7.3-7.4-9-9.5-17.1-19.9-24.2-30.9,0-.1-.1-.3-.2-.4v7.5c0,5.8-4.7,10.5-10.5,10.5h-3.7c8.5,12.4,17.8,24.1,28.4,34.8-31.1,22.1-67.8,35-105.9,37.3-.8-4.6-1.5-31-1.9-68.5l-10.6,11.9c-1.9,2.1-4.5,3.4-7.3,3.5-.2,0-.3,0-.5,0-1.4,0-2.5-.9-3.8-1.5-.2,31.3-.6,52.3-.9,54.5-38.1-2.2-74.9-15.1-106-37.3,10.6-10.6,20.1-22.4,28.5-34.8h-13.1c-4.5,0-8.2-2.8-9.7-6.7-5,6.8-9.8,13.8-15.6,20-3.2,3.3-5.7,5.7-7.4,7.5-41.3-36.7-66-88.4-68.6-143.6h84.7c.2-.6.2-1.2.4-1.8,3.4-8.9,12.4-15.1,21.7-15.1s11.2,2.4,15.2,6.8l10.2,10.1h2.8c0,.8-.2,1.7-.3,2.5l20,19.9c1.4-10.2,2.4-20.4,2.4-30.8,0-28.2-5.4-53.7-13.3-76l-26.8-7.9c9.6,22.2,15.8,45.8,17.7,70.1h-134.5c3.2-54.6,28.4-105.6,69.7-141.5,11,11.6,20.7,24.3,29.3,37.8,3.8.2,7.8.9,12.2,2.7l11.3,1.5c1-1,2.2-1.7,3.2-2.6-2.2-3.9-4.4-7.7-6.6-11.3-9.2-14.9-20-28.9-32-41.6,31-21.7,67.5-34.4,105.3-36.7.3,1.7.6,23.7.7,56.5,6.8-1.1,13.6-2,20.6-2s.7,0,1,0c.3-30.1.8-50.7,1.5-54.6,37.8,2.2,74.3,14.9,105.4,36.7-12.1,12.8-22.8,26.7-32.2,41.6-.4.6-.8,1.4-1.2,2,6,5,11.3,10.7,16,16.9,1.1-1.9,2-3.9,3.2-5.8,9-14.8,19.6-28.6,31.6-41.1,41.1,36,66.1,87,69.6,141.5h-83.8c-1.3,7.7-3.2,15.2-5.9,22.2h89.9c-2.5,55.1-27.3,106.9-68.6,143.5Z"/>
    <path class="st0" d="M407.9,422c0,.2.2.5.3.7,1,0,1.9.3,2.9.6,1-.3,1.9-.6,2.9-.6h17.7c-1.7-4.5-3.2-9-4.6-13.6-5.8,4.6-12.2,8.9-19.1,12.9Z"/>
    <path class="st0" d="M270.9,422.7c.4,0,.7.2,1.1.3.4,0,.8-.3,1.3-.3h13.8c.2,0,.3,0,.5,0l-17-13.3c-1.3,4.5-2.9,8.8-4.5,13.2h4.8Z"/>
  </g>
  <g>
    <polygon class="st0" points="238.4 418.6 249.1 418.6 249.1 433.2 270.9 433.2 262.1 472.6 245.8 472.6 245.8 461.5 252.4 461.5 255.3 443.9 238.4 443.9 238.4 418.6"/>
    <polygon class="st0" points="273.2 433.2 273.2 443.8 278.7 443.8 286 461.5 273.2 461.5 273.2 472.6 310.1 472.6 310.1 433.2 294.3 433.2 294.3 443.8 297.3 443.8 297.3 455.3 287 433.2 273.2 433.2"/>
    <polygon class="st0" points="377 433.2 408.1 433.2 408.1 472.6 377 472.6 377 461.5 395.7 461.5 395.7 443.8 389.4 443.8 389.4 452 377 452 377 433.2"/>
    <rect class="st0" x="414" y="452" width="12.8" height="20.6"/>
    <polygon class="st0" points="414 433.2 442.5 433.2 442.5 472.6 430.7 472.6 430.7 443.8 414 443.8 414 433.2"/>
    <path class="st0" d="M459.9,295.3c-12.8-86.8-124.9-113.2-189-45.5l-19.1-2.8c-29.5-12-22,27.1,2,8l70.2,20.6,12,46.6-29.3,83-48.1-47.9c-9.4-10.4-28.4,5.6-15.9,17l96.8,75.9-19.3,22.2,20.9,19.2,28.4-31.9,3.8-33.1c58.2-21.1,94.9-59.4,86.7-131.2M367.4,417.2l-22.5,26.9-33.4-34.1,38.6-63.1,27.9,68.9-10.6,1.4ZM384.8,412.2l-14.7-91.3-11.4-1.5,9.2-9.8,6.4-24.5,52.2-4.5-41.6-35.6c.9-4.8-2.2-9.4-7-10.3-2.8-.5-5.7.3-7.7,2.3-5.6,4.6-1.3,16.7,7.9,13.2l17,19.8-39-6.4-5.4-9c2.6-4,1.1-22.1-1.3-21.7-6.6-3.3-13.9-4.7-21.2-4-2.4,1.9-3.9,4.8-3.9,7.9l3.9.6,1.4,15.3c2.9,1.8,6.3,2.8,9.8,2.8l-1,6.8-57.8-11c50.2-46.1,136.2-32.9,155.2,43.7,13.7,63.2-15.2,104.5-50.7,117"/>
    <polygon class="st0" points="334.6 391.6 351.5 391.6 351.5 426.1 339 426.1 339 402.6 334.6 402.6 334.6 391.6"/>
  </g>
</svg>