<?xml version="1.0" encoding="UTF-8"?>
<svg id="Layer_1" xmlns="http://www.w3.org/2000/svg" xmlns:xlink="http://www.w3.org/1999/xlink" version="1.1" viewBox="0 0 2373.8 1204.6">
  <!-- Generator: Adobe Illustrator 30.0.0, SVG Export Plug-In . SVG Version: 2.1.1 Build 123)  -->
  <defs>
    <style>
      .st0 {
        fill: none;
      }

      .st1 {
        fill: #fef0e8;
      }

      .st2 {
        fill: #f58b6d;
      }

      .st3 {
        fill: #ee362b;
      }

      .st4 {
        fill: #fddcce;
      }

      .st5 {
        fill: #f37355;
      }

      .st6 {
        fill: #f26649;
      }

      .st7 {
        fill: #f37759;
      }

      .st8 {
        fill: #f0523a;
      }

      .st9 {
        fill: #f7977a;
      }

      .st10 {
        fill: #fabca5;
      }

      .st11 {
        fill: #f26c4e;
      }

      .st12 {
        fill: #fbcab6;
      }

      .st13 {
        fill: #ee2726;
      }

      .st14 {
        fill: #ef382c;
      }

      .st15 {
        fill: #f15c41;
      }

      .st16 {
        fill: #ee2626;
      }

      .st17 {
        fill: #f15b40;
      }

      .st18 {
        fill: #f9b39a;
      }

      .st19 {
        fill: #f9a98f;
      }

      .st20 {
        fill: #fbc4af;
      }

      .st21 {
        fill: #f69274;
      }

      .st22 {
        fill: #f1553c;
      }

      .st23 {
        fill: #f48062;
      }

      .st24 {
        fill: #f79c7f;
      }

      .st25 {
        fill: #f7987b;
      }

      .st26 {
        fill: #fee6db;
      }

      .st27 {
        fill: #f04c36;
      }

      .st28 {
        fill: #f7987a;
      }

      .st29 {
        fill: #fab9a1;
      }

      .st30 {
        fill: #ee2e28;
      }

      .st31 {
        fill: #f04a34;
      }

      .st32 {
        fill: #f36e51;
      }

      .st33 {
        fill: #f8a98e;
      }

      .st34 {
        fill: #ef3d2e;
      }

      .st35 {
        fill: #f05139;
      }

      .st36 {
        fill: #ed2125;
      }

      .st37 {
        fill: #ee3129;
      }

      .st38 {
        fill: #1f4497;
      }

      .st39 {
        fill: #fabaa2;
      }

      .st40 {
        fill: #fddbcd;
      }

      .st41 {
        fill: #fff5f0;
      }

      .st42 {
        fill: #ee352a;
      }

      .st43 {
        fill: #ef4230;
      }

      .st44 {
        fill: #f69476;
      }

      .st45 {
        fill: #f79f83;
      }

      .st46 {
        fill: #f04e37;
      }

      .st47 {
        fill: #f9aa90;
      }

      .st48 {
        fill: #fff4ee;
      }

      .st49 {
        fill: #fff1ea;
      }

      .st50 {
        fill: #fdd7c6;
      }

      .st51 {
        fill: #f58668;
      }

      .st52 {
        fill: #f79b7e;
      }

      .st53 {
        fill: #fabda6;
      }

      .st54 {
        fill: #ed1e24;
      }

      .st55 {
        fill: #fdd9c9;
      }

      .st56 {
        fill: #feede4;
      }

      .st57 {
        fill: #ef4733;
      }

      .st58 {
        fill: #ee3329;
      }

      .st59 {
        fill: #f5886a;
      }

      .st60 {
        fill: #f8a287;
      }

      .st61 {
        fill: #f9b299;
      }

      .st62 {
        fill: #ee2f28;
      }

      .st63 {
        fill: #f1593f;
      }

      .st64 {
        fill: #fbc6b1;
      }

      .st65 {
        fill: #f58365;
      }

      .st66 {
        fill: #243369;
      }

      .st67 {
        fill: #f26246;
      }

      .st68 {
        fill: #f8a78c;
      }

      .st69 {
        fill: #f37154;
      }

      .st70 {
        fill: #f8a68b;
      }

      .st71 {
        fill: #fdd8c8;
      }

      .st72 {
        fill: #fabba3;
      }

      .st73 {
        fill: #fdddcf;
      }

      .st74 {
        fill: #fab49c;
      }

      .st75 {
        fill: #ef3b2d;
      }

      .st76 {
        fill: #f47c5e;
      }

      .st77 {
        fill: #ef3e2e;
      }

      .st78 {
        fill: #fbc9b5;
      }

      .st79 {
        fill: #f68d6f;
      }

      .st80 {
        fill: #ed2025;
      }

      .st81 {
        fill: #f4795b;
      }

      .st82 {
        fill: #fbc5b0;
      }

      .st83 {
        fill: #f48163;
      }

      .st84 {
        fill: #f1563c;
      }

      .st85 {
        fill: #f1583e;
      }

      .st86 {
        fill: #f0543b;
      }

      .st87 {
        fill: #ee2a27;
      }

      .st88 {
        fill: #f9b298;
      }

      .st89 {
        fill: #f69375;
      }

      .st90 {
        fill: #fdded1;
      }

      .st91 {
        fill: #fbc1ab;
      }

      .st92 {
        fill: #f69072;
      }

      .st93 {
        fill: #f37456;
      }

      .st94 {
        fill: #ee2426;
      }

      .st95 {
        fill: #ef4632;
      }

      .st96 {
        fill: #fcccb9;
      }

      .st97 {
        fill: #fee4d9;
      }

      .st98 {
        fill: #15264d;
      }

      .st99 {
        fill: #ed1c24;
      }

      .st100 {
        fill: #fffbf9;
      }

      .st101 {
        fill: #fccbb7;
      }

      .st102 {
        fill: #f47f60;
      }

      .st103 {
        fill: #f16044;
      }

      .st104 {
        fill: #f8a388;
      }

      .st105 {
        fill: #f79d80;
      }

      .st106 {
        fill: #f47f61;
      }

      .st107 {
        fill: #f04b35;
      }

      .st108 {
        fill: #f58566;
      }

      .st109 {
        fill: #feeae0;
      }

      .st110 {
        fill: #f36d50;
      }

      .st111 {
        fill: #fccebb;
      }

      .st112 {
        fill: #ef4330;
      }

      .st113 {
        fill: #f48263;
      }

      .st114 {
        fill: #ee332a;
      }

      .st115 {
        fill: #f68c6e;
      }

      .st116 {
        fill: #f2674a;
      }

      .st117 {
        fill: #fee3d7;
      }

      .st118 {
        fill: #fff8f5;
      }

      .st119 {
        fill: #f04f37;
      }

      .st120 {
        fill: #fab59d;
      }

      .st121 {
        fill: #fff2eb;
      }

      .st122 {
        fill: #f58769;
      }

      .st123 {
        fill: #ee2526;
      }

      .st124 {
        fill: #ed1e25;
      }

      .st125 {
        fill: #ed1d24;
      }

      .st126 {
        fill: #f47b5d;
      }

      .st127 {
        fill: #f04a35;
      }

      .st128 {
        fill: #f79d81;
      }

      .st129 {
        fill: #fee8de;
      }

      .st130 {
        fill: #f37153;
      }

      .st131 {
        fill: #f37557;
      }

      .st132 {
        fill: #feeee5;
      }

      .st133 {
        fill: #f15d42;
      }

      .st134 {
        fill: #ef4532;
      }

      .st135 {
        fill: #f69679;
      }

      .st136 {
        fill: #fff;
      }

      .st137 {
        fill: #fffaf7;
      }

      .st138 {
        fill: #f9ab91;
      }

      .st139 {
        fill: #ee2826;
      }

      .st140 {
        fill: #fbc0a9;
      }

      .st141 {
        fill: #fddacb;
      }

      .st142 {
        fill: #f47e60;
      }

      .st143 {
        fill: #f79a7d;
      }

      .st144 {
        fill: #fbbfa8;
      }

      .st145 {
        fill: #ed1f25;
      }

      .st146 {
        fill: #ee2927;
      }

      .st147 {
        fill: #f15a3f;
      }

      .st148 {
        fill: #f37052;
      }

      .st149 {
        fill: #fde0d3;
      }

      .st150 {
        fill: #f58a6c;
      }

      .st151 {
        fill: #f1563d;
      }

      .st152 {
        fill: #fbc2ad;
      }

      .st153 {
        fill: #f1573d;
      }

      .st154 {
        fill: #fee5da;
      }

      .st155 {
        fill: #f15b41;
      }

      .st156 {
        fill: #f26347;
      }

      .st157 {
        fill: #ee3028;
      }

      .st158 {
        fill: #f26447;
      }

      .st159 {
        fill: #fbc7b3;
      }

      .st160 {
        fill: #ef402f;
      }

      .st161 {
        fill: #f68f71;
      }

      .st162 {
        fill: #fccdba;
      }

      .st163 {
        fill: #f8a88d;
      }

      .st164 {
        fill: #f8a58a;
      }

      .st165 {
        fill: #f68e70;
      }

      .st166 {
        fill: #fbc0aa;
      }

      .st167 {
        fill: #fdd5c4;
      }

      .st168 {
        fill: #f8a084;
      }

      .st169 {
        fill: #f4785a;
      }

      .st170 {
        fill: #fefefe;
      }

      .st171 {
        fill: #f9af95;
      }

      .st172 {
        fill: #fcd2c0;
      }

      .st173 {
        fill: #ee342a;
      }

      .st174 {
        fill: #fde1d5;
      }

      .st175 {
        fill: #f15e42;
      }

      .st176 {
        fill: #f58567;
      }

      .st177 {
        fill: #f69073;
      }

      .st178 {
        fill: #f16145;
      }

      .st179 {
        fill: #f26448;
      }

      .st180 {
        fill: #fff6f2;
      }

      .st181 {
        fill: #ef4431;
      }

      .st182 {
        fill: #fddfd2;
      }

      .st183 {
        fill: #fdd6c5;
      }

      .st184 {
        fill: #feece3;
      }

      .st185 {
        fill: #16264d;
      }

      .st186 {
        fill: #ee3229;
      }

      .st187 {
        fill: #f9ae94;
      }

      .st188 {
        fill: #ee2325;
      }

      .st189 {
        fill: #f8a286;
      }

      .st190 {
        fill: #f9ad93;
      }

      .st191 {
        fill: #f69477;
      }

      .st192 {
        fill: #ef3f2f;
      }

      .st193 {
        fill: #f2694c;
      }

      .st194 {
        fill: #f9ac92;
      }

      .st195 {
        fill: #f36f51;
      }

      .st196 {
        fill: #ed2225;
      }

      .st197 {
        fill: #fccfbc;
      }

      .st198 {
        fill: #fcd0bd;
      }

      .st199 {
        fill: #f37254;
      }

      .st200 {
        fill: #f79e82;
      }

      .st201 {
        fill: #fdd9ca;
      }

      .st202 {
        fill: #f04d36;
      }

      .st203 {
        fill: #ef4833;
      }

      .st204 {
        fill: #ee2d28;
      }

      .st205 {
        fill: #fbbea7;
      }

      .st206 {
        fill: #f69578;
      }

      .st207 {
        fill: #f2684b;
      }

      .st208 {
        fill: #f2694b;
      }

      .st209 {
        fill: #fffdfc;
      }

      .st210 {
        fill: #f26a4d;
      }

      .st211 {
        fill: #e1251b;
      }

      .st212 {
        fill: #f5896a;
      }

      .st213 {
        fill: #fcd3c1;
      }

      .st214 {
        fill: #f26d4f;
      }

      .st215 {
        fill: #ef372b;
      }

      .st216 {
        fill: #fff7f3;
      }

      .st217 {
        fill: #feefe7;
      }

      .st218 {
        fill: #feebe1;
      }

      .st219 {
        fill: #fbc3ae;
      }

      .st220 {
        fill: #f58264;
      }

      .st221 {
        fill: #f69174;
      }

      .st222 {
        fill: #ef4130;
      }

      .st223 {
        fill: #fee7dd;
      }

      .st224 {
        fill: #f8a489;
      }

      .st225 {
        fill: #fab79f;
      }

      .st226 {
        fill: #ee2b27;
      }

      .st227 {
        fill: #f04934;
      }

      .st228 {
        fill: #ef3c2d;
      }

      .st229 {
        fill: #f15f43;
      }

      .st230 {
        fill: #fab8a0;
      }

      .st231 {
        fill: #ef392c;
      }

      .st232 {
        fill: #f47d5f;
      }

      .st233 {
        fill: #f26549;
      }

      .st234, .st235 {
        fill: #21409a;
      }

      .st236 {
        fill: #fcd4c2;
      }

      .st237 {
        fill: #fbc8b4;
      }

      .st238 {
        fill: #fff3ed;
      }

      .st239 {
        fill: #f7997c;
      }

      .st240 {
        fill: #ef3a2c;
      }

      .st241 {
        fill: #f58466;
      }

      .st242 {
        fill: #f5896b;
      }

      .st243 {
        fill: #f05038;
      }

      .st244 {
        clip-path: url(#clippath);
      }

      .st245 {
        fill: #f8a185;
      }

      .st246 {
        fill: #f9b096;
      }

      .st247 {
        fill: #ee2c27;
      }

      .st248 {
        fill: #fab69e;
      }

      .st249 {
        fill: #f37658;
      }

      .st250 {
        fill: #f9b197;
      }

      .st251 {
        fill: #f26b4e;
      }

      .st252 {
        fill: #f47a5c;
      }

      .st253 {
        fill: #fde2d6;
      }

      .st254 {
        fill: #f0533a;
      }

      .st255 {
        fill: #fcd1bf;
      }

      .st235 {
        fill-rule: evenodd;
      }
    </style>
    <clipPath id="clippath">
      <polygon class="st0" points="1462.6 969.7 1445.6 1052.4 2309 1052.4 2326.1 969.7 1462.6 969.7"/>
    </clipPath>
  </defs>
  <g>
    <g>
      <g>
        <g class="st244">
          <polygon class="st136" points="1482.1 969.7 1445.6 1033 1445.6 969.7 1482.1 969.7"/>
          <polygon class="st136" points="1482.5 969.7 1445.6 1033.7 1445.6 1033 1482.1 969.7 1482.5 969.7"/>
          <polygon class="st209" points="1482.9 969.7 1445.6 1034.3 1445.6 1033.7 1482.5 969.7 1482.9 969.7"/>
          <polygon class="st100" points="1483.3 969.7 1445.6 1035 1445.6 1034.3 1482.9 969.7 1483.3 969.7"/>
          <polygon class="st137" points="1483.7 969.7 1445.6 1035.7 1445.6 1035 1483.3 969.7 1483.7 969.7"/>
          <polygon class="st118" points="1484.1 969.7 1445.6 1036.3 1445.6 1035.7 1483.7 969.7 1484.1 969.7"/>
          <polygon class="st216" points="1484.4 969.7 1445.6 1037 1445.6 1036.3 1484.1 969.7 1484.4 969.7"/>
          <polygon class="st180" points="1484.8 969.7 1445.6 1037.6 1445.6 1037 1484.4 969.7 1484.8 969.7"/>
          <polygon class="st41" points="1485.2 969.7 1445.6 1038.3 1445.6 1037.6 1484.8 969.7 1485.2 969.7"/>
          <polygon class="st48" points="1485.6 969.7 1445.6 1039 1445.6 1038.3 1485.2 969.7 1485.6 969.7"/>
          <polygon class="st238" points="1486 969.7 1445.6 1039.6 1445.6 1039 1485.6 969.7 1486 969.7"/>
          <polygon class="st121" points="1486.3 969.7 1445.6 1040.3 1445.6 1039.6 1486 969.7 1486.3 969.7"/>
          <polygon class="st49" points="1486.7 969.7 1445.6 1040.9 1445.6 1040.3 1486.3 969.7 1486.7 969.7"/>
          <polygon class="st1" points="1487.1 969.7 1445.6 1041.6 1445.6 1040.9 1486.7 969.7 1487.1 969.7"/>
          <polygon class="st217" points="1487.5 969.7 1445.6 1042.3 1445.6 1041.6 1487.1 969.7 1487.5 969.7"/>
          <polygon class="st132" points="1487.9 969.7 1445.6 1042.9 1445.6 1042.3 1487.5 969.7 1487.9 969.7"/>
          <polygon class="st56" points="1488.3 969.7 1445.6 1043.6 1445.6 1042.9 1487.9 969.7 1488.3 969.7"/>
          <polygon class="st184" points="1488.6 969.7 1445.6 1044.3 1445.6 1043.6 1488.3 969.7 1488.6 969.7"/>
          <polygon class="st218" points="1489 969.7 1445.6 1044.9 1445.6 1044.3 1488.6 969.7 1489 969.7"/>
          <polygon class="st109" points="1489.4 969.7 1445.6 1045.6 1445.6 1044.9 1489 969.7 1489.4 969.7"/>
          <polygon class="st129" points="1489.8 969.7 1445.6 1046.2 1445.6 1045.6 1489.4 969.7 1489.8 969.7"/>
          <polygon class="st223" points="1490.2 969.7 1445.6 1046.9 1445.6 1046.2 1489.8 969.7 1490.2 969.7"/>
          <polygon class="st26" points="1490.5 969.7 1445.6 1047.6 1445.6 1046.9 1490.2 969.7 1490.5 969.7"/>
          <polygon class="st154" points="1490.9 969.7 1445.6 1048.2 1445.6 1047.6 1490.5 969.7 1490.9 969.7"/>
          <polygon class="st97" points="1491.3 969.7 1445.6 1048.9 1445.6 1048.2 1490.9 969.7 1491.3 969.7"/>
          <polygon class="st117" points="1491.7 969.7 1445.6 1049.5 1445.6 1048.9 1491.3 969.7 1491.7 969.7"/>
          <polygon class="st253" points="1492.1 969.7 1445.6 1050.2 1445.6 1049.5 1491.7 969.7 1492.1 969.7"/>
          <polygon class="st174" points="1492.5 969.7 1445.6 1050.9 1445.6 1050.2 1492.1 969.7 1492.5 969.7"/>
          <polygon class="st149" points="1492.8 969.7 1445.6 1051.5 1445.6 1050.9 1492.5 969.7 1492.8 969.7"/>
          <polygon class="st182" points="1493.2 969.7 1445.6 1052.2 1445.6 1051.5 1492.8 969.7 1493.2 969.7"/>
          <polygon class="st90" points="1493.6 969.7 1445.8 1052.4 1445.6 1052.4 1445.6 1052.2 1493.2 969.7 1493.6 969.7"/>
          <polygon class="st73" points="1494 969.7 1446.2 1052.4 1445.8 1052.4 1493.6 969.7 1494 969.7"/>
          <polygon class="st4" points="1494.4 969.7 1446.6 1052.4 1446.2 1052.4 1494 969.7 1494.4 969.7"/>
          <polygon class="st40" points="1494.8 969.7 1447 1052.4 1446.6 1052.4 1494.4 969.7 1494.8 969.7"/>
          <polygon class="st141" points="1495.1 969.7 1447.4 1052.4 1447 1052.4 1494.8 969.7 1495.1 969.7"/>
          <polygon class="st201" points="1495.5 969.7 1447.8 1052.4 1447.4 1052.4 1495.1 969.7 1495.5 969.7"/>
          <polygon class="st55" points="1495.9 969.7 1448.1 1052.4 1447.8 1052.4 1495.5 969.7 1495.9 969.7"/>
          <polygon class="st71" points="1496.3 969.7 1448.5 1052.4 1448.1 1052.4 1495.9 969.7 1496.3 969.7"/>
          <polygon class="st50" points="1496.7 969.7 1448.9 1052.4 1448.5 1052.4 1496.3 969.7 1496.7 969.7"/>
          <polygon class="st183" points="1497 969.7 1449.3 1052.4 1448.9 1052.4 1496.7 969.7 1497 969.7"/>
          <polygon class="st167" points="1497.4 969.7 1449.7 1052.4 1449.3 1052.4 1497 969.7 1497.4 969.7"/>
          <polygon class="st236" points="1497.8 969.7 1450 1052.4 1449.7 1052.4 1497.4 969.7 1497.8 969.7"/>
          <polygon class="st213" points="1498.2 969.7 1450.4 1052.4 1450 1052.4 1497.8 969.7 1498.2 969.7"/>
          <polygon class="st172" points="1498.6 969.7 1450.8 1052.4 1450.4 1052.4 1498.2 969.7 1498.6 969.7"/>
          <polygon class="st255" points="1499 969.7 1451.2 1052.4 1450.8 1052.4 1498.6 969.7 1499 969.7"/>
          <polygon class="st198" points="1499.3 969.7 1451.6 1052.4 1451.2 1052.4 1499 969.7 1499.3 969.7"/>
          <polygon class="st197" points="1499.7 969.7 1452 1052.4 1451.6 1052.4 1499.3 969.7 1499.7 969.7"/>
          <polygon class="st111" points="1500.1 969.7 1452.3 1052.4 1452 1052.4 1499.7 969.7 1500.1 969.7"/>
          <polygon class="st162" points="1500.5 969.7 1452.7 1052.4 1452.3 1052.4 1500.1 969.7 1500.5 969.7"/>
          <polygon class="st96" points="1500.9 969.7 1453.1 1052.4 1452.7 1052.4 1500.5 969.7 1500.9 969.7"/>
          <polygon class="st101" points="1501.2 969.7 1453.5 1052.4 1453.1 1052.4 1500.9 969.7 1501.2 969.7"/>
          <polygon class="st12" points="1501.6 969.7 1453.9 1052.4 1453.5 1052.4 1501.2 969.7 1501.6 969.7"/>
          <polygon class="st78" points="1502 969.7 1454.2 1052.4 1453.9 1052.4 1501.6 969.7 1502 969.7"/>
          <polygon class="st237" points="1502.4 969.7 1454.6 1052.4 1454.2 1052.4 1502 969.7 1502.4 969.7"/>
          <polygon class="st159" points="1502.8 969.7 1455 1052.4 1454.6 1052.4 1502.4 969.7 1502.8 969.7"/>
          <polygon class="st64" points="1503.2 969.7 1455.4 1052.4 1455 1052.4 1502.8 969.7 1503.2 969.7"/>
          <polygon class="st82" points="1503.5 969.7 1455.8 1052.4 1455.4 1052.4 1503.2 969.7 1503.5 969.7"/>
          <polygon class="st20" points="1503.9 969.7 1456.2 1052.4 1455.8 1052.4 1503.5 969.7 1503.9 969.7"/>
          <polygon class="st219" points="1504.3 969.7 1456.5 1052.4 1456.2 1052.4 1503.9 969.7 1504.3 969.7"/>
          <polygon class="st152" points="1504.7 969.7 1456.9 1052.4 1456.5 1052.4 1504.3 969.7 1504.7 969.7"/>
          <polygon class="st91" points="1505.1 969.7 1457.3 1052.4 1456.9 1052.4 1504.7 969.7 1505.1 969.7"/>
          <polygon class="st166" points="1505.4 969.7 1457.7 1052.4 1457.3 1052.4 1505.1 969.7 1505.4 969.7"/>
          <polygon class="st140" points="1505.8 969.7 1458.1 1052.4 1457.7 1052.4 1505.4 969.7 1505.8 969.7"/>
          <polygon class="st144" points="1506.2 969.7 1458.4 1052.4 1458.1 1052.4 1505.8 969.7 1506.2 969.7"/>
          <polygon class="st205" points="1506.6 969.7 1458.8 1052.4 1458.4 1052.4 1506.2 969.7 1506.6 969.7"/>
          <polygon class="st53" points="1507 969.7 1459.2 1052.4 1458.8 1052.4 1506.6 969.7 1507 969.7"/>
          <polygon class="st10" points="1507.4 969.7 1459.6 1052.4 1459.2 1052.4 1507 969.7 1507.4 969.7"/>
          <polygon class="st72" points="1507.7 969.7 1460 1052.4 1459.6 1052.4 1507.4 969.7 1507.7 969.7"/>
          <polygon class="st39" points="1508.1 969.7 1460.4 1052.4 1460 1052.4 1507.7 969.7 1508.1 969.7"/>
          <polygon class="st29" points="1508.5 969.7 1460.7 1052.4 1460.4 1052.4 1508.1 969.7 1508.5 969.7"/>
          <polygon class="st230" points="1508.9 969.7 1461.1 1052.4 1460.7 1052.4 1508.5 969.7 1508.9 969.7"/>
          <polygon class="st225" points="1509.3 969.7 1461.5 1052.4 1461.1 1052.4 1508.9 969.7 1509.3 969.7"/>
          <polygon class="st248" points="1509.6 969.7 1461.9 1052.4 1461.5 1052.4 1509.3 969.7 1509.6 969.7"/>
          <polygon class="st120" points="1510 969.7 1462.3 1052.4 1461.9 1052.4 1509.6 969.7 1510 969.7"/>
          <polygon class="st74" points="1510.4 969.7 1462.6 1052.4 1462.3 1052.4 1510 969.7 1510.4 969.7"/>
          <polygon class="st18" points="1510.8 969.7 1463 1052.4 1462.6 1052.4 1510.4 969.7 1510.8 969.7"/>
          <polygon class="st61" points="1511.2 969.7 1463.4 1052.4 1463 1052.4 1510.8 969.7 1511.2 969.7"/>
          <polygon class="st88" points="1511.6 969.7 1463.8 1052.4 1463.4 1052.4 1511.2 969.7 1511.6 969.7"/>
          <polygon class="st250" points="1511.9 969.7 1464.2 1052.4 1463.8 1052.4 1511.6 969.7 1511.9 969.7"/>
          <polygon class="st246" points="1512.3 969.7 1464.6 1052.4 1464.2 1052.4 1511.9 969.7 1512.3 969.7"/>
          <polygon class="st171" points="1512.7 969.7 1464.9 1052.4 1464.6 1052.4 1512.3 969.7 1512.7 969.7"/>
          <polygon class="st187" points="1513.1 969.7 1465.3 1052.4 1464.9 1052.4 1512.7 969.7 1513.1 969.7"/>
          <polygon class="st190" points="1513.5 969.7 1465.7 1052.4 1465.3 1052.4 1513.1 969.7 1513.5 969.7"/>
          <polygon class="st194" points="1513.8 969.7 1466.1 1052.4 1465.7 1052.4 1513.5 969.7 1513.8 969.7"/>
          <polygon class="st138" points="1514.2 969.7 1466.5 1052.4 1466.1 1052.4 1513.8 969.7 1514.2 969.7"/>
          <polygon class="st47" points="1514.6 969.7 1466.8 1052.4 1466.5 1052.4 1514.2 969.7 1514.6 969.7"/>
          <polygon class="st19" points="1515 969.7 1467.2 1052.4 1466.8 1052.4 1514.6 969.7 1515 969.7"/>
          <polygon class="st33" points="1515.4 969.7 1467.6 1052.4 1467.2 1052.4 1515 969.7 1515.4 969.7"/>
          <polygon class="st163" points="1515.8 969.7 1468 1052.4 1467.6 1052.4 1515.4 969.7 1515.8 969.7"/>
          <polygon class="st68" points="1516.1 969.7 1468.4 1052.4 1468 1052.4 1515.8 969.7 1516.1 969.7"/>
          <polygon class="st70" points="1516.5 969.7 1468.8 1052.4 1468.4 1052.4 1516.1 969.7 1516.5 969.7"/>
          <polygon class="st164" points="1516.9 969.7 1469.1 1052.4 1468.8 1052.4 1516.5 969.7 1516.9 969.7"/>
          <polygon class="st224" points="1517.3 969.7 1469.5 1052.4 1469.1 1052.4 1516.9 969.7 1517.3 969.7"/>
          <polygon class="st104" points="1517.7 969.7 1469.9 1052.4 1469.5 1052.4 1517.3 969.7 1517.7 969.7"/>
          <polygon class="st60" points="1518 969.7 1470.3 1052.4 1469.9 1052.4 1517.7 969.7 1518 969.7"/>
          <polygon class="st189" points="1518.4 969.7 1470.7 1052.4 1470.3 1052.4 1518 969.7 1518.4 969.7"/>
          <polygon class="st245" points="1518.8 969.7 1471 1052.4 1470.7 1052.4 1518.4 969.7 1518.8 969.7"/>
          <polygon class="st168" points="1519.2 969.7 1471.4 1052.4 1471 1052.4 1518.8 969.7 1519.2 969.7"/>
          <polygon class="st45" points="1519.6 969.7 1471.8 1052.4 1471.4 1052.4 1519.2 969.7 1519.6 969.7"/>
          <polygon class="st200" points="1520 969.7 1472.2 1052.4 1471.8 1052.4 1519.6 969.7 1520 969.7"/>
          <polygon class="st128" points="1520.3 969.7 1472.6 1052.4 1472.2 1052.4 1520 969.7 1520.3 969.7"/>
          <polygon class="st105" points="1520.7 969.7 1473 1052.4 1472.6 1052.4 1520.3 969.7 1520.7 969.7"/>
          <polygon class="st24" points="1521.1 969.7 1473.3 1052.4 1473 1052.4 1520.7 969.7 1521.1 969.7"/>
          <polygon class="st52" points="1521.5 969.7 1473.7 1052.4 1473.3 1052.4 1521.1 969.7 1521.5 969.7"/>
          <polygon class="st143" points="1521.9 969.7 1474.1 1052.4 1473.7 1052.4 1521.5 969.7 1521.9 969.7"/>
          <polygon class="st239" points="1522.2 969.7 1474.5 1052.4 1474.1 1052.4 1521.9 969.7 1522.2 969.7"/>
          <polygon class="st25" points="1522.6 969.7 1474.9 1052.4 1474.5 1052.4 1522.2 969.7 1522.6 969.7"/>
          <polygon class="st28" points="1523 969.7 1475.3 1052.4 1474.9 1052.4 1522.6 969.7 1523 969.7"/>
          <polygon class="st9" points="1523.4 969.7 1475.6 1052.4 1475.3 1052.4 1523 969.7 1523.4 969.7"/>
          <polygon class="st135" points="1523.8 969.7 1476 1052.4 1475.6 1052.4 1523.4 969.7 1523.8 969.7"/>
          <polygon class="st206" points="1524.2 969.7 1476.4 1052.4 1476 1052.4 1523.8 969.7 1524.2 969.7"/>
          <polygon class="st191" points="1524.5 969.7 1476.8 1052.4 1476.4 1052.4 1524.2 969.7 1524.5 969.7"/>
          <polygon class="st44" points="1524.9 969.7 1477.2 1052.4 1476.8 1052.4 1524.5 969.7 1524.9 969.7"/>
          <polygon class="st89" points="1525.3 969.7 1477.5 1052.4 1477.2 1052.4 1524.9 969.7 1525.3 969.7"/>
          <polygon class="st21" points="1525.7 969.7 1477.9 1052.4 1477.5 1052.4 1525.3 969.7 1525.7 969.7"/>
          <polygon class="st221" points="1526.1 969.7 1478.3 1052.4 1477.9 1052.4 1525.7 969.7 1526.1 969.7"/>
          <polygon class="st177" points="1526.4 969.7 1478.7 1052.4 1478.3 1052.4 1526.1 969.7 1526.4 969.7"/>
          <polygon class="st92" points="1526.8 969.7 1479.1 1052.4 1478.7 1052.4 1526.4 969.7 1526.8 969.7"/>
          <polygon class="st161" points="1527.2 969.7 1479.5 1052.4 1479.1 1052.4 1526.8 969.7 1527.2 969.7"/>
          <polygon class="st165" points="1527.6 969.7 1479.8 1052.4 1479.5 1052.4 1527.2 969.7 1527.6 969.7"/>
          <polygon class="st79" points="1528 969.7 1480.2 1052.4 1479.8 1052.4 1527.6 969.7 1528 969.7"/>
          <polygon class="st79" points="1528.4 969.7 1480.6 1052.4 1480.2 1052.4 1528 969.7 1528.4 969.7"/>
          <polygon class="st115" points="1528.7 969.7 1481 1052.4 1480.6 1052.4 1528.4 969.7 1528.7 969.7"/>
          <polygon class="st2" points="1529.1 969.7 1481.4 1052.4 1481 1052.4 1528.7 969.7 1529.1 969.7"/>
          <polygon class="st150" points="1529.5 969.7 1481.7 1052.4 1481.4 1052.4 1529.1 969.7 1529.5 969.7"/>
          <polygon class="st242" points="1529.9 969.7 1482.1 1052.4 1481.7 1052.4 1529.5 969.7 1529.9 969.7"/>
          <polygon class="st212" points="1530.3 969.7 1482.5 1052.4 1482.1 1052.4 1529.9 969.7 1530.3 969.7"/>
          <polygon class="st59" points="1530.6 969.7 1482.9 1052.4 1482.5 1052.4 1530.3 969.7 1530.6 969.7"/>
          <polygon class="st122" points="1531 969.7 1483.3 1052.4 1482.9 1052.4 1530.6 969.7 1531 969.7"/>
          <polygon class="st51" points="1531.4 969.7 1483.7 1052.4 1483.3 1052.4 1531 969.7 1531.4 969.7"/>
          <polygon class="st176" points="1531.8 969.7 1484 1052.4 1483.7 1052.4 1531.4 969.7 1531.8 969.7"/>
          <polygon class="st108" points="1532.2 969.7 1484.4 1052.4 1484 1052.4 1531.8 969.7 1532.2 969.7"/>
          <polygon class="st241" points="1532.6 969.7 1484.8 1052.4 1484.4 1052.4 1532.2 969.7 1532.6 969.7"/>
          <polygon class="st65" points="1532.9 969.7 1485.2 1052.4 1484.8 1052.4 1532.6 969.7 1532.9 969.7"/>
          <polygon class="st220" points="1533.3 969.7 1485.6 1052.4 1485.2 1052.4 1532.9 969.7 1533.3 969.7"/>
          <polygon class="st113" points="1533.7 969.7 1485.9 1052.4 1485.6 1052.4 1533.3 969.7 1533.7 969.7"/>
          <polygon class="st83" points="1534.1 969.7 1486.3 1052.4 1485.9 1052.4 1533.7 969.7 1534.1 969.7"/>
          <polygon class="st23" points="1534.5 969.7 1486.7 1052.4 1486.3 1052.4 1534.1 969.7 1534.5 969.7"/>
          <polygon class="st106" points="1534.8 969.7 1487.1 1052.4 1486.7 1052.4 1534.5 969.7 1534.8 969.7"/>
          <polygon class="st102" points="1535.2 969.7 1487.5 1052.4 1487.1 1052.4 1534.8 969.7 1535.2 969.7"/>
          <polygon class="st142" points="1535.6 969.7 1487.9 1052.4 1487.5 1052.4 1535.2 969.7 1535.6 969.7"/>
          <polygon class="st232" points="1536 969.7 1488.2 1052.4 1487.9 1052.4 1535.6 969.7 1536 969.7"/>
          <polygon class="st76" points="1536.4 969.7 1488.6 1052.4 1488.2 1052.4 1536 969.7 1536.4 969.7"/>
          <polygon class="st126" points="1536.8 969.7 1489 1052.4 1488.6 1052.4 1536.4 969.7 1536.8 969.7"/>
          <polygon class="st126" points="1537.1 969.7 1489.4 1052.4 1489 1052.4 1536.8 969.7 1537.1 969.7"/>
          <polygon class="st252" points="1537.5 969.7 1489.8 1052.4 1489.4 1052.4 1537.1 969.7 1537.5 969.7"/>
          <polygon class="st81" points="1537.9 969.7 1490.1 1052.4 1489.8 1052.4 1537.5 969.7 1537.9 969.7"/>
          <polygon class="st169" points="1538.3 969.7 1490.5 1052.4 1490.1 1052.4 1537.9 969.7 1538.3 969.7"/>
          <polygon class="st169" points="1538.7 969.7 1490.9 1052.4 1490.5 1052.4 1538.3 969.7 1538.7 969.7"/>
          <polygon class="st7" points="1539 969.7 1491.3 1052.4 1490.9 1052.4 1538.7 969.7 1539 969.7"/>
          <polygon class="st249" points="1539.4 969.7 1491.7 1052.4 1491.3 1052.4 1539 969.7 1539.4 969.7"/>
          <polygon class="st131" points="1539.8 969.7 1492.1 1052.4 1491.7 1052.4 1539.4 969.7 1539.8 969.7"/>
          <polygon class="st131" points="1540.2 969.7 1492.4 1052.4 1492.1 1052.4 1539.8 969.7 1540.2 969.7"/>
          <polygon class="st93" points="1540.6 969.7 1492.8 1052.4 1492.4 1052.4 1540.2 969.7 1540.6 969.7"/>
          <polygon class="st5" points="1541 969.7 1493.2 1052.4 1492.8 1052.4 1540.6 969.7 1541 969.7"/>
          <polygon class="st199" points="1541.3 969.7 1493.6 1052.4 1493.2 1052.4 1541 969.7 1541.3 969.7"/>
          <polygon class="st69" points="1541.7 969.7 1494 1052.4 1493.6 1052.4 1541.3 969.7 1541.7 969.7"/>
          <polygon class="st130" points="1542.1 969.7 1494.3 1052.4 1494 1052.4 1541.7 969.7 1542.1 969.7"/>
          <polygon class="st148" points="1542.5 969.7 1494.7 1052.4 1494.3 1052.4 1542.1 969.7 1542.5 969.7"/>
          <polygon class="st195" points="1542.9 969.7 1495.1 1052.4 1494.7 1052.4 1542.5 969.7 1542.9 969.7"/>
          <polygon class="st32" points="1543.2 969.7 1495.5 1052.4 1495.1 1052.4 1542.9 969.7 1543.2 969.7"/>
          <polygon class="st110" points="1543.6 969.7 1495.9 1052.4 1495.5 1052.4 1543.2 969.7 1543.6 969.7"/>
          <polygon class="st214" points="1544 969.7 1496.3 1052.4 1495.9 1052.4 1543.6 969.7 1544 969.7"/>
          <polygon class="st11" points="1544.4 969.7 1496.6 1052.4 1496.3 1052.4 1544 969.7 1544.4 969.7"/>
          <polygon class="st251" points="1544.8 969.7 1497 1052.4 1496.6 1052.4 1544.4 969.7 1544.8 969.7"/>
          <polygon class="st210" points="1545.2 969.7 1497.4 1052.4 1497 1052.4 1544.8 969.7 1545.2 969.7"/>
          <polygon class="st193" points="1545.5 969.7 1497.8 1052.4 1497.4 1052.4 1545.2 969.7 1545.5 969.7"/>
          <polygon class="st208" points="1545.9 969.7 1498.2 1052.4 1497.8 1052.4 1545.5 969.7 1545.9 969.7"/>
          <polygon class="st207" points="1546.3 969.7 1498.5 1052.4 1498.2 1052.4 1545.9 969.7 1546.3 969.7"/>
          <polygon class="st116" points="1546.7 969.7 1498.9 1052.4 1498.5 1052.4 1546.3 969.7 1546.7 969.7"/>
          <polygon class="st6" points="1547.1 969.7 1499.3 1052.4 1498.9 1052.4 1546.7 969.7 1547.1 969.7"/>
          <polygon class="st233" points="1547.4 969.7 1499.7 1052.4 1499.3 1052.4 1547.1 969.7 1547.4 969.7"/>
          <polygon class="st179" points="1547.8 969.7 1500.1 1052.4 1499.7 1052.4 1547.4 969.7 1547.8 969.7"/>
          <polygon class="st158" points="1548.2 969.7 1500.5 1052.4 1500.1 1052.4 1547.8 969.7 1548.2 969.7"/>
          <polygon class="st156" points="1548.6 969.7 1500.8 1052.4 1500.5 1052.4 1548.2 969.7 1548.6 969.7"/>
          <polygon class="st67" points="1549 969.7 1501.2 1052.4 1500.8 1052.4 1548.6 969.7 1549 969.7"/>
          <polygon class="st178" points="1549.4 969.7 1501.6 1052.4 1501.2 1052.4 1549 969.7 1549.4 969.7"/>
          <polygon class="st103" points="1549.7 969.7 1502 1052.4 1501.6 1052.4 1549.4 969.7 1549.7 969.7"/>
          <polygon class="st103" points="1550.1 969.7 1502.4 1052.4 1502 1052.4 1549.7 969.7 1550.1 969.7"/>
          <polygon class="st229" points="1550.5 969.7 1502.7 1052.4 1502.4 1052.4 1550.1 969.7 1550.5 969.7"/>
          <polygon class="st175" points="1550.9 969.7 1503.1 1052.4 1502.7 1052.4 1550.5 969.7 1550.9 969.7"/>
          <polygon class="st133" points="1551.3 969.7 1503.5 1052.4 1503.1 1052.4 1550.9 969.7 1551.3 969.7"/>
          <polygon class="st15" points="1551.6 969.7 1503.9 1052.4 1503.5 1052.4 1551.3 969.7 1551.6 969.7"/>
          <polygon class="st155" points="1552 969.7 1504.3 1052.4 1503.9 1052.4 1551.6 969.7 1552 969.7"/>
          <polygon class="st17" points="1552.4 969.7 1504.7 1052.4 1504.3 1052.4 1552 969.7 1552.4 969.7"/>
          <polygon class="st147" points="1552.8 969.7 1505 1052.4 1504.7 1052.4 1552.4 969.7 1552.8 969.7"/>
          <polygon class="st63" points="1553.2 969.7 1505.4 1052.4 1505 1052.4 1552.8 969.7 1553.2 969.7"/>
          <polygon class="st85" points="1553.6 969.7 1505.8 1052.4 1505.4 1052.4 1553.2 969.7 1553.6 969.7"/>
          <polygon class="st153" points="1553.9 969.7 1506.2 1052.4 1505.8 1052.4 1553.6 969.7 1553.9 969.7"/>
          <polygon class="st151" points="1554.3 969.7 1506.6 1052.4 1506.2 1052.4 1553.9 969.7 1554.3 969.7"/>
          <polygon class="st84" points="1554.7 969.7 1506.9 1052.4 1506.6 1052.4 1554.3 969.7 1554.7 969.7"/>
          <polygon class="st22" points="1555.1 969.7 1507.3 1052.4 1506.9 1052.4 1554.7 969.7 1555.1 969.7"/>
          <polygon class="st86" points="1555.5 969.7 1507.7 1052.4 1507.3 1052.4 1555.1 969.7 1555.5 969.7"/>
          <polygon class="st254" points="1555.9 969.7 1508.1 1052.4 1507.7 1052.4 1555.5 969.7 1555.9 969.7"/>
          <polygon class="st8" points="1556.2 969.7 1508.5 1052.4 1508.1 1052.4 1555.9 969.7 1556.2 969.7"/>
          <polygon class="st35" points="1556.6 969.7 1508.9 1052.4 1508.5 1052.4 1556.2 969.7 1556.6 969.7"/>
          <polygon class="st35" points="1557 969.7 1509.2 1052.4 1508.9 1052.4 1556.6 969.7 1557 969.7"/>
          <polygon class="st243" points="1557.4 969.7 1509.6 1052.4 1509.2 1052.4 1557 969.7 1557.4 969.7"/>
          <polygon class="st119" points="1557.8 969.7 1510 1052.4 1509.6 1052.4 1557.4 969.7 1557.8 969.7"/>
          <polygon class="st46" points="1558.1 969.7 1510.4 1052.4 1510 1052.4 1557.8 969.7 1558.1 969.7"/>
          <polygon class="st202" points="1558.5 969.7 1510.8 1052.4 1510.4 1052.4 1558.1 969.7 1558.5 969.7"/>
          <polygon class="st27" points="1558.9 969.7 1511.1 1052.4 1510.8 1052.4 1558.5 969.7 1558.9 969.7"/>
          <polygon class="st107" points="1559.3 969.7 1511.5 1052.4 1511.1 1052.4 1558.9 969.7 1559.3 969.7"/>
          <polygon class="st127" points="1559.7 969.7 1511.9 1052.4 1511.5 1052.4 1559.3 969.7 1559.7 969.7"/>
          <polygon class="st31" points="1560.1 969.7 1512.3 1052.4 1511.9 1052.4 1559.7 969.7 1560.1 969.7"/>
          <polygon class="st227" points="1560.4 969.7 1512.7 1052.4 1512.3 1052.4 1560.1 969.7 1560.4 969.7"/>
          <polygon class="st203" points="1560.8 969.7 1513.1 1052.4 1512.7 1052.4 1560.4 969.7 1560.8 969.7"/>
          <polygon class="st57" points="1561.2 969.7 1513.4 1052.4 1513.1 1052.4 1560.8 969.7 1561.2 969.7"/>
          <polygon class="st95" points="1561.6 969.7 1513.8 1052.4 1513.4 1052.4 1561.2 969.7 1561.6 969.7"/>
          <polygon class="st134" points="1562 969.7 1514.2 1052.4 1513.8 1052.4 1561.6 969.7 1562 969.7"/>
          <polygon class="st181" points="1562.3 969.7 1514.6 1052.4 1514.2 1052.4 1562 969.7 1562.3 969.7"/>
          <polygon class="st181" points="1562.7 969.7 1515 1052.4 1514.6 1052.4 1562.3 969.7 1562.7 969.7"/>
          <polygon class="st112" points="1563.1 969.7 1515.3 1052.4 1515 1052.4 1562.7 969.7 1563.1 969.7"/>
          <polygon class="st43" points="1563.5 969.7 1515.7 1052.4 1515.3 1052.4 1563.1 969.7 1563.5 969.7"/>
          <polygon class="st222" points="1563.9 969.7 1516.1 1052.4 1515.7 1052.4 1563.5 969.7 1563.9 969.7"/>
          <polygon class="st160" points="1564.3 969.7 1516.5 1052.4 1516.1 1052.4 1563.9 969.7 1564.3 969.7"/>
          <polygon class="st192" points="1564.6 969.7 1516.9 1052.4 1516.5 1052.4 1564.3 969.7 1564.6 969.7"/>
          <polygon class="st77" points="1565 969.7 1517.3 1052.4 1516.9 1052.4 1564.6 969.7 1565 969.7"/>
          <polygon class="st77" points="1565.4 969.7 1517.6 1052.4 1517.3 1052.4 1565 969.7 1565.4 969.7"/>
          <polygon class="st34" points="1565.8 969.7 1518 1052.4 1517.6 1052.4 1565.4 969.7 1565.8 969.7"/>
          <polygon class="st228" points="1566.2 969.7 1518.4 1052.4 1518 1052.4 1565.8 969.7 1566.2 969.7"/>
          <polygon class="st75" points="1566.5 969.7 1518.8 1052.4 1518.4 1052.4 1566.2 969.7 1566.5 969.7"/>
          <polygon class="st240" points="1566.9 969.7 1519.2 1052.4 1518.8 1052.4 1566.5 969.7 1566.9 969.7"/>
          <polygon class="st231" points="1567.3 969.7 1519.5 1052.4 1519.2 1052.4 1566.9 969.7 1567.3 969.7"/>
          <polygon class="st14" points="1567.7 969.7 1519.9 1052.4 1519.5 1052.4 1567.3 969.7 1567.7 969.7"/>
          <polygon class="st215" points="1568.1 969.7 1520.3 1052.4 1519.9 1052.4 1567.7 969.7 1568.1 969.7"/>
          <polygon class="st3" points="1568.5 969.7 1520.7 1052.4 1520.3 1052.4 1568.1 969.7 1568.5 969.7"/>
          <polygon class="st42" points="1568.8 969.7 1521.1 1052.4 1520.7 1052.4 1568.5 969.7 1568.8 969.7"/>
          <polygon class="st173" points="1569.2 969.7 1521.5 1052.4 1521.1 1052.4 1568.8 969.7 1569.2 969.7"/>
          <polygon class="st114" points="1569.6 969.7 1521.8 1052.4 1521.5 1052.4 1569.2 969.7 1569.6 969.7"/>
          <polygon class="st58" points="1570 969.7 1522.2 1052.4 1521.8 1052.4 1569.6 969.7 1570 969.7"/>
          <polygon class="st186" points="1570.4 969.7 1522.6 1052.4 1522.2 1052.4 1570 969.7 1570.4 969.7"/>
          <polygon class="st37" points="1570.7 969.7 1523 1052.4 1522.6 1052.4 1570.4 969.7 1570.7 969.7"/>
          <polygon class="st157" points="1571.1 969.7 1523.4 1052.4 1523 1052.4 1570.7 969.7 1571.1 969.7"/>
          <polygon class="st62" points="1571.5 969.7 1523.7 1052.4 1523.4 1052.4 1571.1 969.7 1571.5 969.7"/>
          <polygon class="st30" points="1571.9 969.7 1524.1 1052.4 1523.7 1052.4 1571.5 969.7 1571.9 969.7"/>
          <polygon class="st204" points="1572.3 969.7 1524.5 1052.4 1524.1 1052.4 1571.9 969.7 1572.3 969.7"/>
          <polygon class="st247" points="1572.7 969.7 1524.9 1052.4 1524.5 1052.4 1572.3 969.7 1572.7 969.7"/>
          <polygon class="st226" points="1573 969.7 1525.3 1052.4 1524.9 1052.4 1572.7 969.7 1573 969.7"/>
          <polygon class="st87" points="1573.4 969.7 1525.7 1052.4 1525.3 1052.4 1573 969.7 1573.4 969.7"/>
          <polygon class="st146" points="1573.8 969.7 1526 1052.4 1525.7 1052.4 1573.4 969.7 1573.8 969.7"/>
          <polygon class="st139" points="1574.2 969.7 1526.4 1052.4 1526 1052.4 1573.8 969.7 1574.2 969.7"/>
          <polygon class="st13" points="1574.6 969.7 1526.8 1052.4 1526.4 1052.4 1574.2 969.7 1574.6 969.7"/>
          <polygon class="st16" points="1574.9 969.7 1527.2 1052.4 1526.8 1052.4 1574.6 969.7 1574.9 969.7"/>
          <polygon class="st123" points="1575.3 969.7 1527.6 1052.4 1527.2 1052.4 1574.9 969.7 1575.3 969.7"/>
          <polygon class="st94" points="1575.7 969.7 1527.9 1052.4 1527.6 1052.4 1575.3 969.7 1575.7 969.7"/>
          <polygon class="st188" points="1576.1 969.7 1528.3 1052.4 1527.9 1052.4 1575.7 969.7 1576.1 969.7"/>
          <polygon class="st196" points="1576.5 969.7 1528.7 1052.4 1528.3 1052.4 1576.1 969.7 1576.5 969.7"/>
          <polygon class="st196" points="1576.9 969.7 1529.1 1052.4 1528.7 1052.4 1576.5 969.7 1576.9 969.7"/>
          <polygon class="st36" points="1577.2 969.7 1529.5 1052.4 1529.1 1052.4 1576.9 969.7 1577.2 969.7"/>
          <polygon class="st80" points="1577.6 969.7 1529.9 1052.4 1529.5 1052.4 1577.2 969.7 1577.6 969.7"/>
          <polygon class="st145" points="1578 969.7 1530.2 1052.4 1529.9 1052.4 1577.6 969.7 1578 969.7"/>
          <polygon class="st124" points="1578.4 969.7 1530.6 1052.4 1530.2 1052.4 1578 969.7 1578.4 969.7"/>
          <polygon class="st54" points="1578.8 969.7 1531 1052.4 1530.6 1052.4 1578.4 969.7 1578.8 969.7"/>
          <polygon class="st125" points="1579.1 969.7 1531.4 1052.4 1531 1052.4 1578.8 969.7 1579.1 969.7"/>
          <polygon class="st99" points="1579.5 969.7 1531.8 1052.4 1531.4 1052.4 1579.1 969.7 1579.5 969.7"/>
          <polygon class="st99" points="1531.8 1052.4 1579.5 969.7 2326.1 969.7 2326.1 1052.4 1531.8 1052.4"/>
        </g>
        <polygon class="st211" points="2338.1 1053.2 2355.1 970.5 2334.9 970.5 2317.9 1053.2 2338.1 1053.2"/>
        <polygon class="st211" points="2356.8 1053.2 2373.8 970.5 2364.1 970.5 2347 1053.2 2356.8 1053.2"/>
        <g>
          <path class="st136" d="M1608.3,1022.6v-.7c0-.6,0-1.3-.2-2-.2-.7-.6-1-1.2-1h-22.5c-2.3,0-4.3-.6-6-1.8-1.8-1.2-3.3-2.7-4.5-4.5-1.2-1.8-2.2-3.8-2.8-6-.6-2.2-.8-4.3-.8-6.4,0-1.9.7-4.1,1.8-6.6,1.1-2.5,2.6-4.8,4.3-7,1.7-2.2,3.7-4.1,5.9-5.6,2.2-1.5,4.3-2.2,6.4-2.2h57.5c-1.8,2.7-3.9,5.5-6.2,8.2-2.3,2.7-4.9,5.5-7.7,8.2h-37.2c-.8,0-1.6.6-2.2,1.8-.7,1.2-1,2.2-1,2.9v.6c0,0,.1.3.4.5s.5.5.7.7c.3.3.7.6,1.3.9.6.3.9.4.9.4h21.4c2.4,0,4.4.6,6.1,1.9,1.7,1.3,3,2.8,4,4.7,1,1.9,1.7,3.9,2.2,6.1.4,2.2.6,4.2.6,6v.7c-.1,2.1-.7,4.3-1.6,6.7-1,2.4-2.3,4.6-3.8,6.6-1.5,2-3.3,3.7-5.3,5-2,1.3-4,2-6,2h-57.5c.4-.8,1.2-2.1,2.5-3.9,1.2-1.8,2.5-3.6,3.9-5.4,1.4-1.8,2.7-3.4,3.9-4.8,1.2-1.4,1.9-2.1,2.1-2.1h38.3c1.1,0,1.8-.4,2-1.1.2-.7.3-1.5.4-2.3v-.7Z"/>
          <path class="st136" d="M1642.7,1005.7l10-26.8h21.3c-3,8.2-5.2,14.6-6.8,19.1-1.6,4.6-2.8,8-3.6,10.2-.8,2.3-1.2,3.7-1.4,4.3-.2.6-.3,1-.3,1.3-.4,1.6-.7,2.9-.7,3.9-.1,2.8.4,5,1.7,6.6,1.2,1.6,2.9,2.4,5,2.4h5.5c1.8,0,3.5-.4,5.1-1.2,1.6-.8,3-1.8,4.2-3,1.2-1.2,2.4-2.5,3.3-3.9,1-1.4,1.7-2.6,2.3-3.7l13.6-35.9h21.4l-11.3,29.8c-2.1,5.6-4.2,10.4-6.3,14.7-2.1,4.2-4.5,7.8-7.1,10.7-2.6,2.9-5.5,5.1-8.8,6.6-3.3,1.5-7.2,2.2-11.7,2.2h-13.2c-5.3,0-9.6-.3-13.1-1-3.5-.6-6.2-1.7-8.3-3.1-2-1.4-3.5-3.2-4.3-5.5-.8-2.3-1.2-5-1-8.2,0-.9.1-1.8.3-2.8.1-1,.3-2,.5-3.1.5-2.1,1-4.2,1.7-6.3.6-2.1,1.4-4.5,2.1-7.2Z"/>
          <path class="st136" d="M1786.1,1003.1l-15.7,39.9h-16.8c-4.7,0-9.2-.4-13.6-1.3-4.4-.9-8.3-2.4-11.8-4.6-3.4-2.2-6.2-5.2-8.2-9-2-3.8-2.9-8.6-2.6-14.4.2-3.9,1.1-7.8,2.8-12,1.7-4.1,4-7.9,6.9-11.2,2.8-3.4,6.1-6.1,9.7-8.3,3.6-2.1,7.4-3.2,11.4-3.2h46.5c-2.3,3.1-4.6,5.9-6.9,8.6-2.3,2.7-4.8,5.3-7.6,7.7h-29.3c-1.2,0-2.4.3-3.5,1-1.2.7-2.2,1.6-3.2,2.7-1,1.1-1.9,2.4-2.7,3.8-.8,1.4-1.5,2.8-2,4.2-.7,2.1-1,3.7-1.1,5,0,1.5.2,3.2.9,4.9.6,1.7,1.5,3.3,2.6,4.8,1.1,1.5,2.3,2.7,3.7,3.6,1.4,1,2.7,1.5,4.1,1.5h6.7l2.9-7.9h-12.7,0c0-.4.6-1.2,1.5-2.5.9-1.3,2-2.8,3.3-4.5,1.3-1.7,2.6-3.3,4-5,1.4-1.6,2.6-2.9,3.7-3.8h27.1Z"/>
          <path class="st136" d="M1837.2,1042.9l-1.8-13.6c-.2.5-.8,1.4-1.7,2.8-1,1.4-2.1,2.8-3.3,4.3-1.2,1.5-2.4,2.9-3.6,4.2-1.2,1.3-2,2.1-2.6,2.3h-47.7c.2-.6.3-.9.3-.8v-.4s42.8-55.6,42.8-55.6c.2-.5.7-1.1,1.4-1.9.7-.8,1.5-1.6,2.3-2.4.8-.8,1.6-1.5,2.4-2.1.8-.6,1.5-.9,2-.9h18.9c.8,0,1.4.4,2,1.3.6.9,1.1,2,1.5,3.3.4,1.3.7,2.6,1,4,.3,1.4.5,2.6.7,3.6l5.4,51.8h-20.1ZM1812.6,1026.7h22.9l-2.8-28.4-20,27.2v1.2Z"/>
          <path class="st136" d="M1886.7,978.9h50.3c2.6,0,4.6.6,6.2,1.8,1.6,1.2,2.8,2.7,3.6,4.6.8,1.9,1.4,3.9,1.6,6,.3,2.2.3,4.2.3,6-.2,4.1-1.2,7.5-3.2,10.1-2,2.7-4.4,4.8-7.3,6.3-2.9,1.6-6,2.7-9.5,3.4-3.4.7-6.7,1.2-9.7,1.4l21.1,24.3h-24.1l-22.3-22.9-1.3,1-8.3,22h-21.6l24.3-64ZM1926.8,997.4c0-.6,0-1.2-.3-1.6-.2-.4-.8-.7-1.7-.7h-22.7l-7.2,18.8,10.3-10.7h18c1.1,0,2-.5,2.5-1.6.5-1.1.8-2,.8-2.8v-1.3Z"/>
          <path class="st136" d="M2060.5,978.9c-.6,1.1-1.5,2.6-2.8,4.4-1.3,1.8-2.7,3.6-4.2,5.4-1.5,1.8-2.9,3.3-4.2,4.6-1.4,1.3-2.3,1.9-2.9,1.9h-34.7l-7.2,19,11.1-11.1h26l-16.8,16.3h-22.4l-8.9,23.6h-21.5l24.3-64h64.2Z"/>
          <path class="st136" d="M2066.3,978.9h50.3c2.6,0,4.6.6,6.2,1.8,1.6,1.2,2.8,2.7,3.6,4.6.8,1.9,1.4,3.9,1.6,6,.3,2.2.3,4.2.3,6-.2,4.1-1.2,7.5-3.2,10.1-2,2.7-4.4,4.8-7.3,6.3s-6,2.7-9.5,3.4c-3.4.7-6.7,1.2-9.7,1.4l21.1,24.3h-24.1l-22.3-22.9-1.3,1-8.3,22h-21.6l24.3-64ZM2106.4,997.4c0-.6,0-1.2-.3-1.6-.2-.4-.8-.7-1.7-.7h-22.7l-7.2,18.8,10.3-10.7h18c1.1,0,2-.5,2.5-1.6.5-1.1.8-2,.8-2.8v-1.3Z"/>
          <path class="st136" d="M2208.6,978.9c-.6,1.1-1.5,2.6-2.8,4.4-1.3,1.8-2.7,3.6-4.2,5.4-1.5,1.8-2.9,3.3-4.2,4.6-1.4,1.3-2.3,1.9-2.9,1.9h-34.7l-7.2,19,11.1-11.1h26l-16.8,16.3h-22.4l-2.8,7.2h43.2c0,.2-.3.5-.6,1-.3.5-.6,1.1-1,1.6-.3.6-.6,1.1-1,1.6s-.5.8-.6.8c-.7,1-1.7,2.1-2.9,3.4-1.2,1.3-2.4,2.5-3.6,3.7-1.2,1.2-2.2,2.2-3.1,3-.9.8-1.4,1.2-1.5,1.2h-56.7l24.3-64h64.2Z"/>
          <path class="st136" d="M2279.1,978.9c-.6,1.1-1.5,2.6-2.8,4.4-1.3,1.8-2.7,3.6-4.2,5.4-1.5,1.8-2.9,3.3-4.2,4.6-1.4,1.3-2.3,1.9-2.9,1.9h-34.7l-7.2,19,11.1-11.1h26l-16.8,16.3h-22.4l-2.8,7.2h43.2c0,.2-.3.5-.6,1-.3.5-.6,1.1-1,1.6-.3.6-.6,1.1-1,1.6s-.5.8-.6.8c-.7,1-1.7,2.1-2.9,3.4-1.2,1.3-2.4,2.5-3.6,3.7-1.2,1.2-2.2,2.2-3.1,3-.9.8-1.4,1.2-1.5,1.2h-56.7l24.3-64h64.2Z"/>
        </g>
        <g>
          <polygon class="st235" points="2273.4 550.3 2273.4 537.7 2268.7 537.7 2268.7 536.1 2280 536.1 2280 537.7 2275.3 537.7 2275.3 550.3 2273.4 550.3"/>
          <path class="st235" d="M2281.9,550.3v-14.2h2.8s3.4,10.1,3.4,10.1c.3.9.5,1.6.7,2.1.2-.5.4-1.3.8-2.3l3.4-9.9h2.5v14.2h-1.8v-11.9s-4.1,11.9-4.1,11.9h-1.7s-4.1-12.1-4.1-12.1v12.1h-1.8Z"/>
        </g>
        <g>
          <path class="st136" d="M2260.9,548.8c-14-8.5-28.9-12.8-44.3-12.8-15.8,0-30.7,4.3-44.5,12.9-22.1,12.8-34.3,34.1-34.3,60v165.9h-45v-165.9c0-26-12.2-47.3-34.5-60.1-14-8.5-28.9-12.8-44.3-12.8-15.4,0-30.3,4.3-44.3,12.8-22.2,12.8-34.5,34.1-34.5,60.1v165.6c0,.7,0,1.4,0,2.1-2.5-.3-5-.4-7.5-.4h-108.1c-6.1,0-9.7-.6-11.6-1-1-5-1-15.6-1-23.6v-143.2c0-25.3-12.1-46.7-34.1-60.1-.3-.2-.7-.4-1-.6-13.9-7.8-28.6-11.7-43.7-11.7-15.2,0-29.9,3.9-43.7,11.7-.3.2-.7.4-1,.6-12.9,7.8-22.3,18.4-28,30.8-23.8-28.6-60.2-43.1-108.1-43.1h-167.3c-36.6,0-75.5,26.9-75.5,76.8h0c-.1,7.4-.3,40.9-.4,208,0,43.7,30.5,73.1,75.9,73.1h178.9c25.6,0,50.3-7.7,73.4-22.7,11.2-7.2,20.6-15.7,28.2-25.3,13.1,31.1,39.2,48.1,74.2,48.1h192.4c11.9,0,23.6-3,34.8-8.9,8.6-4.5,15.7-10.4,20.9-17.4,1.1.8,2.3,1.5,3.5,2.3,23.3,15.1,48,22.7,73.6,22.7h110.2c25.6,0,50.3-7.6,73.3-22.7,33.5-21.5,51.3-54.4,51.7-95.4v-165.6c0-26-12.2-47.3-34.5-60.1Z"/>
          <path class="st234" d="M1927.5,895.9h-192.4c-34.5,0-60.9-16.4-74.7-46.3-7.4,8.8-16.3,16.6-26.6,23.2-23.5,15.3-48.6,23.1-74.5,23.1h-178.9c-46.6,0-77.9-30.2-77.9-75.1,0-126,.2-193.9.4-207.4v-.6c0-51.2,39.9-78.8,77.5-78.8h167.3c47.2,0,83.4,13.9,107.6,41.5,6-11.7,15.2-21.4,27.4-28.9l1-.6c14.2-7.9,29.2-12,44.7-12s30.4,4,44.6,12c.4.2.7.4,1.1.6,22.6,13.8,35.1,35.7,35.1,61.8v143.2c0,7.1,0,16.7.7,21.9,2,.4,5.2.7,9.8.7h108.1c1.8,0,3.6,0,5.5.2v-165.5c0-26.7,12.6-48.6,35.5-61.8,14.3-8.7,29.5-13.1,45.3-13.1s31,4.4,45.3,13.1c22.8,13.2,35.4,35.1,35.4,61.8v163.9h41v-163.9c0-26.6,12.5-48.6,35.3-61.8,14-8.7,29.4-13.2,45.5-13.2s31,4.4,45.3,13.1c22.9,13.2,35.5,35.1,35.5,61.8v165.6c-.4,41.6-18.6,75.1-52.6,97-23.3,15.3-48.3,23-74.4,23h-110.1c-26,0-51.1-7.7-74.7-23-.7-.4-1.3-.8-1.9-1.3-5.3,6.7-12.2,12.2-20.4,16.5-11.5,6-23.5,9.1-35.7,9.1ZM1661.4,842l1.3,3.1c12.8,30.2,38.5,46.9,72.4,46.9h192.4c11.5,0,22.9-2.9,33.9-8.7,8.3-4.3,15.1-10,20.2-16.9l1.1-1.5,1.6,1.1c1.1.8,2.3,1.5,3.4,2.3,22.9,14.9,47.3,22.4,72.6,22.4h110.1c25.2,0,49.5-7.5,72.2-22.4,32.9-21.2,50.5-53.6,50.8-93.7v-165.6c0-25.2-11.9-45.9-33.5-58.3h0c-13.7-8.3-28.2-12.5-43.3-12.5s-30,4.2-43.4,12.6c-21.5,12.5-33.3,33.2-33.3,58.3v167.9h-49v-167.9c0-25.2-11.9-46-33.5-58.4-13.7-8.3-28.3-12.5-43.3-12.5s-29.6,4.2-43.3,12.5c-21.6,12.4-33.5,33.2-33.5,58.4v169.9s-2.2-.2-2.2-.2c-2.4-.2-4.8-.4-7.3-.4h-108.1c-6.2,0-10-.6-12-1.1l-1.2-.3-.3-1.3c-1-5.2-1-15.6-1-24v-143.2c0-24.6-11.8-45.3-33.1-58.4l-1-.6c-13.6-7.6-28-11.5-42.7-11.5s-29.2,3.9-42.7,11.5l-.9.5c-12.5,7.6-21.6,17.7-27.2,29.9l-1.3,2.9-2-2.4c-23.4-28.1-59.3-42.4-106.6-42.4h-167.3c-35.1,0-72.4,25.5-73.5,72.8h0v2c-.2,11.8-.3,79.8-.4,208,0,42.5,29.7,71.1,73.9,71.1h178.9c25.2,0,49.5-7.5,72.4-22.4,10.9-7.1,20.2-15.4,27.7-24.9l2.1-2.6Z"/>
        </g>
        <g>
          <path class="st234" d="M2246.6,573.3c-9.6-5.9-19.7-8.9-29.9-8.9-10.6,0-20.6,3-29.9,8.8-13.7,7.7-20.6,19.8-20.6,35.8v171.3c0,7.7-3.3,13.6-10.1,18.1-5,3.3-10.1,4.9-15.5,4.9h-50.5c-5.4,0-10.5-1.6-15.5-4.9-6.8-4.5-10.1-10.4-10.1-18.1v-171.3c0-16-6.9-28-20.5-35.7-19.3-11.8-40.8-11.7-59.8,0-13.7,7.7-20.6,19.7-20.6,35.7v165.6c0,31.2,12.9,55.3,38.4,71.6,18.6,12,38.2,18.2,58.2,18.2h110.2c20.1,0,39.5-6.1,57.8-18.1,25.5-16.4,38.6-40.4,38.8-71.6v-165.6c0-15.9-6.9-27.9-20.5-35.6Z"/>
          <path class="st234" d="M1949.6,810.3c-7-3.8-14.3-5.7-21.8-5.7h-108.1c-19.4,0-30.5-4.2-35.8-13.7-5.1-9.1-5.1-22.4-5.1-39.2v-143.2c0-15.5-6.9-27.6-20.6-35.9-19.3-10.8-40.5-10.8-59.8,0-13.6,8.3-20.5,20.3-20.5,35.8v146.5c0,26.3,0,53.5,6.9,74.4,8.1,24.5,24.5,36.3,50.2,36.3h192.4c7.2,0,14.5-1.9,21.7-5.7,10.8-5.6,16.3-14,16.3-24.8,0-10.8-5.3-19.2-15.8-24.8Z"/>
          <path class="st234" d="M1652,643c0-15-5.3-29.4-15.6-42.7-18.1-23.8-47.9-35.9-88.7-35.9h-167.3c-18.9,0-47.1,12.9-47.1,48.2-.3,3.6-.4,187.3-.4,208.2,0,40.4,33.2,44.7,47.5,44.7h178.9c20,0,39.5-6.1,58.1-18.2,25.4-16.4,38.3-40.7,38.3-71.9v-22.3c0-21.2-7-40.1-20.9-56.1,11.4-12.4,17.2-30.5,17.2-54ZM1443.6,727.6c4.9-3.2,10.1-4.8,15.4-4.8h70.4c5.3,0,10.5,1.6,15.3,4.8,6.7,4.5,10,10.4,10,18.1v36c0,7.7-3.3,13.6-10,18.1-4.8,3.2-10,4.8-15.3,4.8h-95.8v-59c0-7.6,3.3-13.5,10-18ZM1529.4,661.8h-70.4c-25.3,0-25.3-11.6-25.3-15.4v-7c0-3.8,0-15.4,25.3-15.4h70.4c25.3,0,25.3,11.6,25.3,15.4v7c0,3.8,0,15.4-25.3,15.4Z"/>
        </g>
        <g>
          <path class="st136" d="M1612.9,911.4c-.3.7-.8,1.7-1.5,2.8-.7,1.2-1.5,2.3-2.3,3.5-.8,1.1-1.6,2.1-2.4,2.9-.8.8-1.3,1.2-1.7,1.2h-20.2l-3.7,12.2,6.2-7.1h15.2l-9.4,10.5h-13.1l-1.4,4.7h25.1c0,.1-.2.3-.3.7-.2.3-.4.7-.5,1-.2.4-.4.7-.5,1-.2.3-.3.5-.3.5-.4.6-.9,1.3-1.6,2.2-.7.8-1.3,1.6-2,2.4s-1.2,1.4-1.7,1.9c-.5.5-.8.8-.8.8h-33l12.7-41.1h37.4Z"/>
          <path class="st136" d="M1616.5,911.4h15.9l3.7,23.1,7.2-23.1h12.5l-12.7,41.1h-15.9l-3.7-23.1-7.1,23.1h-12.6l12.7-41.1Z"/>
          <path class="st136" d="M1696.8,911.4c-.3.7-.8,1.7-1.5,2.8-.7,1.2-1.5,2.3-2.3,3.5-.8,1.1-1.6,2.1-2.4,2.9-.8.8-1.3,1.2-1.7,1.2h-20.2l-3.7,12.2,6.2-7.1h15.2l-9.4,10.5h-13.1l-1.4,4.7h25.1c0,.1-.2.3-.3.7-.2.3-.4.7-.5,1-.2.4-.4.7-.5,1-.2.3-.3.5-.3.5-.4.6-.9,1.3-1.6,2.2-.7.8-1.3,1.6-2,2.4s-1.2,1.4-1.7,1.9c-.5.5-.8.8-.8.8h-33l12.7-41.1h37.4Z"/>
          <path class="st136" d="M1700.4,911.4h29.3c1.5,0,2.7.4,3.6,1.2.9.8,1.7,1.8,2.2,2.9.5,1.2.9,2.5,1.1,3.9.2,1.4.3,2.7.3,3.9,0,2.6-.5,4.8-1.6,6.5s-2.5,3.1-4.1,4.1c-1.6,1-3.5,1.7-5.4,2.2s-3.9.7-5.6.9l12.9,15.6h-14l-13.5-14.7-.7.6-4.3,14.1h-12.6l12.7-41.1ZM1724.2,923.3c0-.4,0-.8-.2-1s-.5-.4-1-.4h-13.2l-3.7,12.1,5.8-6.9h10.5c.7,0,1.1-.3,1.4-1,.3-.7.4-1.3.4-1.8v-.9Z"/>
          <path class="st136" d="M1778.3,926.9l-8.2,25.6h-9.8c-2.7,0-5.4-.3-7.9-.9-2.6-.6-4.9-1.6-7-3-2.1-1.4-3.7-3.3-5-5.8-1.2-2.4-1.9-5.5-1.9-9.2s.5-5,1.4-7.7c.9-2.6,2.2-5,3.7-7.2s3.4-3.9,5.4-5.3c2.1-1.4,4.2-2.1,6.6-2.1h27.1c-1.3,2-2.5,3.8-3.8,5.6-1.3,1.7-2.7,3.4-4.2,4.9h-17.1c-.7,0-1.4.2-2,.7s-1.3,1-1.8,1.7c-.5.7-1,1.5-1.5,2.4-.4.9-.8,1.8-1,2.7-.4,1.3-.5,2.4-.5,3.2s.2,2,.6,3.1c.4,1.1,1,2.1,1.6,3.1.7.9,1.4,1.7,2.2,2.3.8.6,1.6.9,2.4.9h3.9l1.5-5h-7.4c0-.2.3-.7.8-1.6.5-.9,1.1-1.8,1.8-2.9.7-1.1,1.4-2.1,2.2-3.2.8-1.1,1.5-1.9,2.1-2.4h15.7Z"/>
          <path class="st136" d="M1793.6,933l-7.4-21.6h14l3.3,9.7,9.3-9.7h14l-20.7,21.6-6,19.6h-12.6l6-19.6Z"/>
          <path class="st136" d="M1880.2,933.8c-1.8,3.4-3.6,6.2-5.5,8.6-1.9,2.4-4,4.3-6.2,5.8-2.2,1.5-4.7,2.6-7.4,3.3-2.7.7-5.8,1-9.2,1h-16.3l12.7-41.1h28.5c2.6,0,4.5.9,5.7,2.6,1.2,1.7,1.8,3.9,1.8,6.5s-.3,4.2-1,6.6c-.7,2.4-1.7,4.6-3,6.8ZM1857.7,921.9l-6.2,20.2h1.7c1,0,2.3-.3,3.7-.8,1.4-.5,2.8-1.3,4.2-2.1,1.4-.9,2.7-1.9,3.9-3,1.2-1.1,2.1-2.2,2.7-3.4.2-.4.5-.9.9-1.4.3-.5.6-1.1.9-1.8.3-.8.5-1.6.8-2.4s.4-1.5.4-2.2-.2-1.6-.5-2.2-.9-.9-1.7-.9h-10.6Z"/>
          <path class="st136" d="M1891.3,911.4h29.3c1.5,0,2.7.4,3.6,1.2.9.8,1.7,1.8,2.2,2.9.5,1.2.9,2.5,1.1,3.9.2,1.4.3,2.7.3,3.9,0,2.6-.5,4.8-1.6,6.5-1.1,1.7-2.5,3.1-4.1,4.1s-3.5,1.7-5.4,2.2c-2,.4-3.9.7-5.6.9l12.9,15.6h-14l-13.5-14.7-.7.6-4.3,14.1h-12.6l12.7-41.1ZM1915.1,923.3c0-.4,0-.8-.2-1-.1-.3-.5-.4-1-.4h-13.2l-3.7,12.1,5.8-6.9h10.5c.7,0,1.1-.3,1.4-1s.4-1.3.4-1.8v-.9Z"/>
          <path class="st136" d="M1936.9,911.4h12.6l-12.7,41.1h-12.6l12.7-41.1Z"/>
          <path class="st136" d="M1953.3,911.4h15.9l3.7,23.1,7.2-23.1h12.5l-12.7,41.1h-15.9l-3.7-23.1-7.1,23.1h-12.6l12.7-41.1Z"/>
          <path class="st136" d="M1996.3,911.4h12.6l-5.7,18.5,21.7-18.5h14l-22.7,20.6,12.6,20.6h-14l-12.9-18.5-5.7,18.5h-12.6l12.7-41.1Z"/>
        </g>
      </g>
      <path class="st185" d="M770.5,210.9c9.8,12.6,7.1,8,20.9,13.6,11.9,4.8,22.8,15.8,34.4,19.6,5.2,1.7,8.9.6,13.5,1.5,12.8,2.6,33.7,30.5,44.2,30.8,3.6,0,7.5-1.3,12-1.1,22.4,1,57.7,29,63,51,3,12.4-.8,26.4-13.2,31.8-25.4,11.1-63.5-1.6-88.5-10-3.4-1.1-7-4.2-10.3-4.7-7.4-1.1-6.9,2.2-11.9,5-16.9,9.5-31.4-8.1-47-13.1-7.5-2.4-16.7-3.1-24.8-5.2-6.3-1.7-30-11-34.1-9.6-2,.7-17,31.6-20.2,36.8-11.2,17.7-27.6,33.1-32.4,54.1l47.5,1c19.5.2,40.8,7.9,59.7,2.7,12.5-3.4,18.6-9.5,33.3-8.7,15,.8,26.1,7.6,39.4,10.6,20.3,4.4,42.3,1,63.5,2.5,33.8,2.3,80,8.6,112.3,18.7,6.9,2.2,16.5,9.8,23.5,13.5,34.3,17.9,79.5,25.6,118.1,26.9,3,0,8.1.4,10.8-.3s4.6-4.2,7.3-4.7c3.8-.7,14.6,0,17.9,2.1,4.3,2.8,2.6,9,10.1,9.9,14.1,1.7,31.4-1.1,46,0,24.1,1.9,49.2,9.7,73.9,4.9,12.1,1.6,29.6-2.1,41,0,8.6,1.6,6.9,19.5,3.4,25.3-2.6,4.2-17.1,13.6-16.7,16,.2,1.4,3.5,3.8,1.4,6.8-2.2,3-18.2-.7-21.8,7.2s-.5,6.6-2.5,7.7c-7.2,4.1-7.9-3.9-9.4-4.8-1.6-.9-11.1,3-11.7,4-1.4,2.4,4.1,8.1-2.9,9.6-8.1,1.8-6.8-4.6-8.4-5.6-3.2-2-18.2,3.8-22.6,4.6-11.6,2.1-23.9,0-35.2,3.8-6.8,2.2-41.1,22.1-43.5,27.5-1.6,3.7,3.1,9.4-6.2,11.7-7.8,2-3.1-5.1-5.3-6.7-1.3-.9-10.1,3.1-11,4.7-3.4,5.8,3.7,10.2-7.4,10.4-8.8.1-4.6-1.6-7-5.1-1.7-2.6-11.5,1.8-15,1.8-3.6,0-11.9-2.6-15-4.8-14.4-10.1-13.7-25.9-19-41-.7-1.9-.1-4.3-1-6-1.5-3-27.4-9.1-32.1-9.9-13-2-32.9-4.3-45.9-4.2-23.1.2-49.4,5.8-72.2,9.8-28.7,5-68.9-1.4-95.6-12.9s-34.2-20.3-48.3-20.5c-10.7-.1-34.3,10.7-45.3,15.1-35.4,14.4-74.3,31.9-107.6,50.3-4.5,2.5-28.5,16.4-29.8,19.2-3.4,7.6,3.6,37.8-.5,42.5s-42.6,13.4-49.8,15.2c-31.7,7.8-64,13.4-96.7,15.3s-20.4.7-30.5,0c2.8,2.8,9.6,3.3,13.6,3.8,7.1,1,15.7,1.8,22.9,2.1,38.5,1.8,78.7-.2,116-10l1.9,1,35.5,97.6c0,1.6-11.9,10.2-13.7,12.9,20.8,56.6,25.5,117.4,37.5,176.2,4.8,55.3-48.1,89.4-98.3,90.4-8.8.2-18.4-2.6-26.8.2s-11,10-19.5,10.5c-15.2.9-33.8-1.2-49.8-.8-19.9.5-92.2,7.4-105.8-.1-4.9-2.7-3.8-4-11.3-4.7-27.4-2.8-66.6,6.2-91.3,18.4-3.7,1.8-12.6,7-11.6,11.5.2.7,4,3.8,4.3,3.9,7.2,1.6,15.4-3.8,17.2,7.6.9,5.9,0,9.5-5,12.9-7.2,4.8-15.4.6-24.2,1.8-23.8,3.3-45.9,45-57.7,63.5-7.2,11.3-19.2,36.7-36.3,26.1-6.4-4-4.8-9.6-7.1-11.9-2.3-2.3-7.1,1.3-7.3-6.8-.2-5.4,6.3-3.2,6.9-8.7.2-2.2-.9-9.1-2-10.9-1.5-2.3-5.9-.3-5.8-8.4,0-6.3,7-2,7.7-9.8.8-9.1-2.3-6-4.9-10.1-4.4-6.9,2.5-7.5,4.9-10.9,2.4-3.4,4.6-20.1,6.2-25.8,4.6-16.1,11.8-32.2,15.3-48.7,1.4-6.7,4.8-28.8,3.5-34.4-.4-1.6-5.2-.5-5-5s1.9-7.9,2.5-8.6c1.7-2,6.1-.7,6-4.5,0-4.1-4.9-7.4-4.4-10.8.7-4.6,5.4-3.8,7.3-5.7,1.3-1.4,2.3-6.4,4.1-8.9,7.8-11.5,20.3-15.5,33.8-14,5.6.6,34.7,10.2,40.1,12.8,2.6,1.2,6,5.4,8.1,5.8,1.9.3,7.7-.9,10.9-.8,51.7,2.7,85.7-8.2,132.4-26.4,39.1-15.3,67.3-14.3,108.3-9.4,6.9.8,14,2,20.6,3.9.3-1.8-.5-2.9-1.2-4.3-3.6-7.5-14.3-18.7-19.6-26.3-8.5-12.2-16.1-25.2-24.8-37.2-10.8,3.5-8.6-5.4-10.9-12.1-10.7-30.8-22.9-65.9-41-92.9s-37.7-35.4-53.2-57.8-17.2-47.5-20.3-81.7c-3.3-36.6-14.4-56.8-5-96.3,3.4-14.3,16.9-39.5,16.2-51.9-.9-15.2-19.5-37.2-17-50.9,1.2-6.6,17.2-15.8,21.9-22.1s12.2-17,16.5-23.5c6.9-10.5,5.6-20.7,8-32,1.2-5.5,4.1-9.3,5.3-13.7,1.9-7,.7-16.3,2.5-23.5.8-3.3,3.3-6.1,3.7-8.3,1.2-6.2-1.8-12.9-1-19s3.6-5,3-8.9c-.2-1.6-6.6-10.7-8-12.1-3.1-3-6.2-4.2-10.4-4.6-17.5-1.7-51.3,3-68.7,7.3-5.7,1.4-14.4,6.3-19.4,6.7-3.9.3-7.3-2.4-11-2.9-9.3-1.3-40.5,8.4-50.9,11.9-13.7,4.5-27.2,11.2-40.9,16.1-35,12.3-75.4,21.4-106.9,40.1-13.5,8-19.1,29.7-27.8,42.2s-26.3,10-36.5,15.5c-1.9,1-7.9,5.6-9.8,7.2-4.6,3.8-24.5,26.6-27.3,10.3-1.1-6.2,4.4-11.4,3.9-14.7s-6.1-1.8-7.6-6.5c-1.9-6,2.2-8.5,1.6-11.4s-8.3-1.7-8.8-9.3,3.5-12,4.6-13.7c1-1.5,4.6-1.8,4-4.7-9.3,2.3-14.9-2.9-10.8-12.3.8-1.8,6.9-9.3,8.5-10.5,6.8-5.3,33.5-18.6,42.1-21.9,12.6-4.8,27.1-6.4,39-12.9,49.5-27.2,119.1-79.3,173.2-90.9,3.6-.8,15-1.2,17.1-2.9,2.7-2.3-1.1-21.6,4.7-23.3,5.2-1.5,16.1.5,22.6-.4,9.9-1.4,23-9.6,33.7-12.3s21.8-2.1,28.4-5.6c17.6-9.6,27.7-9.4,45.9-15.1,20.5-6.4,41.9-16.8,63.4-19.6,10.9-1.4,23-.3,33.9-1.1,23.9-1.8,47.9-16,71-6,4,1.7,8.2,7,11.2,7.8,5.3,1.4,9.7-1.1,13.8-.9s9.1,4.7,8.3-.2c-.4-2.6-3-4.9-2.9-10.1,0-4.2,2.8-10.7,2.9-14s-3.1-10.8-3.7-15.1c-12.7-82.4,101.1-123.5,149.2-62.3,22.3,28.4,9.6,58.2,10.6,89.4,0,2.9,1.7,6,1.6,8.9-.1,3.4-6,24.2-7.3,29.5-2.9,11.6-5,13.9-10.5,23.5-7.3,12.7-2.6,9.5,4.2,18.2,2.8,3.5,5.5,8.3,8.4,12.1Z"/>
      <path class="st185" d="M1137.9,629.3l-296.9,169c.6-1.7,2.3-2.8,3.7-3.8,23.4-18.3,54.2-34.3,79.2-50.7,38.1-24.9,75.6-50.7,113.1-75.8,23.6-15.8,50.8-37.8,75.3-50.7,2.8-1.5,6.2-2.3,8.9-3.9,2.9,5.8,12.1,9.3,15.6,13.4.7.9,1.3,1.1,1,2.5Z"/>
      <path class="st185" d="M994,555.3c.5,2.1-1.1,2.3-2.3,3.2-4.4,3.2-11.6,6.7-16.6,9.4-32.7,17.5-69.1,35.4-102.6,51.3-1.6.8-13.8,6.7-14.3,6.1-1.4-1.3,1.8-2.6,2.5-3,30.2-17.7,63.3-36.6,94.5-52.5,12-6.1,25.5-15,39-14.5Z"/>
      <path class="st66" d="M856.6,625.3c.6.3.6.7,0,1v-1Z"/>
      <g>
        <path class="st185" d="M1254.9,267.3c.7.7-8.8,15.6-9.9,17.6-1.9,3.8-5.8,16.2-8.2,17.8-23.6,7.7-46.4,17.3-69.4,26.5-50.7,20.3-101.7,40.9-152.4,61.6-7.1,2.9-14.2,7.7-22.1,8.4l261.9-132Z"/>
        <path class="st185" d="M1233.9,341.3c.2,4.8-.2,9.7,0,14.5,0,3,2.5,6.5-.6,8.4l-150.3,58.1,150.9-81Z"/>
        <polygon class="st185" points="1250.8 406.3 1252.4 410.2 1263.9 426.3 1161.9 458.3 1250.8 406.3"/>
        <path class="st170" d="M1306.4,267.3c.6.3.6.7,0,1v-1Z"/>
        <g>
          <path class="st185" d="M1434,334.1c2.4-.8,4.8-1.7,7.2-2.5-.2-.7-5.4-7.2-5.5-7.2-.1,1.1-1.7,9.6-1.7,9.7Z"/>
          <path class="st185" d="M1427.6,357.9c6.6-3.9,13.4-8,20.5-12.6-2.1.4-18.4,6.5-18.6,6.5-.4,1.3-1.1,3.5-2,6.1Z"/>
          <path class="st185" d="M1373.6,269c4.7,1.1,25.2,10.3,25.2,10.4,2.2-.8,20.2-5.2,20.1-5.2-11-25.6-42.7-24.7-54.9-23.8-2.1.2-3.7.3-4.4.3,14.6,1.9,14,17.9,14,18.1Z"/>
          <path class="st185" d="M1388.3,351.3c10.4-4,20.6-8,30.3-11.9,1.4-2.9,4.9-28.2,4.8-28.1-1.1-1.1-2.4-2.3-3.7-3.4-11.5,7.4-28.1,17.2-51.5,30.1,7.7,5.2,20,13.2,20,13.2Z"/>
          <path class="st185" d="M1414.9,288.7c1.4,1,2.8,2,4.2,3.1,1.4-.9,2.6-1.8,3.5-2.5,0,0,0,0,.2-.1-.1-1.2-.2-2.2-.2-2.3,0,0-1.7.5-3.4.9-1.8.5-3.7,1-4.1,1h0Z"/>
          <path class="st185" d="M1403.1,362.1c1,.6,6.4,5.2,7,5.8,0,0,.1,0,.2-.1.5-1.5,3.3-9.9,3.2-9.9-1.2.5-10.4,4.2-10.5,4.2Z"/>
          <path class="st185" d="M1383.8,370.1c0,0-27.4,11.6-28.8,12.6-.1.5-.5,4.6-.4,10.2,11-3.8,23.9-9.1,38.6-16.3-4.2-3-8.3-5.9-9.5-6.5Z"/>
          <path class="st185" d="M1364.3,323c12.3-6.4,30.1-16.2,43.3-24-4.9-3.3-8.7-5.4-8.7-5.4-2.7.3-30.7,11-30.8,11.1-.2.8-2.1,10.4-3.8,18.4Z"/>
          <path class="st185" d="M1356.9,364.5c1,0,10.8-4.8,10.8-4.8-3.1-1.9-6.2-3.8-9.3-5.7-.6,3.5-1.1,7-1.6,10.5h0Z"/>
          <path class="st185" d="M1371.5,288.4s10.1-3.7,10.6-3.6c0,0-8.8-4.2-9.3-4.1-.4,2.5-.9,5.2-1.3,7.8Z"/>
          <path class="st185" d="M1420.4,378.4c22.2,28,0,44.4-10.2,49.6,46.4-21.9,44.5-56.5,40.7-73.1-6.1,4.6-15.4,11-29,19.4-.9,2.5-1.5,4.1-1.5,4.1Z"/>
          <path class="st185" d="M1406.8,429.6c-.3.1-.7.3-1.1.5,0,0,.4-.1,1.1-.5Z"/>
          <path class="st185" d="M1413.9,393.9c-16.8,36.7-10.6,35.6-9,36.3h.3c30.4-13.1,8.9-36.4,8.7-36.3Z"/>
          <path class="st185" d="M1348.1,312.9c-3.6,1.6-7.2,3.2-10.8,4.9,0,0,7.7,5.6,8.1,5.6.9-3.5,1.7-7,2.6-10.4Z"/>
          <path class="st185" d="M1369.3,224.1c-62.9,0-113.8,51.9-113.8,115.9s51,115.9,113.8,115.9,113.8-51.9,113.8-115.9-51-115.9-113.8-115.9ZM1462.5,344.7h0c0,.1-1.3,1.8-5.4,5.3,2.1,16.4,3.2,58.3-51.8,80.5-.2-.6-3.7.6-9.1,1.8-13.9,3.1-40.1,6-52.1-21.2-24.2,6.4-40.6,5.4-42.3,1.6,0,0,0,0,0-.1-2.2-2.4-9.7-10.9-9.7-10.9,0,0-6-4.1,46.6-28.6,0,0,1-12.9,2-21.9-7.5,2.9-16.6,5.9-25.6,7.7-19.2,4.5-39.1,4.4-39.6-1.1,0,0,0,0,0,0l-.8-15.4s-2.1-4.4,33.5-25.7c-.4-.2-31.2-27.6,4.6-51.7-10.4,7.9-18.6,22.4,11.2,43.4-.2,0,27.2-12.3,28.7-12.7,0-.2,5.2-19.7,4.9-21.2-.4-.2-37-12.9-31.3-16.5,0,0-1.1.3-2.8,1.1,2.3-1.1,4.7-2.2,7.4-3.3,0,0,3-1,8-2.3-4.2,1.4-8.5,3-8.5,3,.2.3,28.7,7.9,28.9,8,0-.2,1.4-12.3-8.7-12.7,0,0-1.7-.1-3.4,0,7.3-1.3,16.3-2.4,25.8-2.4h.1c18.5.3,40.1,3.6,55.2,23.4,0,0,5.5-.9,7.9,1.2,0,0,7.6,8.2,9.4,10.9.9.5,2.6,2.7-9.3,11.9.5,3.5.8,7.3.6,10.5,0,0,9.4,10.4,14.7,21.8.1,0,10-2.5,10.4.7,0,0,1,11.5.8,15,0,0,0,0,0,0,0,0,0,0,0,0h0Z"/>
          <path class="st185" d="M1404.5,384.9s0,0-.1,0c-1.2.7-2.3,1.4-3.6,2.1-15.9,9.4-31,16-44.3,20.6,3,12.6,10.4,25.4,28.2,25.4s1.6,0,2.5,0c4.7,0,10.3-.7,16.7-2.3,0-1.5-18.7,7,.6-45.6Z"/>
          <path class="st185" d="M1315.7,401.4c6.2-.3,14.2-1.5,24-4-.5-2.4-.9-4.8-1.2-7.4-.4.2-12.5,5.7-22.8,11.4Z"/>
          <path class="st185" d="M1319.2,326.5c-1,.2-17.2,9.3-29.6,17.9,1,0,2.2,0,3.6,0,6.8.2,19.1.3,40.1-7.4-6.1-4.4-13.5-9.7-14.1-10.5Z"/>
        </g>
      </g>
      <polygon class="st185" points="1286.9 468.3 1315.7 468.3 1295.1 455.8 1286.9 468.3"/>
      <path class="st185" d="M1079.2,567c-2.4.8-13.2,8.7-16.5,10.6-83.1,48.8-167.5,102.6-249.4,152.6-34.4,21-73.1,40.7-106.1,63.7-2.1,1.4-4.6,3.4-6.1,5.4l403.7-215.1c.7-1.6.4-2.9-.2-3.8l-25.4-13.4Z"/>
      <g>
        <path class="st136" d="M1600.7,484.7l2-67.2c4.6.8,9.1,1.2,13.7,1.2,8.9,0,14.8-2.5,17.9-7.6,3.1-5.1,4.6-11.9,4.6-20.5v-46.3h-29.4v-67.6h218.6v208.1h-67.6v-140.5h-53.9v58.4c0,29.3-6.5,50.6-19.5,64-13,13.4-33.3,20.1-61,20.1s-18.9-.7-25.4-2Z"/>
        <path class="st136" d="M1892.2,409.1c10.7-3.2,20.9-7.9,30.6-14.1-.3-6.7-.4-17.7-.4-33s-.6-8.5-1.8-11.1c-1.2-2.5-3-4.3-5.4-5.2-2.4-.9-5.6-1.4-9.7-1.4h-37.4v-67.6h52.3c19.6,0,34.1,2.4,43.7,7.2,9.5,4.8,15.8,12.2,18.9,22.1,3.1,9.9,5,24.6,5.8,43.9.8,22.5,2.5,42.3,5.2,59.4,2.7,17,6.4,36.3,11.3,57.8l2,9.7-70.4,9.7c-2.4-11-4.8-21.9-7.2-32.6-10.7,11.5-21.9,20-33.6,25.4-11.7,5.4-23.9,8.3-36.8,8.9l-5.2-72.5c14.8-1.1,27.5-3.2,38.2-6.4Z"/>
        <path class="st136" d="M2049.9,344.3h-25.4v-67.6h93v141.7h-67.6v-74.1Z"/>
        <path class="st136" d="M2188.4,474.7l52.7-130.4h-99.4v-113.1h68v45.5h113.9v33.4l-60.8,174.7h-74.5v-10.1Z"/>
      </g>
    </g>
    <g>
      <path class="st98" d="M878.8,279.8c.5-.3.7-1.8,1.7-2,2-.4,5.1.9,6.3-1,4.2-1,8.7-.8,13,0,21.4,3.1,54,28.9,58.7,50.7,3.8,18-5,30.2-22.7,33.8-30.5,6.1-63.3-7.6-91.6-17.6-6.4-.4-6.1,2.5-10.1,4.9-16.4,9.7-30.3-7.1-45.3-12.3s-17.2-3.4-25.4-5.6c-6.2-1.7-31.1-10.9-34.9-9.9s-16.8,32.4-19.9,37.3c-9.6,15.5-28.7,34.4-32.7,52.3-.4,1.9,0,1.2,1.4,1.4,14.9,1.8,32,.2,47,1,18.7,1,41.1,7.3,59.2,2.3,7.5-2.1,14.4-6.6,22.2-7.8,21-3.3,40.1,8.6,60.5,11.5,2.2.3,4.8-.4,6.8,0s.7,2.7,2.7,2c.6.5,1.2,1.3.9,1.9-12.1,21.9-19.8,38.4-26.3,63.7-2.5,9.5-4.2,19.2-5.8,28.9-.6,1.7-1.5,3.2-2.7,4.4.6,1.5-.7,1.9-4,1-8.4-2.1-13.9-.7-21.8,1.7-24.2,7.6-54.5,21.4-77.9,32.1-25.7,11.8-54.4,25.8-78.6,40.3-2.5,1.5-12.8,9.7-13.7,9.8s-3.2-1.4-3.9-.9-4,10.9-6.1,8.9c-5.9-25.7-4.3-52.3-.9-78.3,2-15,5.5-31.8,9.6-46.4,5.1-17.9,13.4-35.1,17.3-53.2-31.7.2-63.9,5-95.2,10.3-17.8,3-35.5,7.9-53.4,10.6-.6,0-7,.5-4.4-1.9s3.8-.6,5.3-1.2c28-12.1,59.9-23,89.5-30.5,23-5.8,46.3-9.8,70.2-8.3-.5-1.8-.8-2.8-.4-4.8,3.3-14.9,18.7-31.4,27.2-43.9,8.9-13.2,16.2-30,21.9-45,6.2-16.1,8-34.3,21.7-46.2,1.9,16-3,32.1,1,48l46.9,11.9c2.3-.5,1.9-9.3,1.5-11.4-.7-3.9-5.3-7.8-5.9-12.1-1.1-8,4.6-19.1,10-24.9,19.8-21.2,50.6-3.2,74.7-1.8.9,0,4.8-2.9,6.3-3.8Z"/>
      <path class="st38" d="M1186.7,476.7c.6-.6,1.6-1.1,2-.6,1.5,1.6,4,8.8,4.1,11.5,1.5,30.1-46.2,55-71.1,62-3.5,1-7.2,1.8-10.8,1.4-32.9-9.2-69.5-12.5-103.6-4.6l-18.6.6c-31.1,8.3-64.1,7.6-95-2.3s-37.2-15.7-51.6-23.8c-.3-.1-.3-.6-.4-1.2,4.5-29.3,12.1-60.9,26.5-87,1.2-2.2,6.1-11.1,7.5-12s7.5-1.9,9.5-2c25-2,72.3,3.7,97.7,8.3,12.3,2.2,40.4,7.8,51.1,11.9s11.6,7.9,17,11c33.3,18.9,83.9,27.7,122.1,28.9,5,.1,9.4.9,13.5-2Z"/>
      <path class="st98" d="M619.9,674.5c1,0,1.4-.4,2.1.6s4.9,13.6,5.9,16.4c.6,2.8,1.4,5.6,3,8,3.2,8.9,6.6,17.4,9.9,25.8,6,15.3,11.7,30.6,17.9,45.8.4,4.2-10.9,10-13.8,12.9,20.6,56.3,26.2,116.4,37.9,174.9,4.8,55.2-39.7,86.3-89.8,91.3-4.7-1.2-1.7-1.8-2.4-5-6.5-29.7-22.9-83.6-51.5-98.5-8.6-4.5-32.9-6.8-43.5-7.4-18-1.1-37.1.6-54.5,5.5-21.1,5.9-39.9,18.5-61.5,22.5l1.5-2c15.8-4.1,29-11.1,44-17,3.8-.9,7.5-2.2,11-4,2.3-.7,4.7-1.4,7-2,22.2-5.7,45.3-5.9,68-3,3.7.5,5.9.9,10,1l10,1c5.8.3,11.3.9,17,2,.2-1.1-.1-1.9-.5-3-2.7-6.5-18.6-24.5-23.9-32.1-6.9-10-13-20.7-19.7-30.8-8.4,1.9-7.7.4-9.8-6.1l2-2.5,1,3c.8,1,1.2.3,2,0,6.6-2.9,13.1-14.4,20-18l67.9-70c7.1-1.6,4.6-3.7,6.2-6.2s2.7-.5,3.6-1.4c3.1-3-.6-4.9,8.7-4.8,14.3.2,30.1,5.9,43.9,4,1.8-.3,5.3-1.3,6.2-2.9l-35.6-97.9Z"/>
      <path class="st98" d="M1186.7,476.7c.6-.4,1.1-1.9,2.6-2.9,5.4-3.2,15.2-2.1,19.9,1.8,3.6,3.1,3.4,8.3,8.9,9.1,10,1.3,23.5-.6,34.1,0,16.5.8,32.5,5,48.9,6.1,26.4,1.8,54.3-1.5,80.8.1,6,4.8,5.8,18,2.5,24.2-2.4,4.6-18.2,14.4-17.7,16.9s3.5,3.8,1.4,6.8c-2.2,3.1-18.9.2-21.8,7.2-1.1,2.7,0,6.9-2.7,8.2-6.4,3.2-6.7-2.9-9-4s-10.8,1.6-10.9,5c-.2,4.3,4.2,6.8-3.7,7.5-8.6.7-6-3.3-9.4-5.4-2.6-1.6-16.8,3.6-20.7,4.3-12.5,2.2-25.3.2-37.5,4.5-8.9,3.1-32.2,17.3-39.2,23.8-5.6,5.2-1.7,4-2.7,9.2-.6,3.5-7.7,7.2-10.3,6.7-2.6-.5-.5-6.6-3.1-7.9-2.1,2-8,3.3-9.6,5.4-2.5,3.5,1.7,9-4.6,10.3-10.5,2.3-8.2-4.7-10.9-5.7-2.4-.8-10.1,2-13.9,2-27.9,0-27.8-28.3-35.2-46.8s.4-3.9-1.2-5.8-23.8-8.5-27-9c-8.3-1.4-17.4-2.1-26-3.4-2.8-.1-6.3-.4-8.5-2-6.6.8-15.1.8-22,0-4.8,1.4-10,1.7-15.5,1-5.8,1.6-8.2,3.1-15,4-9.6-.1-19,.9-28,3-1,.3-2,.7-3,1-14.1,2.7-28.8,3.4-43,2-16.4-.8-37.5-5.5-52.7-11.8s-30.9-18.1-43.3-21.2c1.3.8,3.8-1,4-1,3.3.1,22.7,11.6,27.6,13.8,36.7,16.8,73.8,22.9,113.1,13.5,10.4-2.5,21.3-.8,32.2-2.8,26.7-4.7,49.2-3.4,76.3.6,17.2,2.5,16.9,7.8,36.1.9,22.9-8.3,61.5-28.2,63.4-55.5.9-13.3-5.4-7.3-15.5-8.5l-17.5-3,31,1-2-3Z"/>
      <path class="st98" d="M275,976.3c3,3.1,2.5,1,6.5,1,12.2-.1,24.9.6,37.1,0,1.9,0,20.5-3.3,20.5-1.5-8.3,1.6-17.2,3-25.7,3.4-10.8.6-23.4-1.2-33.9,0-4.6.6-5.9,7.9-8.2,11.7-12.6,20.6-20.3,32.2-17.1,58.7,1.7,13.7,7,10.1,15.9,14.1s6.8,8.4,4,13.5c-2.1,3.9-11.2,7.9-1.8,11.3,7.5,2.7,16-1.4,17.7,9.2.9,5.9,0,9.5-5,12.9-7.2,4.8-15.4.6-24.2,1.8-27.7,3.8-50.2,55.2-64.9,76-6.5,9.2-13.8,19.1-26.8,15.2-8-2.4-6.9-10.1-9.4-12.6-1.9-1.8-6.6-.6-7.5-5.5-1.6-8.1,4.8-6.1,5.8-9.1.7-2,.4-10.6-1.1-12.1-2.9-2.9-6.1-.6-5.8-8.7.2-6.8,4.8-3.6,6.6-6.5.4-.6,1.5-5.8,1.5-6.6,0-4.2-4.9-5.1-5.7-8-2.6-8.5,4.6-7.2,6.1-10.5,2.3-5.3,3.3-17.2,5.2-23.7,5-17.8,12.9-35.5,16.2-53.7,1.7-9.5,1.8-19.2,3.3-28.7,0-2.9-4.6-2.8-5.6-4.5-.6-1,1.6-10,2.5-11.3,1.7-2.5,7.8-.2,5.6-6.7-.7-2.1-3.2-3.2-3.6-5.5-1.4-8.3,4.8-6.3,7.1-8.9,1.3-1.5,2.7-6.9,4.5-9.5,9-12.9,23.7-15.9,38.4-12.6,5.2,1.2,35.5,11.3,38.5,13.5s2.3,2.8,3.5,4Z"/>
      <path class="st38" d="M899.8,276.8c-4.3,0-8.7.1-13,0-.7,0-1.3,0-2,0,2.6-1.6,8.3-1.3,11.6-1.1s2.8,1,3.4,1.1Z"/>
      <g>
        <path class="st98" d="M884.8,276.8h2c.7,2.8-2,3.8-8,3l-10.5-9.1c-9.3-4.3-16.1-15.9-26.2-20.8s-8.9-1.3-13.6-2.4c-14.2-3.3-21.7-12.1-33.7-18.3-5.8-3-14.8-4.4-19-7-1.5-.9-20-23.9-22.1-26.9s-.8-3.4-1-3.5c-2.1-2-7.2,10.8-8.1,12.3-4.8,7.4-17.2,17.6-26.3,17.7-11.4.2-23.5-13.6-30.9-13-1.9.1-7.6,4-9.7,5.3-7.1,4.5-16.6,14.8-25.3,14.5-14.9-.4-36.6-26.9-44-39-6.4-10.4-10.2-25-21.2-31.7-3-1.8-6.1-1.9-8.7-3.3-3.5-1.9-7-5.4-10.3-6.7-11.6-4.4-55.1,3.4-69.5,6.1-42.1,7.7-90.7,22-110.3,63.7-3.4,7.3-9.8,26,1.5,28.6,12.2,2.8,33.5,1.6,46.6,1.5,28.7-.2,61.3-4.1,89.9-2,.8,0,3.5-.5,2.5,1.5s-12.8,7-15.3,8.7c-15.5,10.1-38.7,27.3-47.8,43.1-11.7,20.1-11.6,40.4-17.1,61.8-2.9,11.4-12.3,27.3-13.5,37.5s-.7,3.1.2,4.3c1.5,2.1,7.8-1-1,6.9-13.1,11.8-42.6,22-59.4,28-.1,3-1.1,3.5-3,1-1.1-14.2,14.8-17.8,22-27.5,2.8-3.7,4.4-8.7,7.2-12.8,3.4-5,8.6-9.1,11.4-14.6,5-10.2,3.7-21.2,6.5-31.5,1-3.7,3.9-7,4.7-10.3,1.7-7.1.7-16,2.5-23.5.8-3.4,3.2-6.5,3.7-9.3,1-6.1-1.9-12.5-.9-18.9s3.4-4.4,3-8c-.8-5.6-10.8-15.3-16.7-16.3-15.3-2.6-53.4,3.4-69.4,7.1s-15.3,6.5-20.3,6.7c-6.6.4-10.8-4.1-20.5-2.6-24.1,3.8-50.5,16.5-73.4,24.6-33.5,11.7-70.2,20.7-101.8,36.1-6.8,3.3-16.5,7.1-21.1,12.9-7,9-16.2,34.9-23.6,40.3-9.3,6.8-24.6,6.5-35.6,13.4-7.8,4.8-20.7,21.4-28.9,22.2-5.2.5-7.8-6.7-7-11,.5-2.6,3.7-6.7,3.6-8.5,0-2.4-10.5-6-7.8-14.7.5-1.6,3.2-2.6,2.8-4.2-1.6-2.2-4.6-2-6.5-3.5-5-4-1.4-16,1.7-20.4,1.2-1.7,3.8-1.9,3.9-4.1-11.2,1.8-13.8-6.4-8.4-15.4,4.8-8,20.1-15.7,28.7-20.2,20.3-10.7,41.2-13.6,59.7-23.3,51.5-27.2,115.9-77.5,171.7-90.2,6.3-1.4,13-.9,19.1-3.4,1.2-6.5-3-20.9,5.1-23.4,5.9-1.8,13.4,1.3,20.3.3,8.8-1.3,21-8.3,29.9-11,9.6-2.9,19.7-2.8,28.6-5.4s18.5-8.7,28.4-11.6c26.7-7.8,69.1-24.2,95.2-25.8,7.6-.5,15.4.6,23,0,24-1.7,50.6-16.8,73.5-5.5,3.5,1.8,6.9,6.4,10.7,7.3,6.1,1.4,14.5-2.2,21.3.2-6.4-8.6-.7-17.8-.9-26.5-.1-6.5-3.8-15.4-4.1-23-3.7-77.3,104.1-112,151-53,22.7,28.6,8.1,58.4,10,88.9.2,3,2,6.2,1.9,8.9s-2.8,6.5-3.5,9.5c-2.6,11.1-3.8,25-8.7,35.3-2.2,4.6-11,13-9.6,18,.4,1.6,13,13.7,15.3,16.8,1.7,2.3,6.7,12.8,7.6,13.4,1.5,1.1,8.4,2,11,3,12.3,5,23.2,15.7,34.3,19.7,6.6,2.4,14.3,1.7,20.1,3.9,8.4,3.3,19.6,15.4,26.6,21.4,6.4,5.5,7.3,7,16,7.5Z"/>
        <path class="st38" d="M326,181.9c.3,25.1,2.5,50.6,12,73.9-2.1.5-2.3-1.1-3.2-2.3-8.8-11.2-18.3-32.1-19.6-46.3s.4-22.2,1-23.2c.5-.8,9.1-2.9,9.9-2.1Z"/>
      </g>
      <g>
        <path class="st38" d="M375,437.7l1.4-2.6c9-2.2,58.5-22.5,59.4-29.4-3.1-2.9-3.7-6.8-1.7-11.9,3.9-10.6,7.9-21.1,12.2-31.6l8.9-42.4c8.5-34.2,40.3-55.9,69.2-71.8-25.7-.8-51.4-.3-77.2,1.7l-38.9.5c-39.5,4.1-27.7-28.1-12.5-48.3,22.4-29.8,58.3-39.6,92.7-47.8,19.6-4.7,44.9-8.6,64.9-9.3s17.4.8,26.1,8.2c9.1,2.2,15.8,7.5,20.4,15.9,7.2,17.5,32.6,56,52.1,57.8,8.7-2,16.8-6.6,24.2-13.8,5.9-5.4,11.7-6.9,17.3-4.6,19.8,14.9,34,15.9,49.5-5.2,1.9-6.2,5-10.6,9.4-13.2,7.9,10.6,15.9,21.2,23.9,31.8,13.8,3.7,25.3,10.1,37,18.6,9.1,5,16.2,6.8,26.1,7.6l4.9,2c11.6,9.7,23.2,19.2,34.8,28.3l-.4,1.4c.4,6.4-9.9,6.2-15.1,4.7-30.2-8.8-71.3-16.7-73.7,26.2,6.4,8.7,12.3,30.5-5.8,22.6-13.5-2.9-27-6.3-40.2-10.4-2.6-12.5-3-25.4-1.2-38.7l-.4-5.7c-3.4,3.8-6,8.2-8.1,12.9-10.4,34-24.1,66.9-47.4,94.4-7.5,9-11.6,18.7-12.3,29-53.9,0-106.1,17.6-155.7,37.8,18.7-5.4,139.3-26,143.9-19v5.6c-19,53.9-36.5,111.8-25.4,169.4,1.3-4.7,5.9-10.8,8.4-4-1.3,7.3-.4,14.6,0,22h-1.1c0-.1-1.9-21-1.9-21,.3,6.7,1,15,1.9,21.6,0,0,.5-.2,1.1-.6,0,.2,1,1.6,1.1,3.4.2,5.3.1,11.3-.6,16.6-2.5,4.1-67.3,19.6-76.5,21.5-33.8,6.9-68.5,9.8-103,9.5-.2,1.4,1.8,1.4,2.8,1.7,32,8.9,94.1,5.3,127.4,0,6.2-1,17.5-4.8,22.8-4.7l.9.4c11.9,32.2,23.9,64.3,36.1,96.4-.7,8-17,6.7-22.6,5.8-11.4-2.5-22.8-3.6-34-3.4-.8,2.8-2.7,5.2-5.8,5.2,0,4.1-2.9,5.9-6.7,6.8-27.4,28.7-55.1,56.9-83.1,84.6-4.4,3.8-6.4,5.4-10.7,1-11.1-33.6-22.3-68-41.6-97.8-14.7-22.8-38.1-37.1-54.4-61-9.1-16.6-15.6-30.4-17.1-49.6.3-21.7-3.1-43.4-7.5-64.8-7.2-35.3.5-67.1,14.5-99.1,2.9-8.5,3.6-17.4,0-25.7-6.6-11.2-11.3-22.7-14.1-34.5l1.3-1.1Z"/>
        <path class="st98" d="M398,712.5c-11.5-16.9-18.1-31.1-19-52-.4-9.7-.7-19.3-1-29-3-15.1-7.2-31.5-8-47-1-9.6-1.3-19.5,0-29,1.1-24.2,10.6-38,17-59.4s-13.4-36.8-15-57.5c1.1,0,2-.6,3-1,.7,14.1,14.6,30.1,16.8,42.7,2.8,16.7-13.7,43.5-17.3,62.2-7,36.5,3.8,59.4,6.5,93.5,2.7,34.2-.9,40.9,16.5,72.4.5,1,2.4,3.5.5,4Z"/>
        <path class="st38" d="M630.9,699.5c-2.2-1.9-2.7-5.2-3-8,.9,2.5,2.1,5.4,3,8Z"/>
        <path class="st98" d="M448,481.7c.6,2.7-.8,1.7-2,2.5-16.8,11.1-33.7,21.8-49.1,34.9l-6.4,2.6c-2.1-3.8.3-20.1,4-23,3-2.5,18-6.7,22.8-8.2l30.7-8.7Z"/>
        <polygon class="st98" points="645.9 626.6 645.9 636.5 643.9 634 642.9 605.6 645.9 626.6"/>
      </g>
      <path class="st38" d="M381,965.3c1.5.5-.6,2-1.5,2s12.9-4.7,14.6-5.1c27.8-12.6,51.2-21.5,82.2-23.5,15.9-1,41.4.8,56.9,4.2,26.8,5.9,43,47.5,50.9,71.1,3.9,11.7,7.4,24,8.7,36.2-10,1-26.3-1.1-34.2,1.3-8.6,2.5-11,10.4-22.2,10.8-23.4.7-47.4-.7-71-.1-17.1.4-70.3,5.9-83.2-.6-1.6-.8-1.7-2.5-2.8-3.2-4.2-2.6-26-2.5-31.9-2.1-25.7,1.6-49.6,12.6-73.5,21l-1.3-1.9c2-4.6,0-9-4.9-10.4-9.1-2.2-14-3.4-15.5-13.5-3.6-24.6,4-42.1,17.5-62.1,2.1-4,4.5-8.8,5.2-13,35.8,1.6,71.4-2,106-11Z"/>
    </g>
  </g>
  <polygon class="st185" points="993 399.3 1236.9 302.7 1164.4 312.9 993 399.3"/>
  <polygon class="st185" points="1083 422.3 1202.5 358.1 1192.8 379.8 1083 422.3"/>
  <polygon class="st185" points="1161.9 458.3 1228.2 419.5 1233.3 435.9 1161.9 458.3"/>
  <polygon class="st185" points="994.1 557.1 916.9 597.6 850.6 629.8 859 623 921.3 587.6 983.7 557.8 994.1 557.1"/>
</svg>