<svg xmlns="http://www.w3.org/2000/svg" xmlns:xlink="http://www.w3.org/1999/xlink" id="Layer_1" viewBox="0 0 4968.8 3749.9"><defs><style>      .st0 {        fill-rule: evenodd;      }      .st0, .st1 {        fill: #fff;      }      .st2 {        fill: #eb582f;      }      .st3 {        fill: #528aac;      }      .st4 {        clip-path: url(#clippath-1);      }      .st5 {        clip-rule: evenodd;        fill: none;      }      .st6 {        fill: #f69e1f;      }    </style><clipPath id="clippath-1"><path class="st5" d="M3512,512.9c-139,0-268.8,39.3-379.1,107.2-208.8,125.9-348.4,354.9-348.4,616.5s139.7,490.6,348.4,616.5c110.3,67.9,240.1,107.2,379.1,107.2,399.7,0,723.7-324,723.7-723.7s-324-723.7-723.7-723.7Z"></path></clipPath></defs><g><g><path class="st6" d="M1875.4,3327.6c358.5,9.3,717,7.9,1075.6,7.3,363.3-.6,726.5-1.9,1089.8-7.7,5.7,0,5.8-8.9,0-8.9-358.6,1.3-717.1,6.9-1075.6,9-363.2,2.1-726.5-1.2-1089.8-2.3-1.7,0-1.7,2.5,0,2.6h0Z"></path><path class="st6" d="M3692.6,3358.7c193.6,1.2,387.1.5,580.7-1.8,193.1-2.3,387.8-3.5,580.5-16.6,7.4-.5,7.6-11.6,0-11.6-193.4,1.7-387.1,12.3-580.5,16.9-193.6,4.6-387.1,8-580.8,9.2-2.4,0-2.5,3.8,0,3.8h0Z"></path><path class="st6" d="M2389.2,3366.5c203.5,2.5,407.1,4.4,610.6,6.5,208.1,2.1,416.8,7.5,624.8,2.7,4.7-.1,4.7-7.1,0-7.2-203.3-7-407.2-4.2-610.6-4.4-208.3-.3-416.6-.7-624.9-.5-1.9,0-2,3,0,3h0Z"></path><path class="st6" d="M1645.7,3411.3c292.3,1.5,584.9,8.3,877.2,1.8,3.2,0,3.2-4.8,0-4.9-292.2-6.5-584.9.3-877.2,1.8-.8,0-.8,1.2,0,1.2h0Z"></path><path class="st6" d="M4403,3437.1c187.2,3.7,374.9,4.6,562.1,2.2,4.9,0,4.9-7.5,0-7.6-187.2-2.5-374.9-1.5-562.1,2.2-2.1,0-2.1,3.2,0,3.2h0Z"></path><path class="st6" d="M3000.8,3430.4c185.2,2,370.3,19.2,555.5,10.2,88.8-4.3,175.9-12.7,264.5-1.7,86.7,10.7,174-6.2,261-.5,3.8.2,3.7-5.4,0-5.8-86.9-9.8-174,9.1-261-1.2-88.4-10.4-175.9-4.9-264.5-.8-185.2,8.6-370.3-2.6-555.5-2.4-1.4,0-1.4,2.2,0,2.2h0Z"></path><path class="st6" d="M1494.6,3490.4c120.3,15.9,240.2,2.3,360.8-2.8,122.7-5.2,245.4-1.4,368.1-3.3,1.7,0,1.7-2.6,0-2.7-122.7-2.3-245.3-7.4-368.1-4.5-120.4,2.9-240.3,23.6-360.9,10.7-1.7-.2-1.6,2.3,0,2.6h0Z"></path><path class="st6" d="M2568.2,3498c82.3,28.3,170.8,30.4,257,26.7,95.7-4.2,191.1-14,286.8-18.2,3.9-.2,4-6,0-6.1-180.5-5.7-366.2,54.2-543.4-3.9-1-.3-1.4,1.2-.4,1.5h0Z"></path><path class="st6" d="M3562.9,3505.2c129.6,1.9,259.6,10.7,389.2,6.8,3.2,0,3.2-4.8,0-4.9-129.5-4.4-259.6-7-389.2-5.6-2.4,0-2.4,3.6,0,3.7h0Z"></path><path class="st6" d="M4057.3,3504.4c84.2-20.7,167.2-16.4,252.5-7,81.4,9,159.4-32.4,241-11,2,.5,2.7-2.4.8-3-81-24.9-159.9,10.7-241.8,7.3-42.3-1.8-83.6-8.3-126.2-7.6-42.8.7-85.6,8-126.8,19.3-1.2.3-.7,2.2.5,1.9h0Z"></path></g><g><g><g class="st4"><path class="st6" d="M3512,512.9c-139,0-268.8,39.3-379.1,107.2-208.8,125.9-348.4,354.9-348.4,616.5s31,239.3,85.7,340.7c42-14.2,83.4-32.6,127.4-35.7,68.9-4.9,130.5,31.2,195.9,46.2,66.3,15.2,124.3-7,186.6-27.6,64-21.2,117.9-22.8,182.1-2.1,62.9,20.3,121.4,45.1,188.6,30.7,61.8-13.2,119.7-47.4,183.9-48,67.4-.7,127.7,36.2,192.5,49,5,1,10,1.7,14.9,2.3,5.2-8.9,9.9-18,14.7-27.2,50.3-98.6,78.8-210.1,78.8-328.3,0-399.7-324-723.7-723.7-723.7Z"></path></g><g><path class="st3" d="M3750.8,1626.1c-67.2,14.4-125.7-10.5-188.6-30.7-64.2-20.7-118-19.1-182.1,2.1-62.3,20.6-120.3,42.8-186.6,27.6-65.4-15-127-51.2-195.9-46.2-38.3,2.8-74.6,17-111.1,30.1,11.5,18.7,23.8,36.8,36.9,54.4,24.3-8.2,48.8-15.1,74.2-17,68.9-4.9,130.5,31.2,195.9,46.2,66.3,15.2,124.3-7,186.6-27.6,64-21.2,117.9-22.8,182.1-2.1,62.9,20.3,121.4,45.1,188.6,30.7,61.8-13.2,119.7-47.4,183.9-48,51.1-.5,98.1,20.5,146.2,36.3,14.3-18,27.9-36.7,40.5-56-62.6-13.8-121.3-48.5-186.6-47.8-64.3.7-122.2,34.8-183.9,48Z"></path><path class="st3" d="M3750.8,1730.8c-67.2,14.4-125.7-10.5-188.6-30.7-64.2-20.7-118-19.1-182.1,2.1-62.3,20.6-120.3,42.8-186.6,27.6-65.4-15-127-51.2-195.9-46.2-17.3,1.2-34.1,4.8-50.7,9.6,16.8,20.2,34.6,39.5,53.4,57.7,67.9-3.9,128.7,31.5,193.3,46.3,66.3,15.2,124.3-7,186.6-27.6,64-21.2,117.9-22.8,182.1-2.1,62.9,20.3,121.4,45.1,188.6,30.7,61.8-13.2,119.7-47.4,183.9-48,24.9-.3,48.7,4.6,72.3,11.5,17.3-16.2,33.9-33.1,49.6-50.9-39.8-14-79.4-28.5-121.9-28-64.3.7-122.2,34.8-183.9,48Z"></path><path class="st3" d="M3750.8,1835.4c-67.2,14.4-125.7-10.5-188.6-30.7-64.2-20.7-118-19.1-182.1,2.1-62.3,20.6-120.3,42.8-186.6,27.6-50.2-11.5-98.1-35.5-148.8-43.7,58.7,48.4,125.1,87.9,197,116.2,47.3-.7,91.6-17.1,138.4-32.6,64-21.2,117.9-22.8,182.1-2.1,62.9,20.3,121.4,45.1,188.6,30.7,36.5-7.8,71.7-22.9,107.6-34.1,40.9-22.3,79.5-48.4,115.2-77.9-12.8-2.3-25.7-3.6-38.9-3.5-64.3.7-122.2,34.8-183.9,48Z"></path><path class="st3" d="M3380.1,1911.5c-21.5,7.1-42.4,14.4-63.4,20.3,61.4,16.7,125.9,25.7,192.6,25.7s107.1-5.9,158-17.1c-35.2-6.5-69.5-19.4-105.1-30.9-64.2-20.7-118-19.1-182.1,2.1Z"></path></g><g><path class="st0" d="M3864.8,1408.1c-3.3,1.3-29.5,11.8-29.6,11.9,3.1,1.7,20.2,16.6,20.2,16.6,1-2.5,9.4-28.5,9.4-28.5Z"></path><path class="st0" d="M3746,1211.6c0,0,28.6-10.4,30-10.3,0,0-24.9-11.8-26.3-11.7-1.2,7.2-2.5,14.6-3.7,22Z"></path><path class="st0" d="M3868.7,1212.5c7.9,5.8,15.9,11.6,23.7,17.4,0,0-2.2-21.5-2.3-22.7,0,0-4.7,1.3-9.7,2.6-5,1.4-10.3,2.7-11.6,2.7h-.1Z"></path><path class="st0" d="M3927.5,1313.5c-.3,3-4.8,27.3-4.8,27.3,6.9-2.4,13.6-4.7,20.2-6.9-.7-2.1-15.4-20.3-15.4-20.4Z"></path><path class="st0" d="M3672.4,1310.4c2.5-9.9,4.9-19.8,7.5-29.5-10.2,4.6-20.4,9.2-30.4,13.8,0,0,21.6,15.7,23,15.7Z"></path><path class="st0" d="M3752,1156.9c13.3,3.2,71.2,29.2,71.2,29.5,6.3-2.3,57.2-14.6,56.9-14.6-31.1-72.4-120.8-69.7-155.2-67.1-6,.5-10.3.9-12.4,1,41.1,5.2,39.7,50.5,39.5,51.3Z"></path><path class="st0" d="M3892.7,1276.6c-24.9-24.9-69.4-50.4-69.4-50.3-7.5,1-86.8,31-87.1,31.4-.8,3.8-16.8,82.1-16.8,82.5.4,1.3,74,49.3,74,49.4,29.4-11.3,58.2-22.6,85.7-33.5,4-8.2,13.8-79.8,13.6-79.4Z"></path><path class="st0" d="M3735.3,1413.2c-8.8-5.3-17.5-10.7-26.3-16.1-1.6,9.9-3,19.8-4.5,29.7h.1c2.9,0,30.6-13.5,30.6-13.6Z"></path><path class="st0" d="M3845.7,1610.7c-1,.4-2,.9-3,1.3,0,0,1.1-.4,3-1.3Z"></path><path class="st0" d="M3737.6,1041.1c-177.1,0-321.6,144.5-321.6,321.6s144.5,321.6,321.6,321.6,321.6-144.5,321.6-321.6-144.5-321.6-321.6-321.6ZM3985.3,1366.7c-5-3.4,53.9,166.9-143.9,246.7-.6-1.6-10.5,1.8-25.7,5.1-47.5,10.4-145.8,20.9-162.8-119.7-2,1.1-116.7,52.8-102.5,65.7-.2.2-29.1-32.7-29.1-32.7,0,0-17-11.6,131.6-80.8-.1,0,6.2-76.2,9.2-84.9-.4-.2-60.5-42.8-63.7-46.6-4.7,1.1-124,69-124,88.6l-2.3-43.7s-6-12.3,94.8-72.6c-1-.7-88.1-78.1,13.1-146-29.4,22.3-52.5,63.2,31.8,122.6-.5-.2,76.8-34.8,81-35.9,0-.6,14.6-55.5,13.7-59.9-1.1-.7-104.5-36.3-88.6-46.7,0-.1-3.1.9-8,3,6.4-3.2,13.4-6.3,20.9-9.4,0,0,8.5-3,22.7-6.4-11.9,3.8-24.2,8.6-24.2,8.6.6.7,81.1,22.3,81.7,22.6,0-.5,4.1-34.8-24.6-35.8,0,0-4.7-.3-9.6-.3,20.6-3.7,45.9-6.7,72.8-6.7h.3c52.3.8,113.3,10,156,66.1,0,0,15.4-2.5,22.4,3.3.2-.2,26.5,28.4,27.6,32.9,0,0-4.7-8.1-34.3-2.8,0,0,10.4,38.2,8.5,64,.1,0,26.5,29.4,41.6,61.5.3,0,28.2-7.2,29.4,2,0,0,2.9,32.5,2.2,42.3-.1-.4.3-6.3-17.8-4.2Z"></path><path class="st0" d="M3910.1,1390.9c-4.6,15.6-25.5,75.1-25.8,75.1,62.9,79.1.1,125.4-28.7,140.3,176.2-83,105.9-230.8,107.2-233.8-5.6,1-52,18.4-52.6,18.5Z"></path><path class="st0" d="M3866,1509.8c-47.6,103.8-30.1,100.5-25.5,102.6h1c85.9-37,25.1-102.8,24.6-102.6Z"></path><path class="st0" d="M3839.3,1484.3c.4.3-50.7-37.5-58.6-41.6,0,.2-77.4,32.8-81.3,35.5-1.1,4.8-14.3,141.5,83.9,141.5s4.6,0,7-.2c13.4,0,29-1.9,47.1-6.4,0-4.2-52.9,19.9,1.8-128.8Z"></path></g><g><path class="st6" d="M3512,0l41,394c2.4,22.7-14.1,43-36.8,45.3-22.7,2.4-43-14.1-45.3-36.8-.3-2.8-.3-5.8,0-8.5L3512,0Z"></path><path class="st6" d="M3131.5,60.3l160.8,362c9.3,20.8-.1,45.2-21,54.5-20.8,9.3-45.2-.1-54.5-21-1.2-2.6-2.1-5.5-2.6-8.1l-82.7-387.4Z"></path><path class="st6" d="M2788.3,235.1l264.8,294.6c15.2,16.9,13.8,43-3.1,58.3-17,15.2-43,13.8-58.3-3.1-1.9-2.1-3.6-4.6-5-6.9l-198.4-342.9Z"></path><path class="st6" d="M2515.9,507.5l342.9,198.4c19.7,11.4,26.5,36.7,15.1,56.4-11.4,19.7-36.7,26.5-56.4,15.1-2.5-1.4-4.9-3.2-6.9-5l-294.6-264.8Z"></path><path class="st6" d="M2341,850.8l387.4,82.7c22.3,4.8,36.5,26.7,31.7,49-4.8,22.3-26.7,36.5-49,31.7-2.8-.6-5.6-1.5-8.1-2.6l-362-160.8Z"></path><path class="st6" d="M2280.7,1231.2l394-41c22.7-2.4,43,14.1,45.3,36.8,2.4,22.7-14.1,43-36.8,45.3-2.8.3-5.8.3-8.6,0l-394-41Z"></path><path class="st6" d="M2341,1611.7l362-160.8c20.8-9.3,45.2.1,54.5,21,9.2,20.8-.1,45.2-21,54.5-2.6,1.2-5.5,2.1-8.1,2.6l-387.4,82.7Z"></path><path class="st6" d="M4235.7,2227.3l-264.8-294.6c-15.2-17-13.8-43,3.1-58.3,17-15.2,43-13.8,58.3,3.1,1.9,2.1,3.6,4.6,5,6.9l198.4,342.9Z"></path><path class="st6" d="M4508.1,1955l-342.9-198.4c-19.7-11.4-26.5-36.7-15.1-56.4,11.4-19.7,36.7-26.5,56.4-15.1,2.5,1.4,4.9,3.2,6.9,5l294.6,264.8Z"></path><path class="st6" d="M4683,1611.7l-387.4-82.7c-22.3-4.8-36.5-26.7-31.7-49,4.8-22.3,26.7-36.5,49-31.7,2.8.6,5.6,1.5,8.1,2.6l362,160.8Z"></path><path class="st6" d="M4743.2,1231.2l-394,41c-22.7,2.4-43-14.1-45.3-36.8-2.4-22.7,14.1-43,36.8-45.3,2.8-.3,5.8-.3,8.5,0l394,41Z"></path><path class="st6" d="M4683,850.8l-362,160.8c-20.8,9.2-45.2-.1-54.5-21-9.3-20.8.1-45.2,21-54.5,2.6-1.2,5.5-2.1,8.1-2.6l387.4-82.7Z"></path><path class="st6" d="M4508.1,507.5l-294.6,264.8c-16.9,15.2-43,13.8-58.3-3.1-15.2-17-13.8-43,3.1-58.3,2.1-1.9,4.6-3.6,6.9-5l342.9-198.4Z"></path><path class="st6" d="M4235.7,235.1l-198.4,342.9c-11.4,19.7-36.7,26.5-56.4,15.1-19.7-11.4-26.5-36.7-15.1-56.4,1.4-2.5,3.2-4.9,5-6.9l264.8-294.6Z"></path><path class="st6" d="M3892.5,60.3l-82.7,387.4c-4.8,22.3-26.7,36.5-49,31.7-22.3-4.8-36.5-26.7-31.7-49,.6-2.8,1.5-5.6,2.6-8.1l160.8-362Z"></path></g></g><path class="st0" d="M3212,2342.7c-7.6,2.5-15.5,4.7-21,6.5-5.4,1.8-8.3,3.3-12.3,4.3-4,1.1-9,1.8-15.5,4.3-6.5,2.5-14.5,6.9-18.8,8.3-4.3,1.4-5.1,0-6.3-5.9-1.3-5.9-3.1-16.2-2.4-22.3.7-6.1,4-8.1,5.7-11,1.6-2.8,1.6-6.4,2.4-11.5.7-5.1,2.2-11.6,3.3-18.1,1.1-6.5,1.8-13,3.6-18.8,1.8-5.8,4.7-10.8,7.6-14.8,2.9-4,5.8-6.9,8-5.8,2.2,1.1,3.6,6.1,6.5,9.4,2.9,3.2,7.2,4.7,12.7,7.6,5.4,2.9,11.9,7.2,17.7,11.9,5.8,4.7,10.8,9.8,19.5,14.1,8.7,4.3,21,8,31.1,11.6,10.1,3.6,18.1,7.2,19.5,9.8,1.4,2.5-3.6,4-9,5.1-5.4,1.1-11.2,1.8-16.3,2.9-5.1,1.1-9.4,2.5-15.2,4.7-5.8,2.2-13,5.1-20.6,7.6h0ZM2935.5,2853c14.5,11.9,36.1,22.1,57.8,27.5,21.7,5.4,43.4,6.1,60.7,9.4,17.3,3.3,30.4,9,41.9,10.1,11.6,1.1,21.7-2.5,30.4-4,8.7-1.4,15.9-.7,26.4,4,10.5,4.7,24.2,13.4,35.1,17,10.8,3.6,18.8,2.2,28.2-1.8,9.4-4,20.2-10.5,28.9-14.5,8.7-4,15.2-5.4,21.7-4.3,6.5,1.1,13,4.7,23.1,4.7s23.9-3.6,35.8-8c11.9-4.3,22-9.4,31.4-10.8,9.4-1.4,18.1.7,27.5,3.6,9.4,2.9,19.5,6.5,28.2,8.3,8.7,1.8,15.9,1.8,24.9.7,9-1.1,19.9-3.3,32.2-6.5,12.3-3.3,26-7.6,41.9-10.8,15.9-3.3,34-5.4,51-8.7,17-3.3,32.9-7.6,45.2-13,12.3-5.4,21-11.9,32.2-14.1,11.2-2.2,24.9,0,36.1,0s19.9-2.2,26.7-8.3c6.9-6.1,11.9-16.3,17-18.4,5.1-2.2,10.1,3.6,17,7.6,6.9,4,15.5,6.1,22,6.5,6.5.4,10.8-1.1,8.3,7.6-2.5,8.7-11.9,27.5-17.4,45.2-5.4,17.7-6.9,34.3-6.5,44.8.4,10.5,2.5,14.8.4,22.4-2.2,7.6-8.7,18.4-11.2,28.6-2.5,10.1-1.1,19.5,1.1,25.7,2.2,6.1,5.1,9,7.6,16.3,2.5,7.2,4.7,18.8,9,31.1,4.3,12.3,10.8,25.3,15.2,36.1,4.3,10.8,6.5,19.5,5.4,29.6-1.1,10.1-5.4,21.7-7.6,33.6-2.2,11.9-2.2,24.2-.7,34.7,1.4,10.5,4.3,19.2,5.8,30.4,1.4,11.2,1.4,24.9,6.1,45.9,4.7,21,14.1,49.2,21.3,70.1,7.2,21,12.3,34.7,17.7,54.2,5.4,19.5,11.2,44.8,16.6,68.3,5.4,23.5,10.5,45.2,15.5,61.4,5.1,16.3,10.1,27.1,13.4,35.8,3.3,8.7,4.7,15.2,4.3,23.5-.4,8.3-2.5,18.4-1.5,26.7,1.1,8.3,5.4,14.8,12.7,19.9,7.2,5.1,17.3,8.7,25.3,13,8,4.3,13.7,9.4,21.3,12.7,7.6,3.3,17,4.7,28.6,14.8,11.6,10.1,25.3,28.9,39,42.3,13.7,13.4,27.5,21.3,40.1,28.2,12.7,6.9,24.2,12.7,32.2,15.5,8,2.9,12.3,2.9,15.5.7,3.3-2.2,5.4-6.5,9-8.3,3.6-1.8,8.7-1.1,15.5-3.6,6.9-2.5,15.5-8.3,19.2-12.3,3.6-4,2.2-6.1-1.4-8-3.6-1.8-9.4-3.3-13.7-7.2-4.3-4-7.2-10.5-13.4-15.5-6.1-5.1-15.5-8.7-27.5-16.3-11.9-7.6-26.4-19.2-38.7-27.8-12.3-8.7-22.4-14.5-31.4-22.4-9-8-17-18.1-23.5-29.6-6.5-11.6-11.6-24.6-16.6-33.3-5.1-8.7-10.1-13-14.5-26.7-4.3-13.7-8-36.9-10.1-59.3-2.2-22.4-2.9-44.1-3.6-71.9-.7-27.8-1.4-61.8-2.2-88.2-.7-26.4-1.4-45.2.4-62.9,1.8-17.7,6.1-34.3,6.1-53.5s-4.3-40.8-9.4-57.5c-5.1-16.6-10.8-28.2-14.1-44.5-3.3-16.3-4-37.2-1.8-58.2,2.2-21,7.2-41.9,13.7-59.6,6.5-17.7,14.5-32.2,17-45.5,2.5-13.4-.4-25.7-4.7-35.4-4.3-9.8-10.1-17-11.6-30.7-1.4-13.7,1.4-34,5.1-51.3,3.6-17.3,8-31.8,12.3-42.7,4.3-10.8,8.7-18.1,11.9-24.6,3.3-6.5,5.4-12.3,5.4-18.4s-2.2-12.7-5.8-17.7c-3.6-5.1-8.7-8.7-10.8-15.9-2.2-7.2-1.4-18.1-.7-27.5.7-9.4,1.4-17.4-2.9-28.2-4.3-10.8-13.7-24.6-19.9-36.5-6.1-11.9-9-22.1-9.8-31.8-.7-9.8.7-19.2-2.2-27.1-2.9-8-10.1-14.5-17.4-20.6-7.2-6.1-14.5-11.9-21-18.8-6.5-6.9-12.3-14.8-15.2-21.7-2.9-6.9-2.9-12.7-3.3-18.4-.4-5.8-1.1-11.6,2.2-19.2,3.3-7.6,10.5-17,20.6-23.9,10.1-6.9,23.1-11.2,34-14.8,10.8-3.6,19.5-6.5,27.1-8.7,7.6-2.2,14.1-3.6,22-9,8-5.4,17.4-14.8,27.1-26.7,9.8-11.9,19.9-26.4,31.1-43.7,11.2-17.3,23.5-37.6,30-56,6.5-18.4,7.2-35.1,2.9-54.9-4.3-19.9-13.7-43-25.3-62.2-11.6-19.2-25.3-34.3-40.5-45.5-15.2-11.2-31.8-18.4-45.9-22-14.1-3.6-25.7-3.6-34.3-3.6s-14.5,0-17.4,2.2c-2.9,2.2-2.9,6.5-7.2,10.1-4.3,3.6-13,6.5-22.1,10.1-9,3.6-18.4,8-23.5,10.8-5.1,2.9-5.8,4.3-9.8,7.6-4,3.3-11.2,8.3-16.6,13-5.4,4.7-9,9-10.8,13.4-1.8,4.3-1.8,8.7-2.5,12.3-.7,3.6-2.2,6.5-8,8.7-5.8,2.2-15.9,3.6-23.1,9.8-7.2,6.1-11.6,17-14.5,26.7-2.9,9.8-4.3,18.4-8.3,26.8-4,8.3-10.5,16.3-15.5,26.4-5.1,10.1-8.7,22.4-10.8,34-2.2,11.6-2.9,22.4-6.1,28.6-3.3,6.1-9,7.6-18.8.7-9.8-6.9-23.5-22.1-36.9-36.9-13.4-14.8-26.4-29.3-40.5-44.1-14.1-14.8-29.3-30-48.1-43.4-18.8-13.4-41.2-24.9-59.6-34.3-18.4-9.4-32.9-16.6-52-23.5-19.2-6.9-43-13.4-60.4-19.2-17.3-5.8-28.2-10.8-36.9-15.5-8.7-4.7-15.2-9-21.7-11.9-6.5-2.9-13-4.3-25.3-11.2-12.3-6.9-30.4-19.2-44.5-26.4-14.1-7.2-24.2-9.4-30.4-11.6-6.1-2.2-8.3-4.3-9.4-5.4q-1.1-1.1,1.1-9.8c2.2-8.7,6.5-26,11.2-42.3,4.7-16.3,9.8-31.4,10.8-45.9,1.1-14.5-1.8-28.2-5.8-46.3-4-18.1-9-40.5-9-61.4s5.1-40.5,5.1-60.4-5.1-40.1-9-57.8c-4-17.7-6.9-32.9-6.9-51.3s2.9-40.1,5.4-62.9c2.5-22.8,4.7-46.6,5.8-72.3,1.1-25.7,1.1-53.1.7-80.2-.4-27.1-1.1-53.9-.7-78.8.4-24.9,1.8-48.1,6.5-72.7,4.7-24.6,12.7-50.6,21-73.7,8.3-23.1,17-43.4,23.5-64.3,6.5-21,10.8-42.7,18.4-61.1,7.6-18.4,18.4-33.6,28.6-45.5,10.1-11.9,19.5-20.6,30-30,10.5-9.4,22.1-19.5,30-26.7,7.9-7.2,12.3-11.6,19.9-13.7,7.6-2.2,18.4-2.2,27.5-3.6,9-1.4,16.3-4.3,18.8-9.8,2.5-5.4.4-13.4-2.9-18.1-3.3-4.7-7.6-6.1-14.8-7.2-7.2-1.1-17.3-1.8-23.5-2.2-6.1-.4-8.3-.4-13-3.6-4.7-3.3-11.9-9.8-24.2-11.9-12.3-2.2-29.6,0-40.8,2.2-11.2,2.2-16.3,4.3-24.2,2.5-8-1.8-18.8-7.6-30-9-11.2-1.4-22.8,1.4-32.2,5.8-9.4,4.3-16.6,10.1-22.1,16.3-5.4,6.1-9,12.7-11.6,18.1-2.5,5.4-4,9.8-10.5,12.3-6.5,2.5-18.1,3.3-28.9,5.8-10.8,2.5-21,6.9-27.5,14.1-6.5,7.2-9.4,17.3-9.8,31.4-.4,14.1,1.8,32.2,5.4,44.8,3.6,12.7,8.7,19.9,10.5,30.4,1.8,10.5.4,24.2-3.3,41.9-3.6,17.7-9.4,39.4-15.5,61.1-6.1,21.7-12.7,43.4-18.1,61.8-5.4,18.4-9.8,33.6-15.9,52.4-6.1,18.8-14.1,41.2-19.5,57.8-5.4,16.6-8.3,27.5-15.5,43.4-7.2,15.9-18.8,36.9-27.5,59.3-8.7,22.4-14.5,46.3-17.3,69.8-2.9,23.5-2.9,46.6-1.4,74.5,1.4,27.8,4.3,60.4,10.5,87.8,6.1,27.5,15.5,49.9,20.2,66.1,4.7,16.3,4.7,26.4,2.9,34.3-1.8,8-5.4,13.7-6.9,16.6-1.4,2.9-.7,2.9-8-15.2-7.2-18.1-22.4-54.2-34.3-87.1-11.9-32.9-20.6-62.5-27.1-81.7-6.5-19.2-10.8-27.8-11.9-41.9-1.1-14.1,1.1-33.6,0-53.9-1.1-20.2-5.4-41.2-9.8-53.5-4.3-12.3-8.7-15.9-11.2-22-2.5-6.1-3.3-14.8-1.4-23.9,1.8-9,6.1-18.4,6.1-25.3s-4.3-11.2-9.4-13.4c-5.1-2.2-10.8-2.2-15.2,1.8-4.3,4-7.2,11.9-9,15.5-1.8,3.6-2.5,2.9-5.1-4-2.5-6.9-6.9-19.9-11.9-26.4-5.1-6.5-10.8-6.5-15.9-4.7-5.1,1.8-9.4,5.4-11.2,9.8-1.8,4.3-1.1,9.4.7,14.5,1.8,5.1,4.7,10.1,6.1,13.7,1.4,3.6,1.4,5.8.4,7.6-1.1,1.8-3.3,3.3-6.5.7-3.3-2.5-7.6-9-10.8-13-3.3-4-5.4-5.4-10.5-4.7-5.1.7-13,3.6-17.3,6.9-4.3,3.3-5.1,6.9-2.9,11.9,2.2,5.1,7.2,11.6,10.8,17.7,3.6,6.1,5.8,11.9,6.9,16.3,1.1,4.3,1.1,7.2-2.2,3.6-3.3-3.6-9.8-13.7-16.3-18.4-6.5-4.7-13-4-17.7-1.8-4.7,2.2-7.6,5.8-8.7,10.5-1.1,4.7-.4,10.5,2.5,15.5,2.9,5.1,8,9.4,11.9,14.8,4,5.4,6.9,11.9,4.7,13.4-2.2,1.4-9.4-2.2-14.8-4.7-5.4-2.5-9-4-13-2.9-4,1.1-8.3,4.7-11.2,8.7-2.9,4-4.3,8.3-2.5,13.7,1.8,5.4,6.9,11.9,10.5,16.3,3.6,4.3,5.8,6.5,9,11.9,3.3,5.4,7.6,14.1,12.3,22,4.7,8,9.8,15.2,15.9,22.8,6.1,7.6,13.4,15.5,18.8,21.3,5.4,5.8,9,9.4,12.7,13.7,3.6,4.3,7.2,9.4,10.1,13.4,2.9,4,5.1,6.9,8,11.2,2.9,4.3,6.5,10.1,8.3,24.2,1.8,14.1,1.8,36.5,5.1,58.6,3.3,22,9.8,43.7,14.1,62.5,4.3,18.8,6.5,34.7,10.1,51,3.6,16.3,8.7,32.9,13.4,49.2,4.7,16.3,9,32.2,14.8,46.6,5.8,14.5,13,27.5,19.5,36.5,6.5,9,12.3,14.1,15.5,17.7,3.3,3.6,4,5.8,2.9,10.5-1.1,4.7-4,11.9-6.1,17-2.2,5.1-3.6,8-5.4,9.4-1.8,1.4-4,1.4-9.8,9-5.8,7.6-15.2,22.8-22.8,36.5-7.6,13.7-13.4,26-20.6,40.1-7.2,14.1-15.9,30-22.8,47-6.9,17-11.9,35.1-16.3,49.2-4.3,14.1-8,24.2-10.8,34-2.9,9.8-5.1,19.2-8.3,28.6-3.3,9.4-7.6,18.8-13,29.3-5.4,10.5-11.9,22.1-16.6,32.9-4.7,10.8-7.6,21-9.8,28.6-2.2,7.6-3.6,12.7-6.5,17.4-2.9,4.7-7.2,9-9.4,15.2-2.2,6.1-2.2,14.1-3.6,23.9-1.4,9.8-4.3,21.3-8,28.2-3.6,6.9-8,9-10.1,15.9-2.2,6.9-2.2,18.4-1.8,26.4.4,8,1.1,12.3,3.3,16.6,2.2,4.3,5.8,8.7,7.6,10.8q1.8,2.2-5.8,10.8c-7.6,8.7-22.8,26-34,41.9-11.2,15.9-18.4,30.4-24.9,43-6.5,12.6-12.3,23.5-17.4,32.2-5.1,8.7-9.4,15.2-15.9,24.2-6.5,9-15.2,20.6-24.6,31.1-9.4,10.5-19.5,19.9-29.6,29.6-10.1,9.8-20.2,19.9-31.1,31.1-10.8,11.2-22.4,23.5-31.4,36.1-9,12.6-15.5,25.7-21.7,36.1-6.1,10.5-11.9,18.4-22.1,30.7-10.1,12.3-24.6,28.9-37.2,43.7-12.7,14.8-23.5,27.8-35.1,41.2-11.6,13.4-23.9,27.1-35.8,38.7-11.9,11.6-23.5,21-34.3,29.3-10.8,8.3-21,15.5-31.1,20.2-10.1,4.7-20.2,6.9-29.6,11.2-9.4,4.3-18.1,10.8-24.9,17.7-6.9,6.9-11.9,14.1-15.5,19.5-3.6,5.4-5.8,9-11.9,14.5-6.1,5.4-16.3,12.7-24.2,18.1-7.9,5.4-13.7,9-21,14.1-7.2,5.1-15.9,11.6-21,15.2-5.1,3.6-6.5,4.3-12.3,5.1-5.8.7-15.9,1.4-24.2,4.3-8.3,2.9-14.8,8-19.2,12.7-4.3,4.7-6.5,9-5.8,15.2.7,6.1,4.3,14.1,9.4,21,5.1,6.9,11.6,12.7,18.1,16.3,6.5,3.6,13,5.1,18.1,5.4,5.1.4,8.7-.4,12.7-1.4,4-1.1,8.3-2.5,12.7-.4,4.3,2.2,8.7,8,13,13.4,4.3,5.4,8.7,10.5,12.7,15.2,4,4.7,7.6,9,11.2,12.3,3.6,3.3,7.2,5.4,12.3,6.9,5.1,1.4,11.6,2.2,19.9,1.1,8.3-1.1,18.4-4,23.9-11.6,5.4-7.6,6.1-19.9,8.7-29.6,2.5-9.8,6.9-17,14.1-23.9,7.2-6.9,17.4-13.4,26.4-19.5,9-6.1,17-11.9,22.1-18.1,5.1-6.1,7.2-12.7,9.8-17.7,2.5-5.1,5.4-8.7,14.8-16.6,9.4-8,25.3-20.2,45.2-33.3,19.9-13,43.7-26.7,61.8-37.9,18.1-11.2,30.4-19.9,39-26l24.9-17.7,42.3-30c13.7-9.8,23.9-17,39.8-23.5,15.9-6.5,37.6-12.3,58.2-24.2,20.6-11.9,40.1-30,52.8-45.2,12.7-15.2,18.4-27.5,27.8-45.5,9.4-18.1,22.4-41.9,31.4-61.1,9-19.2,14.1-33.6,17.4-41.9,3.3-8.3,4.7-10.5,9.8-5.8,5.1,4.7,13.7,16.3,22.8,23.9,9,7.6,18.4,11.2,23.5,16.3,5.1,5.1,5.8,11.6,9.8,21.7,4,10.1,11.2,23.9,25.7,35.8Z"></path></g></g><g><g><path class="st1" d="M73.8,2205.7l114.5-633.8H0v-165.6h116.4v56.8h183.5v79.5l-111.6,677.4h-114.5v-14.2Z"></path><path class="st1" d="M408.2,2089.8c22.4-12.3,41.2-29.5,56.3-51.6-8.2-66.2-14.4-138.6-18.4-217.1-4.1-78.5-6.5-161.6-7.1-249.3h-95.5v-108.8h207.2c-.6,148.8,3.1,285.6,11.4,410.1,8.2,124.6,21.1,240.1,38.8,346.7h-106.9c-3.2-16.4-6.6-33.1-10.4-50.1-.6-5.7-2.2-16.1-4.7-31.2-16.4,25.9-37.2,46.4-62.4,61.5-25.2,15.1-53,23.3-83.2,24.6v-114.5c27.7-1.3,52.8-8,75.2-20.3Z"></path><path class="st1" d="M775.7,1585.1c-6.9-8.8-17.4-13.2-31.2-13.2h-118.3v-108.8h118.3c51.1,0,90.3,14.4,117.8,43,27.4,28.7,41.2,69.9,41.2,123.5v590.3h-117.3v-592.2c0-19.5-3.5-33.7-10.4-42.6Z"></path><path class="st1" d="M1009.4,1571.8h-53v-108.8h169.3v756.8h-116.4v-648Z"></path><path class="st1" d="M1317.8,1571.8h-146.6v-108.8h306.5v108.8h-42.6v648h-117.3v-648Z"></path><path class="st1" d="M1514.6,2111.1h101.2c13.9,0,24.3-4.4,31.2-13.2,6.9-8.8,10.4-23,10.4-42.6v-483.4h-145.7v-108.8h263v590.3c0,53.6-13.7,94.8-41.2,123.5-27.4,28.7-66.7,43-117.8,43h-101.2v-108.8Z"></path><path class="st2" d="M17.8,2375.5h316.9v756.8H17.8v-756.8ZM217.4,3030.2v-552.5h-82.3v552.5h82.3Z"></path><path class="st2" d="M502.2,2484.3h-49.2v-108.8h166.5v491h-117.3v-382.2Z"></path><path class="st2" d="M739.2,3023.5h196.8v-483.4c0-19.5-3.3-33.7-9.9-42.6-6.6-8.8-17.2-13.2-31.7-13.2h-40.7v233.7h43.5v108.8h-154.2v-451.3h151.4c51.1,0,90.3,14.4,117.8,43,27.4,28.7,41.2,69.9,41.2,123.5v590.3h-314.1v-108.8Z"></path><path class="st2" d="M1224.6,2484.3h-53v-108.8h169.3v756.8h-116.4v-648Z"></path><path class="st2" d="M1457.8,2375.5h158.9c50.5,0,89.4,14.4,116.8,43,27.4,28.7,41.2,69.9,41.2,123.5v590.3h-117.3v-592.2c0-19.5-3.5-33.7-10.4-42.6-6.9-8.8-17-13.2-30.3-13.2h-41.6v648h-117.3v-756.8Z"></path></g><g><path class="st1" d="M974.7,1165.7h53.5v-396.1h-41.8v-52.6h150.4c35.6,0,63.2,10.4,82.7,31.3,19.5,20.9,29.2,50.3,29.2,88.2v381.9h-55.1v-386.1c0-20.1-4.6-35.5-13.8-46.4-9.2-10.9-23.8-16.3-43.9-16.3h-52.6v448.7h-108.6v-52.6Z"></path><path class="st1" d="M1359.1,1141.1c18.4-13.1,32.9-31.6,43.5-55.6-6.1-43.4-10.7-93.9-13.8-151.2-3.1-57.4-4.6-112.2-4.6-164.6h-82.7v-52.6h137c-.6,95.8,2.1,182.7,7.9,260.7,5.8,78,15.7,158.2,29.7,240.7h-52.6c-3.3-17.8-6.4-34.3-9.2-49.3-1.1-9.5-2.5-18.4-4.2-26.7-10.6,22.3-26,40.4-46.4,54.3-20.3,13.9-43.6,22.3-69.8,25.1v-56.8c25.1-2.8,46.8-10.7,65.2-23.8Z"></path><path class="st1" d="M1560.5,769.6h-46.8v-52.6h102.8v315.9h-56v-263.2Z"></path><path class="st1" d="M1728.5,1209.2l83.6-439.5h-144.6v-152.1h56v99.4h143.7v48.5l-85.2,452.9h-53.5v-9.2Z"></path></g><g><path class="st6" d="M55.9,771H17.8v-57.1h99.7v571.4h-61.6v-514.2Z"></path><path class="st6" d="M224.1,771h-39.4v-57.1h100.9v329.5h-61.6v-272.3Z"></path><path class="st6" d="M430.4,782.4c-5.9-7.6-15-11.4-27.3-11.4h-78.1v-57.1h78.1c31.7,0,56.1,9,73,27,16.9,18,25.4,44.5,25.4,79.7v401.2h-62.2v-404.4c0-15.7-3-27.3-8.9-34.9Z"></path><path class="st6" d="M559.9,1164.6h41.3v-393.6h-31.7v-57.1h130.1c31.7,0,56.1,9,73,27,16.9,18,25.4,44.5,25.4,79.7v401.2h-62.2v-404.4c0-15.7-3-27.3-8.9-34.9-5.9-7.6-15-11.4-27.3-11.4h-36.2v450.7h-103.5v-57.1Z"></path></g></g></svg>