<svg xmlns="http://www.w3.org/2000/svg" xmlns:xlink="http://www.w3.org/1999/xlink" id="Calque_1" viewBox="0 0 249 283"><defs><style>      .st0 {        fill: #030202;      }      .st1 {        fill: #090809;      }      .st2 {        fill: #050505;      }      .st3 {        fill: #09090a;      }      .st4 {        fill: url(#linear-gradient1);      }      .st5 {        fill: #030303;      }      .st6 {        fill: #05aeef;      }      .st7 {        fill: #050404;      }      .st8 {        fill: url(#radial-gradient);      }      .st9 {        fill: #171616;      }      .st10 {        fill: url(#linear-gradient);      }      .st11 {        fill: #080707;      }      .st12 {        fill: #070706;      }      .st13 {        fill: #121010;      }      .st14 {        fill: #020101;      }      .st15 {        fill: #020202;      }      .st16 {        fill: #fff;      }      .st17 {        fill: #040404;      }      .st18 {        fill: #080808;      }      .st19 {        fill: #040303;      }      .st20 {        fill: #100f0f;      }      .st21 {        fill: url(#radial-gradient1);      }      .st22 {        fill: url(#radial-gradient2);      }      .st23 {        fill: #080607;      }      .st24 {        fill: #090909;      }      .st25 {        fill: #050405;      }    </style><linearGradient id="linear-gradient" x1="-288.7" y1="89.6" x2="-283.4" y2="89.6" gradientTransform="translate(5793.1 -1587.1) scale(19.8)" gradientUnits="userSpaceOnUse"><stop offset="0" stop-color="#55c3ec"></stop><stop offset="0" stop-color="#65c7ed"></stop><stop offset=".1" stop-color="#90d4f2"></stop><stop offset=".2" stop-color="#abddf5"></stop><stop offset=".3" stop-color="#bde4f7"></stop><stop offset=".4" stop-color="#c7e8f8"></stop><stop offset=".6" stop-color="#cae9f8"></stop><stop offset=".6" stop-color="#c6e5f5"></stop><stop offset=".7" stop-color="#bad8ea"></stop><stop offset=".8" stop-color="#a7c4d7"></stop><stop offset=".8" stop-color="#8ca8bf"></stop><stop offset=".9" stop-color="#6b87a1"></stop><stop offset=".9" stop-color="#446482"></stop><stop offset="1" stop-color="#104463"></stop><stop offset="1" stop-color="#054160"></stop></linearGradient><linearGradient id="linear-gradient1" x1="-289.4" y1="87.5" x2="-284" y2="87.5" gradientTransform="translate(5916 -1619) scale(20.2)" gradientUnits="userSpaceOnUse"><stop offset="0" stop-color="#55c3ec"></stop><stop offset="0" stop-color="#65c7ed"></stop><stop offset="0" stop-color="#90d4f2"></stop><stop offset=".2" stop-color="#abddf5"></stop><stop offset=".2" stop-color="#bde4f7"></stop><stop offset=".3" stop-color="#c7e8f8"></stop><stop offset=".4" stop-color="#cae9f8"></stop><stop offset=".5" stop-color="#c6e5f5"></stop><stop offset=".6" stop-color="#bad8ea"></stop><stop offset=".7" stop-color="#a7c4d7"></stop><stop offset=".8" stop-color="#8ca8bf"></stop><stop offset=".8" stop-color="#6b87a1"></stop><stop offset=".9" stop-color="#446482"></stop><stop offset="1" stop-color="#104463"></stop><stop offset="1" stop-color="#054160"></stop></linearGradient><radialGradient id="radial-gradient" cx="-283.8" cy="104" fx="-283.8" fy="104" r="5.4" gradientTransform="translate(3679.1 -1167.3) scale(12.6)" gradientUnits="userSpaceOnUse"><stop offset="0" stop-color="#39aadc"></stop><stop offset=".2" stop-color="#208cc7"></stop><stop offset=".4" stop-color="#1378b9"></stop><stop offset=".5" stop-color="#1069a1"></stop><stop offset=".9" stop-color="#08486c"></stop><stop offset="1" stop-color="#054160"></stop></radialGradient><radialGradient id="radial-gradient1" cx="-283.8" cy="104" fx="-283.8" fy="104" r="5.4" xlink:href="#radial-gradient"></radialGradient><radialGradient id="radial-gradient2" cx="-283.8" cy="103.9" fx="-283.8" fy="103.9" r="5.3" xlink:href="#radial-gradient"></radialGradient></defs><path class="st16" d="M228.5,27.7s-70.4-45-191.1-6.6c0,3.9-.9,7-.9,7l-17.1,5.7c-5,11.4-66.5,143.2,107.6,243.6C302.6,175.1,228.5,27.7,228.5,27.7"></path><path class="st6" d="M216.1,114.7h0c-.3,10.5-1.6,21-4,31.3,6.8-1.8,13.9-3.7,21-5.4l.9-3.4c2-8.9,3.2-18.1,3.5-27.3-7.1,1.5-14.4,3.2-21.5,4.8"></path><path class="st6" d="M61.3,200.5c-2.9-3.9-5.6-8-8.1-12.1l-2.8-4.9c-3.8,2.8-7.5,5.6-11,8.2l2.5,3.8c2.6,3.8,5.4,7.6,8.3,11.3,2.7,3.4,5.4,6.7,8.3,9.9,3.2-2.4,6.4-4.9,9.7-7.4-2.4-2.9-4.7-5.9-6.9-8.9"></path><path d="M36.8,150.7c-9.1-31.4-7.6-64.8.9-96.2,1-3.6,2.1-7.3,3.2-10.8.3-1,2.4-6.6,2.4-6.6,0,0,7-2.9,10.5-4.1,16.4-5.9,33.5-9.7,50.8-11.6,18.3-2,36.8-1.6,55,.9,11,1.5,21.9,3.8,32.6,6.8,2.8.8,9.3,2.8,9.3,2.8,0,0,1.4,3.8,2.1,6.1,1.4,4.9,3,9.9,4.3,14.8,4.8,17.3,7.7,34.8,8.1,52.4v.5s0,.2,0,.2c7.2-1.9,14.4-3.7,21.5-5.5v-3c-1.2-21.1-5.9-41.6-12.8-61.5-.6-1.8-1-2.8-1-2.8,0,0-2.6-1.3-3.1-1.6-2.9-1.4-5.9-2.7-8.9-3.9-7.7-3.1-15.6-5.7-23.6-7.9-41.4-11.4-84.6-9.4-125.9,1.2-5.4,1.4-15.2,4.3-20.5,6l-2.2,6.1-13.2,4.1s-2.5,7.1-3.5,10.3c-6.1,19.2-9.4,38.9-9.7,59-.6.1.7,14.1.8,15.5.6,6,1.6,11.9,2.9,17.7,2.5,10.7,6.1,21,10.7,30.9,2.3,4.8,4.7,9.5,7.4,14.1.1.2.3.5.4.7,3.6-2.7,7.4-5.6,11.4-8.5-4.2-8.4-7.5-17.2-10.1-26.1"></path><path d="M209,157.7c-2.1,6.6-4.6,13.2-7.7,19.6-13.5,28.5-34.3,53.9-58.9,73.5-3.1,2.4-6.2,4.8-9.4,7-.1,0-.3.2-.4.3l-1.7,1.1-1.2-.6c-.3-.1-.7-.3-1.2-.6-1.9-1-3.8-2-5.7-3.1-6.7-3.8-13.3-8.1-19.5-12.7-6.1-4.5-12-9.4-17.6-14.6-2.8-2.6-8.9-8.8-8.9-8.8l-2.9-3.3c-3.2,2.4-6.4,4.9-9.4,7.3l3.5,3.6c15.2,15.1,32.5,28.1,51.4,38.3,2.3,1.3,4.7,2.5,7,3.6l10.5-6.3s8.7-5.2,12.9-8.2c32-22.3,59.6-53.6,75.3-89.4,2.3-5.1,4.2-10.4,5.9-15.7-7.2,1.9-14.4,4-21.2,6l-.7,2.6Z"></path><path class="st10" d="M147.4,190.9c33.1-19,38.9-26.4,38.9-26.6,0-.5-.5-1.9-.6-2.8-4.6,1.2-9.2,2.4-13.7,3.8l6.6-1.4c-60.5,39-88.4,37.8-94.9,35.2-1.9-.8-2.6-1.5-2.6-1.2,1.6,3.2,2.3,6,3.9,9.4,1.8,4,29.2,3.3,62.6-16.4Z"></path><path class="st4" d="M115.5,155c-20.1,9.5-30.7,9.3-36,9.2-2.1,0-3.4-.1-4.1.4-3.6,2.5-6.1,4.8-7.1,7.2-1.7,4.2,11.8,4.6,24.9,1.5,13-2.5,26.6-9.4,26.5-9.2,65.9-35.6,55.5-37.6,55.5-37.6,0,0-1.1-.3-1.9-.9,0,0-.8-.5-2.5-.5-2,0-5.3.7-9.7,4.2-8,6.4-45.6,26.2-45.6,25.7Z"></path><path class="st8" d="M91.8,114.1c1.9-1.3,4.1-2.5,6.7-3.8-1.7.7-4.3,2-6.7,3.8Z"></path><path class="st21" d="M111.4,105.8c-.9.2-2.1.5-3.2.9,1.5-.4,3.2-.8,5.2-1.1-.7,0-1.4,0-2,.2Z"></path><path class="st22" d="M179.3,154.4c-3.4-7.2-9.3-13.8-9.3-13.7.4-5.8-1.9-14.3-1.9-14.3,6.6-1.2,7.6.6,7.7.6-.2-1-6.1-7.4-6.2-7.4-1.6-1.3-5-.7-5-.7-9.5-12.5-23.1-14.6-34.8-14.8h0c-6,0-11.7.7-16.3,1.5,1.1,0,2.1,0,2.1,0,6.4.2,5.5,7.9,5.5,8-.1,0-18.1-4.9-18.2-5,0,0,2.7-1.1,5.4-1.9-3.2.8-5.1,1.4-5.1,1.4-1.7.7-3.2,1.4-4.7,2.1,1.1-.5,1.8-.7,1.8-.7-3.6,2.3,19.5,10.3,19.8,10.4.2,1-3.1,13.2-3.1,13.4-.9.2-18.2,8-18.1,8-18.8-13.3-13.7-22.4-7.1-27.4-22.6,15.2-3.2,32.4-2.9,32.6-22.5,13.5-21.2,16.2-21.2,16.2l.5,9.7c0-4.4,26.6-19.5,27.7-19.8.7.9,14.1,10.4,14.2,10.4-.7,2-2.1,18.9-2.1,19-33.2,15.4-29.4,18-29.4,18,0,0,6.5,7.3,6.5,7.3-3.2-2.9,22.4-14.4,22.9-14.7,3.8,31.4,25.8,29.1,36.4,26.7,3.4-.7,5.6-1.5,5.7-1.1,44.2-17.8,31-55.9,32.1-55.1,4-.5,4,.8,4,.9.1-2.2-.5-9.5-.5-9.5-.3-2-6.5-.5-6.6-.4ZM112.5,150.8c-.3,0-5.1-3.5-5.1-3.5,2.3-1,4.5-2.1,6.8-3.1-.6,2.2-1.1,4.4-1.7,6.6ZM169.4,151.5s3.3,4.1,3.4,4.6c-1.5.5-3,1-4.5,1.6,0,0,1-5.4,1.1-6.1ZM139.5,168.5s-16.4-10.7-16.5-11c0,0,3.6-17.6,3.7-18.4,0,0,17.8-6.8,19.5-7,0,0,9.9,5.7,15.5,11.2,0,0-2.1,15.9-3,17.7-6.1,2.4-12.6,5-19.1,7.5ZM155.4,172.6s-1.9,5.8-2.1,6.4c0,0-3.8-3.3-4.5-3.7,0,0,5.9-2.4,6.6-2.7ZM128.9,128.8c.3-1.7.6-3.3.8-4.9.3,0,5.9,2.6,5.9,2.6-.3,0-6.7,2.3-6.7,2.3ZM161.1,127.8c0,.3.5,5.1.5,5.1-1.7-1.3-3.5-2.6-5.3-3.9h0c.3,0,1.5-.3,2.6-.6,1.1-.3,2.2-.6,2.2-.6ZM124.2,104.9c7.7-.6,27.7-1.2,34.7,15,0,0-11.3,2.7-12.7,3.3,0,0-12.9-5.9-15.9-6.6,0-.2.4-10.3-8.8-11.4.5,0,1.4-.1,2.8-.2ZM120.6,170.2c2,1.2,3.9,2.4,5.9,3.6,0,0-6.2,3-6.8,3h0c.3-2.2.7-4.4,1-6.6ZM138.8,219.9c-.5,0-1.1,0-1.6,0-21.9,0-19-30.5-18.7-31.6.9-.6,18.1-7.9,18.1-7.9,1.7.9,13.2,9.4,13.1,9.3-12.2,33.2-.4,27.8-.4,28.8-4.1,1-7.5,1.4-10.5,1.4ZM150,218.3c-1-.5-4.9.3,5.7-22.9.1,0,13.7,14.6-5.5,22.9h-.2ZM150.5,218.2c.2,0,.4-.2.7-.3-.4.2-.7.3-.7.3ZM153.4,216.9c6.4-3.3,20.5-13.7,6.4-31.3,0,0,4.7-13.3,5.8-16.8.1,0,10.5-3.9,11.8-4.1-.3.7,15.4,33.7-23.9,52.2Z"></path><g><path d="M174.1,60c0,.7,0,1.3,0,2,0,1.2,0,2.3,0,3.5,0,.3,0,.5.5.5,2.5,0,4.9,0,7.4-.1.5,0,1-.1,1.5-.3,1.3-.4,2.2-1.1,2.5-2.5.6-2.6,1.3-5.2,1.9-7.7.8-3.1,1.5-6.3,2.3-9.4.1-.5.3-1,.6-1.5.4-.6.9-.9,1.6-.9.9,0,1.9,0,2.8,0,.8,0,1.4.4,1.9,1.1.3.5.4,1,.3,1.5-.4,2-.9,3.9-1.4,5.8-1,4.1-2.1,8.3-3.1,12.4-.8,3.1-2.7,5.3-5.5,6.7-1.8.9-3.7,1.3-5.6,1.3-4,0-8,0-12.1,0-.3,0-.6,0-.8-.1-1-.2-1.6-1-1.8-2,0-.4,0-.8,0-1.1,0-7.8,0-15.6,0-23.3,0-1.3,1-2.4,2.3-2.4.8,0,1.6,0,2.3,0,1.4,0,2.4,1,2.4,2.4,0,2.3,0,4.7,0,7,0,.6,0,.6.6.6.7,0,1.4,0,2.1,0,.6,0,.6,0,.7-.6.4-1.6.8-3.2,1.1-4.9.2-.7.4-1.5.6-2.2.1-.5.4-1.1.7-1.5.4-.5.9-.8,1.5-.8.9,0,1.8,0,2.7,0,.3,0,.5,0,.8.2,1.2.5,1.7,1.1,1.4,2.5-.4,1.7-.7,3.3-1.1,5-.3,1.3-.6,2.7-1,4-.7,2.4-2.3,4-4.7,4.6-.5.1-1,.2-1.5.2-1.3,0-2.5,0-3.9,0Z"></path><path d="M117.5,52.9c-.6.9-1.2,1.7-1.7,2.5-.9,1.3-2.5,1.7-4,1-.7-.4-1.3-.8-2-1.2-1.2-.9-1.3-2.1-.3-3.2,1.1-1.2,2.2-2.3,3.3-3.4,1.2-1.3,2.5-2.6,3.7-3.9.7-.8,1.6-1.2,2.7-1.1.6,0,1.3,0,1.9,0,1.1,0,2,.5,2.7,1.3.5.5.7,1.1.7,1.9,0,6.2,0,12.3,0,18.5,0,2.3-1.1,4.1-2.9,5.5-1.5,1.2-3.2,1.7-5,1.7-4.8,0-9.5,0-14.3,0-.7,0-1.4-.3-1.9-.8-.4-.4-.6-.8-.6-1.4,0-.4,0-.9,0-1.3,0-7.7,0-15.3,0-23,0-1.4,1-2.4,2.4-2.4.7,0,1.5,0,2.2,0,1.4,0,2.4,1,2.4,2.4,0,6.4,0,12.8,0,19.2,0,.9-.1.8.8.8,3,0,5.9,0,8.9,0,.2,0,.4,0,.6,0,.3,0,.5-.2.5-.5,0-.1,0-.2,0-.4,0-4,0-8,0-12,0,0,0,0,0-.3Z"></path><path d="M150.3,55.6c0,3.1,0,6.2,0,9.3,0,2.5-1.1,4.4-3,5.9-1.4,1.1-3.1,1.6-4.8,1.7-4.3,0-8.6,0-13,0-.7,0-1.3-.2-1.9-.7-.4-.4-.7-.9-.7-1.6,0-.6,0-1.3,0-1.9,0-1.2.9-2.2,2.1-2.3.2,0,.4,0,.6,0,4,0,8,0,12.1,0,.2,0,.4,0,.6,0,.7,0,.9-.2.9-.9,0-.7,0-1.4,0-2,0-4.1,0-8.1,0-12.2,0,0,0-.2,0-.3,0-.5,0-.5-.5-.5-1.9,0-3.8,0-5.6,0-.2,0-.3,0-.5,0-.6,0-.6,0-.6.5,0,.9,0,1.8,0,2.7,0,.7.2.9.9.9.4,0,.8,0,1.3,0,.6,0,1.1.1,1.6.4.7.4,1.1,1.1,1.1,1.9,0,.6,0,1.2,0,1.8,0,1.3-.9,2.3-2.2,2.4-1.3,0-2.7.1-4,0-2.6-.3-4.9-2.4-5.5-5.2-.2-.8-.2-1.5-.2-2.3,0-.9,0-1.8,0-2.7,0-.3,0-.5-.4-.5-.3,0-.6-.2-.9-.4-.6-.4-.9-.9-.9-1.6,0-.7,0-1.4,0-2.1,0-1.1,1-2.1,2.1-2.2.2,0,.5,0,.7,0,6,0,12,0,18,0,.4,0,.8,0,1.2.2.9.4,1.4,1,1.5,2,0,.3,0,.5,0,.8,0,3,0,6.1,0,9.1h0Z"></path><path d="M163.8,57.9c0,3.8,0,7.7,0,11.5,0,.2,0,.4,0,.6,0,1.2-.7,2.1-1.9,2.3-1.1.2-2.2.2-3.2,0-1.2-.2-1.9-1.1-1.9-2.3,0-6.4,0-12.8,0-19.2,0-.9.2-.9-.9-.8-.5,0-.9,0-1.4,0-1.4,0-2.3-1-2.3-2.4,0-.6,0-1.1,0-1.7,0-1.2,1-2.2,2.2-2.3.8,0,1.7,0,2.5,0,1.5,0,2.9,0,4.4,0,1.5,0,2.5,1,2.5,2.5,0,4,0,7.9,0,11.9h0Z"></path><path d="M96.4,50.9c0,1.7,0,3.4,0,5.1,0,1.3-.8,2.2-2.1,2.3-.9,0-1.8,0-2.7,0-1.3,0-2.2-1-2.2-2.3,0-1.8,0-3.6,0-5.4,0-.8,0-.6-.7-.6-.6,0-1.1,0-1.7,0-.6,0-1.2-.3-1.6-.7-.4-.3-.6-.7-.6-1.2,0-.7,0-1.5,0-2.2,0-1.2.9-2.2,2.1-2.2.4,0,.8,0,1.3,0,1.9,0,3.8,0,5.7,0,.7,0,1.2.2,1.7.6.5.4.8.9.7,1.5,0,1.7,0,3.5,0,5.2Z"></path><path class="st15" d="M79,82.4c.3.6.7.8,1.3.9.5,0,1,0,1.5,0,.8-.1,1.2-.6,1.2-1.4,0-1.1,0-2.2,0-3.3,0-.5,0-.5.6-.5.2,0,.3,0,.3.3,0,1.2,0,2.5,0,3.7,0,1-.9,1.8-2.1,1.8-.6,0-1.1,0-1.7,0-1.1,0-1.9-.9-2-2-.1-1.2,0-2.3,0-3.5,0-.4.2-.4.5-.4.3,0,.4.1.4.4,0,.8,0,1.6,0,2.4,0,.2,0,.3,0,.5,0,.5.5.8,1,.5.4-.3.6-.7.6-1.2,0-.7,0-1.5,0-2.2,0-.2,0-.4.3-.4.4,0,.5,0,.5.4,0,.7,0,1.4,0,2,0,1.2-.8,1.9-2,1.9,0,0-.1,0-.3,0Z"></path><path class="st0" d="M182,81.7c0,.6,0,1.1,0,1.7,0,.3,0,.6-.4.5-.4,0-.5,0-.5-.6,0-1,0-2.1,0-3.1,0-.4,0-.7-.3-1.1-.3-.3-.6-.5-1-.5-.5,0-1,0-1.5,0-.3,0-.3.1-.3.4,0,1,0,2,0,3,0,.3,0,.6,0,.9-.2.7-.8,1.1-1.6,1-.2,0-.3,0-.4-.3,0-.2.2-.2.3-.3.6-.1.8-.3.8-.9,0-1.2,0-2.4,0-3.6,0-.6.2-.8.8-.9.7,0,1.4,0,2.1,0,1.3,0,2.1,1,2,2.2,0,.5,0,1,0,1.5h0Z"></path><path class="st5" d="M149.7,81.7c0,.6,0,1.2,0,1.8,0,.3-.1.4-.4.4-.3,0-.4,0-.4-.4,0-.9,0-1.9,0-2.8,0-.2,0-.5,0-.7,0-.6-.6-1.4-1.5-1.4-.4,0-.8,0-1.2,0-.4,0-.5,0-.5.5,0,.9,0,1.8,0,2.7,0,.3,0,.6,0,.8,0,.9-.8,1.5-1.7,1.2-.2,0-.2-.1-.2-.3,0-.1,0-.2.2-.2,0,0,.1,0,.2,0,.5,0,.7-.2.7-.8,0-1.1,0-2.3,0-3.4,0-1.1,0-1.2,1.2-1.2.5,0,.9,0,1.4,0,.3,0,.6,0,.8.1.9.2,1.4.9,1.5,1.8,0,.6,0,1.2,0,1.8h0Z"></path><path class="st15" d="M68,81.7c.3.4.6.8.9,1.1.3.3.6.6.8,1-.6.2-.9,0-1.3-.4-.5-.7-1.1-1.4-1.7-2.1-.2-.2-.3-.6-.7-.5-.4,0-.5.5-.6.9-.2.6-.1,1.2-.1,1.8,0,.3,0,.5-.4.4-.3,0-.5,0-.5-.4,0-.4,0-.8,0-1.3.2-.9.5-1.6,1.3-2,0-.3-.3-.4-.4-.6-.3-.3-.6-.7-.8-1-.1-.1-.3-.3-.2-.5.1-.2.4-.1.6,0,.2,0,.3.2.5.4.5.7,1.1,1.3,1.6,2,.1.2.3.4.5.5.3.3.6.2.8-.1.2-.4.3-.7.3-1.1,0-.4,0-.8,0-1.3,0-.4.2-.4.5-.4.3,0,.4.1.4.4,0,.4,0,.9,0,1.3-.1.8-.4,1.5-1.4,1.9Z"></path><path class="st0" d="M172.9,81.7c.5.8,1.2,1.4,1.6,2.2-.6.2-1,0-1.3-.5-.6-.8-1.2-1.5-1.8-2.3-.4-.5-.8-.4-1.1.2-.1.4-.2.7-.2,1.1,0,.3,0,.7,0,1,0,.5,0,.5-.6.5-.2,0-.3,0-.3-.2,0-.7-.1-1.5.2-2.1.2-.4.4-.9.9-1.1.3-.1.3-.3.1-.5-.4-.5-.8-.9-1.2-1.4,0-.1-.2-.2-.1-.4.1-.2.3-.2.5-.1.3,0,.4.3.6.5.6.7,1.1,1.4,1.7,2.1.2.3.4.6.8.5.4-.1.5-.6.6-.9.1-.6,0-1.2,0-1.8,0-.3.1-.4.4-.4.3,0,.5,0,.5.4,0,.3,0,.7,0,1,0,1-.4,1.8-1.4,2.3Z"></path><path class="st15" d="M162,81.2c0-.8,0-1.5,0-2.3,0-.5.2-.7.7-.8.7,0,1.5,0,2.3,0,1.2.1,2,.8,2,2.2,0,1.1,0,2.2,0,3.2,0,.4-.4.6-.8.4-.2,0-.1-.2-.1-.4,0-1,0-1.9,0-2.9,0-.2,0-.5,0-.7,0-.7-.6-1.2-1.4-1.3-.4,0-.8,0-1.3,0-.5,0-.5,0-.5.6,0,1.2,0,2.3,0,3.5,0,.3,0,.6,0,.8,0,.3-.2.3-.4.3-.2,0-.5,0-.5-.3,0-.8,0-1.6,0-2.5Z"></path><path class="st5" d="M191.7,90.9c.8-.7,1.7-.7,2.6-.3.5.3.9.8.9,1.4,0,1.1,0,2.3,0,3.5,0,.2,0,.4-.2.5-.2,0-.3,0-.5,0-.1-.1-.1-.3-.1-.5,0-.7,0-1.4,0-2.1,0-.3,0-.6,0-.8,0-.8-.5-1.3-1.3-1.3-.7,0-1.4.5-1.4,1.3,0,.4,0,.8,0,1.3,0,.6,0,1.3,0,1.9,0,.3,0,.5-.4.5-.3,0-.4-.2-.4-.4,0-.4,0-.8,0-1.2,0-1.1,0-2.2,0-3.3,0-.3-.1-.6.3-.7.4,0,.5.2.6.5Z"></path><path class="st15" d="M151,90.4c.6,0,1.2.2,1.7.5.2.1.4.3.2.6-.2.3-.4.3-.7,0-.2-.1-.4-.2-.6-.3-.5-.2-.9-.2-1.3.1-.4.3-.4.7,0,1,.3.2.7.3,1.1.5.3.1.7.3,1,.5.8.6.9,1.6.1,2.3-1.1.9-2.5.6-3.4,0,0,0,0-.1-.1-.2-.1-.2-.2-.3,0-.5.2-.2.4-.2.6,0,.2.1.4.3.6.4.4.3.9.4,1.4.2.4-.1.6-.3.7-.7,0-.4-.2-.6-.5-.7-.4-.2-.8-.3-1.2-.5-.2-.1-.5-.2-.7-.3-.8-.5-.8-1.5-.1-2.1.4-.3.9-.5,1.4-.5Z"></path><path class="st14" d="M145.2,96.1c-.5,0-1.1-.2-1.6-.5-.1,0-.2-.2-.3-.3-.2-.2-.2-.4,0-.6.1-.2.3-.2.5,0,.2.1.4.3.6.4.5.3,1,.3,1.5.1.3-.1.5-.4.5-.7,0-.4-.2-.6-.5-.7-.4-.2-.8-.4-1.2-.5-.2,0-.4-.1-.6-.2-1-.5-1.1-1.7-.1-2.3.8-.5,2.2-.4,2.9.2.2.2.4.3.2.6-.2.3-.4.2-.7,0-.2-.1-.4-.2-.6-.3-.5-.2-.9-.2-1.3.1-.4.3-.4.7,0,1,.2.1.3.2.5.2.5.2,1,.4,1.4.6.5.3.9.7.9,1.3,0,.7-.4,1.1-1.1,1.4-.4.1-.7.2-1.1.2Z"></path><path class="st0" d="M62,90.4c.5,0,.9,0,1.4.3.1,0,.3.2.4.3.2.2.2.4,0,.6-.1.2-.3.2-.5,0-.2-.1-.4-.3-.7-.4-.5-.2-.9-.2-1.3,0-.5.3-.5.8,0,1,.4.2.7.3,1.1.4.3.1.7.2,1,.4.9.6.9,1.7,0,2.4-.9.7-2.5.6-3.3-.2,0,0,0,0,0-.1-.2-.2-.2-.4,0-.6.2-.2.4-.1.6,0,.2.1.4.3.6.4.4.3.9.3,1.4.1.3-.1.6-.4.6-.7,0-.4-.2-.6-.5-.7-.4-.2-.8-.4-1.2-.5-.3-.1-.5-.2-.8-.3-.8-.5-.8-1.4-.2-2,.4-.4.9-.5,1.5-.5Z"></path><path class="st25" d="M90.4,92.3c0-1,0-2,0-3,0-.6,0-.6.6-.6.8,0,1.6,0,2.4,0,.3,0,.5,0,.5.4,0,.4-.3.4-.5.4-.6,0-1.2,0-1.8,0-.2,0-.3,0-.3.3,0,.6,0,1.3,0,1.9,0,.3.1.4.4.4.5,0,1,0,1.5,0,.3,0,.5,0,.5.3,0,.4-.2.4-.5.4-.5,0-1,0-1.5,0-.3,0-.4.1-.4.4,0,.8,0,1.7,0,2.5,0,.2,0,.3-.3.4-.2,0-.4,0-.5-.3,0-.2,0-.4,0-.6,0-.7,0-1.5,0-2.2,0-.3,0-.5,0-.8h0Z"></path><path class="st19" d="M59,78.7c-.3,0-.5,0-.8,0-.4,0-.6-.2-.7-.7,0-.3,0-.6,0-.9,0-.4,0-.5.5-.5.3,0,.4,0,.4.4,0,.1,0,.2,0,.4,0,.8,0,.7.7.6.5,0,1,0,1.5.1.8.3,1.3.8,1.4,1.6.1.7,0,1.4-.2,2.1-.4,1.2-1.9,2.2-3.2,2.1-.2,0-.3-.1-.3-.3,0-.2,0-.3.2-.3.2,0,.5,0,.7-.1,1.4-.4,2.2-1.8,1.8-3.4-.2-.7-.7-1.1-1.4-1.1-.2,0-.5,0-.7,0h0Z"></path><path class="st19" d="M93,83.4c.3,0,.6,0,.9,0,.2,0,.3,0,.3.3,0,.2,0,.3-.3.3-1.4,0-2.8,0-4.2,0-.2,0-.3,0-.3-.3,0-.3.2-.3.4-.3.5,0,.9,0,1.4,0,.9,0,1.4-.4,1.7-1.2.3-.8.3-1.6,0-2.3-.3-.7-.8-1.1-1.6-1.1-.5,0-1,0-1.5,0-.2,0-.4,0-.4-.3,0-.2,0-.3.3-.3.6,0,1.1,0,1.7,0,1.9.2,2.6,1.4,2.5,3.3,0,.7-.3,1.1-1,2Z"></path><path class="st5" d="M101,78.7c-.3,0-.6,0-.8,0-.4,0-.5-.2-.6-.6,0-.3,0-.7,0-1,0-.4.1-.5.6-.5.2,0,.3,0,.3.2,0,0,0,.1,0,.2,0,.9,0,.9,1,.9.4,0,.8,0,1.3.1.8.3,1.3.9,1.4,1.8,0,.3,0,.6,0,.8,0,1.5-1,2.7-2.5,3-.3,0-.6.1-.8.1-.2,0-.3,0-.4-.3,0-.2,0-.3.3-.3,0,0,.2,0,.3,0,1.5-.3,2.3-1.5,2.3-3,0-.9-.7-1.8-1.7-1.7-.2,0-.3,0-.5,0h0Z"></path><path class="st5" d="M135.6,78.7c-.2,0-.4,0-.6,0-.7,0-.8-.1-.8-.8,0-.2,0-.5,0-.7,0-.4.3-.6.7-.5,0,0,.1.1.1.2,0,0,0,.2,0,.3q0,.9.9.8c0,0,.2,0,.3,0,1.7,0,2.6.9,2.5,2.6-.1,2.1-1.5,3.1-3.3,3.3-.2,0-.4,0-.4-.3,0-.2.1-.3.3-.3.5,0,.9-.2,1.3-.4.9-.6,1.4-1.9,1.2-2.9-.2-.9-.7-1.3-1.6-1.3-.2,0-.4,0-.6,0h0Z"></path><path class="st15" d="M161.4,93.2c0-1.8,1.3-3,3-2.8.3,0,.6.1.8.3.1.1.3.3.2.5-.1.2-.3.3-.5.2-.2,0-.3,0-.5-.2-.6-.3-1.1-.1-1.5.3-.9.9-.8,2.3,0,3.2.4.4.9.6,1.5.4.2,0,.3-.1.5-.2.2,0,.4-.2.5.1,0,.3,0,.5-.2.6-.5.2-1,.4-1.6.3-1.2-.2-2-1.3-2.1-2.6,0,0,0-.2,0-.3Z"></path><path class="st5" d="M128.9,83.9c-.3,0-.6,0-.9,0-.1,0-.3,0-.3-.2,0-.2,0-.3.3-.3.2,0,.3,0,.5,0,.1,0,.3,0,.4,0,1.5,0,2.3-.8,2.4-2.3,0-.4,0-.7-.1-1-.3-1-1-1.4-1.7-1.3-.4,0-.8,0-1.3,0-.2,0-.4,0-.4-.3,0-.3.2-.3.4-.3.6,0,1.2,0,1.8,0,1.3.2,2,.9,2.2,2.2.1.8,0,1.5-.3,2.3-.4.9-1.2,1.3-2.1,1.4-.3,0-.5,0-.8,0h0Z"></path><path class="st17" d="M110.1,90.4c.2,0,.4,0,.6.1.2,0,.2.2.2.4,0,.2-.1.3-.3.3-.5,0-.5.2-.5.6,0,1.1,0,2.2,0,3.4,0,.2,0,.4,0,.6,0,.2-.1.3-.3.4-.2,0-.4,0-.5-.2-.1-.2-.1-.4-.1-.6,0-1.2,0-2.3,0-3.5,0-.3,0-.6-.5-.6-.1,0-.3,0-.3-.2,0-.2,0-.4.3-.4.6,0,.5-.4.5-.7,0-.2,0-.4,0-.6,0-.3.2-.4.5-.4.3,0,.4.2.4.5,0,.4,0,.7,0,1.1Z"></path><path class="st23" d="M124.8,78.7c0,1.4,0,2.8,0,4.2,0,.1,0,.3,0,.4q0,.6-.4.6c-.5,0-.5,0-.5-.6,0-1.3,0-2.6,0-3.9,0-.8.2-.8-.8-.8-.7,0-1.3,0-2,0-.3,0-.4,0-.4-.4,0-.3.2-.3.4-.3,1.4,0,2.7,0,4.1,0,.2,0,.4,0,.4.3,0,.2,0,.3-.3.3-.1,0-.3,0-.5,0Z"></path><path class="st11" d="M159,81.4c0,.7,0,1.4,0,2.1,0,.4-.4.6-.7.4-.2,0-.1-.3-.1-.4,0-1.1,0-2.3,0-3.4,0-.5.2-1-.1-1.3-.3-.3-.9,0-1.3,0-.5,0-.9,0-1.4,0-.2,0-.4,0-.4-.3,0-.3.1-.3.3-.3,1.4,0,2.8,0,4.2,0,.2,0,.3,0,.3.3,0,.2,0,.4-.3.3-.5,0-.5.2-.5.6,0,.7,0,1.4,0,2.1Z"></path><path class="st5" d="M109.3,83.9c-.3,0-.7.2-.8-.2-.1-.3-.1-.6-.2-1-.2.3-.4.5-.5.6-.4.4-.9.7-1.5.6-.2,0-.3,0-.3-.3,0-.2.1-.3.3-.3.5,0,.9-.1,1.2-.5.4-.5.7-1,.7-1.7,0-.5,0-.9,0-1.4,0-.8-.4-1.1-1.2-1.1-.2,0-.3,0-.5,0-.2,0-.2-.2-.2-.3,0-.1,0-.2.2-.2,1.1-.4,2.4.4,2.5,1.6,0,0,0,.1,0,.2,0,1.3,0,2.7.2,4Z"></path><path class="st7" d="M189.2,81.8c0,.6,0,1.2,0,1.8,0,.3-.2.3-.4.3-.2,0-.5,0-.5-.3,0-.8,0-1.6,0-2.4,0-.4,0-.8,0-1.1,0-.8-.6-1.4-1.5-1.4-.6,0-1.1,0-1.7,0-.1,0-.3,0-.4,0-.2,0-.3,0-.3-.3,0-.2,0-.3.3-.3,1,0,1.9-.1,2.9.1.9.2,1.5.8,1.5,1.8,0,.6,0,1.2,0,1.8,0,0,0,0,0,0Z"></path><path class="st5" d="M178.5,90.4c.2,0,.4,0,.6,0,.2,0,.3.2.2.4,0,.2-.1.2-.3.3-.6.1-.6.2-.6.7,0,1.2,0,2.4,0,3.7,0,.4-.3.6-.6.5-.2-.1-.2-.3-.2-.5,0-.8,0-1.6,0-2.5,0-.5,0-.9,0-1.4,0-.3,0-.5-.4-.5-.2,0-.4,0-.4-.3,0-.3.1-.4.4-.4.3,0,.4-.1.4-.4,0-.3,0-.5,0-.8,0-.3.2-.4.4-.4.3,0,.4.2.4.5,0,.4,0,.7,0,1.1Z"></path><path class="st19" d="M196.3,81.8c0,.6,0,1.2,0,1.8,0,.4-.2.3-.4.4-.3,0-.4,0-.4-.4,0-1,0-2.1,0-3.1,0-.4,0-.8-.3-1.1-.3-.4-.7-.7-1.2-.7-.6,0-1.2,0-1.8,0-.1,0-.3,0-.4,0-.2,0-.3-.1-.3-.3,0-.2.1-.3.3-.3,1.1,0,2.1-.2,3.1.2.9.3,1.3.9,1.4,1.9,0,.6,0,1.1,0,1.7h0Z"></path><path class="st2" d="M75.7,81.9c0,.5,0,1.1,0,1.6,0,.4-.1.4-.4.4-.3,0-.4-.1-.4-.4,0-.8,0-1.7,0-2.5,0-.2,0-.4,0-.6,0-1.3-.8-1.8-1.8-1.8-.4,0-.8,0-1.3,0-.3,0-.3-.1-.3-.3,0-.2,0-.3.3-.3.7,0,1.5,0,2.2.1,1,.2,1.6.8,1.6,1.8,0,.6,0,1.3,0,1.9,0,0,0,0,0,0Z"></path><path class="st17" d="M127.2,92c0,1.2,0,2.3,0,3.5,0,.3-.1.5-.5.5-.2,0-.4-.1-.4-.3,0-.2,0-.3,0-.5,0-2.1,0-4.3,0-6.4,0-.1,0-.3,0-.4,0-.3.1-.4.4-.4.2,0,.4.1.4.4,0,.2,0,.3,0,.5,0,1.1,0,2.1,0,3.2h0Z"></path><path class="st25" d="M130.3,92.1c0,1.1,0,2.3,0,3.4,0,.3,0,.5-.4.5-.3,0-.4-.1-.4-.4,0-.2,0-.3,0-.5,0-2.1,0-4.3,0-6.4,0-.1,0-.2,0-.4,0-.3.1-.4.4-.4.3,0,.4.2.4.4,0,.6,0,1.1,0,1.7,0,.7,0,1.3,0,2h0Z"></path><path class="st12" d="M83.7,92c0-1.1,0-2.1,0-3.2,0-.2,0-.3,0-.5,0-.2.2-.3.4-.3.2,0,.4,0,.4.3,0,.1,0,.3,0,.4,0,2.2,0,4.4,0,6.5,0,.2,0,.3,0,.5,0,.2-.2.3-.4.3-.2,0-.4,0-.4-.3,0-.2,0-.4,0-.6,0-1.1,0-2.1,0-3.2h0Z"></path><path class="st2" d="M115.5,81.8c0,.6,0,1.1,0,1.7,0,.3-.1.4-.4.4-.3,0-.4,0-.4-.4,0-.9,0-1.9,0-2.8,0-.3,0-.6,0-.8-.2-.8-.7-1.2-1.6-1.2-.5,0-.9,0-1.4,0-.2,0-.3,0-.4-.3,0-.3.1-.3.3-.3.7,0,1.4,0,2.1,0,1.1.2,1.7.8,1.7,1.9,0,.6,0,1.2,0,1.8,0,0,0,0,0,0Z"></path><path class="st5" d="M66.9,91c.2,0,.3-.3.5-.4.2-.1.3-.2.6-.2.3,0,.5,0,.6.3,0,.3-.1.4-.4.5-.1,0-.2,0-.3.1-.7.2-1,.7-1,1.4,0,.9,0,1.9,0,2.8,0,.3-.1.4-.4.4-.3,0-.5,0-.5-.4,0-.2,0-.3,0-.5,0-.8,0-1.7,0-2.5,0-.5,0-1.1,0-1.6,0-.3,0-.5.4-.6.4,0,.5.2.5.5,0,0,0,0,0,.1Z"></path><path class="st17" d="M57.1,92.3c0-1.1,0-2.2,0-3.2,0-.4.2-.6.6-.5.3,0,.3.3.3.5,0,.5,0,1.1,0,1.6,0,1.5,0,2.9,0,4.4,0,.2,0,.3,0,.5,0,.3,0,.5-.4.5-.3,0-.5-.2-.5-.5,0-.7,0-1.3,0-2,0-.4,0-.8,0-1.3h0Z"></path><path class="st2" d="M117.8,83.9c0-.4,0-.9,0-1.3,0-1.4,0-2.7,0-4.1,0-.5,0-.5.5-.5.4,0,.4.1.4.5,0,1.6,0,3.2,0,4.9,0,.6,0,.6-.6.6,0,0-.2,0-.3,0Z"></path><path class="st18" d="M152.1,80.9c0-.8,0-1.6,0-2.5,0-.3,0-.4.4-.4.3,0,.5.1.5.4,0,1.7,0,3.4,0,5.1,0,.3-.1.4-.4.4-.3,0-.4,0-.4-.4,0-.9,0-1.7,0-2.6,0,0,0,0,0,0Z"></path><path class="st3" d="M168.2,93.3c0,.8,0,1.5,0,2.3,0,.2,0,.4-.3.4-.3,0-.4-.1-.5-.4,0,0,0,0,0-.1,0-1.6,0-3.1,0-4.7,0-.2,0-.4.4-.4.3,0,.4.1.4.4,0,.8,0,1.6,0,2.5h0Z"></path><path class="st24" d="M181.8,93.2c0,.7,0,1.3,0,2,0,.2,0,.4,0,.6,0,.2-.2.3-.4.3-.2,0-.3-.1-.4-.3,0,0,0,0,0-.1,0-1.6,0-3.2,0-4.8,0-.2,0-.4.3-.4.3,0,.5,0,.5.4,0,.2,0,.3,0,.5,0,.7,0,1.3,0,2h0Z"></path><path class="st9" d="M86.3,79.8c0-.4,0-.9,0-1.3,0-.4.2-.4.5-.4.3,0,.4,0,.4.4,0,.8,0,1.6,0,2.4,0,.4-.4.7-.7.7-.2,0-.2-.2-.2-.3,0-.5,0-.9,0-1.4,0,0,0,0,0,0Z"></path><path class="st1" d="M192.4,80.6c0,1.1,0,2.1,0,3.1,0,.3-.3.2-.5.2-.2,0-.4,0-.4-.3,0-.8,0-1.7,0-2.5,0-.5.5-.4.8-.5Z"></path><path class="st5" d="M185.3,80.7c0,1,0,2,0,2.9,0,.4-.3.3-.5.3-.2,0-.4,0-.4-.3,0-.8,0-1.6,0-2.4,0-.4.1-.4.9-.5Z"></path><path class="st13" d="M181.4,88.6c.3,0,.6.2.6.5,0,.3-.3.5-.5.5-.3,0-.6-.2-.6-.5,0-.3.2-.5.5-.5Z"></path><path class="st20" d="M167.8,88.6c.3,0,.6.3.6.6,0,.3-.3.5-.6.5-.3,0-.6-.3-.6-.6,0-.3.3-.5.6-.5Z"></path><path d="M82.9,59.4s0,0,0,0c0-3.4,0-6.8,0-10.2,0-.3,0-.7,0-1-.4-2.4-2.9-4.6-5.5-4.6-5.7,0-11.3,0-17,0-.2,0-.3,0-.5,0-1.1.1-1.9,1-2,1.9,0,1,0,1.9,0,2.9,0,.5.2.9.6,1.1.4.3.9.5,1.4.5.3,0,.4.1.4.4,0,0,0,.2,0,.3,0,5.9,0,11.8,0,17.7,0,.6,0,1.3,0,1.9,0,.7.3,1.2.8,1.6.5.5,1.1.6,1.8.6,5.8,0,11.5,0,17.3,0,1.4,0,2.8-1,2.7-2.7,0-3.5,0-6.9,0-10.4ZM75.8,66c-1.6,0-3.2,0-4.8,0-1,0-2,0-3,0-.7,0-.6,0-.6-.6,0-1.3,0-2.6,0-3.9,0-3.6,0-7.2,0-10.8,0-.1,0-.2,0-.4,0-.2,0-.3.3-.3,0,0,.2,0,.3,0,2.5,0,4.9,0,7.4,0,.4,0,.5,0,.5.5,0,5.1,0,10.2,0,15.3,0,0,0,0,0,.2Z"></path><path class="st15" d="M116.8,91.2c-.8-1-2.2-1.1-3-.5,0,0-.2.2-.4.2v-1.1c0-.5,0-1,0-1.5,0-.2,0-.4-.3-.4-.2,0-.4,0-.5.3,0,.1,0,.3,0,.4,0,2.2,0,4.3,0,6.5,0,.1,0,.2,0,.4,0,.2.1.5.4.5.3,0,.4-.2.4-.4,0,0,0-.1,0-.3.2.1.3.2.3.3,1,.7,2.5.4,3.2-.6.7-1.1.7-2.8-.1-3.8ZM115.9,95c-.6.6-1.7.5-2.1-.3-.3-.4-.4-.9-.4-1.5,0-.5.1-1.1.5-1.5.5-.7,1.5-.8,2.1-.2.8.8.8,2.7,0,3.5Z"></path><path class="st14" d="M141.9,95.5c0-.2-.1-.4-.2-.5-.6-1.6-1.2-3.2-1.9-4.8-.2-.4-.3-.9-.5-1.3,0-.2-.2-.4-.5-.3-.2,0-.4,0-.5.3,0,.1-.1.3-.2.4-.7,1.9-1.5,3.8-2.2,5.8,0,.1,0,.3-.1.4,0,.2,0,.4.2.5.2,0,.4,0,.5-.2.2-.4.3-.7.5-1.1,0-.2.2-.3.5-.3,1,0,1.9,0,2.9,0,.3,0,.4.1.5.4.1.4.3.7.5,1.1.1.2.3.3.5.2.2,0,.3-.3.2-.5ZM137.3,93.6c.4-1.3,1-2.5,1.4-3.8.4.7,1.4,3.2,1.5,3.8h-2.9Z"></path><path class="st0" d="M123.7,90.4c-.5,0-.4.4-.5.6-.2,0-.3,0-.4-.1-1.2-.8-2.7-.5-3.3.9-.5,1-.5,2,0,3,.5,1,2,1.9,3.3.9,0,0,.2-.2.3-.2.1,0,0,.1.1.2,0,.2.2.4.5.3.3,0,.3-.3.3-.5,0-.1,0-.2,0-.4,0-1.4,0-2.7,0-4.1,0-.3.1-.6-.3-.7ZM122.8,94.7c-.6.9-1.7.9-2.3,0-.5-.8-.5-2.2,0-3,.6-.8,1.6-.9,2.3,0,.3.4.4,1,.5,1.5,0,.5-.1,1.1-.4,1.5Z"></path><path class="st14" d="M74.9,90.8c0-.2,0-.4-.3-.4-.2,0-.4,0-.5.3,0,0,0,.2-.1.3-.2-.1-.3-.2-.4-.3-.9-.7-2.4-.3-3,.6-.7,1-.7,2.6,0,3.7.7,1,2,1.3,3,.7.1,0,.2-.2.4-.2,0,.1.1.3.2.4,0,.1.2.1.4.1.1,0,.3-.1.3-.3,0-.1,0-.3,0-.4,0-1.4,0-2.7,0-4.1,0-.1,0-.3,0-.4ZM74.1,93.2c0,.6,0,1.2-.5,1.6-.6.8-1.7.8-2.3,0-.5-.8-.5-2.2,0-3,.6-.8,1.7-.8,2.3,0,.3.4.4.9.4,1.4Z"></path><path class="st14" d="M175.2,91c0-.1,0-.2,0-.3,0-.2-.2-.3-.4-.3-.2,0-.3,0-.3.3,0,.1,0,.3-.2.3-.4-.3-.8-.6-1.3-.6-1,0-1.8.4-2.3,1.4-.4.8-.4,1.6-.2,2.5.4,1.6,2.3,2.4,3.6,1.4,0,0,.2,0,.2-.2,0,.1.1.2.1.3,0,.2.2.3.4.3.2,0,.3-.1.4-.4,0,0,0-.2,0-.3,0-1.5,0-2.9,0-4.4ZM174.3,93.3c0,.5,0,1-.4,1.4-.6.9-1.7.9-2.4,0-.6-.8-.5-2.2,0-3,.6-.8,1.6-.8,2.3,0,.4.5.5,1,.4,1.6Z"></path><path class="st14" d="M81.2,93.6c.5,0,.6-.1.6-.6,0-1-.6-2.1-1.6-2.5-1-.4-2.1,0-2.7.9-.5.8-.7,1.6-.5,2.5.3,1.2,1.1,2,2.3,2.1.8,0,1.6-.2,2.2-.7.2-.2.4-.4.2-.7-.2-.2-.5-.1-.7,0-.2.1-.3.3-.5.4-1.1.6-2.3.2-2.6-1.1,0-.3,0-.4.3-.4.5,0,1,0,1.5,0,0,0,0,0,0,0,.5,0,1,0,1.5,0ZM77.9,92.9c0-.9.5-1.7,1.3-1.8.7,0,1.7.6,1.7,1.8h-3Z"></path><path class="st15" d="M100.2,92.4c-.2-1.1-.9-1.9-1.9-2-1-.2-2,.2-2.5,1-.7,1.1-.7,2.6,0,3.6.5.7,1.5,1.1,2.4.9,1.3-.3,2-1.3,2-2.9,0-.1,0-.4,0-.7ZM99.2,94.4c-.3.5-.7.9-1.3.9-.6,0-1.1-.3-1.3-.9-.4-.9-.4-1.7,0-2.6.5-1,1.8-1.1,2.5,0,.3.4.4.9.4,1.5,0,.4,0,.8-.3,1.2Z"></path><path class="st15" d="M159.7,93.2c0-.3,0-.5,0-.8-.2-1.2-1.1-2-2.2-2.1-1.2,0-2.2.6-2.5,1.8-.2.6-.2,1.3,0,1.9.3,1.2,1.3,2,2.5,1.9,1.2,0,2.1-1,2.3-2.3,0-.2,0-.4,0-.6h0ZM158.4,94.7c-.6.9-1.9.9-2.4,0-.5-.9-.5-1.8,0-2.6.5-1.1,1.8-1.2,2.5-.2.3.4.4.9.4,1.4,0,.6-.1,1.1-.4,1.5Z"></path><path class="st14" d="M188.5,91.8c-.4-.9-1.1-1.4-2.1-1.4-1,0-1.7.4-2.2,1.3-.3.5-.4,1-.4,1.6,0,.2,0,.4,0,.6.2,1.2,1.1,2.1,2.3,2.2,1,0,2-.6,2.4-1.6.3-.9.3-1.8,0-2.7ZM187.3,94.9c-.6.7-1.7.6-2.2-.2-.2-.4-.4-.8-.4-1.6,0-.3,0-.8.3-1.2.5-1,1.7-1.1,2.4-.2.7.8.6,2.5,0,3.2Z"></path><path class="st15" d="M106.8,92c-.3-1-1.2-1.6-2.2-1.6-1,0-1.9.5-2.3,1.4-.2.5-.3.9-.3,1.5,0,0,0,.3,0,.4.1,1.3,1.1,2.3,2.3,2.3,1.2,0,2.2-.7,2.5-2,.2-.7.1-1.4,0-2.1ZM105.6,94.9c-.6.7-1.7.6-2.2-.2-.3-.4-.4-.9-.4-1.5,0-.5.1-1,.4-1.4.6-.9,1.7-1,2.4-.1.6.8.6,2.4,0,3.2Z"></path></g></svg>