<svg xmlns="http://www.w3.org/2000/svg" id="Layer_1" viewBox="0 0 866 1064.9"><defs><style>      .st0 {        fill: #d4b978;      }      .st1 {        fill: #8c7ea3;      }      .st2 {        fill: #e8e3f1;      }      .st3 {        fill: #351c36;      }      .st4 {        fill: #4f3972;      }      .st5 {        fill: #f3ebd9;      }      .st6 {        fill: #cdb472;      }      .st7 {        fill: #f5e9d0;      }      .st8 {        fill: #432b69;      }      .st9 {        fill: #cbc5d6;      }      .st10 {        fill: #b79d92;      }      .st11 {        fill: #d0b571;      }      .st12 {        fill: #d4cae4;      }      .st13 {        fill: #eceaf0;      }      .st14 {        fill: #ddd6ea;      }      .st15 {        fill: #ebd6ad;      }      .st16 {        fill: #3f2665;      }      .st17 {        fill: #9284a8;      }      .st18 {        fill: #ccc1df;      }      .st19 {        fill: #d8d3e0;      }      .st20 {        fill: #9c8faf;      }      .st21 {        fill: #aca2bd;      }      .st22 {        fill: #c9bddd;      }      .st23 {        fill: #b39685;      }      .st24 {        fill: #f8f4ea;      }      .st25 {        fill: #c7bbdc;      }      .st26 {        fill: #614f81;      }      .st27 {        fill: #49326e;      }      .st28 {        fill: #d4be87;      }      .st29 {        fill: #988bad;      }      .st30 {        fill: #d9d1e7;      }      .st31 {        fill: #3a2053;      }      .st32 {        fill: #c3b4cc;      }      .st33 {        fill: #e0daec;      }      .st34 {        fill: #a89db9;      }      .st35 {        fill: #f2ead7;      }      .st36 {        fill: #ada2bd;      }      .st37 {        fill: #af9976;      }      .st38 {        fill: #f5f0e3;      }      .st39 {        fill: #d2b775;      }      .st40 {        fill: #d5c9c8;      }      .st41 {        fill: #efedf4;      }      .st42 {        fill: #eddab3;      }      .st43 {        fill: #b99f98;      }      .st44 {        fill: #3b225c;      }      .st45 {        fill: #f7edd9;      }      .st46 {        fill: #c8c0d5;      }      .st47 {        fill: #72618f;      }      .st48 {        fill: #6d5b8a;      }      .st49 {        fill: #fcfcfb;      }      .st50 {        fill: #eeeaf4;      }      .st51 {        fill: #d5c8c2;      }      .st52 {        fill: #4a366d;      }      .st53 {        fill: #c2aa99;      }      .st54 {        fill: #d9d5e1;      }      .st55 {        fill: #dbc186;      }      .st56 {        fill: #6b5888;      }      .st57 {        fill: #675686;      }      .st58 {        fill: #574478;      }      .st59 {        fill: #cfb77a;      }      .st60 {        fill: #b8aec6;      }      .st61 {        fill: #d7cee6;      }      .st62 {        fill: #ada3be;      }      .st63 {        fill: #c1a978;      }      .st64 {        fill: #442c6a;      }      .st65 {        fill: #f3e4c7;      }      .st66 {        fill: #cdb26f;      }      .st67 {        fill: #746290;      }      .st68 {        fill: #ebe6f2;      }      .st69 {        fill: #b2a8c1;      }      .st70 {        fill: #d4cfdc;      }      .st71 {        fill: #d8c594;      }      .st72 {        fill: #fff;      }      .st73 {        fill: #d4c7be;      }      .st74 {        fill: #82729b;      }      .st75 {        fill: #e4deee;      }      .st76 {        fill: #fbf7ee;      }      .st77 {        fill: #675485;      }      .st78 {        fill: #d9d3e4;      }      .st79 {        fill: #bba29d;      }      .st80 {        fill: #d6bc7d;      }      .st81 {        fill: #c8c1d3;      }      .st82 {        fill: #c4ac7e;      }      .st83 {        fill: #f8efde;      }      .st84 {        fill: #eae0c5;      }      .st85 {        fill: #d2c3b0;      }      .st86 {        fill: #d5cad4;      }      .st87 {        fill: #463269;      }      .st88 {        fill: #cdc7d7;      }      .st89 {        fill: #402c64;      }      .st90 {        fill: #e0d1aa;      }      .st91 {        fill: #bca4a3;      }      .st92 {        fill: #87789f;      }      .st93 {        fill: #d3cedc;      }      .st94 {        fill: #e4cc99;      }      .st95 {        fill: #e0c78f;      }      .st96 {        fill: #e6daba;      }      .st97 {        fill: #7e6d98;      }      .st98 {        fill: #a99eba;      }      .st99 {        fill: #a296b4;      }      .st100 {        fill: #301b56;      }      .st101 {        fill: #503d72;      }      .st102 {        fill: #f2ecdb;      }      .st103 {        fill: #d4c5b7;      }      .st104 {        fill: #6f5d8c;      }      .st105 {        fill: #dbca9b;      }      .st106 {        fill: #beb6cb;      }      .st107 {        fill: #e2c994;      }      .st108 {        fill: #3c2363;      }      .st109 {        fill: #d9d4e0;      }      .st110 {        fill: #e8ddbf;      }      .st111 {        fill: #e0d9ec;      }      .st112 {        fill: #f2e2c3;      }      .st113 {        fill: #eeebf2;      }      .st114 {        fill: #d7c38f;      }      .st115 {        fill: #faf4e7;      }      .st116 {        fill: #decea4;      }      .st117 {        fill: #eae6f2;      }      .st118 {        fill: #e9e2e2;      }      .st119 {        fill: #d9bf82;      }      .st120 {        fill: #796894;      }      .st121 {        fill: #d6cace;      }      .st122 {        fill: #9d90b0;      }      .st123 {        fill: #e6e1ef;      }      .st124 {        fill: #bda6a8;      }      .st125 {        fill: #e2d4b0;      }      .st126 {        fill: #d0cada;      }      .st127 {        fill: #564078;      }      .st128 {        fill: #9689ab;      }      .st129 {        fill: #c3bbcf;      }      .st130 {        fill: #3c243a;      }      .st131 {        fill: #e5d8b5;      }      .st132 {        fill: #7f6e99;      }      .st133 {        fill: #f9f2e3;      }      .st134 {        fill: #634f82;      }      .st135 {        fill: #b59a8e;      }      .st136 {        fill: #edeaf1;      }      .st137 {        fill: #b8afc6;      }      .st138 {        fill: #f4e7cc;      }      .st139 {        fill: #cdb575;      }      .st140 {        fill: #faf5ec;      }      .st141 {        fill: #9e92b2;      }    </style></defs><path class="st66" d="M34,208.2c3.3-7.2,3.9-5.3,3.7,3s-.3,9.2-1.4,13.2c-2.8,1.3-3.8,4.3-2.9,8.9l-.8,3.8c.9.3,1.1,1,.6,2.1-7.8,20.7-12.4,42.4-16.8,65-.3,1.6-.9,3-1.6,4.4-1.1,1.3-2.5,2.4-4.4,3.3l-.9,19.6c-.5,3.7-.9,5.9-4.2,8.3-.7,7.2-1.1,14.5-1.3,21.8-.2,2.1-2.5,5.1-4,2.7v-3.4c.5-2.8.8-5.7,1-8.6-.9-1.7-.4-3.5,0-5.3l.5-6.2c0-.6,0-1.3,0-1.9l.5-4.8c.7-35.5,12.2-79.2,25.9-111.8l.5-1c.2-.4.3-.9.5-1.4l1.4-2.9c0-.1,0-.3,0-.5l2.4-4.8c.5-1.1.9-2.2,1.4-3.4Z"></path><path class="st11" d="M10.5,380.1c.2,2,.9,9-.2,10.2-.8-.3-1.2,0-1.2,1.2l-1.2,22.2c-1,2-3.2,3.5-5.4,3.3l-.6-5.2c-.4-4.9-.4-10-1-14.9l-1-10.1v-22.6c2.5.5,3-1.8,3.2-3.7.8-5.9-.3-15.6,1.2-20.9s2.4-2.2,3-3.2c1-1.5.8-3.3,1.2-5l.9-20.1c1.8-1,3.3-2.3,5.3-2.7.2,1.7.4,3.4.3,5.1-2,21.3-3.8,42.5-4,64l-.7,2.5Z"></path><path class="st70" d="M377.1-.1c2.1.2,4.2.3,6.2.5,4.6,0,8.9.6,13.4,1,1.3.6.9,1.5-.3,2.1-7.6,2.8-15.5,5.6-23.2,8-1.6.5-3.2.9-4.9,1-12.3.6-24.4,1.3-36.6,2.3s-3.3,0-5-.4c-.7.3-1.5.5-2.4.5-.2,1.3-.6,1.2-1,0l-1.9.5c-.2,1.3-.6,1.2-1,0l-1.9.5c-.2.4-.3.4-.5,0l-1.9.5c-.2.4-.3.4-.5,0l-1.9.5c-.2.4-.3.4-.5,0l-1.9.5c-.2.4-.3.4-.5,0-1.7-.2-1.1-1.3.8-2.1,12.4-4.4,24.7-8.9,36.9-13.6l4.9-1.1,2.4-.5h21.1Z"></path><path class="st48" d="M420.3,1064.5c.4.1.4.3,0,.5h-15.8c-.4-.1-.4-.3,0-.5,5.1-1.3,10.7-1.3,15.8,0Z"></path><path class="st11" d="M0,360.9v-4.8c0-1.7.3-3,1-3.8,0,2.5.7,6.9-1,8.6Z"></path><path class="st5" d="M.9,396.9c0-.7-.6-2.7-1-3.4v-6.7c1,3.2,1,6.7,1,10.1Z"></path><path class="st35" d="M.9,346.9c0,1.8,0,3.5,0,5.3l-1,3.8c.1-2-.2-4.2,0-6.2s.6-2.7,1-3.4v.5Z"></path><path class="st132" d="M866.1,307.6c-.1.4-.3.4-.5,0-1.3-2.8-1.3-6.3,0-9.1.1-.4.3-.4.5,0v9.1Z"></path><path class="st13" d="M383.4-.1v.5c-2,0-4.6.4-6.2-.5h6.2Z"></path><path class="st19" d="M401.1,1064.5c.4.1.4.3,0,.5h-4.8v-.5c1.2-1.4,3.7-1.4,4.8,0Z"></path><path class="st54" d="M428,1064.5v.5h-4.3c-.4-.1-.4-.3,0-.5,1-1.4,3.3-1.4,4.3,0Z"></path><path class="st141" d="M423.7,1064.5v.5h-3.4v-.5c.9-1.4,2.4-1.3,3.4,0Z"></path><path class="st141" d="M404.5,1064.5v.5h-3.4v-.5c1.1-1.3,2.3-1.3,3.4,0Z"></path><path class="st9" d="M866.1,310.5h-.5c-1.3-.6-1.4-2.3,0-2.9h.5v2.9Z"></path><path class="st126" d="M866.1,298.5h-.5c-1.4-.6-1.3-2.2,0-2.9h.5v2.9Z"></path><path class="st39" d="M17.2,457.3c.6,4.5-.9,7.3-4.5,8.4-1.9,3-3.3,3.5-4.2,1.6,0-.3,0-.7,0-1l-.5-1.9c-2.8-17.6-4.9-35-6.2-52.8l.5,4.3c2,0,3.7-1,4.7-2.7l1.1-21.5c.4-4.2,1.8-2.1,2.4-2.6s0-7.8,0-9.1c1-.8,1.3-.2,1.5.9,0,24.2,2.6,49,5.4,73.4l-.2,3.1Z"></path><path class="st80" d="M39.8,557.2v2.1c-.1,0-5.3,3.3-5.3,3.3-.9,3.3-1.8,4.2-2.8,2.8,0-.1,0-.3,0-.5l-1-2.9c-4.8-16.1-9.2-32.1-13-48.5,3-.5,5.9-1.9,8.5-3.7l1.1.3c.9,1.7,1.7,3.5,2.2,5.3,3.2,12,6.4,24,9.6,36,.5,1.9.6,3.8.7,5.7Z"></path><path class="st0" d="M27.3,510.1c-2,1.8-5.5,3.3-8.2,4.1s-.8.1-1.4-.8c-3.5-15.3-6.6-30.6-9.1-46.1,1.6,1.2,2.4-1.4,3.6-2.4s2.7-1.2,3.3-1.9c1.2-1.4.6-4.2,1.7-5.7.8,1.9,1.5,3.7,1.9,5.7,2.6,13.7,5.2,27.4,7.8,41.1s.4,4,.4,6Z"></path><path class="st119" d="M55.2,603.7c1,3.3-5.9,5.6-8.4,5.6l-.8-.8c-5.2-14.3-10-28.6-14.4-43.2,1.7.2,1.1-2.1,1.9-3.1,1.4-2,5.7-2.5,6.3-5,.9,1.4,1.8,2.8,2.3,4.4,4.1,12.4,8.2,24.9,12.3,37.3.5,1.6.6,3.2.7,4.9Z"></path><path class="st55" d="M55.2,603.7c.7.6,1.4,1.2,1.8,2,2.3,5,4,10.5,5.4,15.7,1.5,0,2.3,4,1,4.8,2.6,8.8,3.9,18.2,3.8,27.4l1.1,1.1,1,8.6-.7,1.4c-8.3-18.4-15.7-37.2-22.6-56.2,3.3-.8,7.6-1.4,9.1-4.8Z"></path><path class="st3" d="M73.9,651.3l1.5,1.1c2,4,3.9,7.9,4.7,12.3,1.6,0,2.3,2.5,1,3.4l2.4,7.1,4.5,25.6c.1,1.3,0,2.6-.2,3.8l-.6.4c-4.9-12.4-14-25.9-18.1-38.3s-.3-1.3-.5-1.9c-.9-3.5-.9-7.5-1.4-11v-2.2c0-.3,6.6-2.4,6.7-.2Z"></path><path class="st0" d="M8.6,466.5l-.5-1.9c0,.4.3,1.1.5,1.9Z"></path><path class="st119" d="M31.6,564.9l-1-2.9c.3.9.6,1.9,1,2.9Z"></path><path class="st72" d="M865.6,295.6c0,1,0,1.9,0,2.9,0,3,0,6.1,0,9.1s0,1.9,0,2.9c-.9,19.1-10.2,36.7-23.5,49.9l-.2,1.6c-2.7,2.7-5.6,5.3-8.7,7.5h-1.6c.6,1.2-.9,2.5-1.9,1.4-1,1.9-2.8,3.4-5.4,4.4-2.1,1.6-3.9,2.2-5.6,1.8l-.4,1.2c-4.7,1.9-9.5,3.6-14.4,4.8l-1.1-.7c-2.2,2-6.6,2.2-9.7,2.2s-.7-.3-1-.6c-4.9.3-9.9.2-14.7-.2-.4.2-.8.4-1.2.5-3.8,1-17.3-3.4-21.6-5.1-54.9-21.7-69.9-96.1-26.1-136.4,2.4-2.2,9-8.2,11.7-8.7s.9,0,1.3,0c.4-1.5,1.8-2.6,4-3.4,2.1-1.5,4.1-2.1,6-1.9-.2-1.5,1.5-2.1,2.4-1,1.4-2.1,4.3-3.1,6.7-2.4,1.4-1.9,3.7-2.6,6.7-1.9,1.2-1.8,4.5-2.2,6.2-1,44.7-6.3,89.9,26.8,92.1,73Z"></path><path class="st76" d="M622.3,1028.5c-.4,0-.9-.2-.9-.5,0-.9.2-9.7.4-10.1l1-.9c1.1-1,2.2-2.1,3.5-2.8,15.9-8.9,30-16.9,44.4-28.3,96.8-76.2,120.6-207.1,133-322.2-.9-1.8,0-4.9,1.9-5.8,2.6-11.4,6.7-22.6,12-33.1-3.3,60.7-11.6,123.4-26.9,182.1-25.1,96.5-75.5,178.6-168.4,221.6Z"></path><path class="st108" d="M847.4,388.2c0,.2,0,.3,0,.5,0,.8.1,1.6.5,2.4,7.5,56.3.1,115.4-12.7,170.4-4.8,20.7-10.5,41.4-17.5,61.4-.2-.7-.4-1.4-.5-2.1s-.2-1.4-.2-2.1c.4-12.3,1.1-24.8,1.8-36.9s0-.8-.1-1.2c-1.2-1.1-.7-4.4,1-4.8l.3-4.9c9.3-37.4,16.4-75.5,18.2-114.1,1-20.3-.2-38.7-1.7-58.8s0-3.3.4-5v-2.3c.2-.5,9.3-4,10.6-2.5Z"></path><path class="st44" d="M817.6,622.9c0,.6,0,1.3,0,1.9-3.9,11.1-7.9,22.1-12,33.1-1.3,0-1.8-.9-1.5-3,.7-12.3,1.9-24.6,3.4-36.8-1.2-.9-1-2.5.5-2.9,2.3-11,5.5-21.9,9.3-32.6l1.2-2c.8.5.5,1.8.5,2.6.2,13.1-.8,26.5-1.4,39.6Z"></path><path class="st83" d="M555.1,1040.5c1.6-.4,2.5-.2,2.7.8.4.8-.2,8.6-1.2,9.3-13,2.9-26,5.3-39.3,6.2l.5-9c-.7-.1-1.2-.5-1.4-1.1l.2-1c12.2-1.5,24.6-3.3,37.1-5.6l1.5.3Z"></path><path class="st115" d="M622.8,1017l-.5,11.5c-5.3,2.5-10.7,4.9-16.2,7.1s-15.2,6.3-17.9,6.4c-.4-.1-.9-.3-.9-.6,0-1.1.2-9,.4-9.8l1-.7c1-.8,2-1.7,3.2-2.1,7.6-3.1,15.2-6.1,22.7-9.2s2.5-.6,3.8-.7l1-.5c0-1.5,2.3-2.5,3.4-1.4Z"></path><path class="st133" d="M588.3,1042c-.2,0-.3,0-.5,0-1.2,0-2.2.3-2.9,1-.1,0-.3,0-.5,0l-1,.5c-8.9,2.7-17.8,5.2-26.9,7.2-.4-2.8.4-6.2.3-8.8s-.6-1.5-1.8-1.3c.3-.3.7-.6,1-.9s.7-.5,1.1-.6c7.7-2.2,15.4-4.3,23.1-6.4s.8,0,1.3,0,.9.1,1.3.3l1-.5c.1-.4.3-.4.5,0l1-.5c.1-.4.3-.4.5,0l1-.5c.1-.4.3-.4.5,0l1-.5c.1-.4.3-.4.5,0l-.5,11Z"></path><path class="st45" d="M509.1,1046.3c1,.4-.8,1-.7,1,1.8-1.3,6.3-2.4,7.9-.5.8,0,1.6,0,2.4,0-.1,2.8-.2,5.7-.4,8.5s0,1.2-1,1.6c-6.5.5-13.9,1-20.4,1s-13.1-1.4-18.9-1v-.5l.7-1c7.9-1.6,15.7-4.1,23.2-7.3,1-.3,2.4-.6,3.4-.3.6-1.7,2.3-2.3,3.8-1.4Z"></path><path class="st16" d="M834.4,378.1c-.5-1.6-.5-2.7.2-3.4l9.3-3.2c.6.8.9,1.7,1.1,2.7,1.5,4.2,1.7,9.5,2.4,13.9-3.1.7-6.7,1.8-9.6,3.1s-1.1.3-.9,1.7l-1.1-1.1c-.7-2.4-2.5-10.5-2.2-12.5s.5-.9.9-1.3Z"></path><path class="st64" d="M845,374.3c-.2-.6-.6-1.3-.7-1.9l-9.8,3.4c-.2.8,0,1.6,0,2.3l-1.2-.6c-.8-2.6-1.4-6-1.6-8,4.2-2.9,7-5.6,10.6-9.1l2.9,13.9Z"></path><path class="st115" d="M587.8,1042c-.7.9-2,.7-2.9,1,.2-2.6,2.1-1,2.9-1Z"></path><path class="st16" d="M847.8,391.1c-.8-.4-.5-1.6-.5-2.4,0,.5.4,1.4.5,2.4Z"></path><path class="st115" d="M584.4,1042.9c0,0-.4.3-1,.5l1-.5Z"></path><path class="st81" d="M448.6,9.5c5.9-.2,23.2,5.8,29.7,7.7l-.6,1.4c-5.1,1.9-10.2,3.8-15.2,5.8l-1.4.4c-8.4-1.3-16.6-3.2-24.8-5.7l-1.2-.9-1.9-.5c-.2,1.3-.4,1.1-1,0l-1.4-.5c-.2,1.3-.4,1.1-1,0-1.2-.3-1.1-.8-.4-1.6,1.3-1.5,16.2-6.8,19.1-6Z"></path><path class="st106" d="M506.2,26.3c9.4,3.4,18.9,6.6,27.8,11v1.1c0,0-11.9,4.5-11.9,4.5l-1,1.2c-1.3,0-2.6,0-3.8-.5-7.6-2.7-15.3-5.6-22.8-8.5s-2.2-1.3-3.2-2.1c-2.8-1-1.6-1.9.4-2.9,4.1-2,9.9-3.7,14.4-3.8Z"></path><path class="st129" d="M478.4,17.2c9.6,2.8,18.4,5.7,27.8,9.1-4.4,1.7-10.4,2.9-14.5,4.9s-1.9,1.2-.4,1.8c-8.6-1.3-17.6-3.9-25.4-7.7l-1.4-.5c-.1.4-.3.4-.5,0l-1-.5c-.1.4-.3.4-.5,0,0-1.1.6-1.3,1.4-1.7,4.4-2.2,10.1-3,14.4-5.5Z"></path><path class="st137" d="M534.5,37.3l1,.5c4.1,1.3,9.2,3.8,13.3,5.7s9.2,4.3,13.6,6.8c-.6.7-1.4.8-2.4.2l-11.1,4.2c.6.6.8,1.2.6,1.9-.7,0-1.4-.1-2.1-.2s-1.4-.3-2-.5c-6.9-3-13.9-6.1-20.7-9.2s-1.2-.7-1.8-1.1-1.1-.9-1.7-1.4l-.5-1.7,13.4-5.1c.2,0,.3,0,.5,0Z"></path><path class="st88" d="M448.6,9.5c-1.9,0-15.3,5.2-17.5,6.3s-1.5.2-1.3,1.4c-7.5.2-15.4-1-22.6-3.4-1,0-2-.1-2.9-.5-.3.9-.7.9-1,0-2.7-.2-5.4-.8-1.5-2.8,6.1-2.6,12.4-4.7,18.8-6.3,9.3,1.4,18.7,2.8,27.8,5.3Z"></path><path class="st34" d="M624.7,85.8v1c-.1,0-11.2,3.8-11.2,3.8.8.5,1,1.1.7,1.8l-.9.6-21.7-13.4v-1.1c-3.6-1.7-.5-3,1.9-3.8,2.6-1.1,7-2.4,9.6-2.4,7.3,4.3,14.5,8.8,21.6,13.4Z"></path><path class="st126" d="M420.8,4.2c-.3.8-1.1,1-1.8,1.3-4.8,2-13.2,3.8-17.3,6.2s-1.1.5-1.1,1.1l2.9.5c-5.7.9-12.3.4-17.8-1.4-2.6,0-5.1-.1-7.7-.5-1.4,1.3-3.4,1.4-4.8,0,.8-1.3,2.8-1.7,4.2-2.3,5.7-2.2,11.7-3.9,17.4-6.1s2.2-.5,1.9-1.7c8.2.7,15.8,1.7,24,2.9Z"></path><path class="st62" d="M603.1,72.4c-2.8,2-9.6,2.8-12,4.6s-.1,1.1.5,1.7c-8.1-2.4-16.4-7.2-23-12.5-1.4-1.2.5-2.1,1.8-2.6,3.2-1.5,8.2-3,11.6-3.2,7.2,3.9,14.1,7.9,21.1,12Z"></path><path class="st69" d="M562.3,50.3c6.3,2,13.7,6.9,19.7,10.1-3.6,1.9-8.1,2.6-11.8,4.3s-1.3.6-1.7,1.5c-.5,0-1,0-1.5,0-2.3-.3-15.4-6.7-16.8-8.3s-.6-.8-.9-1.2c-.9-.5-1.6-1.5-2.9-1.4-.8-1,12.4-4.8,13.3-5.6.9.2,1.7.6,2.6.9Z"></path><path class="st122" d="M643.9,98.8c6.5,4.6,13.3,9.1,19.2,14.4l-.7.8c-3.9,1-7.6,2.3-11.3,4-7-3.3-13.9-8.3-19.2-13.9-1.1-.9-.9-1.4.3-2.1l10.1-3.6,1.6.4Z"></path><path class="st99" d="M624.7,85.8c6.5,4.2,12.9,8.5,19.2,13-3.3,1.4-7.2,2.3-10.5,3.7s-1.6.3-1.5,1.6c-5.1-1.7-11.1-5.3-14.4-9.6l-2.9-1.9c-.2.4-.3.4-.5,0-.6-.4-2.7-2-1.4-2.6l12-4.1Z"></path><path class="st128" d="M663.1,113.2c.2,0,.4,0,.5,0l1.4,1.4c5.4,3.7,10.3,7.8,15.4,12l-.6,1c-4,.6-7.8,2.1-11.4,3.8-6.4-3.2-12.6-8-17.3-13.4,0-1.1.6-1.3,1.4-1.7,1.6-.8,7.5-2.9,9.2-3.3s.8,0,1.3.2Z"></path><path class="st1" d="M696.2,140.1c5.7,5,11.5,10,16.8,15.4l-.9.6c-1.1-2-9.9,1.9-10.6,2.5,1.6,1,2.2,2.1,1.9,3.1-.1.7-.4.9-1,.4-5.6-4.6-11.2-9.8-16.5-14.9s-.7-.8-1-1.3-.5-1-.8-1.5v-1.2c1.8-1.6,9.9-5.2,12-3.1Z"></path><path class="st17" d="M680.4,126.6c5.4,4.4,10.6,8.8,15.8,13.4-.8-.3-1.3-.3-2.2,0-3,.9-7.4,2.5-9.8,4.4-.5,0-.9-.2-1.4-.3-1.7-.6-13-9.8-13.9-11.4s-.4-.8-.6-1.3c0-1.1.6-1.3,1.4-1.7,2.8-1.4,7.5-2.7,10.6-3.1Z"></path><path class="st92" d="M713,155.4c5,3.4,10.2,10.8,14.9,14.9-.6.6-1.4.4-2.5-.8-3.1,1-6,2.2-8.9,3.6.7.7,1.1,1.1.4,2l-1,.6c-.5,0-4.7-5-4.8-5.8-1.7-1.4-3.1-2.8-4.3-4.3-1.4-.6-3.5-2.3-3.4-3.8-1.1-1.1-1.9-1.7-2.8-2.7s-.7-.4-.5-1.2c3.1-.4,7.7-3.4,10.5-3.6s2.1,1.1,2.4,1.2Z"></path><path class="st74" d="M727.9,170.3c4.1,3.2,7.1,7.3,10.6,11l-.5,1.1c-2.4,1.1-7.9,3.3-10,1.8h-.8c-1.9-1.7-3.7-3.2-5.4-4.3-1.9.2-5.2-2.8-4.8-4.8-.6-.8-1.1-1.5-1.9-2.2,0-1,9-3.6,10.4-4.5.6,0,1.9,1.3,2.5,1.8Z"></path><path class="st97" d="M738.4,181.3c4.5,4.8,9.4,9.5,13.4,14.9-.6.6-1.5.3-2.7-.9l-6.5,2.6-1.4-.7c-4-1.8-7.8-5.3-10.1-9.1l-2.7-2.8c-.9-.4-1.1-.7-.6-1.1,3.8.1,6.9-2.4,10.6-2.9Z"></path><path class="st120" d="M751.9,196.2c3.6,3.2,6.2,7.5,9.1,11,.5,1.3-5.9,3.1-6.5,3l-1.2-.6c-4.1-3.2-8-6.8-11.6-10.8l-.4-1.7c2.3,0,6-2.8,8-2.8s2,1.3,2.5,1.8Z"></path><path class="st67" d="M761,207.3c.3.3,1,.6,1.4,1.2,3.8,4.6,7.3,9.5,11,14.2-2.1.3-4.2.5-6.2,1h-2.8c0,0-8.6-9.5-8.6-9.5l-.6-2-1.9-2.4,7.7-2.4Z"></path><path class="st106" d="M535.5,37.8l-1-.5c.5,0,.8.4,1,.5Z"></path><path class="st122" d="M665,114.6l-1.4-1.4c.9.5,1.1,1.2,1.4,1.4Z"></path><path class="st109" d="M353.6.4c-13.6,6.1-28.8,10.6-43.1,16.2l.4.6-1.7,1.1c-15.5,3.9-30.1,9.8-44.9,15.8-1.2.5-2.5.8-3.8.8-.4,1.8-2.6,3.1-4.3,2.4-11.1,2-22.6,5.7-33.6,9.5l-1.9-.3C258.4,17.1,306,2.2,353.6.4Z"></path><path class="st50" d="M219.7,46.9c-.9,1.3-1.8,2.6-3,3.7-6.3,5.6-12.6,11.2-18.9,16.8s-2.6,1.8-4,2.5c0,1.8-1,2.9-2.9,2.9-3.7,2-7.4,4.1-11,6.2-1.3,2.1-4.7,3.9-7.2,3.4-6.2,3.7-12.6,7-19.2,9.9l-10.5,5.8-2.5.6v1.1c-3.7,1.7-7.1,3.6-10.5,5.6l-1-.5c24.8-26.7,56.5-45.8,90.7-58.1Z"></path><path class="st6" d="M60.4,166.5c.7-.6,1.3-1,1.8-.2.7,1.1.4,14.3-1.3,16l.7.9c-10.5,15.9-19.4,33-26.8,51.2-.6,1-1.3,1.9-2.2,2.6,0-3.3-.5-6.7,0-10.3s2.9-2.3,3.3-3.5c.5-6.3,1-12.6,1-18.9-1.1-.2-.8.1-1.1.6-.5.8-1.4,2.4-1.8,3.2,6.9-15.1,16.2-28.8,26.4-41.8Z"></path><path class="st139" d="M89.2,149.2l-.7,2c-9.3,9.8-18.1,20-26.4,30.6l-1.2.5c.5-2.9.6-11,.5-14.2s.5-1.9-1-1.7c8.5-10.9,16.7-19.9,26.9-29.3,1.9-1.3,2.6-.7,3.2,1.3s-.5,8.5-1.3,10.7Z"></path><path class="st46" d="M220.7,46.5c10.3-3.6,24.3-8.2,35-9.9s1.2-.4.5.8l-.9,1.2c-9.6,5.8-19,11.8-28.4,18,0,1.4-.9,2-1.9,1l-4.9,2.8c-8.5,3.2-16.9,6.8-24.9,10.8-1.2.4-1.8,0-1.3-1.2,8.2-8.1,16.8-15.8,25.9-23,.3-.1.6-.4,1-.5Z"></path><path class="st63" d="M140.6,98.8c2.5-1.3,3.9-1.1,5.3,1.4,2.6-.8,3.7-.4,3.3,1l-.3,1.6c-2.8,3-5.8,5.8-9.3,8,.4,1.5-1,2.6-2.4,1.9l-5.4,4.9c-8.2,5-16.2,10.5-23.8,16.4l-2.5.8c-1.2.5-1.6-.1-1.1-1.3,0-1.4,14.8-19.8,17.1-22.1s3.7-3.1,5.7-4.5c.6-.5,1.3-1.5,1.9-1.9,1.3-.9,10.4-6.1,11.5-6.2Z"></path><path class="st59" d="M127.1,106.9c-6.9,6.5-15.7,18.1-21.2,26.1s-1.4,1.5-.4,1.8c.6,1.3-2.1,3.9-3.4,3.4-3.7,4.3-7.6,8.1-12,11.4l-1-.4c-1.2-2.8,2.8-13.2-1.9-12,9.7-9,20.1-17.3,31-24.9s5.7-4.1,8.8-5.4Z"></path><path class="st11" d="M.9,346.9c0-.2,0-.3,0-.5,0-1.8-.4-4.3.5-5.8,0,2,.4,4.6-.5,6.2Z"></path><path class="st11" d="M1.4,338.8c0-1.5-.4-3.7.5-4.8,0,1.5.4,3.7-.5,4.8Z"></path><path class="st6" d="M30.2,216.4c.6-1.7,1.2-3.4,2.4-4.8-.7,1.6-1.1,3.5-2.4,4.8Z"></path><path class="st6" d="M27.8,222.1c.2-.4.4-.7.5-1l-.5,1Z"></path><path class="st6" d="M28.8,219.7c.4-1,.4-2.2,1.4-2.9-.3,1-.5,2.1-1.4,2.9Z"></path><path class="st109" d="M326.7,14.3c-.4.8-1.6.5-2.4.5.5,0,1.4-.4,2.4-.5Z"></path><path class="st109" d="M323.4,14.8l-1.9.5c.3,0,1.1-.4,1.9-.5Z"></path><path class="st109" d="M320.5,15.3l-1.9.5c.4,0,1.1-.3,1.9-.5Z"></path><path class="st109" d="M318.1,15.7l-1.9.5c.5-.1,1.1-.3,1.9-.5Z"></path><path class="st109" d="M315.7,16.2l-1.9.5c.6-.1,1.2-.3,1.9-.5Z"></path><path class="st109" d="M313.3,16.7l-1.9.5c.6-.1,1.3-.3,1.9-.5Z"></path><path class="st25" d="M809.5,565.3c.6,1.6.3,3.1-1,4.3l-1.4,10.2c-17.4,71-39.2,142-73.5,206.8-.9,2.9-2.4,5.8-4.3,8.2-.9,1.9-1.7,3.8-2.4,5.8-3.6,9.5-8.9,18.6-15.4,26.4-17.8,32.1-39.3,62.2-62.4,90.7-.5,1.4-1,2.7-1.9,3.9-4.6,6.1-9.9,12.5-15.9,17.2-1.4,1.2-3.1,2.8-5.3,4.8-15.5,18-34.8,32.8-54.6,45.3l-2,.3c1.6-3.5,3.4-6.9,4.5-10.7s.8-5.1,1.3-7.6c1.6-.1,3.2-1.6,4.5-2.5,54.9-39,101.4-106.4,132.5-165.5s73.4-173.5,90.7-262.6c1.6-8.2,4.1-18.3,4.5-26.4.1-.4.3-.4.5,0l.6,1.3c.1,14.5.7,29,1.3,43.5-.4,2.3-.5,4.5-.4,6.6Z"></path><path class="st25" d="M522.5,1000.2c6.5,3,13,4.6,20.2,3.8-11.2,6-23.3,10.5-35.5,14.2-38.9,11.6-79.7,12.4-119,2.2-.8,1.1-3.4.5-3.4-1-12.4-4.9-24.2-11.5-35.6-18.5s-1.2-.9-1.7-1.4-1.1-1.1-1.6-1.7c-.6-.1-1.3-.2-1.9-.4s-1.2-.4-1.7-.7c-9.1-5.7-17.7-12.3-26.1-18.9l-1.1-1.6c16.6,9.7,33.5,18.8,51.6,25.4,49.5,18.2,101.1,19.4,150.7,1,1.7-.6,3.7-1.2,5-2.4Z"></path><path class="st25" d="M96.4,657.5c.2.5.3,1,.5,1.4l.5,1c0,.1,0,.3,0,.5l.5,1c0,.1,0,.3,0,.5l.5,1c17.1,49.4,39,100.3,65.7,145.3.5.8.9,2.3,2,2.1-.6.8-2.1,1.9-2.9,2.9-.3.3-.8.5-1.2.4-2-.5-20-29.4-23-34.3-8.7-14-17.2-28.3-23.8-43.4-.9-.8-1.5-2.1-1.9-3.4-1.8-.6-2.5-2-1.9-3.8-.9-1.3-1.6-2.8-1.9-4.3-9.2-18.6-16.7-37.9-22.4-57.9l-.2-2.5-.5-1c-.4-.1-.4-.3,0-.5l-.5-1c-.4-.1-.4-.3,0-.5,0-.4,0-1,.2-1.1,1-.5,8.5-2.9,9.4-3l1,.7Z"></path><path class="st72" d="M719.5,428.8c-1.5-8.5-8.3-30.2-19.3-28.9-3.5.4-6.9,1.1-6.2,5-3.5,3.1-5.7,5.3-4.6,10.3-.2,1.8-1.4,3-3.6,3.5-1,1.7-1.3,3.8-.8,6.4-2.5.7-3.8,3.2-4,7.3-.9,12.3-5,23.3-11.5,33.4-5.2-17.6-16,1.2-11.3,10.8,2.4,2.6,3.7,5.4,4.1,8.3-7.7,9.9-16.8,19.2-27,26.8-22.9,13.5-43,31.6-59.5,52.3-8,5.5-13.5,13-17.9,21.8-2.7,2.2-3.4,3.8,0,5.6-4.5,8.1-10,15.4-16.4,22.1l-16.4,14c-6.9,5.8-12,12.8-15.6,20.9-5.7,9.6-14,18.5-23,24.9-4.2-.6-7.7.4-10.3,3.2-12.6-.4-26.6,1.6-38.5,5.5-5.7-3.1-10.4-2.8-16.6-1-8.6.8-20.3.5-28.3-2.6-10.6-4.2-20.3-10.4-29.4-17.3-7.4-5.5-15.5-8.4-24.6-8.9l-8.3-2.8c-4.6-1.6-9.6.6-12.3,4.5-1.7,1.3-8,1.4-9.2-.4-2.2-3.5-3.9-16.1-1.1-19.1,3.7-2.8,7.1-5.6,9.2-9.9,2.9-6.2,2.7-20.1,2.6-27.2-.2-7.6-.9-13.7-4.9-20.5-1.2-4.9-2.2-9.9-3-14.9-4.8-8.6-9.6-17.4-13.9-26.2-9.6-8.8-24.7-15-36.9-8.2-10.1-10.1-20.5-3.9-30.6,2.4-2.1.7-3.6,1.7-4.5,3,0,.5.4.7,1.4.5l1.1.7c4.5-1.4,8.8-3.1,13-5.3,4-1.4,8.3-1.7,12.7-.8-.2.7.4.8,1,.5.9.6.9.7,0,.5-.8-.2-1.8-.4-2.9-.5-.3-.4-.8-.8-1.3-.8-10,.4-14.8,5.5-20.9,12.5-4.2,4.4-9.1,8.1-15.4,7.8-6.9-1.4-5.2,3-1.8,6.5.9.9,2,1.5,3.1,2.1-4.2,3-10.5,1-14.4-2.2-4.4-4.6-4.4-1.3-3.4,3.4.7,3.1,2.2,6,3.7,8.9-5.5-3.6-7.9-10.1-7.9-16.6-2.5-4.5-6.4,8.1-6.8,9.8-2.3,10.9-1.6,24.1,7.6,31.5-2.7.3-5.4,0-8-1l-1.3.5c-.8-.4-1.1-.2-.5.5,1.8,4,8.2,6.3,12.4,7.5,10.8,3.1,22.5,1.6,33.2-.9-.4,1.7,3.2,14,3.9,14.7,1.4,1.8,3.2.4,4.5-.8,1.7,2.7,3,5.7,4,9,1.2,3.2,3.2,4,6.4,4.3,1.7,3,4.1,5.5,7.1,7.6,2.2,1.9,2.9,4.6,2.7,7.6-.2,3.1-2.4,11.8-6.3,11.5-.4,2.9-.7,4.3-2.7,6.7-4,4.7-14.3,14.3-20.3,15.6-6,.1-9.2,1.1-12.1,6.6-14.6,9.8-21.5,26.3-27.1,42.5-3.4,10.7-7.2,21.3-11.5,31.5-1.9,4.7-1,8.4,1,12.7l-3.2,8.4c-2.6,11.6-6.4,22.6-11.4,33.1v1.5c-1.3-.2-3.6,1.4-2.7,2.9-2.7.6-5.3,5.3-5.3,8.2-1-.2-1.3.6-1,2.4-1,.6-1.7,1.4-2,2.5l-6.3,21.5c-4.9-2.3-8.8-1.3-13.4,1.6-19.8-42.7-32-87.4-43.6-132.8-.6-2.3-1.5-4.4-2.5-6.5,1.2-1.3.2-4.6-1.4-5.3-3.8-9.2-8.2-18.1-13-26.9l-4.1-9.4-1.6-1.5c9.5,57.3,24.5,113.8,46.3,167.5,2.7,6.7,6,13.4,8.4,20.1-3,.6-5.1,3.2-5.6,6.2-.3,1.6.2,3.6-.4,4.9-.9,1.9-4.5,3.6-5.6,7.3-.8,2.6.4,5.3-.1,6.6-.4.8-5.8,9-6.5,9.9-2,2.4-5.6,2.7-4.8,7.2.2,1,1.9,2.2,1.4,2.7-.2.2-1.8-.5-2.3,2.3-.5,2.9-.3,5,3,5,3.7,0,3.8-3.9,6.5-5.5,3.9-2.4,10.7-1.3,15.1-1.7,7-.6,13.9-1.6,20.9-2.2,35.7,63.1,86.1,120.7,155.4,147,28.9,11,64.7,19.4,95.6,20.8,1.6,0,3.2,0,4.8,0,1.1,0,2.2,0,3.4,0,5.2,0,10.6.1,15.8,0,1.1,0,2.2,0,3.4,0,1.4,0,2.9,0,4.3,0,7.7-.3,16-1.4,23.7-2.5,8.3-1.2,18.5-4.6,26.2-5.2.4-.2.4-.3,0-.5l-.9-.9c-10.4-.7-20.2-2.2-29.3-4.4-1.3-1.3-3.8-1.1-4.8.5-1.4-.3-2.9-.6-4.4-.5-16.8,1-32,1.7-49,.3-29.2-2.4-59.3-9.4-86.6-20.2-66-26.1-112.9-80.8-146.9-141.3-.3-.6,4.4-5.7,5.6-7,7.7-6.7,14.7-14,21-21.7v-1.2c.5,0,.6-.1.6-.5l1.6-.6,5.1-7.9v-1.6c.5-.2.5-.4,0-.5l.5-.5c2.1-1,4-4.4,5.1-6.6,11.4-22.7,20-47,28.3-70.7,2-5.6,6-11.6,11.5-13.8,6,8.5,14.1,15.1,22.4,21.8,5,6,9.9,11.1,16.1,16.1,12.1,9,23.7,18.3,34.7,28.6,10.5,9.9,21.1,19.8,25.4,34,4,9.2,10.7,16.4,17.7,23.4,16.3,16,34.4,31.2,52.4,44.9,5,1.7,8.4,4.7,10.1,8.9,3.2,2.8,6.9,4.9,11.3,6.5,5,5.9,10.8,9.6,18.2,12.3,4.2,2.4,8.1,5.2,11.6,8.6,21.3,13.7,43.3,26.8,65.9,38h1.3c1.8,2.6,6.7,3.6,10,4.2,3.6.7,6.7,1,10.2-.5,3,1.4,8.1-.5,11.4-1.8,6.9-2.7,11-6.5,15.6-12v-1.2c2.5-2.4,3.8-5.7,4.9-9.1.8-2.6,2-6.9.8-9.2,1.1-.5,1.2-.8,0-1l.5-1.9c1.3-1.3,2.1-3.2,2.4-5.6,4.9-12.1,5.4-24.2,3.3-37.3l-4.7-39.9c-.2-2.5,1.5-11.9,2.1-15,1.2-6.7,3.2-15.3,9.9-18.4,1.5-1.3,6.4-9.7,5.5-11.4-5.1-3.1-3.6-8.9-2-13.9,4.8-11,9.5-22,14.2-32.9,9.6-22.7-13.8-24.9-26.2-11.6-1.8,3-3.8,5.8-6.2,8.3-2.6,0-4.1,1.6-4.6,4.6-2.3,1.5-3.7,3.1-4.1,5.9-1,16.1-13.5,27.6-27.4,33.8-3.9,2.5-4,3-4.7,7.7-4.2.6-5.4,1.5-5.8,6.1-2.7,13,.3,23.2,13.1,29.2-1.6,6.7-3.8,13.1-6.6,19.4l-5.7,15.5c-.6,0-6.1-4.6-6.8-5.4-7-6.8-8-10.1-6.5-20.1,0-9.3-2.6-10-10.4-4.7-3.1.6-15.7-12-17.1-15.9-3.4-1.1-6-3.2-7.5-6.1-8.5-6.6-7-16.5-.4-23.8,4.9-9.3,9.4-18.8,13.4-28.6,4.9-8,8.9-16.2,11.9-24.8,1.1-2.8,2.5-6,5.8-6.6,10.1,0,6.9-8.1,4.3-14.2-.4-1.4-.6-2.8,0-4.2,2-5.4,4.4-10.7,7-15.9,13-26.3,26.9-52.5,41.1-78.4,5.7-10.5,20.6-23.9,32.3-26.8,2.5-1.4,15-13.2,16.5-15.5.9-1.5,1.3-2.7,1.7-4.5,9.9-14.1,19.1-29.1,27.6-44.4,8.2-14.9,18.1-27,30.4-38.5,4.5-4.2,7.7-5.2,13.7-4.7,10.1-.1,20.6-9.5,23.8-18.8,1.1-3.3,1-3.7-2-3.8,3.5-4.3,4.4-8.3,3.2-13.8-7.3-8.3-3.5-20,1.4-28.7,2.8-4.7,5.4-9.6,7.7-14.6.6-5.7,1.3-11.4,2.3-17.1.2-2-.3-3.3-1.7-3.8ZM443.6,718.5c-6.1,6.1-14.6,12.2-20.2,18.7-1.7,1.9-3.7,6.2-5.1,7.4-1.1,1-3,1.3-4.2,2-1.8,1.1-6.2,5.7-7.5,6-2.4.4-9.9-4.2-11.7-6-1.3-1.2-2.5-3.9-3.6-4.6-.8-.5-1.8-.4-2.4-.9-1-.9-.4-2.9-.9-3.9-.4-.7-2.8-1.1-3.8-2.4-1.3-1.6-1.2-4.3-2.3-5.6-2-2.2-7.8-2.1-7.1-6.6.1-.5.9-.6,1.3-.7,7-1.2,18.2.2,25.8-.1,6.8-.3,14.4-1.9,21.1-2,2.4,0,4.1,1.1,6.2,1,3.4-.1,5.5-2.5,8.3-3.3,2.2-.6,5.1-.2,7.3-1.1.2.9-.6,1.4-1.2,1.9Z"></path><path class="st23" d="M163.1,813c-1.8,2.4-4,5.5-5.3,8.2l-.9-.5c-10.5-18-20.2-36.2-29.3-54.7v-1.9s-.5-.5-.5-.5c-.4-.1-.4-.3,0-.5-.5-.5-.9-.9-1.3-1.4s-.8-1-1-1.6c-3.2-6.8-6.4-13.7-9.5-20.5s-.4-1.2-.5-1.8-.2-1.3-.2-2c.1-.3.3-.3.5,0,13.1,24.9,30,52.8,46.4,75.7.4.6.8,1.3,1.5,1.6Z"></path><path class="st95" d="M105.1,717.5c.3,1.5-.8,2.9-3.2,4.3.2,3.1-.5,5.3-2.2,6.5l-2.7-4.5c-2.3-4.4-4.7-8.7-6.8-13.1s-.4-2-.9-.8c-.4-1.7-1.1-3.6-1.4-5.3-2.6-12.1-4.1-24.5-6.7-36.5l1.7,2.1c7.6,14.7,14.8,29.7,21.6,44.8l.6,2.6Z"></path><path class="st31" d="M474.5,1045.8l1.1-.3c10-.3,19.9,0,29.7,1.1v1.2c-6.9,2.6-20.6,8.2-27.5,8.6s-21.3-2.4-28.7-4.2-1.8.3-1.5-1.1l1.8-1.2c7.5-2,16-3.9,23.6-4,.2,0,.3,0,.5,0,.3-.3.7-.3,1,0Z"></path><path class="st94" d="M127.1,763.1c0,.1,0,.3,0,.5l.5.5c3.8,6.1,6.9,14.1,10.3,20.7,6,11.6,13.1,22.6,19.2,34.1.4.8.9,1.4.8,2.4-.3.6-.7,1.7-1,2.4,0-.9-.5-1.5-.9-2.2-11.6-18.5-23.8-35.9-35-54.9h.7c-.4-1.9,3.9-5.4,5.6-3.4Z"></path><path class="st7" d="M473.1,1045.8c-8,1.1-16.9,4.1-25.4,5.3s-3.2.3-4.8.5c.9-1.4.4-.8-.6-1-3.5-.8-6.9-1.8-10.4-2.8l-.3-.9c.8-2.5,1.1-5.2.8-8.1l1-1.1c13,3.7,26.4,6.2,39.8,8.2Z"></path><path class="st135" d="M202.5,866.8c1,2.8-5.7,4.4-8.1,4.9l-1-.5-1.2-.4c-3-3.8-5.9-7.5-8.9-11.1,2.4-3.3,4.1-7,6.7-10.1,4.1,5.8,8.1,11.8,12.5,17.3Z"></path><path class="st19" d="M255.2,528.4c.4.1.4.3,0,.5-.9,0-2.3.4-2.9-.5.6,0,1.6.3,1.9-.5.3.1.6.3,1,.5Z"></path><path class="st98" d="M226,532.7l1.4.5c-1,.2-2.7,1.5-2.4-.5.3,0,.7,0,1,0Z"></path><path class="st29" d="M185.7,590.8l-.5.5c-.5-.4-1.3-.7-1.4-1.4,1-.3,1.4.7,1.9,1Z"></path><path class="st25" d="M183.3,859.6c1-.2,1,.6,1.5,1.2,2.8,3.6,5.8,6.9,8.6,10.4l1.7,1.1c9.7,11.9,20,23.4,30.3,34.8.9,1,1.5,2.2,2,3.4,1.2,2.1,3.2,4.2,5.8,5.4,10.6,10.9,21.4,21.6,32.4,32l1.7,2.4c1.7.9,3.3,1.8,4.7,3,7,5.9,13.9,11.8,20.8,17.8,1.4,1.2,2.6,2.7,3.7,4.2.8.4,1.6.7,2.4.7,4,2.9,8.6,6.5,11.5,10.3-43.2-26.7-79.7-63.6-110.6-103.7-5.3-6.9-10.2-14.1-15.3-21.1s-.7-1.4-1.7-1.4c.1-.2.4-.3.5-.5Z"></path><path class="st25" d="M575.3,970l.5-1.9c-.1.7-.4,1.4-.5,1.9Z"></path><path class="st36" d="M255.2,528.4c.4.2,1.5.4,1.4.7-.3.8-1.3-.2-1.4-.2v-.5Z"></path><path class="st135" d="M190,849c0-.4.5-.4.5-.5l-.5.5Z"></path><path class="st27" d="M70,610.9l1.3,1.1c1.3,3.4,2,7,2.3,10.7,0,0-.4-1.7.2-1.7,1.5-.7,2,.8.5,1.4l.5,2.4c1.3.3,1.2.8,0,1.4,1.5.5,1.8,2.6.5,3.4.5.4.5,1.1,0,1.4v.5l-.6,1c-2.3.5-4.5,1.2-6.7,2.2l-.9-.7-1.4-.8c-.9-2.3-1.7-4.6-2.4-6.8-.2-1.3-.8-3.5-1-4.8-.3-2.4-.2-5.3-.5-7.7v-1c2.4-.9,4.8-1.8,7.2-2.6l.9.7Z"></path><path class="st130" d="M67.2,634c3.6,4.8,5.9,11.4,6.7,17.3-1.6-.9-3.9.4-5.6.9s-1.3-.3-1.1,1.5c-1.5-9.1-2.7-18.1-3.8-27.4.5-1.2.7.5.8.9.9,2.3,2.1,4.6,3,6.8Z"></path><path class="st8" d="M75.3,631.6c.5.5.3,1.4,0,1.9.3.5.5,1.1.5,1.9,1.3,9.8,3.2,19.5,4.3,29.3-1.7-4.5-4.4-9-6.2-13.4s-4.4-11.6-6.7-17.3c2.6-.7,5.5-2.5,8.2-2.4Z"></path><path class="st25" d="M818.6,520.7c-.1.4-.3.4-.5,0-.9-3.1-1.1-6.4-.8-10-.7-14.3-1.7-28.4-3.1-42.3-1.4-.8-.8-4.2.5-4.8v-8.4c3.1-25.2,3.4-51.2,2.9-76.4l.9-1.6c3.3-1.5,8-4.2,11-6.2,0,2.2-.1,4.3,0,6.5,1.7,33.5-.7,67.5-4.8,100.7-1.7,13.7-5.4,29.1-6.2,42.5Z"></path><path class="st140" d="M802.7,382.5c.4,1,.9,2,1.2,3.1s.7,2.1.9,3.1c4.2,21.8,7.4,44.5,9.9,66.1v8.9c0,1.7-.4,3.2-.6,4.8.6,3.1.6,6.3,0,9.5-2,11.1-3.6,22.3-5,33.5l-1.1,2.5h-.5c1-17.5-2.4-42.4-4.3-60.2s-6.2-46.2-10.5-69.1l-.3-.3c-4.5-.3-9.5.4-13.9,0s-1.1-.5-1.2-.5c8.5,0,17.1.4,25.4-1.4Z"></path><path class="st61" d="M706.3,166c1.8.9,3.4,2.2,4.8,3.8.2.2.9.2,1.5.7,1.5,1.2,2.3,3.7,4.3,4.6,1.5,1.8,3.2,3.1,4.8,4.8,3.3,2.4,6.2,5.5,8.6,9.1l1.6.9c5.9,6,11.5,12.3,17,18.7.6,2.1,1.8,4,3.5,5.8,2.4.8,5.2,4.6,6.8,7,1.4,1.4,1.9,2.7,1.4,4.1-2.3.7-4.5,1.5-6.7,2.4l-1.9-.9c-2.8-3.3-5.5-6.7-8.2-10.1-1.1-1.7-2.1-2.4-3.4-3.8-13.1-19.7-29.1-38.6-46.4-55.3l-1.1-1.8c4.7,2.9,9.1,6.6,13.4,10.1Z"></path><path class="st26" d="M755.2,212.1c3.5,3.5,6.5,7.4,9.9,10.9s.9.7,2.1.6c-2.2.5-4.6,1.3-6.7,1.9-2-4-5.5-7.4-8.2-11l-4-5.1c-.5-2.7,3.2-2,4.4,0l2.4,2.8Z"></path><path class="st24" d="M749.7,227.4c-2.3-3.3-3.8-7.3-6-10.6,1.1-1.3-2-4.5-3.4-3.8l-.5-1.2c-12.8-15.6-29-28.8-44.8-40.9l-1.3.4c18.8,18.4,35.3,39.6,47.5,62.9,2.8-1.8,7.1-3.9,10.1-5.3-1.2,0-1.2-.7-1.7-1.4Z"></path><path class="st108" d="M805.6,658c-.7,1.9-1.2,3.9-1.9,5.8-29.9,79.6-71,157.4-120,226.7-45.4,64.2-100,125.8-174.6,155.8-1.3.5-2.6,1-3.8,1.4-.5-.8-1.8-.5-2.6-.5-9.3-.1-19.2-1.5-28.1-1.4-.4-.1-.4-.3,0-.5,9.9-1.3,25-7.4,34.4-11.4,46.8-19.9,84.5-52.1,117.7-89.8,1.1-2,2.9-3.9,4.8-5.3,6-6.9,12.1-13.9,17.8-21.1,22.7-28,45.1-59.2,62.4-90.7,5.3-8.7,10.4-17.6,15.4-26.4.4-2,1.5-3.8,2.9-5.3,1-2.9,2.5-5.7,4.3-8.2,27.2-53.7,52.7-108.2,71.6-165.5l1.8-3.5c-.1,12-1.6,23.8-2.4,35.7s-.3,3.2.5,4.1Z"></path><path class="st76" d="M619.4,1018.5l-1,.5c.3-.1.6-.3,1-.5Z"></path><path class="st115" d="M583.9,1032.4l-1,.5c0,0,.4-.3,1-.5Z"></path><path class="st115" d="M585.4,1031.9l-1,.5c0,0,.4-.3,1-.5Z"></path><path class="st115" d="M586.8,1031.4l-1,.5c0,0,.4-.3,1-.5Z"></path><path class="st115" d="M588.3,1030.9c-.2,0-.5.3-1,.5l1-.5Z"></path><path class="st88" d="M435.2,18.1l-1.9-.5c.8.1,1.5.4,1.9.5Z"></path><path class="st88" d="M432.3,17.7l-1.4-.5c.7.1,1.4.5,1.4.5Z"></path><path class="st81" d="M465.9,25.3c-.6-.2-1.1-.4-1.4-.5l1.4.5Z"></path><path class="st81" d="M464,24.9c-.3-.1-.8,0-1-.5.4,0,.8,0,1,.5Z"></path><path class="st126" d="M407.4,13.8c-.9,0-2.3.4-2.9-.5,1.1.1,2.1.4,2.9.5Z"></path><path class="st70" d="M385.8,11.9c-2.4-.3-5.5.6-7.7-.5,2.6,0,5.2.3,7.7.5Z"></path><path class="st34" d="M617.5,94.5l-2.9-1.9c.9.7,1.9,1.2,2.9,1.9Z"></path><path class="st41" d="M711.1,169.8c-1.7-1.3-3.2-2.5-4.8-3.8l.5-.5c1.3,1.4,3.3,2.6,4.3,4.3Z"></path><path class="st47" d="M727.9,184.2c1.1,1,2.3,2.7,3.4,3.8-.6,0-1,.3-1,1-3-2.9-5.8-6.1-8.6-9.1.4-1.1,1.3.1,1.7.5,1.5,1.4,3.2,2.6,4.6,3.8Z"></path><path class="st57" d="M731.2,188.1c3.4,2.9,6.8,6,10.1,9.1s8.5,8.4,12,12.5,1.3,1.6,1.9,2.4c-1.8-1.8-3.7-4.9-6.2-3.1s-.2.7.2,1.2c1.1,1.4,2.1,2.9,3.1,4.3-6.9-8.8-14.9-16.9-22.1-25.4s-2.1-2.5-2.9-3.8c.5-.4,3.3,2.4,3.8,2.9Z"></path><path class="st50" d="M358.4,29.2c.5,1.1-.1,2-1.7,2.5-6.3,2.5-12.7,4.8-19.1,6.9l10.6.6.6,1c-.7.2-1.3.5-2,.6s-1.3.3-2,.3c-39.5,1.1-77.8,2.3-115.7,15.3h-2.1c8.7-7.6,19-13.7,29.3-19.2,1.5-.8,2.8-1.7,4.3-2.4.5.9,1.7.4,2.4.3,33.3-5.6,61.6-7.7,95.5-6Z"></path><path class="st28" d="M187.6,76.2c.3.2.7.7.5.9-4.4,5.6-9.8,12.1-15.4,16.4.2,1.4-.3,1.7-1.4,1h-.5l-.5.5c-1.3,1.1-2.6,2.2-4,3-7.2,3.8-14.6,7.6-21.9,11.3s-3.2,1.2-4.8,1.5c3.1-2.8,6.4-6.8,9.6-9.6.2-.5.4-1,.7-1.5s.6-.9.9-1.2c6.8-6,14.5-11.5,21.9-16,2.4-1,4.8-2.4,7.2-3.4,2.4-2,5-3,7.7-2.9Z"></path><path class="st82" d="M172.7,82.5c1,.3-.7,1.1-.9,1.3-7.7,5.3-15.6,11.3-22.6,17.5-.9-1.2-2.3.3-3.5,0s-.5-3-5.1-2.3c3.3-2.5,7.3-4.6,11-6.5,6.9-3.6,14-6.7,21.1-9.8Z"></path><path class="st93" d="M225,57.5c.2.3.5.8.3,1-2.8,3-7.2,6.2-10.9,8.1.2,1.3,0,1.4-1,.5-7.7,4-16.4,7-25,8.6-1.7-1,1.1-2.8,2.4-2.9.9-1,1.9-1.9,2.9-2.9.3,1,1.4,0,1.9-.2,9.9-4.7,18.9-8.6,29.3-12.2Z"></path><path class="st49" d="M190.9,72.9c-.8.9-2.1,1.4-2.4,2.9.1,1-.3,1.2-1,.5-2.5,1-5.2,1.8-7.7,2.9-1.1-.4.7-1.1,1-1.2,2.7-1.6,5.5-3.2,8.2-4.8s1.6-1.3,1.9-.3Z"></path><path class="st117" d="M85.9,191.9c-4,.5-8,1.6-11.9,3.5l-2.3,4.1-1.1.2c6.4-16.4,14-32.3,22.9-47.4s5.6-9.8,8.7-14.1,2.3-2.4,3.4-3.4c9.8-8.6,21.4-14.6,31.7-22.1-4.9,6.1-10.3,11.7-15.1,17.8-14.4,18.4-26.8,40-36.3,61.4Z"></path><path class="st123" d="M85.9,191.9c0,.1,0,.3,0,.5-.8.5-1.2,1.2-1,1.9-.2.4-.3.9-.5,1.4l-1,1.9c0,.1,0,.3,0,.5l-1,1.9c-.2.4-.3.9-.5,1.4l-.5,1c-5.3,13.5-10.1,27.8-13.9,41.8-.8-.6-1-.5-.5,0l-10.2,3.7-1.8-.4c3.9-15.2,8.6-32.2,14.9-46.6l.5-1c0-.1,0-.3,0-.5.5-1,2.3-4.6,2.9-5s9.7-3.6,10.3-3.6c.9-.1,1.8,0,2.1,1Z"></path><path class="st14" d="M51.8,341.7c0,.6,0,1.3,0,1.9l-.5,5.8c0,15-1.1,30-1,45.1l-.7.9c-1.4-.2-9.3,2.7-9.4,3.2.4,3,0,5.6-1,8-.8-.5-.5-1.8-.5-2.6-.2-19.5.2-38.9,1.4-58.3l.7-1.8,9.3-3.3c1.2-.4,1.6,0,1.6,1.3Z"></path><path class="st75" d="M55.2,247.6c3.7-1.2,7.4-2.9,11.1-4s1.5-.9,1.3.6c0,.3,0,.7,0,1l-.5,1c0,.3,0,.7,0,1l-.5,1c0,.1,0,.3,0,.5l-.5,1.4c0,.2,0,.3,0,.5l-.5,1.4c0,.2,0,.3,0,.5l-.5,1.4c-3.2,13.4-6,27.2-8.2,40.8l-9.4,3.2c-.9.6-1.8.9-2.6,1.1,2.3-16,5.3-31.8,9.1-47.5l.5-1c0-.3,0-.7,0-1l.5-1c0-.3,0-.7,0-1Z"></path><path class="st111" d="M57.1,294.6c0,.3,0,.7,0,1l-.5,1.9c-2.1,14.4-3.8,29.8-4.8,44.2-.4-.9-1.6-.2-2.2,0-2.6.9-5.3,1.8-7.8,2.7s-1.2.3-1.5,1.1c1-15.6,2.6-31.1,4.8-46.6.5-.7.3-1.1,1.1-1.5,1.8-.9,6.5-2.3,8.6-2.9s1.8-.8,2.3.1Z"></path><path class="st30" d="M50.4,394.5c0,15.6,1.3,31,1.9,46.6l-.7,1c-3.2.5-6.3,1.5-9.2,3l-1.1-.6c-.9-12.5-2-25.2-1.9-37.9s0-6.1,0-9.1c3.7-.3,7.3-3.5,11-2.9Z"></path><path class="st12" d="M56.1,476.5c.9.1.9.5,0,1,.7,2.5.7,5-.1,7.6-.4,15.1-.3,29.9.1,44.3,1.5,7.7,1.7,15.7.5,23.5-5.6-24.2-9.1-48.8-12-73.4l.3-1.1c2.5-1.3,9.8-4.7,11.2-1.8Z"></path><path class="st61" d="M52.3,441c0,.6,0,1.3,0,1.9l.5,4.3c.5,8.3,1.4,17.4,2.4,25.6s.3,1.7.9,2.2c1.3.4,1.3,1,0,1.4-3.7-1.2-7.9,1.9-11.5,2.9-1.4-11.7-2.5-23.3-3.4-35,3.4-1.2,7.4-3.6,11-3.4Z"></path><path class="st52" d="M57.1,554.8c-.2-1.5-.7-4.8,0-6.1s8.9-3.4,9.2-3l.9,2.4c.7.5,1.1,1.7,1,3.4.3,1.4.3,3.3.5,4.8l1.3,10-.9,1.6c-3,.3-5.9,1.3-8.6,2.9-2.1-4.2-3.2-8.8-3.4-13.9,0-.6,0-1.3,0-1.9Z"></path><path class="st101" d="M62.8,525.5c1.3.2,1.2.4,0,1l.5,1.4c2.6,6.4,3.9,13.3,3.8,20.2-.2-.6-.4-1.5-1.2-1.4-2.7.3-6,2.7-8.9,2.9-.1,1.7,0,3.5,0,5.2-.7-.3-.5-1.3-.5-1.9-.2-7.8-.4-15.7-.5-23.5-.4-1-.4-1.9,0-2.9,1.2-1.4,6.1-3.7,6.7-1Z"></path><path class="st4" d="M69.6,609l.5,1c1.3.1,1.2.6,0,1l-8.2,2.9c-.7-6.2-2-12.4-1.9-18.7-.8-3.3,0-5,2.8-5.2l1.5-1c.1-.4.3-.4.5,0,.5.6,1.1,1.2,1.4,1.9.9,3,4.3,15,3.8,17s-.2.8-.4,1.2Z"></path><path class="st127" d="M60.4,570.6c2.7,5.6,4,12.1,3.8,18.2.9,2.2-3.8,2.3-4.3,2.9s0,2.5,0,3.3l-1.4-12.7c-.2-8.6-1.2-17.1-1.4-25.7,1.1,4.6,2.3,9.3,3.4,13.9Z"></path><path class="st117" d="M70,201c.2-.4.3-.7.5-1l-.5,1Z"></path><path class="st123" d="M54.2,251.4c.2-.6.5-.9.5-1l-.5,1Z"></path><path class="st123" d="M54.7,249.5c.2-.7.5-.9.5-1l-.5,1Z"></path><path class="st68" d="M365.1,29.7c.6,0,1.3,0,1.9,0l4.3.5c.6,0,1.3,0,1.9,0l3.8.5c.5,0,1,0,1.4,0l3.4.5c.5,0,1,0,1.4,0l3.4.5c18.9.8,41,6,59.5,10.1-.1.3-.2.6-.4.9-1,1.5-14,6.1-17.4,5.3-.2.2-.4.5-.7.6-.4.2-6.6-.6-7.8-.8s-.4-.2-.6-.3c-3,1.2-7.3.7-10.1-1-.4,1.5-3.1.9-3.4-.5l.2-.5c-9.2-1.1-18.4-2.5-27.6-3.4-1.3,0-2.6-.1-3.8-.5-.5,0-1,0-1.4,0l-4.3-.5c-.6,0-1.3,0-1.9,0l-5.3-.5c-.6,0-1.3,0-1.9,0l-7.7-.5c-1.1,0-2.2,0-3.4,0l-15.8-1c7.2-3,14.9-5,22.1-7.9s2.7-1,3.4-2.2c.2,0,.3,0,.5,0l6.2.5Z"></path><path class="st86" d="M684.2,148.7c3,2.2,5.9,4.7,8.6,7.2,17.9,16.1,34,35.1,47.1,55.3.3.4,1.4,1.5.4,1.8-11.3-12.9-27.1-26.6-40.6-37.4-1.8-1.5-3.9-3.3-6-4.3-1.9-1.8-3.8-3.5-5.8-5.3l-22.7-18.3c-1.1-1-2-2.1-2.7-3.3,0-.7.6-1.2,1.7-1.4-3.9-.1-3.5-7.3-.7-8.2.6,0,1.1.2,1.6.3s1,.3,1.4.6c6,4.1,11.8,8.5,17.6,13Z"></path><path class="st2" d="M550.8,74.8c-1.3,1.2-4.8.2-5.3-1.4-1.5,0-3.1,0-4.6-.5-7.8-2.3-15.7-4.6-23.5-7s-2.8-1.3-4.1-2.1c-7-.7-14-2.1-20.9-4-8-1.3-15.7-3.1-23.3-5.6-.2.2-.3.2-.5,0l-1.9-.5c-.2.4-.3.4-.5,0l-1.9-.5c-.2,1.3-.4,1.1-1,0l-1.9-.5c-.2,1.3-.4,1.1-1,0l-1.9-.5c-.7.1-1.3.3-2,.3s-1.3.1-1.9,0c-7.6-1-15.2-2.1-22.7-3.3s-2.5-.8-3.6-1.4c2,.6,2.9-.7,4.3-1.2,4.5-1.6,9.2-2.9,13.4-5,35.8,8,71,18.6,104.6,33.1Z"></path><path class="st51" d="M550.8,74.8c4.2,1.4,8.3,3.2,12.5,4.8l9.9,4.2.2.6.5.5c.2-.4.3-.4.5,0,1.3,1,0,1.7-1.2,2.3.7.6,1.2,1.2,1.5,2,9.5-4.8,7,7.6-1.3,5.3,0,.4-.2.4-.5,0l-.5-.5c-.1.4-.3.4-.5,0l-1-.5c-.1.4-.3.4-.5,0l-.5-.5c-1.8,0-3.6-.3-5.3-.9l-22.1-8.7c-.1,0-.3,0-.5,0-.3-.1-.3-.3,0-.5-.5-.7-.2-1.4.7-2-1.5-2.5-.6-4,1.6-5.4,0-1.1.4-1.8,1-2.2,1.7.6,3.7.9,5.3,1.4Z"></path><path class="st102" d="M638.6,116.1c1.1,1.2,1.7,2.5,1.9,3.8-9.2-3.8-18-8.9-25.9-14.9h-1.2c-12.3-6.7-24.8-12.9-37.6-18.6l-1.5-1.6c-.1,0-.3,0-.5,0l-.5-.5c-3-1.9-7.1-2.8-10.1-4.8,26.9,10.1,50.8,21.6,75.3,36.5Z"></path><path class="st38" d="M684.2,148.7c-6.6-4.9-13.8-9.3-20.6-13.9-.4,0-.8,0-1.2,0s-.8-.1-1.1-.3c-6.3-3.8-12.5-7.9-18.6-12-.6-.6-.9-1.2-1.1-2l-.5-.5c-.1.4-.3.4-.5,0-1.4-1-2.3-2-1.9-3.8,2.3,1.4,4.8,2.6,7.2,4.1,13.4,8.6,26.4,18.1,38.4,28.5Z"></path><path class="st50" d="M365.1,29.7c-2,0-4.6.4-6.2-.5,2,.1,4.6-.5,6.2.5Z"></path><path class="st50" d="M371.4,30.1c-1.4,0-3.4.4-4.3-.5,1.4,0,3.4-.4,4.3.5Z"></path><path class="st50" d="M377.1,30.6c-1.2,0-3,.4-3.8-.5,1.2,0,3-.4,3.8.5Z"></path><path class="st50" d="M381.9,31.1c-1.1,0-2.7.4-3.4-.5,1.1,0,2.7-.4,3.4.5Z"></path><path class="st50" d="M386.7,31.6c-1.1,0-2.7.4-3.4-.5,1.1,0,2.7-.4,3.4.5Z"></path><path class="st72" d="M363.7,341.2l7.7,123.4c13.7-.7,28.7,1.5,42.1-1.3s20.8-17.1,22.2-33.5v-88.6s27.8,0,27.8,0v89.1c-1.6,35.3-14.7,52.3-51.1,54h-67.4s-9.1-143.1-9.1-143.1h27.8Z"></path><path class="st72" d="M565.7,317.2v24h55.2l-35.5,143h-28.3l29.7-121.8c.3-.5-.3-1.5-.6-1.5h-47.7v-43.7h27.4Z"></path><path class="st72" d="M526.4,341.2v110.7c-.7,12.4-2.3,24.8-15.2,29.9s-7.8,2.5-10,2.5h-30.5v-19.7h15.1c2.2,0,6.6-2.1,8.2-3.8s3.6-7,3.6-9.4v-89.8c0,0-.7-.7-.7-.7h-19v-19.7h48.5Z"></path><path class="st72" d="M489.4,300.4h-12v-82.8c-.2-10.8-5.6-22.8-18-22.8h-16.6v105.6h-29.3v-8.6h17.8v-97h-10.6v-8.6c12.1.4,24.7-.6,36.7,0,22.9,1.1,30.6,9.7,31.9,32.4v81.8Z"></path><path class="st72" d="M289.3,186.1h12v73.7c-1,22.3-5.9,31.4-27.6,37.6-11.4,3.3-23.5,5-35,8.2l-2.7-8.6,18.3-4.1-13.5-106.8h11.8c.3,0,.7.8.7,1.2l12,101.7.4,1c7.1-1.1,16.4-4.4,20.1-11.2s2.7-10.6,3.5-15.7v-77.1Z"></path><rect class="st72" x="388.2" y="341.2" width="25.9" height="91.2"></rect><rect class="st72" x="291.7" y="341.2" width="28.8" height="82.1"></rect><polygon class="st72" points="187.6 167.4 187.6 186.1 230.8 186.1 203.4 300.4 191.4 300.4 216.9 194.8 176.1 194.8 176.1 167.4 187.6 167.4"></polygon><polygon class="st72" points="582 167.4 582 186.1 625.2 186.1 597.4 300.4 585.4 300.4 610.8 194.8 570.5 194.8 570.5 167.4 582 167.4"></polygon><path class="st72" d="M378.6,186.1v114.2h-12v-104.9c0,0-.7-.7-.7-.7h-49.2v-8.6h61.9Z"></path><path class="st72" d="M532.6,186.1l10.6,114.2h-11.5l-2.6-23.5c-1.9,9.6-7.6,18.8-17.3,22.1s-4.9,1.4-5.8,1.4h-7.9v-9.6h7.9c15.5,0,22.9-19.3,21.8-32.4l-5.8-63.6h-16.3v-8.6h26.9Z"></path><rect class="st72" x="317.6" y="226.9" width="12" height="73.4"></rect><rect class="st72" x="551.3" y="186.1" width="12" height="63.4"></rect><path class="st116" d="M341.6,45.5c3.1-.3,6.2-.4,9.3-.1s.2,9.3-.2,9.6c-2.5.4-5.1.6-7.7.6-12.5.5-25.4,1.5-37.9,2.9-.5-.8-.1-1.3,1.1-1.6,0-2.7.3-5.4.8-7.9-1,.8-2,.2-2.8-.6l16.1-1.9c7.1-.3,14.2-1,21.3-1Z"></path><path class="st105" d="M304.2,48.4c1.1,0,2.2,0,3.4,0,0,3.1,0,6.3-.5,9.3s-1.7,0-1.9.8c-13.6,1.5-27.4,3.6-40.8,6.2-.2-3.7.3-7.3,1.4-10.6,11.9-2.2,26.4-5.6,38.4-5.8Z"></path><path class="st18" d="M85.9,623.9l-.6.9c-3.4,1.3-6.8,2.1-10.1,2.5l-.4-1c0-.5,0-1,0-1.4l-.5-2.4c-.1-.4.2-1.1-.5-1.4-1.7-10.5-3-21.6-4.2-32.4s0-.5.2-.9.3-.6.6-.9c-2-6.2-2.4-12.8-1.4-19.2-.3-3.8-.2-7.9-.5-11.5,5.3,22.7,10.7,45.3,17.3,67.7Z"></path><path class="st22" d="M85.9,623.9c3.3,11.2,6.8,22.5,10.6,33.6l-10.6,3.4c-3.4-10-7.2-19.9-9.9-30.2s-.2-2.2-.7-1c0-.9-.4-2.1-.5-3.4,3.7,1.1,7.3-2.8,11-2.4Z"></path><path class="st81" d="M157.4,113.7c1.6-1.4,16.8-7.6,17.4-6s-.3,1.3-.6,1.7c-5.9,7.7-12.5,17.3-17.8,25.4-4.6,1.7-9.3,3.4-14.2,5.3l-1.6-.5c5.4-9,10.7-17.3,16.8-25.9Z"></path><path class="st106" d="M143,157.8c-4.9,9-9.2,18.3-13.9,27.4-1.6-1.7.3-.8-.1-.5-.6.4-8.8,3.4-9.9,3.7-1.6.8-2.7.7-3.4-.3,4.1-9,7.9-17.1,12.5-25.9,1.6-1.8,13-6.4,14.7-5.5s.2.7.1,1.2Z"></path><path class="st71" d="M265.8,54.1c0,3-.2,6-.4,8.9s0,1.2-1,1.6c-.2,0-.3,0-.5,0l-1.9.5c-9.6,1.9-19.4,4.2-28.8,6.7l-.7-1.4c.6-3.1.5-6-.2-8.7,9-2.4,17.2-4.3,26.4-6.2l1.9-.5c.2,0,.3,0,.5,0l1.9-.5c.2,0,.3,0,.5,0l1.9-.5c.2,0,.3,0,.5,0Z"></path><path class="st73" d="M545.5,73.3c.7,3.1-.9,3-2.1,4.3s-.4,2.2.5,2.4,2.4-1.1,2.6,0c-2.2.2-2.8,1.6-4.3,2.9,0,.3-.4.3-1,0-3.7-1.2-7.3-2.7-11-3.8l-17.9-6.1c-1.2-.4-2.3-1.3-3.2-2.1.6-3.3,1.2-5.6,4.3-7.2,11,2.9,21.4,6,32.1,9.6Z"></path><path class="st88" d="M195.7,84.4c-7.4,7.8-15.1,16.5-21.6,25,1.4-1.6-1.4-.9-1.9-.7-4.9,1.3-9.8,4.2-14.8,5.1,4.1-5.8,9.3-14.2,13.9-19.2s1-.6,1.4-1l3.2-2.3,18.9-7.5.9.7Z"></path><path class="st60" d="M115.6,188.1c4.2-.1,9.3-3.7,13.2-4.3s.5.6.2,1.4,0,.3,0,.5l-1,1.4c-3.1,7.9-6.9,15.6-10.1,23.5-4.2.5-8.6,2.2-12.4,4l-1-.2c1.4-4.6,3.2-9,5.1-13.4s4-8.6,6-13Z"></path><path class="st114" d="M232.2,61.8c1.7,0,1.3-.3,1.4,1.2.2,2.9,0,6.1-.5,8.9-12.1,3.3-24,7.6-36,11.5-.9-.4-.9-1.1-.3-1.8,4.6-5.3,10.7-10.7,16.6-14.5.3-.1.6-.4,1-.5,5.9-1.8,11.8-3.2,17.8-4.8Z"></path><path class="st129" d="M156.4,134.8c0,.1,0,.4,0,.5l-1.4,1.9c0,.1,0,.4,0,.5l-1,1c0,.1,0,.4,0,.5-.5.4-.8.9-1,1.4-3.3,5.7-6.9,11.5-10.1,17.3-.8-.9-2.8,0-3.7.3-3.7,1.2-7.4,2.9-11.1,4,4.1-8,7.9-14.8,12.5-22.6,4.5-1.3,9.1-3.7,13.5-5s1.5-.5,2.3.2Z"></path><path class="st90" d="M379,45c.4.1.9.3.9.6,0,.9-.6,8.5-.8,8.9s-.6.5-1,.6c-11.6-.2-23.4,0-35,.5l6.7-.5.5-9.6c-2.9,0-5.8,0-8.6,0,.5-.8,1.8-.5,2.6-.5,11.7-.1,23.1-.3,34.8,0Z"></path><path class="st125" d="M405.9,46c.8,0,2.1.4,3.4.5,3,1.1.1,3.3-1.8,4-.6,1.6-.8,3.4-.6,5.5-1.7.3-3.4.4-5.3.2-7.7-.5-15.9-.8-23.5-1l1-10.1c3.8,0,8.1.5,11.8.5h7.2c2,0,5.6.3,7.9.5Z"></path><path class="st99" d="M83.5,279.7c.8-1.8,11.8-5.6,12.3-5.2.3.5.4,1.1.1,1.8,0,.1,0,.3,0,.5l-.5,1.4c-2,7.4-4,15.1-5.8,22.6-4.4.8-8.5,2.1-12.5,3.8,1.9-8.4,4-16.7,6.2-25Z"></path><path class="st37" d="M213.5,67.1c-5.2,5-10.6,9.7-15.6,14.9s-.6,1.3-.7,1.5c-.2.2-.9.4-1.4,1l-23,9.1,14.9-17.3c.3-.1.6-.4,1-.5,8.2-3.2,16.5-6,25-8.6Z"></path><path class="st131" d="M419.4,47.4c4.8.6,9.9,1.4,15.3,2.5l1.5,1.3c0,2.6-.2,5.2-.7,7.7h-1.7c-10.5-1.2-21.7-2.3-32.1-2.9h4.3c.2-1.7-.5-5,.7-6.2s4-1.2,2.6-3.4c3.4.2,6.8.7,10.1,1Z"></path><path class="st33" d="M570,93l.5.5c.1,0,.3,0,.5,0l1,.5c.1,0,.3,0,.5,0l.5.5c.1,0,.3,0,.5,0,.8,0,1.5.2,2.3.3s1.5.3,2.1.6c10.7,4.7,21.5,9.5,32,14.9s1.2.8,1.8,1.3,1.1,1,1.7,1.6c.7,0,1.4.2,2,.4s1.3.4,1.9.7c6.8,3.6,14.1,7.7,19.6,12.9,2,1.2.9,3.1-1,3.4-11.4-5.8-22.6-13.4-34.1-19.5-19.2-10.1-39.1-18.9-59-27.6,9.2,3.1,18.2,6.5,27.4,9.6Z"></path><path class="st34" d="M90.2,256.7c.7-1,1.8-1.6,3.4-1.8l8.2-3c1.1-.3,1.4.3.8,1.9-2.3,7.4-4.6,15.1-6.7,22.6.2-1.5-.4-.9-1.3-.6-3.8,1.1-7.4,2.9-11.1,4,2.1-7.8,4.4-15.4,6.7-23Z"></path><path class="st20" d="M77.2,304.7c.5-.7.2-1.1,1.2-1.5,2.5-1,6.8-2.5,9.4-3.1s2.2-.8,1.9.7c-1.8,7.7-3.7,15.7-5.3,23.5-1.7-.5-3.5-.2-5.7,1-2.2,1.1-4.3,1.7-6.3,1.9,1.5-7.6,3.1-15.1,4.8-22.6Z"></path><path class="st69" d="M104.6,214.5c.3-.4.4-.7.9-.9,1.8-.9,8.5-3.1,10.6-3.7s2.2-.8,1.9.7c0,.1,0,.3,0,.5l-1,1.9c0,.1,0,.3,0,.5l-.5,1c-2.3,5.8-4.6,11.9-6.7,17.8-3.9.8-7.8,2.1-11.6,3.9l-1.3-.6c1.6-4.7,3-9.5,4.8-14.2s1.7-5.4,2.9-7Z"></path><path class="st21" d="M96.9,235.6c3.6-1.1,7.8-3.3,11.4-4.2s1.8-.5,1.6.9c0,.1,0,.3,0,.5l-1.4,3.4c-1.7,6-3.9,11.8-5.8,17.8.2-1.4-.5-1-1.5-.7-3.6,1.1-7.3,3.2-11,3.6,2.2-7.1,4.3-14.1,6.7-21.1Z"></path><path class="st1" d="M77.7,362.3c0,.2,0,.3,0,.5,0,.7-.2,1.4-.5,1.9l-2.9,20.6c-.9,0-1.1-.4-1-1.2-.9-.4-8.3,2.7-9.6,3.5l-1-.4c.9-7.1,1.8-14.1,2.9-21.1l.7-1.8c3.3-1.4,6.8-2.4,10.3-3l1,.9Z"></path><path class="st92" d="M62.8,387.3c1-1.4,11.1-4.8,11.5-4.3v2.4s-2.4,20.6-2.4,20.6c-.6-.3-1-.9-1.1-1.7l-8.6,3.1c-.5.9-1.1,1.3-1.8,1,.7-7.1,1.5-14.1,2.4-21.1Z"></path><path class="st17" d="M81.1,341.7c0,.3,0,.7,0,1l-.5,1.9c-1,5.9-2,11.9-2.9,17.8-3.6,0-7,1.7-10.4,2.8s-1.2.1-1.6,1c1-6.9,2.2-13.8,3.4-20.6l.7-1.2,10.4-3.3,1,.7Z"></path><path class="st128" d="M72.4,327.3c.4-.8.8-.8,1.5-1.1,2.3-.9,6.7-2.6,8.9-3.1s1.7-.3,1.6,1.3c0,.3,0,.7,0,1l-.5,1.4c-1,4.9-2,10-2.9,14.9l-12,3.8c1.1-6.1,2.2-12.2,3.4-18.2Z"></path><path class="st104" d="M56.1,477.5l.4-.9c.9-.5,10.1-3.4,10.5-3.1s.3.3.3.5c.1,3.1,0,6.2-.2,9.3,0,11.8,0,23.7,0,35.5-1.6-2.8-1.9-8.2-.5-11-1.1-4.8-1.4-9.8-1-15l-6.7,2.2-.9-.7c-1.3.6-1.2-2.4-1.1-2.3.2,8.6.3,17.1.2,25.7s-.5,5.8-.9,8.7c0,1,0,1.9,0,2.9-.8-.5-.5-1.8-.5-2.6-.2-16.4-.1-32.9.5-49.2Z"></path><path class="st67" d="M68.1,456.4c0,.8,0,1.6,0,2.4l-.5,8.2c0,4.6,0,9.1,0,13.7s.3,2.1-.5,2.6c0-3,0-6.1,0-9.1-.4-.5-9.4,3.7-11,3.4,0-.3,0-.6,0-1,0-.5,0-1,0-1.4.2-4.1,0-8.9.5-13,.1-1.3.3-2.6.7-3.8l9.4-3.2c1.1-.3,1.4,0,1.5,1.2Z"></path><path class="st97" d="M70.5,420.9c-.5,6.2-1.1,12.7-1.4,18.7-3.3.7-6.6,1.7-10.1,3.2,0,1.1-.3,1.5-1.4,1.1.4-6.6.9-13.1,1.4-19.7l.7-1c.8-.4,9.2-3.2,9.7-3.1s.8.4,1.1.8Z"></path><path class="st74" d="M60.4,408.4c.5-.6.5-1.4,1.3-1.8s8.7-3.2,9.6-3.4.6,2,.7,2.8c0,5-1.1,10-1.4,14.9-3.9.7-7.6,3.2-11.5,3.4.4-5.3.9-10.6,1.4-15.8Z"></path><path class="st120" d="M57.6,443.9c.7-.4.1-1.6.8-1.9s8-2.8,9.2-3.1,1.7-.7,1.5.8c0,.6,0,1.3,0,1.9l-.5,5.8c0,3.1-.4,6.2-.5,9.1-.5-.7-2.2,0-2.9.2-2.7.9-5.3,2.2-8.1,2.7.3,1-.5,2.3-.5,2.8,0-6.1.6-12.2,1-18.2Z"></path><path class="st96" d="M436.1,51.3l1.8-.6c6.5,1.6,13.1,3,19.7,4.2l1.5,1.2,1,.5c.3-.9.7-.9,1,0,.4.1.4.3,0,.5,0,1-.9,1.9-2.9,2.6-.3,2.5-.9,2.7-3.4,2.2-6.9-1.1-14.3-2.1-21.1-2.9,1.5.3.8-.8,1-1.6.3-1.6.3-2.8.5-4.4s-.5-1.9,1-1.7Z"></path><path class="st14" d="M662.6,144.4c8.9,6.7,17.3,14,25.4,21.6-9.1-6.2-17.7-12.9-26.7-19.1-7.6-5.2-15.4-10.2-23.2-15l-1.9-1.4c-.1,0-.4,0-.5,0,0-1.5,2.2-1.9,1-3.4.6.1,1.3.2,1.9.4s1.2.4,1.7.7c6.7,4.1,13.6,8.5,19.9,13.2s.9.8,1.3,1.3.8,1.1,1.1,1.6Z"></path><path class="st110" d="M461.1,57c.2-.4.6-.3,1,0,.1-.9.5-.9,1,0l1,.5c.2-.4.3-.4.5,0l1.4.5c.1-.4.3-.4.5,0l1.4.5c.1-.4.3-.4.5,0l1,.5c.1-.4.3-.4.5,0,5.9,0,12.3,2.2,17.3,5.3.3,1.6,0,2.7-1,3.4-10-2.1-21.1-4.2-31.2-5.8,2.9.7,1.6-1.6,2.7-2.9s3-1.8,3.6-1.9Z"></path><path class="st84" d="M487.5,64.2l1,.5c5.7.4,12.6,2.2,18,4.4s1.9,1.1,2.6,1.9c7.1,2.4,14.2,5.2,21.1,8.2-14.1-4.3-29.8-8.4-44.1-11.5,0-1.2-.4-2.9,1-3.4.1-.4.3-.4.5,0Z"></path><path class="st77" d="M66.7,507.7c0,3.7.4,7.6.5,11s0,3.5,0,5.3c0,1.5-3.6,2.3-4.3,1-2.4-5.2-3.4-11.1-2.9-16.8,2.1-.4,4.1-.9,6.1-1.5l.6,1Z"></path><path class="st134" d="M67.2,524.1c0,.5,0,1,0,1.4l.5,13c.1,4.3.8,8.6.5,13-.1-.7-.7-2.6-1-3.4-1.3-6.7-2.6-13.4-3.8-20.2l-.5-1.4c0-.3,0-.7,0-1-.3-.2-.3-.3,0-.5l4.3-1Z"></path><path class="st77" d="M67.6,538.5c-.9-4.1-.4-8.7-.5-13,1,4.1.4,8.7.5,13Z"></path><path class="st120" d="M67.6,466.9c0-2.6-.4-5.8.5-8.2-.1,2.6.5,5.8-.5,8.2Z"></path><path class="st97" d="M68.6,447.3c0-1.8-.4-4.3.5-5.8-.1,1.8.5,4.3-.5,5.8Z"></path><path class="st17" d="M77.2,364.7l.5-1.9c0,.6.3,1.6-.5,1.9Z"></path><path class="st128" d="M80.6,344.5l.5-1.9c-.1.8-.4,1.5-.5,1.9Z"></path><path class="st105" d="M263.9,64.7l-1.9.5c.5,0,1.2-.3,1.9-.5Z"></path><path class="st34" d="M95.5,278.3l.5-1.4c-.2.6-.4,1.1-.5,1.4Z"></path><path class="st69" d="M108.4,236.1c.3-1.2.4-2.5,1.4-3.4-.4,1.1-.4,2.5-1.4,3.4Z"></path><path class="st20" d="M83.9,326.8l.5-1.4c-.1.7-.5,1.3-.5,1.4Z"></path><path class="st106" d="M128.1,187.1c0-.7.3-1.2,1-1.4-.3.7-.9,1.2-1,1.4Z"></path><path class="st81" d="M153,140.5c0-.7.3-1.2,1-1.4-.3.6-.7,1-1,1.4Z"></path><path class="st81" d="M155,137.2c.4-.7.6-1.6,1.4-1.9-.4.7-.5,1.6-1.4,1.9Z"></path><path class="st33" d="M638.2,131.9c-.7-.4-1.6-.5-1.9-1.4.7.4,1.6.6,1.9,1.4Z"></path><path class="st60" d="M117.1,213l1-1.9c-.3.8-.8,1.5-1,1.9Z"></path><path class="st60" d="M116.6,214.5l.5-1c-.2.5-.4.8-.5,1Z"></path><path class="st33" d="M542.2,82.9v.5c-.5-.2-.8-.4-1-.5h1Z"></path><path class="st22" d="M97.4,659.9l-.5-1c0,0,.3.4.5,1Z"></path><path class="st22" d="M97.9,661.3l-.5-1c0,0,.3.4.5,1Z"></path><path class="st22" d="M98.3,662.8l-.5-1c0,.1.3.5.5,1Z"></path><path class="st81" d="M154,138.6l1-1c-.3.6-.9.9-1,1Z"></path><path class="st91" d="M303.2,967.6c4,2.9,8,5.8,12,8.6,10.2,7.2,20,14.9,30.7,21.6.8,1.5,1,6.2-.5,7.2-7.6-1.4-15-5.8-21.6-9.9s-3.6-2.3-5.3-3.5c-2.8-1.7-5.5-3.4-8.2-5.3-4.8-3.4-9.3-7.4-13.9-11,.2-.9.6-1,1.4-.7-.1-2.8.1-5.5.7-8.2l1.2-.7c1.2.4,2.3,1,3.4,1.9Z"></path><path class="st10" d="M205.3,870.1c9.2,11.7,18.6,23.2,28.4,34.5l.9,2c.7.9.5,2-.8,3.1.2,2.3-.2,4.3-1,6.1-1.1.2-4.7-4.2-5.4-5.4-12.4-12.2-23.1-25.9-34.1-39.4,2.6-1.6,7.8-1.3,9.1-4.3.9,1.1,2,2.2,2.9,3.4Z"></path><path class="st42" d="M303.2,967.6c-.8-.6-2.3-1.2-3.4-1.9-8.8-4.5-16.9-11.4-24.4-17.9s-1.1-1.1-1.6-1.7-.9-1.3-1.3-2c-.7-.3-1.5-.6-2.2-1s-1.4-.8-1.9-1.3c-9.1-8.2-17.7-16.9-26.1-25.8s-.9-1.2-1.3-1.9-.8-1.4-1.1-2.1c-.8-1.4-1-2.6-.5-3.4,20,21.1,41.3,40.8,63.8,59Z"></path><path class="st15" d="M239.4,908.5c.4,1.3,1.3,2,.5,3.4-2.1,0-5.4-3.2-5.3-5.3-5.1-5.7-10-11.6-14.9-17.5-5-6.1-10-12.4-14.4-18.9,10.6,13,22.5,26.2,34.1,38.4Z"></path><path class="st138" d="M433.3,1037.7c0,2,.1,4,0,5.9s-.2,3.6-1.4,4.1c-11-3.1-20.5-6.3-31.2-10.6.4-2.7.5-5.9.3-9.6l.7-1c10.3,4.1,21,8,31.7,11Z"></path><path class="st65" d="M384.8,1019.4c1.1.4,2.2.5,3.4,1,4.3,1.7,8.9,4.5,13.4,6.2,1,2.8.3,6,0,8.9s.6,1.9-.9,1.7c-10.1-4-18.7-8.1-28.3-13-.4-1.3-.3-7.4,1.1-7.7s.5,0,.8,0l1.7-.5,8.9,3.4Z"></path><path class="st112" d="M345.5,1005c1.3.1,2.7.2,4,.7,7.2,2.9,14.3,5.7,21.5,8.6s2.3,1.3,3.4,2.2c-2,2.1,0,5.4-1.9,7.7-10.4-5.3-20.2-10.5-30.2-16.6-8.1-5-16.2-10.1-23.6-16,8.6,5.2,17.8,9.3,26.9,13.4Z"></path><path class="st32" d="M818.1,520.7c-.8,13.2-5.7,31.3-8.6,44.6-.8-.5-.5-1.8-.5-2.6-.2-15.5-1.8-33.7-1-48.7.8-14.7,5.1-30.5,6.2-45.6,1.1.3.9,1.3,1,2.1,1.3,15.4,3.8,35.1,2.9,50.2Z"></path><path class="st100" d="M649.2,917.7c22.5-28.5,43.5-59.6,62.4-90.7l-1.4,3.7c-17,31.1-37.8,58.6-59.7,86.2s-1,1.8-1.3.8Z"></path><path class="st136" d="M734.1,787.1c-1.5,2.7-2.8,5.5-4.3,8.2-.6.6-.8.4-.5-.5,1.4-2.7,3-5.4,4.3-8.2l.5.5Z"></path><path class="st113" d="M631.4,938.8c-1.6,1.8-3.3,3.5-4.8,5.3l-.5-.5c1.3-1.3,2.5-2.8,3.8-4.1s1.2-1.7,1.4-.7Z"></path><path class="st78" d="M729.8,795.3c-1,1.7-1.9,3.5-2.9,5.3-1-.3,0-1.4.2-1.9.6-1.4,1.5-2.6,2.2-3.8l.5.5Z"></path><path class="st107" d="M108.9,724.2c.8,1.4,1.6,2.8,2.4,4.3.6,1.3,1.3,2.6,1.9,3.8.5,1.2,1,2.3,1.4,3.4,4.1,9.1,8.6,18.3,12.5,27.4-1.2.3-2.6.6-3.6,1.4s-1.6,4.2-2.6,1.9c-8.3-14.1-16.4-28.2-24-42.7l2.6,3.8c1.8-1.6.7-4.5,1.4-6.2s3.8-2,4.1-3.8c1.2,2.2,2.6,4.4,3.8,6.7Z"></path><path class="st7" d="M474.5,1045.3v.5c-.3,0-.6,0-1,0,.1-.5.6-.4,1-.5Z"></path><path class="st124" d="M384.8,1019.4c-3.4-1.1-7.1-1.7-10.6-2.9-9.9-3.4-19.3-7.2-28.8-11.5,0-2.4-.3-4.9.5-7.2,12.6,7.8,25.8,14.6,38.9,21.6Z"></path><path class="st118" d="M111.3,728.5c-1.1-1.2-1.7-2.9-2.4-4.3h.5c.6,1.4,1.3,2.9,1.9,4.3Z"></path><path class="st53" d="M115.1,735.7h-.5c-.4-1-1.5-2-1.4-3.4.5,1,1.3,2.2,1.9,3.4Z"></path><path class="st22" d="M86.3,662.3c0,0-.3-.5-.5-1l.5,1Z"></path><path class="st22" d="M86.8,663.7c0,0-.3-.4-.5-1l.5,1Z"></path><path class="st107" d="M127.6,764.1c-.2-.1-.4-.3-.5-.5.2.1.4.3.5.5Z"></path><path class="st89" d="M70.5,586.9c.9,10.4,3.6,24.1,3.4,34.1s.4,2-.5,1.9c-.7-4.1-2.2-8.1-3.4-12s0-.7,0-1l-.5-1c-1.3-6.8-3.5-13.4-4.8-20.2-1-2.2,5.2-4.4,5.8-1.9Z"></path><path class="st22" d="M74.8,624.9c-.8-.4-.5-1.6-.5-2.4.3,1.1.4,1.2.5,2.4Z"></path><path class="st22" d="M75.8,633.5c-.1.4-.3.4-.5,0,0-.6,0-1.3,0-1.9s0-.3,0-.5c.8.4.5,1.6.5,2.4Z"></path><path class="st27" d="M75.8,635.4c0-.3-.4-1-.5-1.9h.5c0,.6,0,1.3,0,1.9Z"></path><path class="st88" d="M170.3,94.9l.5-.5c-.2.1-.3.4-.5.5Z"></path><path class="st50" d="M359.9,40.7c-2.4,0-5.5.4-7.7-.5,2.4,0,5.5-.4,7.7.5Z"></path><path class="st50" d="M367,41.2c-1.7,0-4,.4-5.3-.5,1.7,0,4-.4,5.3.5Z"></path><path class="st50" d="M373.3,41.7c-1.4,0-3.4.4-4.3-.5,1.4,0,3.4-.4,4.3.5Z"></path><path class="st50" d="M378.6,42.1c-1.2-.2-3,.5-3.8-.5,1.5,0,2.7.4,3.8.5Z"></path><path class="st105" d="M265.3,54.1c-.5,0-1.2.3-1.9.5l1.9-.5Z"></path><path class="st105" d="M262.9,54.6l-1.9.5c.5,0,1.2-.3,1.9-.5Z"></path><path class="st105" d="M260.5,55.1l-1.9.5c.5-.1,1.2-.3,1.9-.5Z"></path><path class="st111" d="M51.3,349.3c0-1.8-.4-4.3.5-5.8-.1,1.8.5,4.3-.5,5.8Z"></path><path class="st30" d="M52.8,447.3c-.9-.9-.5-3-.5-4.3.9,1,.4,2.9.5,4.3Z"></path><path class="st117" d="M84.9,194.3l-.5-.2c-.3-1.4.4-1.2,1.4-1.7-.3.7-.7,1.4-1,1.9Z"></path><path class="st75" d="M56.6,297.5l.5-1.9c-.1.8-.4,1.6-.5,1.9Z"></path><path class="st123" d="M66.2,250l.5-1.4c-.2.6-.4,1.2-.5,1.4Z"></path><path class="st123" d="M65.7,251.9l.5-1.4c-.2.6-.4,1.2-.5,1.4Z"></path><path class="st123" d="M65.2,253.8l.5-1.4c-.2.6-.4,1.2-.5,1.4Z"></path><path class="st117" d="M82.5,200.1l1-1.9c-.3.8-.8,1.5-1,1.9Z"></path><path class="st117" d="M81.5,202.5l.5-1c-.2.4-.4.8-.5,1Z"></path><path class="st117" d="M83.5,197.7l1-1.9c-.3.8-.8,1.5-1,1.9Z"></path><path class="st123" d="M66.7,248.1l.5-1c-.2.7-.5.9-.5,1Z"></path><path class="st123" d="M67.2,246.1l.5-1c-.2.7-.5.9-.5,1Z"></path><path class="st87" d="M60.4,570.6c.3-2,4.9-3.2,6.7-3.6s1.3-.4,1.9.8c.5,6.4.9,12.8,1.4,19.2-1.6-.7-4.7.5-5.8,1.9h-.5c-1.3-6.1-2.5-12.2-3.8-18.2Z"></path><path class="st58" d="M58,494.3c.5.6,1,1.3,1.1,2.1.8,3.6,1.5,8.5.8,11.9.9,5.6,1.9,11.2,2.9,16.8s0,.3,0,.5c-2.2-1.4-4.3,1.4-6.7,1-.1-14.6,0-29.1,0-43.7l1.9,11.5Z"></path><path class="st58" d="M63.3,527.9l-.5-1.4c0,0,.3.7.5,1.4Z"></path><path class="st27" d="M70,610c-.5-.1-.4-.6-.5-1,.5.1.4.6.5,1Z"></path><path class="st85" d="M419.4,47.4c2.9.3,6.2.2,9.1.5,9.9,1.1,20.3,2.8,30.2,4.3l1.9.5c.3,0,.7,0,1,0l1.9.5c.3,0,.7,0,1,0l1.9.5c.2,0,.3,0,.5,0l1.9.5c.2,0,.3,0,.5,0,2.1,2.3,2.2,3.9.5,4.8-.1,0-.3,0-.5,0l-1-.5c-.1,0-.3,0-.5,0l-1.4-.5c-.1,0-.3,0-.5,0l-1.4-.5c-.2,0-.3,0-.5,0l-1-.5c-.3,0-.6,0-1,0l-1-.5c-.3,0-.6,0-1,0l-1-.5c-7.1-.9-15.8-3.3-23-4.8s-11.2-2.9-17-3.4l.2-.5Z"></path><path class="st121" d="M640.6,119.9c.1,0,.3,0,.5,0l.5.5c6.6,4.9,15,9.7,22.1,14.4-.9,2.5-2.6,8,1.6,7.2,1.1,1.6-1.2,2.5-2.6,2.4-8.3-6.3-17.1-11.8-25.9-17.3-7.7-4.8-15.5-9.6-23.5-13.9l-.4-1c.9-2,1.2-4.2.9-6.6l1-.6c8.7,4.8,17.4,9.8,25.9,14.9Z"></path><path class="st103" d="M513.4,63.7c.3,2-1.8,1.8-2.5,3.5s0,3.9-1.8,3.7c-6.8-2.3-13.8-4.1-20.6-6.2l-1-.5c-.1,0-.3,0-.5,0-5.7-1.8-11.5-3.7-17.3-5.3.4-2,.6-3.3-1.9-2.9l1.4-1.9c14.9,2.7,29.5,5.8,44.1,9.6Z"></path><path class="st103" d="M460.6,52.7l-1.9-.5c.8.1,1.6.4,1.9.5Z"></path><path class="st103" d="M463.5,53.2l-1.9-.5c.8.1,1.6.4,1.9.5Z"></path><path class="st103" d="M466.4,53.7l-1.9-.5c.8.1,1.5.4,1.9.5Z"></path><path class="st103" d="M468.8,54.1l-1.9-.5c.8.1,1.5.4,1.9.5Z"></path><path class="st40" d="M614.6,105c0,2.7.4,5.9-1.4,8.2-12.9-6.9-26.5-12.7-39.8-18.7,1.6,0,5.9-1.4,6.2-3.1.9-5.1-3.8-.9-5.5-1.1s-.4-3.1-3.2-2c0-2.1,2.7-1.6,3.4-3.4,12.7,4.6,28.3,13.6,40.3,20.2Z"></path><path class="st40" d="M571.9,94l-1-.5c.6.2.9.5,1,.5Z"></path><path class="st40" d="M573.9,84.9c-.2,0-.4-.3-.5-.5.2.1.3.3.5.5Z"></path><path class="st40" d="M570.5,93.5l-.5-.5c.3.1.4.5.5.5Z"></path><path class="st40" d="M572.9,94.5l-.5-.5c.3,0,.4.5.5.5Z"></path><path class="st102" d="M641.5,120.4c-.2-.1-.3-.3-.5-.5.2,0,.3.3.5.5Z"></path><path class="st72" d="M240.6,341.2c-17.5-.9-35.9.7-53.5,0v143h91.2v-103c-1.4-25.8-11-38.7-37.6-40.1ZM250.9,465h-36.2c0,0-.7-.7-.7-.7v-103.4h22.3c8.7,0,14.6,11.9,14.6,19.4v84.7Z"></path><path class="st56" d="M66.7,507.7c-2-.6-5.5,2.7-6.7.5-.7-4.6-1.6-9.2-1.9-13.9l8.6-2.9c0,5.4,0,10.9,0,16.3Z"></path><path class="st103" d="M460.1,56.5c-.4,0-.8,0-1-.5.4,0,.8,0,1,.5Z"></path><path class="st103" d="M462.1,57c-.3,0-.7,0-1,0v-.5c.4,0,.8,0,1,.5Z"></path><path class="st103" d="M465.9,58l-1.4-.5c.8.1,1.2.4,1.4.5Z"></path><path class="st103" d="M467.8,58.5l-1.4-.5c.6.2,1.1.4,1.4.5Z"></path><path class="st103" d="M469.3,58.9l-1-.5c.6.2.9.5,1,.5Z"></path><path class="st103" d="M464,57.5l-1-.5c.8,0,.9.5,1,.5Z"></path><path class="st110" d="M488.4,64.7l-1-.5c.5.2.9.5,1,.5Z"></path><path class="st79" d="M299.9,965.7c-1.2,3.3-1,6.6-1,10.1l-2.4-.5c-10.1-8-19.7-16.3-29.3-25v-1.1c3.4-.6,4.8-2,4.4-4.4l.9-.7c8.7,7.6,18,14.7,27.4,21.6Z"></path><path class="st43" d="M239.9,911.9c10.4,11.2,21.1,22.1,32.6,32.2.9,5.1-1.7,4.6-5.3,6.2-13.4-12.1-26.4-24.6-38.6-37.9-.5-.6-1.2-1-1.2-1.9.7.7,4.2,4.8,4.6,4.8,1.1,0,.6-4.6.9-5.8s1.7-1.6,1.7-2.9c1.6,1.7,3.7,3.6,5.3,5.3Z"></path></svg>