<svg xmlns="http://www.w3.org/2000/svg" xmlns:xlink="http://www.w3.org/1999/xlink" id="Layer_1" viewBox="0 0 1103.9 290.7"><defs><style>      .st0 {        fill: url(#linear-gradient);      }      .st1 {        fill: #22a657;      }      .st2 {        fill: #fff;      }    </style><linearGradient id="linear-gradient" x1="445.6" y1="174.7" x2="680.7" y2="174.7" gradientUnits="userSpaceOnUse"><stop offset="0" stop-color="#22a657"></stop><stop offset="1" stop-color="#1db2d2"></stop></linearGradient></defs><g><path class="st2" d="M607.7,144.6c0,1.8-.1,3.6-.2,5.4.5-.7,1.1-1.3,1.7-2l16.6-17.2-1.3-1.2-4.8-3.1c-.4-.2-.9-.4-1.3-.5-1-.4-1.9-.8-2.7-1.1-2.3-.7-4.5-1.7-6.6-2.9-.1.3-.3.6-.5,1l-.3,2.2c-.2,2-.4,3.9-.7,6l-.2,1.7v10.4c0,0,0,.2,0,.2h0c0,.4,0,.8,0,1.2Z"></path><path class="st2" d="M509.3,122.1c.1,0,.2,0,.3,0,3.4.5,5.9,1.1,8.4,1.7l9.6,2.3c.4,0,.7,0,1.1.1,1.1.1,2.3.3,3.5.4,5,.5,8.8,1.7,12,4l8.1,4.4,3.5,1.2v-.4c.1,0,1.1-7,1.1-7v-4.6c0,0,0-.1,0-.1h0c0-.1.1-2.5.1-2.5-.4-.8-.7-1.5-1.1-2.2-3.8-.6-7.6-1.9-10.9-4l-2.8-1.7c-.5,0-.9,0-1.4,0-.9,0-1.7,0-2.6-.1-1.6,0-3.2-.2-4.8-.3-1,0-2.7-.2-3.7-.4l-13.1-2.4h-.1s-.1,0-.1,0c-2.1-.5-4.4-2.5-4.8-5.2h0c0-.1,0-.2,0-.2v-1.1c-.6-1.4-.4-2.7-.3-3.4,0-.6.3-1.4.5-2.1.1-.3.2-.7.3-1.1.1-.5.3-1,.4-1.5l-9.7-5.9-8.3-5.1,3.6,9.1,11.2,28.4Z"></path><path class="st2" d="M615.4,98.7l1.9,1.5c.9.5,1.7,1.3,2.8,2.4.2.2.4.4.5.4,1.3,1.1,2.6,2.2,3.9,3.4,3,2.6,6.1,5.3,9.2,7.9,1.1.9,2.3,1.6,3.4,2,.7.2,1.3.5,2,.8l16.5-17.3h0c0,.1,94.4-99.4,94.4-99.4l-2.7.2-37.2,24.8h-.1s-67.7,45-67.7,45l-33.2,22.6c2.5,1.7,4.7,3.8,6.4,5.8Z"></path><path class="st2" d="M537.8,207.2c2.6-3.4,5.4-6.9,8-10.2,1.3-1.7,2.7-3.3,4-5l1.4-1.8,2.6-5.3c.6-1.6,1.2-3.1,1.9-4.5.3-.7.6-1.3.9-2l-.3-2.6-.4-3c-6.2-5.9-12.8-11.8-20.5-16-1.9-1-4-2.5-5.9-3.8-.4-.3-.8-.5-1.2-.8h-8.6s-1.1,0-1.1,0c-.2,6.8-2.8,13.5-7.5,18.8l-49.6,55.5-57.7,64.5,72-45,61.9-38.7s0,0,0,0Z"></path><path class="st2" d="M633.9,236.8l-21-39.7-8.3-14.5c-.2-.4-.5-.9-.7-1.3l-.5,1c0,0,0,.2-.1.3h0s0,0,0,0l-.2.5h0c0,0,0,.2,0,.2l-3.4,6.9h0c0,0,0,.2,0,.2-3,5.6-6.9,11.7-14.9,13.9,0,0-.2,0-.5.3-.9.7-1.9,1.1-2.9,1.3l-.6.5-.5.4-.6.3c-1.8.8-3.2,2.5-4.7,4.5l16.2,13.4h0l2.7,2.2,45.2,35h0l14.6,11.3-19.5-36.9h0Z"></path><g><path class="st0" d="M680.6,160.9c-.2-.4-2.4-2-4.2-3.4h0,0c-1.1-.8-2-1.4-2.5-1.8-.6-.5-1.1-.8-1.6-1.1l-3.5-2.5-.7-.5c-.2-.4-.6-.9-1.3-1.5-3.8-2.5-8.4-5.6-11.7-9.3l-1-1.2c-.4-.5-.8-1.1-1.2-1.6-.7-.9-2.1-2.5-2.2-2.4l-6.1-6.7c-.5-.8-.9-1.3-1-1.5-1.9-3.1-4.5-5.4-8-6.5-1.8-.6-3.5-1.6-5-2.8-4.5-3.7-8.8-7.5-13.2-11.3-.4-.4-2.6-2.5-2.8-2.4l-2.7-2.2h0c-3.9-5-11.5-10.1-18.6-8.9l-3.2.6c-.8-.4-3.4-1.5-3.5-1.4l-2.1-1.2.6-2.8c.3-.7.5-1.6.4-2.5l1.1-2.6c.2-.3.4-.7.5-1.2.6-2.6,1.6-5.2,1.6-7.8,0-3.6-1.5-6.7-4.8-8.8-4.1-2.7-8.2-3.2-12.8-1.8-3.1.9-6.1,4.7-6,7.9l-.9,3.2-2.7,6h0c-.2.5-.4.9-.6,1.4,0,0,0,0,0,0l-.5,1.3c.4,3.4.8,6.8,1.2,10.2h0c0,0-1.8.3-1.8.3l-1-1.2c-.6-.1-1.3-.2-1.9-.1h-.5s-5.3,1.3-5.3,1.3c-1.4,0-2.7.2-3.9.1-2.3-.1-4.6-.3-6.9-.6-.4,0-.7,0-1,0l-3.8-.3h0c.3-1.1.5-2.1.7-3.1.6-3.2,1.2-6.3,4-8.5l1.1-2.4c.1-.2.3-.4.3-.7.5-2.3,2-3.1,4.3-3,1,0,2-.4,3-.9-.6-.4-1.3-.7-1.9-.9l-2.1-1.7c.3-.2.5-1.2.3-1.7l2.8,2h0c.2.2.5.4.8.3.6-.2.8-.5.9-.8h0s1.7.5,1.7.5c0,0,.1,0,.2,0,.3,0,.5,0,.8-.1,1-.3.3-2.7-.1-3.7-.4-.9-.9-1.7-1.3-2.6h0s1.5,0,1.5,0c0,0,.2,0,.2,0,.2-.7.2-1.3,0-1.8h0s0,0,0,0c-.2-.7-.5-1.3-.8-1.6h0c-.2-.2-.3-.3-.4-.2-.2,0-1.1,0-1.1.3l-1.9-.5c-.3-.5-1.2-.7-1.8-.8-.4,0-.8.6-1.3,1l-2.3-.6h0c-.2,0-.5,0-.9.2l-.7.7-1.6,1.9c-1.6,1.2-2.8,2.7-3.2,4.7-.5,2.5-.8,5.2-1.8,7.5-.9,1.9-2.6,3.5-4.1,5.1-4.1,4.4-8.4,8.5-12.3,13-.2.3-.4.6-.6.9h0s0,0,0,0c-.6,1.2-.9,2.7-1.4,4.1-.2.5-.6,2.6-.1,2.4l.2,2.2c0,.4.6,1,1.1,1.1l13.1,2.5c.7.1,2.4.3,3.1.3,2.5.2,4.9.3,7.4.4,4.4.2,8.9.5,13.3.8h0s0,0,0,0c.4,0,.7,0,1.1,0,0,0,0,0,0,0h1.6c.2.7.4,1.3.7,2,1.3,3.1,2.7,6.1,4.2,9.1h0s-.2,3.7-.2,3.7v4.9c0,0-1.1,7.7-1.1,7.7l-1.1,3.4v2.6c-.5-.2-.9-.3-1.4-.5l-8-2.9-8.8-4.7c-2.8-2.1-6.3-2.9-9.8-3.2-1.8-.2-3.5-.4-5-.5l-10-2.3h0c-2.6-.7-5.2-1.2-7.9-1.7-2.7-.4-5.4-.4-8.1-.5-3.3-.2-6.6-.3-9.8-.4l-9.8-1.6-2.8-.4-1.2-.4c-.6-.2-1.3-.4-1.9-.6l-2.8-.6h0c-.6-.3-1.2-.5-2-.7-2.6-.5-5.2-1.1-7.9-1.4l-4-.5c-1.4-1-3-1.9-4.6-2.7-.8-.4-2.2-1-3-1.3h-.1c-.1,0-.3,0-.3,0h-4.1c-1.9,0-.2,2.5.5,3.6,2.1,3.4,5.4,7,9.3,9.1h0s10,6,10,6c1.7,3.3,5.7,6.6,8.9,8.3.7.4,1.5,1,2.4.7,0,0,.2-.1.2-.2l1.6-1.5,2.6-1.7c.3-.3.5-.5.6-.8l2.7-3.4h0c.9.5,2,.5,3.3.3,4.9-.7,9.1,1.3,12.9,4,5.3,3.8,11.3,5.4,17.5,6.8.3,0,.5,0,.8.1h0s10.1,0,10.1,0c2.4,1.5,5.5,3.8,8,5.2,8.7,4.9,16.1,11.6,23.2,18.4.4.4.9.9,1.3,1.4l-.7,2.6-.5.3.5,3.9c-1.1,2.7-2.3,5.2-3.3,7.8l-3,6c-.8.9-1.2,1.6-1.7,2.2-4.5,5.7-9.2,11.4-13.6,17.2-2.3,3.1-4.6,6.3-6.1,9.8-1.3,2.9-2.4,5.5-2.1,9.5,0,.7.4,1.5.7,2.8l3.8,3.9h0c.3.4.7.8,1.2,1.1,5.4,3.1,10.9,6.1,16.3,9.1,5,2.8,10.6,3.9,16.2,5.1,4.1.8,8.1,1.9,12,3.3,2.7,1,5.1,2.9,7.8,4.6l.9,1.6h0c-1.1,2.1-1.4,4.6-.1,6.8,2.7,4.6,3.9,9.5,4.3,15.1,0,.9.8,2.1,2.2,3.1l1.6-1.9c2-3,3.8-9.5,4-13.7h0c0-.1.6-10.5.6-10.5.9-3.5,2.9-6.8,2.6-10.7l-.6-1c-.5-.7-1.3-1-1.9-1-3-.1-6,0-9.4,0l-.9.2c-3.3-1.2-6.9-1.9-9.8-3.5-4-2.3-7.8-5-11.1-8.1-4.5-4.3-9.4-7.1-15.7-7.2-2,0-3.9-.5-6.1-.7l10.1-8.8c2.7-3.1,5.5-6.1,7.9-9.3,2.6-3.4,4.9-7.1,8.8-8.9l1.9-1.6h0c.5.2,1.2.1,1.8-.4.6-.4,1.3-.8,2-1,6-1.7,9.1-6.4,11.9-11.5l3.4-6.9.2-.5c0,0,0-.2.1-.3l2.6-5.7c.2,0,.9-8.5,1-12.8.1-5.9,0-11.7.3-17.6,0-.4,0-.7,0-1.1h0s0-10.7,0-10.7c.3-2.9.6-5.4.9-8l.4-3.3c1.1-1.6,1.4-3.3,1.2-4.8v-.3c0,0,1.5-2.8,1.5-2.8h0c2.7,3.1,6.2,5.5,10.5,6.8,1.6.5,3.1,1.3,4.8,1.9l5.6,3.6,10.1,9.7,10,8.2h0s7.4,6.6,7.4,6.6l.7,1.4c-1,.9-1.5,1.7-1.6,2.5h0s0,0,0,0l-.4,3s-.2,4.4-2.3,7.5c-1.1,1.6.7.7.7.7,2.1-1.1,4-4,3.6-6.2l1.6-1.2c.4.4.7.8,1,1.2,2.3,3.4,4.5,6.8,6.9,10.2.5.8.7,1.3,1.5,1.9.2.2,1.2,0,1.2-.5-.7-1.4-1.5-2.9-2.3-4.3-.9-1.6-1.9-3.3-2.8-4.9-.2-.4-.4-.8-.5-1.2l1.7-1c3.4,3.3,6.7,6.4,9.8,10,.5.5,1.1.2,1-.2-1.3-3.2-4.1-6.7-6.3-8.8,4.1.5,6.7,3.5,9.7,5.9,1.8-.3-2.6-4.3-7.6-8.7,2.7-.3,8.2,2.8,9.1,4,.5,0,.8-.1.6-.6Z"></path><g><path class="st1" d="M448.1,84.7c0,.2-.2.7-.4,1.1,1.2-.7,2.5-1.5,3.8-2.4-.4,0-3.4,1.2-3.4,1.2Z"></path><path class="st1" d="M447,77.2c-.2-.2-.4-.4-.7-.6-2.1,1.4-5.2,3.2-9.5,5.6,1.4,1,3.7,2.4,3.7,2.4,1.9-.7,3.8-1.5,5.6-2.2.3-.5.9-5.2.9-5.2Z"></path><path class="st1" d="M436.5,61c-11.8,0-21.4,9.8-21.4,21.8s9.6,21.8,21.4,21.8,21.4-9.8,21.4-21.8-9.6-21.8-21.4-21.8ZM454.2,83.4s-.2.3-1,1c.4,3,.6,10.8-9.6,14.9,0-.1-.7.1-1.7.3-2.6.6-7.4,1.1-9.7-3.9-4.5,1.2-7.5,1-7.8.3,0,0,0,0,0,0-.4-.4-1.8-2-1.8-2,0,0-1.1-.8,8.6-5.3,0,0,.2-2.4.4-4.1-1.4.5-3.1,1.1-4.7,1.4-3.6.8-7.2.8-7.3-.2,0,0,0,0,0,0v-2.9c-.1,0-.5-.8,6.1-4.8,0,0-5.8-5.1.9-9.6-1.9,1.5-3.4,4.1,2.1,8,0,0,5-2.3,5.3-2.4,0,0,1-3.6.9-3.9,0,0-6.9-2.4-5.8-3.1,0,0-.2,0-.5.2.4-.2.9-.4,1.4-.6,0,0,.6-.2,1.5-.4-.8.3-1.6.6-1.6.6,0,0,5.3,1.5,5.4,1.5,0,0,.3-2.3-1.6-2.3,0,0-.3,0-.6,0,1.3-.2,3-.4,4.8-.4h0c3.4,0,7.4.7,10.2,4.3,0,0,1-.2,1.5.2,0,0,1.4,1.5,1.7,2,.2,0,.5.5-1.7,2.2,0,.7.1,1.4.1,1.9,0,0,1.7,1.9,2.7,4,0,0,1.8-.5,1.9.1,0,0,.2,2.1.1,2.8,0,0,0,0,0,0h0Z"></path><path class="st1" d="M436,79.3c2.3-1.2,5.6-3,8-4.5-.9-.6-1.6-1-1.6-1-.5,0-5.7,2-5.7,2.1,0,.1-.4,1.9-.7,3.4Z"></path><path class="st1" d="M449.2,79.6c0,.2-.3,1.8-.3,1.8.5-.2.9-.3,1.3-.5,0-.1-1-1.3-1-1.3Z"></path><path class="st1" d="M422.2,83.3c.2,0,.4,0,.7,0,1.3,0,3.5,0,7.4-1.4-1.1-.8-2.5-1.8-2.6-2-.2,0-3.2,1.7-5.5,3.3Z"></path><path class="st1" d="M427,93.9c1.2,0,2.6-.3,4.5-.7,0-.4-.2-.9-.2-1.4,0,0-2.3,1.1-4.2,2.1Z"></path><path class="st1" d="M432.5,79.4c.2-.6.3-1.3.5-1.9-.7.3-1.3.6-2,.9,0,0,1.4,1,1.5,1Z"></path><path class="st1" d="M437.3,72.9s1.9-.7,2-.7c0,0-1.6-.8-1.7-.8,0,.5-.2,1-.2,1.4Z"></path><path class="st1" d="M444.5,87.6c0-.2.6-1.8.6-1.8-.2,0-1.9.8-1.9.8.2.1,1.2,1,1.3,1.1,0,0,0,0,0,0Z"></path><path class="st1" d="M443.4,90.8s0,0,0,0c-.2.1-.4.3-.7.4-2.9,1.7-5.7,3-8.2,3.8.5,2.3,1.9,4.7,5.2,4.7s.3,0,.5,0c.9,0,1.9-.1,3.1-.4,0-.3-3.5,1.3.1-8.4Z"></path><path class="st1" d="M443.9,99.1c0,0-.1,0-.2,0,0,0,0,0,.2,0Z"></path><path class="st1" d="M445.2,92.5c-3.1,6.8-2,6.6-1.7,6.7h0c5.6-2.4,1.6-6.7,1.6-6.7Z"></path><path class="st1" d="M446.7,88.8c-.2.5-.3.8-.3.8,4.1,5.2,0,8.2-1.9,9.2,8.6-4.1,8.2-10.5,7.5-13.5-1.1.9-2.9,2-5.4,3.6Z"></path><path class="st1" d="M437.7,69.3c.9.2,4.7,1.9,4.7,1.9.4-.2,3.7-1,3.7-1-2-4.7-7.9-4.6-10.2-4.4-.4,0-.7,0-.8,0,2.7.3,2.6,3.3,2.6,3.4Z"></path><path class="st1" d="M445.4,73c.3.2.5.4.8.6.3-.2.5-.3.6-.5,0,0,0,0,0,0,0-.2,0-.4,0-.4,0,0-.3,0-.6.2-.3,0-.7.2-.8.2h0Z"></path><path class="st1" d="M436.6,86.1c-.6-.3-1.1-.7-1.7-1.1-.1.7-.2,1.3-.3,1.9h0c.2,0,2-.9,2-.9Z"></path><path class="st1" d="M439.6,88.1s-5.1,2.1-5.3,2.3c0,0,0,.9,0,1.9,2-.7,4.4-1.7,7.1-3-.8-.6-1.5-1.1-1.8-1.2Z"></path></g></g></g><g><path class="st2" d="M75.5,216.8l6.6-62.3c1.3-11.8.8-20.9-1.3-27.4-2.1-6.5-6.2-11.1-12.4-13.9-6.2-2.8-15.2-4.2-27.2-4.2H3.4L0,140.7h37.9c3.6,0,6.4.4,8.3,1.1,1.9.8,3.2,2.2,3.9,4.2.7,2,.8,4.8.5,8.4l-6.6,62.3h31.5Z"></path><path class="st2" d="M107.9,218.1c19.8-1,36-4.3,48.4-10.1,12.4-5.8,22.1-14.6,29-26.5,6.9-11.9,11.6-27.6,14.1-47.2l3.3-25.2h-33.1l-2.6,22.3c-1.2,10.1-2.4,18.1-3.7,23.9-1.2,5.8-3.1,10.7-5.6,14.8-2.5,4.1-6.1,7.3-10.6,9.7-6.4-24.3-10.8-47.9-13.1-70.7h-34.8l-.3,3.1c4.2,25.7,10.3,50.4,18.4,74.2-2.4.3-5.9.5-10.5.6l-14.5.8-1.4,31.1,17.2-.8Z"></path><polygon class="st2" points="244.3 216.8 255.8 109 209.5 109 206.2 140.7 220.8 140.7 212.7 216.8 244.3 216.8"></polygon><path class="st2" d="M301.3,207.2c7.5-6.9,12-17.4,13.5-31.5l7.1-66.7h-52.7l-3.4,31.7h21.1l-3.3,31.1c-.5,4.4-1.7,7.9-3.6,10.4-1.9,2.5-5.8,3.8-11.4,3.8-3.3-.1-6.6-.3-10-.4l-4.6,31.3c5.1.6,10,.8,14.7.8,14.3,0,25.2-3.5,32.7-10.4Z"></path><polygon class="st2" points="421.5 124.9 423.2 109 362.5 109 365 85.5 333.1 85.5 327.3 140.7 381.3 140.7 345.3 212 344.8 216.8 379.6 216.8 421.5 124.9"></polygon></g><g><path class="st2" d="M695.2,214.1l28.1-89.8h-31.8l3.7-35.2h17.4l-2.1,19.6h31.4l-1.4,12.8-28.5,95h-17.2l.2-2.3Z"></path><path class="st2" d="M737.5,200.8h10l.2-92.2h17.8l-1.3,92.2h3.8c3.4,0,6.1-1,8-2.9,1.9-1.9,3-4.7,3.4-8.3l8.6-81h17.4l-8.5,80c-.9,8.7-4.1,15.6-9.4,20.5-5.3,4.9-12.3,7.4-21,7.4h-30.6l1.7-15.6Z"></path><path class="st2" d="M851.3,124.2h-39.5l1.7-15.6h56.9l-11.5,107.8h-17.4l9.8-92.2ZM811.7,146.7h17.6l-7.4,69.7h-17.6l7.4-69.7Z"></path><path class="st2" d="M890.9,200.8h11.3l8.1-76.5h-8.3l1.7-15.6h35.7c8.7,0,15.2,2.5,19.6,7.4,4.4,4.9,6.1,11.7,5.2,20.5l-8.5,80h-17.6l8.6-81c.4-3.6-.1-6.3-1.6-8.3-1.4-1.9-3.9-2.9-7.4-2.9h-9.8l-9.8,92.2h-28.9l1.7-15.6Z"></path><path class="st2" d="M977.8,196.2c4.3-2.6,8-6.3,11-11-.2-8.9,0-18.7.4-29.4.4-10.7,1.2-21.2,2.3-31.5h-17.6l1.7-15.6h34c-2.2,20.7-3.5,39.3-4,55.8-.4,16.5,0,33.8,1.4,52h-16.3c-.3-4.1-.6-7.5-.8-10.2-.2-1.9-.3-3.8-.4-5.6-3,4.9-7,8.8-11.9,11.7-4.9,2.9-10.3,4.5-16.1,4.9l1.8-16.5c5.3-.4,10.2-1.8,14.5-4.4Z"></path><path class="st2" d="M1028.5,124.2h-9.3l1.7-15.6h26.7l-7.4,69.2h-17.4l5.7-53.5Z"></path><path class="st2" d="M1057.2,214.1l28.1-89.8h-31.8l3.7-35.2h17.4l-2.1,19.6h31.4l-1.4,12.8-28.5,95h-17.2l.2-2.3Z"></path></g></svg>